<?xml version="1.0" encoding="UTF-8"?>
<svg id="_图层_1" data-name="图层 1" xmlns="http://www.w3.org/2000/svg" xmlns:xlink="http://www.w3.org/1999/xlink" viewBox="0 0 1338.96 849.86">
  <defs>
    <style>
      .cls-1, .cls-2, .cls-3, .cls-4 {
        fill: none;
      }

      .cls-5 {
        clip-path: url(#clippath);
      }

      .cls-6 {
        clip-path: url(#clippath-4);
      }

      .cls-7 {
        clip-path: url(#clippath-3);
      }

      .cls-8 {
        clip-path: url(#clippath-2);
      }

      .cls-9 {
        clip-path: url(#clippath-7);
      }

      .cls-10 {
        clip-path: url(#clippath-8);
      }

      .cls-11 {
        clip-path: url(#clippath-6);
      }

      .cls-12 {
        clip-path: url(#clippath-5);
      }

      .cls-13 {
        clip-path: url(#clippath-9);
      }

      .cls-14 {
        clip-path: url(#clippath-12);
      }

      .cls-15 {
        clip-path: url(#clippath-10);
      }

      .cls-16 {
        clip-path: url(#clippath-11);
      }

      .cls-2 {
        stroke-width: 1.88px;
      }

      .cls-2, .cls-3, .cls-4 {
        stroke: #000;
        stroke-linecap: round;
        stroke-linejoin: round;
      }

      .cls-3 {
        stroke-width: 1.88px;
      }

      .cls-17 {
        opacity: .24;
      }

      .cls-4 {
        stroke-width: 4.4px;
      }

      .cls-18 {
        fill-rule: evenodd;
      }
    </style>
    <clipPath id="clippath">
      <rect class="cls-1" width="1338.96" height="765.96"/>
    </clipPath>
    <clipPath id="clippath-2">
      <rect class="cls-1" x="0" y="7.4" width="1337.6" height="758.56"/>
    </clipPath>
    <clipPath id="clippath-3">
      <rect class="cls-1" y="7.38" width="1337.63" height="765.21"/>
    </clipPath>
    <clipPath id="clippath-4">
      <rect class="cls-1" x="314.59" y="620.59" width="131.73" height="114.26"/>
    </clipPath>
    <clipPath id="clippath-5">
      <rect class="cls-1" x="907.97" y="668.84" width="26.29" height="30.62"/>
    </clipPath>
    <clipPath id="clippath-6">
      <rect class="cls-1" x="146.22" y="380.52" width="224.21" height="122.85"/>
    </clipPath>
    <clipPath id="clippath-7">
      <rect class="cls-1" x="1000.23" y="380.52" width="224.21" height="122.85"/>
    </clipPath>
    <clipPath id="clippath-8">
      <rect class="cls-1" x="538.73" y="273.38" width="224.21" height="122.85"/>
    </clipPath>
    <clipPath id="clippath-9">
      <rect class="cls-1" x="1227.11" y="700.66" width="30.76" height="30.62"/>
    </clipPath>
    <clipPath id="clippath-10">
      <rect class="cls-1" x="520.51" y="96.73" width="105.37" height="52.77"/>
    </clipPath>
    <clipPath id="clippath-11">
      <rect class="cls-1" x="354.42" y="281.92" width="48.18" height="48.71"/>
    </clipPath>
    <clipPath id="clippath-12">
      <rect class="cls-1" x="889.51" y="181.52" width="48.18" height="48.71"/>
    </clipPath>
  </defs>
  <g class="cls-5">
    <g class="cls-8">
      <g class="cls-7">
        <rect class="cls-17" x="76.47" y="332.43" width="334.96" height="313.59"/>
        <rect class="cls-17" x="918.6" y="238.33" width="312.11" height="406.86"/>
        <path d="M1295.76,646.02l-46.15-13.19v26.37l46.15-13.19Zm-1258.92-1.65H1249.65v3.29H36.84c-.91,0-1.65-.74-1.65-1.65s.74-1.65,1.65-1.65Z"/>
        <path d="M666.31,75.69l-13.19,46.15h26.37l-13.19-46.15Zm-1.65,772.52V121.8h3.3V848.21c0,.91-.74,1.65-1.65,1.65s-1.65-.73-1.65-1.65Z"/>
        <line class="cls-4" x1="411.43" y1="332.43" x2="411.43" y2="646.02"/>
        <line class="cls-4" x1="918.6" y1="238.33" x2="918.6" y2="646.02"/>
        <g class="cls-6">
          <line class="cls-3" x1="367.31" y1="674.96" x2="387.76" y2="674.96"/>
          <path class="cls-18" d="M415.9,673.65c-.06-.28-.12-.56-.17-.86-.05-.3-.12-.59-.21-.89-.25-.72-.61-1.32-1.08-1.81-.47-.48-1.05-.72-1.77-.73-.66,0-1.32,.24-1.97,.71-.65,.48-1.24,1.09-1.78,1.84-.76,1.06-1.33,2.16-1.71,3.3-.38,1.14-.73,2.34-1.04,3.58-.32,1.23-.58,2.42-.78,3.57-.12,.58-.19,1.14-.19,1.66,0,.55,.06,1.09,.19,1.61,.14,.72,.4,1.32,.77,1.79,.37,.47,.89,.7,1.55,.7,.73,0,1.46-.25,2.19-.76,.73-.51,1.42-1.13,2.05-1.87,.25-.3,.49-.6,.72-.88,.23-.28,.43-.59,.6-.91l2.61-10.05Zm6.78,8.47c-.19,.75-.4,1.56-.64,2.42-.24,.86-.55,1.66-.95,2.39-.39,.74-.89,1.37-1.49,1.91-.6,.54-1.35,.8-2.25,.8-1.2,0-2.16-.33-2.88-1-.72-.67-1.13-1.35-1.24-2.04-.54,.62-1.34,1.28-2.41,1.98-1.07,.7-2.19,1.06-3.38,1.06-1.25,0-2.29-.31-3.14-.94-.85-.63-1.51-1.42-1.98-2.37-.57-1.13-.87-2.35-.9-3.66v-.34c0-1.21,.17-2.42,.5-3.64,.38-1.33,.91-2.65,1.59-3.96,.68-1.3,1.58-2.51,2.7-3.64,.92-.92,1.96-1.69,3.14-2.32,1.18-.63,2.37-.94,3.59-.94,1.06,0,1.92,.28,2.58,.84,.66,.56,1.08,1.02,1.26,1.39l-.09,.39c.11-.57,.38-1,.79-1.29,.42-.29,.84-.44,1.27-.44,.49,0,.9,.15,1.23,.44,.21,.23,.32,.54,.33,.92,0,.14-.02,.29-.05,.46l-3.41,13.3c-.16,.63-.27,1.22-.33,1.77-.03,.28-.05,.53-.05,.76,0,.2,.02,.42,.05,.64,.05,.37,.16,.65,.33,.83,.17,.18,.42,.28,.73,.27,.33,0,.64-.14,.94-.41,.29-.28,.56-.69,.81-1.23,.24-.54,.48-1.2,.7-1.96,.22-.76,.45-1.58,.69-2.47,.09-.4,.36-.6,.81-.6h.55c.41,0,.62,.17,.62,.51v.16Z"/>
        </g>
        <g class="cls-12">
          <path class="cls-18" d="M922.45,678.05c-.06-.27-.12-.56-.17-.86-.05-.3-.12-.59-.21-.89-.25-.72-.61-1.32-1.08-1.81-.47-.48-1.06-.72-1.77-.73-.66,0-1.32,.24-1.97,.72-.65,.48-1.24,1.09-1.78,1.84-.76,1.06-1.33,2.16-1.71,3.3-.38,1.14-.73,2.34-1.04,3.58-.31,1.23-.58,2.42-.78,3.57-.13,.58-.19,1.14-.19,1.66,0,.55,.06,1.09,.19,1.61,.14,.72,.4,1.32,.77,1.78,.37,.47,.89,.7,1.55,.7,.73,0,1.46-.25,2.19-.76,.73-.51,1.42-1.13,2.05-1.87,.25-.3,.49-.6,.72-.88,.23-.28,.43-.59,.6-.91l2.61-10.05Zm6.78,8.47c-.19,.75-.4,1.56-.64,2.42-.24,.86-.55,1.66-.95,2.39-.39,.74-.89,1.37-1.49,1.91-.6,.54-1.35,.8-2.25,.8-1.2,0-2.16-.33-2.88-1-.72-.67-1.13-1.35-1.24-2.04-.54,.62-1.34,1.28-2.41,1.98-1.07,.7-2.19,1.06-3.38,1.06-1.25,0-2.3-.31-3.14-.94-.85-.63-1.5-1.42-1.98-2.37-.57-1.13-.87-2.35-.9-3.66v-.35c0-1.21,.17-2.42,.5-3.63,.38-1.33,.91-2.65,1.59-3.96,.68-1.3,1.58-2.52,2.7-3.64,.92-.92,1.96-1.69,3.14-2.32,1.18-.63,2.37-.94,3.59-.94,1.06,0,1.92,.28,2.58,.84,.66,.56,1.08,1.02,1.26,1.39l-.09,.39c.11-.57,.38-1,.79-1.29,.42-.29,.84-.44,1.27-.44,.49,0,.9,.15,1.23,.44,.21,.23,.32,.54,.33,.92,0,.14-.02,.29-.05,.46l-3.41,13.3c-.16,.63-.27,1.22-.33,1.77-.03,.28-.05,.53-.05,.76,0,.2,.02,.42,.05,.64,.05,.37,.16,.65,.33,.83,.17,.18,.42,.28,.73,.27,.33,0,.64-.14,.94-.41,.29-.28,.56-.69,.81-1.23,.24-.54,.48-1.2,.7-1.96,.22-.76,.45-1.58,.69-2.47,.09-.4,.36-.6,.81-.6h.55c.41,0,.62,.17,.62,.51v.16Z"/>
        </g>
        <g class="cls-11">
          <path class="cls-18" d="M175.12,432.73c.47,.41,.78,.99,.92,1.73,.06,.46,.1,.91,.12,1.36,0,.32-.02,.66-.07,1.01-.09,.86-.24,1.73-.45,2.61-.21,.88-.41,1.69-.62,2.43-.41,1.52-1.08,3.01-2,4.48-.92,1.47-2.03,2.77-3.31,3.91s-2.68,2.07-4.2,2.78c-1.52,.71-3.03,1.07-4.55,1.07h-.55l-2.23,8.51c-.09,.43-.37,.65-.83,.67h-.24c-.41,0-.62-.18-.62-.55v-.18l2.2-8.54c-1.06-.08-2.17-.28-3.32-.6-1.15-.32-2.18-.86-3.09-1.61s-1.5-1.72-1.77-2.9c-.13-.55-.2-1.1-.21-1.63,0-.67,.09-1.36,.26-2.07,.25-1.06,.63-2.22,1.13-3.5,.5-1.27,.97-2.51,1.41-3.71,.41-1.09,.62-2.02,.62-2.78v-.35c-.05-.69-.37-1.03-.97-1.04-.57,0-1.1,.16-1.59,.49-.49,.32-.94,.76-1.36,1.31-.42,.55-.79,1.2-1.1,1.93-.32,.74-.57,1.51-.76,2.32-.17,.41-.45,.63-.83,.64h-.28c-.2,0-.36-.07-.47-.21-.11-.11-.17-.23-.17-.37,0-.06,.02-.14,.07-.23,.21-.83,.5-1.68,.89-2.56,.39-.88,.86-1.68,1.43-2.4,.57-.72,1.22-1.31,1.94-1.77,.73-.46,1.55-.69,2.46-.69,.82,0,1.54,.17,2.16,.51,.62,.34,1.09,.78,1.42,1.32,.33,.55,.53,1.17,.59,1.87v.35c0,.6-.14,1.24-.43,1.93-.46,1.18-.92,2.4-1.37,3.65-.46,1.25-.81,2.37-1.07,3.37-.19,.74-.28,1.44-.28,2.12,0,.31,.02,.62,.05,.92,.13,.92,.49,1.7,1.09,2.35,.51,.52,1.12,.93,1.84,1.21,.72,.28,1.43,.48,2.12,.59l8.1-31.45c.09-.4,.37-.6,.83-.6h.24c.41,0,.62,.17,.62,.51v.16l-8.13,31.5h.43c1.3,0,2.59-.3,3.89-.91,1.3-.61,2.49-1.42,3.59-2.45,1.1-1.03,2.07-2.19,2.9-3.5,.84-1.3,1.42-2.63,1.75-3.98,.13-.55,.19-1.08,.19-1.59,0-.55-.06-1.08-.19-1.59-.3-.97-.83-1.76-1.59-2.39-.46-.35-.69-.76-.69-1.22,0-.12,.02-.23,.05-.32,.11-.55,.38-1.04,.79-1.46,.42-.42,.92-.72,1.5-.89,.16-.03,.32-.04,.47-.05,.46,0,.87,.16,1.23,.48Z"/>
          <path class="cls-18" d="M189.05,460.26c-1.82-.05-3.6-.08-5.32-.08s-3.5,.03-5.32,.08v-1.11h1.03c.33,0,.63,0,.92-.01,.29,0,.56-.03,.82-.06,.26-.03,.48-.07,.67-.1,.16-.02,.29-.1,.4-.24,.1-.13,.16-.28,.16-.45v-14.52c-.5,.22-1.11,.38-1.83,.49s-1.52,.17-2.38,.17v-1.09c1.19,0,2.29-.13,3.29-.38,1.01-.25,1.88-.73,2.61-1.42h.46c.33,0,.49,.14,.49,.43v16.34c0,.17,.05,.32,.15,.45,.1,.13,.24,.21,.43,.23,.16,.04,.36,.07,.61,.1,.25,.03,.53,.06,.84,.06s.62,.01,.91,.01h1.07v1.11Z"/>
          <path class="cls-18" d="M208.24,464.62c0,.12-.05,.28-.14,.46-.16,.15-.34,.23-.55,.23-.28,0-.48-.05-.59-.14-1.85-1.39-3.44-2.99-4.76-4.79-1.33-1.79-2.41-3.71-3.26-5.75-.85-2.04-1.47-4.18-1.87-6.41-.4-2.23-.61-4.47-.61-6.71s.2-4.47,.61-6.7c.4-2.23,1.03-4.37,1.87-6.41,.85-2.04,1.93-3.96,3.26-5.75,1.33-1.79,2.92-3.39,4.76-4.79,.11-.09,.31-.14,.59-.14,.19,0,.37,.08,.55,.23,.09,.19,.14,.34,.14,.46,0,.19-.07,.35-.21,.51-1.53,1.4-2.83,2.97-3.9,4.71-1.07,1.74-1.93,3.59-2.58,5.53-.66,1.95-1.12,3.97-1.4,6.07-.28,2.1-.41,4.19-.41,6.28s.14,4.22,.41,6.31c.28,2.09,.74,4.1,1.4,6.05,.66,1.95,1.51,3.79,2.57,5.53,1.06,1.74,2.36,3.31,3.91,4.7,.14,.14,.21,.31,.21,.51Z"/>
          <path class="cls-18" d="M237.93,436.13c-.17,.69-.53,1.21-1.05,1.55-.53,.35-1.06,.52-1.6,.52-.55,0-1.01-.18-1.37-.53-.27-.26-.41-.6-.43-1.01,0-.17,.03-.38,.09-.64,.17-.58,.44-1.02,.81-1.32,.36-.3,.62-.47,.76-.52-.3-.23-.92-.34-1.85-.35-.82,0-1.56,.43-2.2,1.28-.65,.85-1.13,1.88-1.45,3.07l-2.18,8.42c-.22,.85-.39,1.65-.5,2.42-.06,.26-.09,.49-.09,.69,0,.48,.08,.93,.24,1.36,.16,.46,.4,.83,.71,1.11,.32,.28,.72,.41,1.21,.41,.63,0,1.24-.16,1.82-.49,.58-.33,1.12-.77,1.61-1.34,.49-.56,.92-1.21,1.3-1.96,.38-.74,.68-1.51,.9-2.29,.09-.4,.36-.6,.81-.6h.55c.41,0,.62,.16,.62,.46,0,.09-.02,.18-.07,.25-.22,.92-.58,1.83-1.08,2.73-.5,.9-1.08,1.69-1.74,2.38-.66,.69-1.42,1.26-2.26,1.7-.85,.45-1.75,.67-2.71,.67s-1.82-.21-2.54-.63c-.71-.42-1.29-.97-1.73-1.64-.14-.17-.25-.34-.33-.52-.08-.18-.1-.2-.07-.08-.38,.63-.98,1.27-1.8,1.91-.82,.64-1.77,.96-2.84,.96-.6,0-1.19-.08-1.78-.23-.58-.15-1.09-.39-1.53-.71-.43-.32-.76-.71-.98-1.18-.11-.27-.16-.57-.17-.9,0-.23,.03-.5,.09-.81,.17-.69,.53-1.21,1.07-1.55,.54-.34,1.07-.52,1.61-.52,.55,0,1.03,.18,1.42,.53,.27,.26,.4,.6,.4,1.01,0,.22-.03,.43-.09,.64-.14,.54-.4,.97-.77,1.3-.37,.33-.64,.51-.8,.54,.3,.25,.91,.36,1.82,.35,.82,0,1.56-.43,2.23-1.29,.66-.86,1.15-1.89,1.45-3.09l2.2-8.47c.22-.8,.4-1.58,.52-2.35,.03-.24,.05-.47,.05-.69,0-.47-.07-.92-.21-1.34-.16-.46-.4-.83-.73-1.11-.33-.28-.74-.43-1.23-.43-.63,0-1.24,.17-1.84,.5-.59,.33-1.13,.77-1.62,1.32-.49,.55-.92,1.19-1.3,1.92-.38,.73-.66,1.5-.83,2.31-.17,.41-.46,.63-.88,.64h-.52c-.38,0-.57-.19-.57-.58v-.16c.24-.95,.6-1.87,1.09-2.77,.49-.9,1.07-1.69,1.75-2.38,.68-.69,1.44-1.25,2.28-1.69,.84-.44,1.75-.66,2.72-.66,.95,0,1.79,.21,2.51,.62,.73,.41,1.32,.97,1.78,1.66,.09,.17,.18,.35,.26,.54,.08,.19,.1,.24,.07,.15,.4-.67,1-1.34,1.82-1.99,.82-.65,1.76-.98,2.82-.98,.6,0,1.2,.08,1.79,.22,.59,.15,1.11,.38,1.54,.7,.43,.32,.75,.72,.96,1.2,.11,.28,.17,.59,.17,.94,0,.23-.03,.49-.09,.78Z"/>
          <path class="cls-18" d="M258.59,441.52c0,2.24-.2,4.48-.6,6.71-.4,2.23-1.03,4.37-1.88,6.41-.85,2.04-1.94,3.96-3.27,5.75-1.33,1.79-2.92,3.4-4.79,4.81-.17,.08-.32,.11-.43,.11h-.14c-.19,0-.36-.08-.52-.23-.09-.18-.14-.34-.14-.46,0-.18,.07-.35,.21-.51,1.53-1.39,2.83-2.96,3.89-4.7,1.06-1.74,1.92-3.59,2.57-5.53,.66-1.95,1.12-3.96,1.4-6.05,.28-2.09,.41-4.19,.41-6.31s-.14-4.18-.41-6.28c-.28-2.1-.74-4.13-1.4-6.07-.66-1.95-1.51-3.79-2.57-5.53-1.06-1.74-2.35-3.31-3.89-4.71-.14-.14-.21-.3-.21-.51,0-.21,.06-.37,.17-.48,.14-.14,.31-.21,.5-.21h.14c.09,0,.24,.04,.43,.11,1.88,1.41,3.48,3.02,4.8,4.81,1.32,1.79,2.41,3.71,3.26,5.75,.85,2.04,1.48,4.18,1.88,6.41,.4,2.23,.6,4.47,.6,6.7Z"/>
          <line class="cls-2" x1="277.12" y1="434.47" x2="310.11" y2="434.47"/>
          <line class="cls-2" x1="277.12" y1="444.37" x2="310.11" y2="444.37"/>
          <path class="cls-18" d="M334.82,450.79c0,.77-.27,1.42-.81,1.94-.55,.53-1.21,.79-1.98,.79s-1.44-.26-1.99-.79c-.55-.53-.83-1.18-.83-1.94s.28-1.39,.83-1.92c.55-.53,1.22-.79,1.99-.8,.77,0,1.43,.27,1.98,.8,.54,.53,.81,1.17,.81,1.92Zm6.86-24.34c0,.97-.23,1.9-.68,2.79s-1.13,1.6-2.03,2.14c-1.82,1.18-3.28,2.67-4.41,4.46-1.13,1.79-1.69,3.73-1.69,5.82v2.37c0,.43-.23,.65-.7,.64h-.3c-.45,0-.67-.21-.67-.64v-2.37c0-2.13,.39-4.19,1.15-6.16s1.93-3.73,3.49-5.25c.49-.47,.83-1.04,1.01-1.7,.19-.66,.27-1.36,.27-2.1,0-.8-.04-1.52-.13-2.17-.08-.65-.34-1.19-.76-1.62-.53-.5-1.15-.85-1.88-1.03-.73-.18-1.5-.28-2.32-.28-1.32,0-2.56,.27-3.67,.82-1.11,.55-1.84,1.15-2.19,1.83-.14,.03-.12,.05,.07,.05,.52,0,1,.15,1.45,.44,.64,.43,.97,1.09,.97,1.98,0,.8-.26,1.4-.75,1.8-.49,.4-1.07,.6-1.72,.6-.61,0-1.17-.2-1.66-.6-.5-.4-.75-1-.75-1.8,0-1.01,.23-1.93,.7-2.75,.47-.82,1.08-1.52,1.85-2.11,.76-.58,1.63-1.03,2.61-1.34,.98-.31,2-.46,3.08-.46,1.18,0,2.38,.11,3.57,.32,1.21,.22,2.33,.67,3.39,1.38,.87,.55,1.54,1.27,1.99,2.15,.46,.88,.69,1.81,.69,2.79Z"/>
        </g>
        <g class="cls-9">
          <path class="cls-18" d="M1029.13,432.73c.47,.41,.78,.99,.92,1.73,.06,.46,.1,.91,.12,1.36,0,.32-.02,.66-.07,1.01-.09,.86-.24,1.73-.45,2.61-.21,.88-.41,1.69-.62,2.43-.41,1.52-1.08,3.01-2,4.48-.92,1.47-2.03,2.77-3.31,3.91s-2.68,2.07-4.2,2.78c-1.52,.71-3.03,1.07-4.55,1.07h-.55l-2.23,8.51c-.09,.43-.37,.65-.83,.67h-.24c-.41,0-.62-.18-.62-.55v-.18l2.2-8.54c-1.06-.08-2.17-.28-3.32-.6-1.15-.32-2.18-.86-3.09-1.61-.91-.75-1.5-1.72-1.77-2.9-.13-.55-.2-1.1-.21-1.63,0-.67,.09-1.36,.26-2.07,.25-1.06,.63-2.22,1.13-3.5,.5-1.27,.97-2.51,1.41-3.71,.41-1.09,.62-2.02,.62-2.78v-.35c-.05-.69-.37-1.03-.97-1.04-.57,0-1.1,.16-1.59,.49-.49,.32-.94,.76-1.36,1.31-.42,.55-.79,1.2-1.1,1.93-.32,.74-.57,1.51-.76,2.32-.17,.41-.45,.63-.83,.64h-.28c-.2,0-.36-.07-.47-.21-.11-.11-.17-.23-.17-.37,0-.06,.02-.14,.07-.23,.21-.83,.5-1.68,.89-2.56,.39-.88,.86-1.68,1.43-2.4,.57-.72,1.22-1.31,1.94-1.77,.73-.46,1.55-.69,2.46-.69,.82,0,1.54,.17,2.16,.51,.62,.34,1.09,.78,1.42,1.32,.33,.55,.53,1.17,.59,1.87v.35c0,.6-.14,1.24-.43,1.93-.46,1.18-.92,2.4-1.37,3.65-.46,1.25-.81,2.37-1.07,3.37-.19,.74-.28,1.44-.28,2.12,0,.31,.02,.62,.05,.92,.13,.92,.49,1.7,1.09,2.35,.51,.52,1.12,.93,1.84,1.21,.72,.28,1.43,.48,2.12,.59l8.1-31.45c.09-.4,.37-.6,.83-.6h.24c.41,0,.62,.17,.62,.51v.16l-8.13,31.5h.43c1.3,0,2.59-.3,3.89-.91,1.3-.61,2.49-1.42,3.59-2.45,1.1-1.03,2.07-2.19,2.9-3.5,.84-1.3,1.42-2.63,1.75-3.98,.13-.55,.19-1.08,.19-1.59,0-.55-.06-1.08-.19-1.59-.3-.97-.83-1.76-1.59-2.39-.46-.35-.69-.76-.69-1.22,0-.12,.02-.23,.05-.32,.11-.55,.38-1.04,.79-1.46,.42-.42,.92-.72,1.5-.89,.16-.03,.32-.04,.47-.05,.46,0,.87,.16,1.23,.48Z"/>
          <path class="cls-18" d="M1045.57,455.4c0,.74-.18,1.45-.55,2.13-.37,.68-.86,1.26-1.47,1.74-.69,.54-1.46,.94-2.3,1.2-.84,.26-1.71,.39-2.62,.39-.82,0-1.62-.1-2.41-.31s-1.49-.5-2.12-.89c-.63-.39-1.13-.86-1.51-1.42-.38-.56-.57-1.21-.57-1.94,0-.55,.21-.96,.62-1.23,.41-.27,.85-.41,1.3-.41,.48,0,.92,.14,1.33,.41,.41,.27,.62,.68,.62,1.23,0,.33-.07,.6-.21,.82s-.33,.4-.55,.55c-.22,.15-.48,.24-.77,.27-.15,.04-.29,.05-.42,.05-.13,0-.15,0-.06,.03,.31,.48,.91,.91,1.81,1.28,.9,.37,1.88,.55,2.93,.55,.5,0,.96-.11,1.39-.33,.43-.22,.79-.51,1.08-.88,.36-.48,.6-1,.73-1.55,.13-.55,.19-1.11,.19-1.69s-.06-1.16-.19-1.71c-.13-.55-.37-1.05-.73-1.52-.3-.38-.66-.68-1.09-.91-.43-.23-.89-.35-1.38-.35h-2.15c-.29,0-.44-.12-.46-.36v-.14c0-.1,.04-.18,.1-.24,.09-.08,.2-.12,.34-.12,.29-.03,.58-.05,.89-.05s.59-.02,.88-.05c.54-.03,1-.18,1.4-.44,.4-.26,.73-.6,1-1,.27-.41,.47-.88,.61-1.41,.14-.53,.21-1.08,.21-1.64,0-.41-.05-.8-.15-1.17-.1-.37-.28-.69-.55-.97-.55-.57-1.26-.85-2.11-.84-.91,0-1.75,.15-2.5,.46-.76,.31-1.27,.63-1.52,.98-.07,.01-.03,.01,.1,.01,.36,0,.69,.1,1.01,.28,.48,.25,.71,.67,.71,1.26,0,.5-.18,.87-.54,1.13-.36,.25-.77,.38-1.21,.38s-.85-.12-1.23-.37c-.38-.25-.57-.63-.57-1.13,0-.63,.17-1.18,.51-1.66,.34-.48,.77-.89,1.3-1.24s1.14-.61,1.84-.79c.69-.18,1.4-.27,2.11-.27,.76,0,1.5,.09,2.22,.27,.71,.18,1.39,.46,2.02,.84,.52,.33,.95,.73,1.3,1.21,.35,.48,.53,1.02,.53,1.62s-.12,1.17-.36,1.7c-.24,.53-.56,1.01-.97,1.44-.4,.43-.88,.81-1.43,1.13-.55,.33-.97,.53-1.25,.62,.24,.03,.64,.15,1.22,.38,.58,.23,1.13,.53,1.65,.91,.62,.47,1.11,1.04,1.47,1.69,.37,.66,.55,1.35,.55,2.07Z"/>
          <path class="cls-18" d="M1064.92,464.62c0,.12-.05,.28-.14,.46-.16,.15-.34,.23-.54,.23-.28,0-.48-.05-.59-.14-1.85-1.39-3.43-2.99-4.76-4.79-1.33-1.79-2.41-3.71-3.26-5.75-.85-2.04-1.47-4.18-1.87-6.41-.4-2.23-.61-4.47-.61-6.71s.2-4.47,.61-6.7c.4-2.23,1.03-4.37,1.87-6.41,.85-2.04,1.93-3.96,3.26-5.75,1.33-1.79,2.92-3.39,4.76-4.79,.11-.09,.31-.14,.59-.14,.19,0,.37,.08,.55,.23,.09,.19,.14,.34,.14,.46,0,.19-.07,.35-.21,.51-1.53,1.4-2.83,2.97-3.9,4.71-1.07,1.74-1.93,3.59-2.58,5.53-.66,1.95-1.12,3.97-1.4,6.07-.28,2.1-.41,4.19-.41,6.28s.14,4.22,.41,6.31c.28,2.09,.74,4.1,1.4,6.05,.66,1.95,1.51,3.79,2.57,5.53,1.06,1.74,2.36,3.31,3.91,4.7,.14,.14,.21,.31,.21,.51Z"/>
          <path class="cls-18" d="M1094.61,436.13c-.17,.69-.53,1.21-1.05,1.55-.53,.35-1.06,.52-1.6,.52-.55,0-1.01-.18-1.37-.53-.27-.26-.41-.6-.43-1.01,0-.17,.03-.38,.09-.64,.17-.58,.44-1.02,.81-1.32,.36-.3,.62-.47,.76-.52-.3-.23-.92-.34-1.85-.35-.82,0-1.56,.43-2.2,1.28-.65,.85-1.13,1.88-1.45,3.07l-2.18,8.42c-.22,.85-.39,1.65-.5,2.42-.06,.26-.09,.49-.09,.69,0,.48,.08,.93,.24,1.36,.16,.46,.4,.83,.71,1.11,.32,.28,.72,.41,1.21,.41,.63,0,1.24-.16,1.82-.49,.58-.33,1.12-.77,1.61-1.34,.49-.56,.92-1.21,1.3-1.96,.38-.74,.68-1.51,.9-2.29,.09-.4,.36-.6,.81-.6h.54c.41,0,.62,.16,.62,.46,0,.09-.02,.18-.07,.25-.22,.92-.58,1.83-1.08,2.73-.5,.9-1.08,1.69-1.74,2.38-.66,.69-1.42,1.26-2.26,1.7-.85,.45-1.75,.67-2.71,.67s-1.82-.21-2.54-.63c-.71-.42-1.29-.97-1.73-1.64-.14-.17-.25-.34-.33-.52-.08-.18-.1-.2-.07-.08-.38,.63-.98,1.27-1.8,1.91s-1.77,.96-2.84,.96c-.6,0-1.19-.08-1.78-.23-.58-.15-1.09-.39-1.53-.71-.43-.32-.76-.71-.98-1.18-.11-.27-.16-.57-.17-.9,0-.23,.03-.5,.09-.81,.17-.69,.53-1.21,1.07-1.55,.54-.34,1.07-.52,1.61-.52,.55,0,1.03,.18,1.42,.53,.27,.26,.4,.6,.4,1.01,0,.22-.03,.43-.09,.64-.14,.54-.4,.97-.77,1.3-.37,.33-.64,.51-.79,.54,.3,.25,.91,.36,1.82,.35,.82,0,1.56-.43,2.23-1.29,.66-.86,1.15-1.89,1.45-3.09l2.2-8.47c.22-.8,.4-1.58,.52-2.35,.03-.24,.05-.47,.05-.69,0-.47-.07-.92-.21-1.34-.16-.46-.4-.83-.73-1.11-.33-.28-.74-.43-1.23-.43-.63,0-1.24,.17-1.84,.5-.59,.33-1.13,.77-1.62,1.32-.49,.55-.92,1.19-1.3,1.92-.38,.73-.66,1.5-.83,2.31-.17,.41-.46,.63-.88,.64h-.52c-.38,0-.57-.19-.57-.58v-.16c.24-.95,.6-1.87,1.09-2.77,.49-.9,1.07-1.69,1.75-2.38,.68-.69,1.44-1.25,2.28-1.69,.84-.44,1.75-.66,2.72-.66,.95,0,1.79,.21,2.51,.62,.73,.41,1.32,.97,1.78,1.66,.09,.17,.18,.35,.26,.54,.08,.19,.1,.24,.07,.15,.4-.67,1-1.34,1.83-1.99,.82-.65,1.76-.98,2.82-.98,.6,0,1.2,.08,1.79,.22,.59,.15,1.11,.38,1.54,.7,.43,.32,.75,.72,.96,1.2,.11,.28,.17,.59,.17,.94,0,.23-.03,.49-.09,.78Z"/>
          <path class="cls-18" d="M1115.27,441.52c0,2.24-.2,4.48-.6,6.71-.4,2.23-1.03,4.37-1.88,6.41-.85,2.04-1.94,3.96-3.27,5.75-1.33,1.79-2.92,3.4-4.79,4.81-.17,.08-.31,.11-.43,.11h-.14c-.19,0-.36-.08-.52-.23-.09-.18-.14-.34-.14-.46,0-.18,.07-.35,.21-.51,1.53-1.39,2.83-2.96,3.89-4.7,1.06-1.74,1.92-3.59,2.57-5.53,.66-1.95,1.12-3.96,1.4-6.05,.28-2.09,.41-4.19,.41-6.31s-.14-4.18-.41-6.28c-.28-2.1-.74-4.13-1.4-6.07-.66-1.95-1.51-3.79-2.57-5.53-1.06-1.74-2.35-3.31-3.89-4.71-.14-.14-.21-.3-.21-.51,0-.21,.06-.37,.17-.48,.14-.14,.31-.21,.5-.21h.14c.09,0,.24,.04,.43,.11,1.88,1.41,3.48,3.02,4.8,4.81,1.32,1.79,2.41,3.71,3.26,5.75,.85,2.04,1.48,4.18,1.88,6.41,.4,2.23,.6,4.47,.6,6.7Z"/>
          <line class="cls-2" x1="1133.81" y1="434.47" x2="1166.79" y2="434.47"/>
          <line class="cls-2" x1="1133.81" y1="444.37" x2="1166.79" y2="444.37"/>
          <path class="cls-18" d="M1191.51,450.79c0,.77-.28,1.42-.82,1.94-.55,.53-1.21,.79-1.98,.79s-1.44-.26-1.99-.79c-.55-.53-.83-1.18-.83-1.94s.28-1.39,.83-1.92c.55-.53,1.22-.79,1.99-.8,.77,0,1.43,.27,1.98,.8,.54,.53,.82,1.17,.82,1.92Zm6.85-24.34c0,.97-.22,1.9-.68,2.79-.45,.89-1.13,1.6-2.03,2.14-1.82,1.18-3.28,2.67-4.41,4.46-1.11,1.79-1.68,3.73-1.68,5.82v2.37c0,.43-.23,.65-.71,.64h-.3c-.45,0-.67-.21-.67-.64v-2.37c0-2.13,.39-4.19,1.15-6.16,.77-1.98,1.93-3.73,3.49-5.25,.49-.47,.83-1.04,1.01-1.7,.19-.66,.28-1.36,.28-2.1,0-.8-.05-1.52-.13-2.17-.09-.65-.35-1.19-.77-1.62-.53-.5-1.15-.85-1.88-1.03-.73-.18-1.5-.28-2.32-.28-1.32,0-2.54,.27-3.66,.82-1.11,.55-1.85,1.15-2.19,1.83-.14,.03-.13,.05,.07,.05,.5,0,.98,.15,1.44,.44,.64,.43,.97,1.09,.97,1.98,0,.8-.25,1.4-.75,1.8-.49,.4-1.07,.6-1.71,.6-.62,0-1.17-.2-1.68-.6-.49-.4-.75-1-.75-1.8,0-1.01,.23-1.93,.7-2.75,.47-.82,1.08-1.52,1.85-2.11,.76-.58,1.64-1.03,2.61-1.34,.98-.31,2-.46,3.08-.46,1.18,0,2.38,.11,3.57,.32,1.21,.22,2.33,.67,3.39,1.38,.88,.55,1.54,1.27,1.99,2.15,.46,.88,.69,1.81,.69,2.79Z"/>
        </g>
        <g class="cls-10">
          <path class="cls-18" d="M567.63,325.59c.47,.41,.78,.99,.92,1.73,.06,.46,.1,.91,.12,1.36,0,.32-.02,.66-.07,1.01-.09,.86-.24,1.73-.45,2.61-.21,.88-.41,1.69-.62,2.43-.41,1.52-1.08,3.01-2,4.48-.92,1.47-2.03,2.77-3.31,3.91-1.28,1.14-2.68,2.07-4.2,2.78-1.52,.71-3.03,1.07-4.55,1.07h-.55l-2.23,8.51c-.09,.43-.37,.65-.83,.67h-.24c-.41,0-.62-.18-.62-.55v-.18l2.2-8.54c-1.06-.08-2.17-.28-3.32-.6-1.15-.32-2.18-.86-3.09-1.61s-1.5-1.72-1.77-2.9c-.13-.55-.2-1.1-.21-1.63,0-.67,.09-1.36,.26-2.07,.25-1.06,.63-2.22,1.13-3.5,.5-1.27,.97-2.51,1.41-3.71,.41-1.09,.62-2.02,.62-2.78v-.35c-.05-.69-.37-1.03-.97-1.04-.57,0-1.1,.16-1.59,.49-.49,.32-.94,.76-1.36,1.31-.42,.55-.79,1.2-1.1,1.93-.32,.74-.57,1.51-.76,2.32-.17,.41-.45,.63-.83,.64h-.28c-.2,0-.36-.07-.47-.21-.11-.11-.17-.23-.17-.37,0-.06,.02-.14,.07-.23,.21-.83,.5-1.68,.89-2.56,.39-.88,.86-1.68,1.43-2.4,.57-.72,1.22-1.31,1.94-1.77,.73-.46,1.55-.69,2.46-.69,.82,0,1.54,.17,2.16,.51,.62,.34,1.09,.78,1.42,1.32,.33,.55,.53,1.17,.59,1.87v.35c0,.6-.14,1.24-.43,1.93-.46,1.18-.92,2.4-1.37,3.65-.46,1.25-.81,2.37-1.07,3.37-.19,.74-.28,1.44-.28,2.12,0,.31,.02,.62,.05,.92,.13,.92,.49,1.7,1.09,2.35,.51,.52,1.12,.93,1.84,1.21,.72,.28,1.43,.48,2.12,.59l8.1-31.45c.09-.4,.37-.6,.83-.6h.24c.41,0,.62,.17,.62,.51v.16l-8.13,31.5h.43c1.3,0,2.59-.3,3.89-.91,1.3-.61,2.49-1.42,3.59-2.45,1.1-1.03,2.07-2.19,2.9-3.5,.84-1.3,1.42-2.63,1.75-3.98,.13-.55,.19-1.08,.19-1.59,0-.55-.06-1.08-.19-1.59-.3-.97-.83-1.76-1.59-2.39-.46-.35-.69-.76-.69-1.22,0-.12,.02-.23,.05-.32,.11-.55,.38-1.04,.79-1.46,.42-.42,.92-.72,1.5-.89,.16-.03,.32-.04,.47-.05,.46,0,.87,.16,1.23,.48Z"/>
          <path class="cls-18" d="M582.66,353.12h-12.1v-.71c0-.05,.03-.13,.09-.23l4.86-4.72c.57-.57,1.16-1.15,1.75-1.74,.59-.59,1.12-1.2,1.58-1.82,.47-.62,.84-1.26,1.11-1.91,.28-.66,.42-1.35,.42-2.07,0-.61-.09-1.18-.27-1.71-.18-.53-.43-.99-.77-1.39-.34-.4-.76-.72-1.26-.97-.51-.24-1.09-.37-1.75-.37-.99,0-1.86,.26-2.62,.79-.76,.53-1.26,1.11-1.51,1.75-.05,.02,.03,.03,.24,.03h.25c.3,.06,.55,.15,.77,.28,.22,.12,.4,.3,.55,.51,.15,.22,.22,.48,.22,.79,0,.52-.19,.91-.56,1.19-.38,.28-.8,.41-1.26,.41s-.86-.14-1.25-.41c-.39-.28-.58-.67-.58-1.19,0-.72,.16-1.4,.48-2.05,.32-.64,.75-1.2,1.29-1.67,.55-.47,1.19-.85,1.93-1.12,.74-.27,1.53-.41,2.36-.41,1.03,0,1.97,.14,2.83,.41,.86,.27,1.59,.66,2.19,1.17,.6,.51,1.08,1.09,1.42,1.76,.34,.67,.51,1.4,.51,2.21,0,.89-.23,1.72-.68,2.47-.45,.75-1.02,1.44-1.69,2.07-.67,.63-1.39,1.22-2.15,1.77-.76,.55-1.44,1.09-2.06,1.62l-3.42,2.87h4.48c.62,0,1.21,0,1.75-.01,.54,0,1-.03,1.38-.05,.38-.03,.57-.04,.58-.05,.08-.06,.15-.18,.22-.36,.07-.18,.13-.39,.19-.64,.06-.24,.12-.49,.18-.75,.06-.25,.11-.53,.16-.83h1.1l-.95,5.09Z"/>
          <path class="cls-18" d="M602.93,357.48c0,.12-.05,.28-.14,.46-.16,.15-.34,.23-.55,.23-.28,0-.48-.05-.59-.14-1.85-1.39-3.44-2.99-4.76-4.79-1.33-1.79-2.41-3.71-3.26-5.75-.85-2.04-1.47-4.18-1.87-6.41-.4-2.23-.6-4.47-.6-6.71s.2-4.47,.6-6.7c.4-2.23,1.03-4.37,1.87-6.41,.85-2.04,1.93-3.96,3.26-5.75,1.33-1.79,2.91-3.39,4.76-4.79,.11-.09,.31-.14,.59-.14,.19,0,.37,.08,.55,.23,.09,.19,.14,.34,.14,.46,0,.19-.07,.35-.21,.51-1.53,1.4-2.83,2.97-3.9,4.71-1.07,1.74-1.93,3.59-2.58,5.53-.66,1.95-1.12,3.97-1.4,6.07-.28,2.1-.41,4.19-.41,6.28s.14,4.22,.41,6.31c.28,2.09,.74,4.1,1.4,6.05,.66,1.95,1.51,3.79,2.57,5.53s2.36,3.31,3.91,4.7c.14,.14,.21,.31,.21,.51Z"/>
          <path class="cls-18" d="M632.62,328.99c-.17,.69-.53,1.21-1.05,1.55-.53,.35-1.06,.52-1.6,.52-.55,0-1.01-.18-1.37-.53-.27-.26-.41-.6-.43-1.01,0-.17,.03-.38,.09-.64,.17-.58,.44-1.02,.81-1.32,.36-.3,.62-.47,.76-.52-.3-.23-.92-.34-1.85-.35-.82,0-1.56,.43-2.2,1.28-.65,.85-1.13,1.88-1.45,3.07l-2.18,8.42c-.22,.85-.39,1.65-.5,2.42-.06,.26-.09,.49-.09,.69,0,.48,.08,.93,.24,1.36,.16,.46,.39,.83,.71,1.11,.32,.28,.72,.41,1.21,.41,.63,0,1.24-.16,1.83-.49,.59-.33,1.12-.77,1.61-1.34,.49-.56,.92-1.21,1.3-1.96,.38-.74,.68-1.51,.9-2.29,.09-.4,.36-.6,.81-.6h.55c.41,0,.62,.16,.62,.46,0,.09-.02,.18-.07,.25-.22,.92-.58,1.83-1.08,2.73-.5,.9-1.08,1.69-1.74,2.38-.66,.69-1.42,1.26-2.26,1.7-.85,.45-1.75,.67-2.71,.67s-1.82-.21-2.54-.63c-.71-.42-1.29-.97-1.73-1.64-.14-.17-.25-.34-.33-.52-.08-.18-.1-.2-.07-.08-.38,.63-.98,1.27-1.8,1.91-.82,.64-1.77,.96-2.84,.96-.6,0-1.19-.08-1.78-.23-.58-.15-1.09-.39-1.53-.71-.43-.32-.76-.71-.98-1.18-.11-.27-.16-.57-.17-.9,0-.23,.03-.5,.09-.81,.17-.69,.53-1.21,1.07-1.55,.54-.34,1.07-.52,1.61-.52,.55,0,1.03,.18,1.42,.53,.27,.26,.4,.6,.4,1.01,0,.22-.03,.43-.09,.64-.14,.54-.4,.97-.77,1.3-.37,.33-.64,.51-.79,.54,.3,.25,.91,.36,1.82,.35,.82,0,1.56-.43,2.23-1.29,.66-.86,1.15-1.89,1.45-3.09l2.2-8.47c.22-.8,.4-1.58,.52-2.35,.03-.24,.05-.47,.05-.69,0-.47-.07-.92-.21-1.34-.16-.46-.4-.83-.73-1.11-.33-.28-.74-.43-1.23-.43-.63,0-1.25,.17-1.84,.5-.59,.33-1.13,.77-1.62,1.32-.49,.55-.92,1.19-1.3,1.92-.38,.73-.66,1.5-.83,2.31-.17,.41-.47,.63-.88,.64h-.52c-.38,0-.57-.19-.57-.58v-.16c.24-.95,.6-1.87,1.09-2.77,.49-.9,1.07-1.69,1.75-2.38,.68-.69,1.44-1.25,2.28-1.69s1.75-.66,2.72-.66c.95,0,1.79,.21,2.51,.62,.73,.41,1.32,.97,1.78,1.66,.09,.17,.18,.35,.26,.54,.08,.19,.1,.24,.07,.15,.4-.67,1-1.34,1.82-1.99,.82-.65,1.76-.98,2.82-.98,.6,0,1.2,.08,1.79,.22,.59,.15,1.11,.38,1.54,.7,.43,.32,.75,.72,.96,1.2,.11,.28,.17,.59,.17,.94,0,.23-.03,.49-.09,.78Z"/>
          <path class="cls-18" d="M653.28,334.38c0,2.24-.2,4.48-.6,6.71-.4,2.23-1.03,4.37-1.89,6.41-.85,2.04-1.94,3.96-3.27,5.75-1.33,1.79-2.92,3.4-4.79,4.81-.17,.08-.32,.11-.43,.11h-.14c-.19,0-.36-.08-.52-.23-.09-.18-.14-.34-.14-.46,0-.18,.07-.35,.21-.51,1.53-1.39,2.83-2.96,3.89-4.7,1.06-1.74,1.92-3.59,2.57-5.53,.66-1.95,1.12-3.96,1.4-6.05,.28-2.09,.41-4.19,.41-6.31s-.14-4.18-.41-6.28c-.28-2.1-.74-4.13-1.4-6.07-.66-1.95-1.51-3.79-2.57-5.53-1.06-1.74-2.35-3.31-3.89-4.71-.14-.14-.21-.3-.21-.51,0-.21,.06-.37,.17-.48,.14-.14,.31-.21,.5-.21h.14c.09,0,.24,.04,.43,.11,1.88,1.41,3.48,3.02,4.8,4.81,1.32,1.79,2.41,3.71,3.26,5.75,.85,2.04,1.48,4.18,1.89,6.41,.4,2.23,.6,4.47,.6,6.7Z"/>
          <line class="cls-2" x1="671.82" y1="327.33" x2="704.81" y2="327.33"/>
          <line class="cls-2" x1="671.82" y1="337.23" x2="704.81" y2="337.23"/>
          <path class="cls-18" d="M729.52,343.65c0,.77-.27,1.42-.82,1.94-.54,.53-1.21,.79-1.98,.79s-1.43-.26-1.99-.79c-.55-.53-.82-1.18-.82-1.94s.27-1.39,.82-1.92c.56-.53,1.22-.79,1.99-.8,.77,0,1.44,.27,1.98,.8,.55,.53,.82,1.17,.82,1.92Zm6.85-24.34c0,.97-.22,1.9-.68,2.79-.45,.89-1.13,1.6-2.02,2.14-1.83,1.18-3.29,2.67-4.42,4.46-1.11,1.79-1.68,3.73-1.68,5.82v2.37c0,.43-.23,.65-.72,.64h-.3c-.45,0-.67-.21-.67-.64v-2.37c0-2.13,.39-4.19,1.15-6.16,.77-1.98,1.93-3.73,3.5-5.25,.48-.47,.82-1.04,1.01-1.7,.18-.66,.27-1.36,.27-2.1,0-.8-.05-1.52-.13-2.17-.09-.65-.35-1.19-.77-1.62-.52-.5-1.15-.85-1.88-1.03-.73-.18-1.5-.28-2.32-.28-1.32,0-2.54,.27-3.66,.82-1.11,.55-1.85,1.15-2.19,1.83-.14,.03-.12,.05,.07,.05,.5,0,.98,.15,1.44,.44,.64,.43,.97,1.09,.97,1.98,0,.8-.25,1.4-.75,1.8-.49,.4-1.07,.6-1.71,.6-.62,0-1.17-.2-1.68-.6-.49-.4-.74-1-.74-1.8,0-1.01,.22-1.93,.69-2.75,.47-.82,1.09-1.52,1.85-2.11,.76-.58,1.64-1.03,2.61-1.34,.98-.31,2-.46,3.08-.46,1.18,0,2.38,.11,3.57,.32,1.21,.22,2.33,.67,3.39,1.38,.88,.55,1.54,1.27,1.99,2.15,.46,.88,.69,1.81,.69,2.79Z"/>
        </g>
        <g class="cls-13">
          <path class="cls-18" d="M1250.03,707.89c-.17,.69-.53,1.21-1.05,1.55-.53,.35-1.06,.52-1.6,.52-.55,0-1.01-.18-1.37-.53-.27-.26-.41-.6-.43-1.01,0-.17,.03-.38,.09-.64,.17-.58,.44-1.02,.81-1.32,.36-.3,.62-.47,.76-.52-.3-.23-.92-.34-1.85-.35-.82,0-1.56,.43-2.2,1.28-.65,.85-1.13,1.88-1.45,3.07l-2.18,8.42c-.22,.85-.39,1.65-.5,2.42-.06,.26-.09,.49-.09,.69,0,.48,.08,.93,.24,1.36,.16,.46,.4,.83,.71,1.11,.32,.28,.72,.41,1.21,.41,.63,0,1.24-.16,1.83-.49,.58-.33,1.12-.77,1.61-1.33,.49-.56,.92-1.21,1.3-1.96,.38-.74,.68-1.51,.9-2.29,.09-.4,.36-.6,.81-.6h.55c.41,0,.62,.15,.62,.46,0,.09-.02,.18-.07,.25-.22,.92-.58,1.83-1.08,2.73-.5,.9-1.08,1.69-1.74,2.38-.66,.69-1.42,1.26-2.26,1.7-.85,.45-1.75,.67-2.71,.67s-1.83-.21-2.54-.63c-.71-.42-1.29-.97-1.73-1.65-.14-.17-.25-.34-.33-.52-.08-.18-.1-.2-.07-.08-.38,.63-.98,1.27-1.8,1.91-.82,.64-1.77,.96-2.84,.96-.6,0-1.19-.08-1.78-.23-.58-.15-1.09-.39-1.53-.71-.43-.32-.76-.71-.98-1.17-.11-.27-.16-.57-.17-.9,0-.23,.03-.5,.09-.81,.17-.69,.53-1.21,1.07-1.55,.54-.35,1.07-.52,1.61-.52,.55,0,1.03,.18,1.42,.53,.27,.26,.4,.6,.4,1.01,0,.22-.03,.43-.09,.64-.14,.54-.4,.97-.77,1.3-.37,.33-.64,.51-.8,.54,.3,.25,.91,.36,1.82,.35,.82,0,1.56-.43,2.23-1.29,.66-.86,1.15-1.89,1.45-3.08l2.2-8.47c.22-.8,.4-1.58,.52-2.35,.03-.24,.05-.47,.05-.69,0-.47-.07-.92-.21-1.33-.16-.46-.4-.83-.73-1.11-.33-.28-.74-.43-1.23-.43-.63,0-1.25,.17-1.84,.5-.59,.33-1.13,.77-1.62,1.32-.49,.55-.92,1.19-1.3,1.92-.38,.73-.66,1.5-.83,2.31-.17,.41-.46,.63-.88,.64h-.52c-.38,0-.57-.19-.57-.57v-.16c.24-.95,.6-1.87,1.09-2.77,.49-.9,1.07-1.69,1.75-2.38,.68-.69,1.44-1.25,2.28-1.69,.84-.44,1.75-.66,2.72-.66,.95,0,1.79,.21,2.51,.62,.73,.41,1.32,.97,1.78,1.66,.09,.17,.18,.35,.26,.54,.08,.19,.1,.24,.07,.15,.4-.67,1-1.34,1.83-1.99,.82-.65,1.76-.98,2.82-.98,.6,0,1.2,.08,1.79,.22,.59,.15,1.11,.38,1.54,.7,.43,.32,.75,.72,.96,1.19,.11,.28,.17,.59,.17,.94,0,.23-.03,.49-.09,.78Z"/>
        </g>
        <g class="cls-15">
          <path class="cls-18" d="M552.81,104.47c-.09,.46-.38,.69-.85,.69-.5,0-.99,.06-1.45,.17-.46,.11-.9,.31-1.34,.59-.43,.28-.83,.61-1.2,1-.36,.39-.7,.83-1,1.32l-17.28,28.09c-.24,.43-.6,.64-1.09,.62h-.45c-.58,0-.87-.24-.85-.74l-2.96-29.38c-.06-.4-.13-.71-.19-.93-.06-.22-.16-.38-.28-.47-.22-.12-.57-.2-1.05-.23-.48-.03-1.03-.05-1.65-.05-.24,0-.41-.08-.52-.23-.09-.09-.14-.21-.14-.35,0-.09,.02-.18,.07-.25l.07-.34c.05-.2,.16-.37,.32-.51,.17-.14,.37-.21,.6-.21,1.52,.09,3.05,.14,4.6,.14,.24,0,.49-.01,.76-.05,1.83,0,3.67-.03,5.5-.09,.22,0,.42,.08,.59,.23,.06,.12,.09,.24,.09,.34,0,.09-.02,.18-.07,.25l-.07,.34c-.05,.22-.16,.39-.34,.52-.18,.13-.38,.2-.58,.19-.55,0-1.06,.02-1.52,.07-.46,.05-.91,.17-1.35,.37-.27,.14-.39,.37-.38,.69v.16c.55,4.08,1,8.18,1.33,12.3,.33,4.12,.69,8.02,1.07,11.7l13.98-22.75c.21-.32,.33-.66,.38-1.01v-.11c0-.23-.05-.43-.17-.62-.35-.52-.99-.78-1.94-.78-.41,0-.62-.21-.62-.62v-.16l.09-.41c.18-.46,.48-.69,.92-.69,1.39,.06,2.79,.09,4.2,.09,.19,.03,.37,.05,.55,.05,1.2,0,2.43-.04,3.7-.14,.43,0,.66,.21,.69,.62v.18l-.17,.39Z"/>
          <path class="cls-18" d="M601.11,118.48c-.17,.69-.52,1.21-1.05,1.55-.53,.35-1.06,.52-1.6,.52-.55,0-1.01-.18-1.37-.53-.27-.26-.41-.6-.43-1.01,0-.17,.03-.38,.09-.64,.17-.58,.44-1.02,.81-1.32,.36-.3,.62-.47,.76-.52-.3-.23-.92-.34-1.85-.35-.82,0-1.56,.43-2.2,1.28-.65,.85-1.13,1.87-1.45,3.07l-2.18,8.42c-.22,.85-.39,1.65-.5,2.42-.06,.26-.09,.49-.09,.69,0,.48,.08,.93,.24,1.36,.16,.46,.4,.83,.71,1.11,.32,.28,.72,.41,1.21,.41,.63,0,1.24-.16,1.83-.49,.58-.33,1.12-.77,1.61-1.34,.49-.56,.92-1.21,1.3-1.96,.38-.74,.68-1.51,.9-2.29,.09-.4,.36-.6,.81-.6h.55c.41,0,.62,.16,.62,.46,0,.09-.02,.18-.07,.25-.22,.92-.58,1.83-1.08,2.73-.5,.9-1.08,1.69-1.74,2.38-.66,.69-1.42,1.26-2.26,1.7-.85,.45-1.75,.67-2.71,.67s-1.83-.21-2.54-.63c-.71-.42-1.29-.97-1.73-1.64-.14-.17-.25-.34-.33-.52-.08-.17-.1-.2-.07-.08-.38,.63-.98,1.27-1.8,1.91-.82,.64-1.77,.96-2.84,.96-.6,0-1.19-.08-1.78-.23-.58-.15-1.09-.39-1.53-.71-.43-.32-.76-.71-.98-1.18-.11-.27-.16-.57-.17-.9,0-.23,.03-.5,.09-.81,.17-.69,.53-1.21,1.07-1.55,.54-.34,1.07-.52,1.61-.52,.55,0,1.03,.18,1.42,.53,.27,.26,.4,.6,.4,1.01,0,.22-.03,.43-.09,.64-.14,.54-.4,.97-.77,1.3-.37,.33-.64,.51-.79,.54,.3,.25,.91,.36,1.83,.35,.82,0,1.56-.43,2.23-1.29,.66-.86,1.15-1.89,1.45-3.09l2.2-8.47c.22-.8,.4-1.58,.52-2.35,.03-.24,.05-.47,.05-.69,0-.47-.07-.92-.21-1.34-.16-.46-.4-.83-.73-1.11-.33-.28-.74-.43-1.23-.43-.63,0-1.24,.17-1.84,.5-.59,.33-1.13,.77-1.62,1.32s-.92,1.19-1.3,1.92c-.38,.73-.66,1.5-.83,2.31-.17,.41-.46,.63-.88,.64h-.52c-.38,0-.57-.19-.57-.58v-.16c.24-.95,.6-1.87,1.09-2.77,.49-.9,1.07-1.69,1.75-2.38,.68-.69,1.44-1.25,2.28-1.69,.84-.44,1.75-.66,2.72-.66,.95,0,1.79,.21,2.51,.62,.73,.41,1.32,.97,1.78,1.66,.09,.17,.18,.35,.26,.54,.08,.19,.1,.24,.07,.15,.39-.67,1-1.34,1.82-1.99,.82-.65,1.76-.98,2.82-.98,.6,0,1.2,.08,1.79,.22,.59,.15,1.11,.38,1.54,.7,.43,.32,.75,.72,.96,1.2,.11,.28,.17,.59,.17,.94,0,.23-.03,.49-.09,.78Z"/>
          <path class="cls-18" d="M573.35,144.26c-15.36-10.12-15.36-34.87,0-44.99h2.41c-13.85,10.12-13.85,34.87,0,44.99"/>
          <path class="cls-18" d="M606.05,99.27c15.36,10.12,15.36,34.87,0,44.99h-2.41c13.85-10.12,13.85-34.87,0-44.99"/>
        </g>
        <g class="cls-16">
          <path class="cls-18" d="M386.72,284.19c-.09,.46-.38,.69-.85,.69-.5,0-.99,.06-1.45,.17-.46,.11-.9,.31-1.34,.59-.43,.28-.83,.61-1.2,1-.36,.39-.7,.83-1,1.32l-17.28,28.09c-.24,.43-.6,.64-1.09,.62h-.45c-.58,0-.87-.24-.85-.74l-2.96-29.38c-.06-.4-.13-.71-.19-.93-.06-.22-.16-.38-.28-.47-.22-.12-.57-.2-1.05-.23-.48-.03-1.03-.05-1.65-.05-.24,0-.41-.08-.52-.23-.09-.09-.14-.21-.14-.35,0-.09,.02-.18,.07-.25l.07-.34c.05-.2,.16-.37,.32-.51,.17-.14,.37-.21,.6-.21,1.52,.09,3.05,.14,4.6,.14,.24,0,.49-.01,.76-.05,1.83,0,3.67-.03,5.5-.09,.22,0,.42,.08,.59,.23,.06,.12,.09,.24,.09,.34,0,.09-.02,.18-.07,.25l-.07,.34c-.05,.22-.16,.39-.34,.52-.18,.13-.38,.2-.58,.19-.55,0-1.06,.02-1.52,.07-.46,.05-.91,.17-1.35,.37-.27,.14-.39,.37-.38,.69v.16c.55,4.08,1,8.18,1.33,12.3,.33,4.12,.69,8.02,1.07,11.7l13.98-22.76c.21-.32,.33-.66,.38-1.01v-.11c0-.23-.05-.43-.17-.62-.35-.52-.99-.78-1.94-.78-.41,0-.62-.21-.62-.62v-.16l.09-.41c.18-.46,.48-.69,.92-.69,1.39,.06,2.79,.09,4.19,.09,.19,.03,.37,.05,.55,.05,1.2,0,2.43-.04,3.7-.14,.43,0,.66,.21,.69,.62v.18l-.17,.39Z"/>
          <path class="cls-18" d="M394.09,322.32c-1.82-.05-3.6-.08-5.32-.08s-3.5,.03-5.32,.08v-1.11h1.03c.33,0,.63,0,.92-.01,.29,0,.56-.03,.82-.06,.26-.03,.48-.07,.67-.1,.16-.02,.29-.1,.39-.24,.1-.13,.16-.28,.16-.45v-14.52c-.49,.22-1.1,.38-1.83,.49-.72,.11-1.52,.17-2.38,.17v-1.09c1.19,0,2.29-.13,3.29-.38,1.01-.25,1.88-.73,2.61-1.42h.46c.33,0,.49,.14,.49,.43v16.34c0,.17,.05,.32,.15,.45,.1,.13,.24,.21,.43,.23,.16,.04,.36,.07,.61,.1,.25,.03,.53,.06,.84,.06,.31,0,.62,.01,.92,.01h1.07v1.11Z"/>
        </g>
        <g class="cls-14">
          <path class="cls-18" d="M921.81,183.79c-.09,.46-.38,.69-.85,.69-.5,0-.99,.06-1.45,.17-.46,.11-.9,.31-1.34,.59-.43,.28-.83,.61-1.2,1-.36,.39-.7,.83-1,1.32l-17.28,28.09c-.24,.43-.6,.64-1.09,.62h-.45c-.58,0-.87-.24-.85-.74l-2.96-29.38c-.06-.4-.13-.71-.19-.93-.06-.22-.16-.38-.28-.47-.22-.12-.57-.2-1.05-.23-.48-.03-1.03-.05-1.65-.05-.24,0-.41-.08-.52-.23-.09-.09-.14-.21-.14-.35,0-.09,.02-.18,.07-.25l.07-.34c.05-.2,.16-.37,.32-.51,.17-.14,.37-.21,.6-.21,1.52,.09,3.05,.14,4.6,.14,.24,0,.49-.01,.76-.05,1.83,0,3.67-.03,5.5-.09,.22,0,.42,.08,.59,.23,.06,.12,.09,.24,.09,.34,0,.09-.02,.18-.07,.25l-.07,.34c-.05,.22-.16,.39-.34,.52-.18,.13-.38,.2-.58,.19-.55,0-1.06,.02-1.52,.07-.46,.05-.91,.17-1.35,.37-.27,.14-.39,.37-.38,.69v.16c.55,4.08,1,8.18,1.33,12.3,.33,4.12,.69,8.02,1.07,11.7l13.98-22.76c.21-.32,.33-.66,.38-1.01v-.11c0-.23-.05-.43-.17-.62-.35-.52-.99-.78-1.94-.78-.41,0-.62-.21-.62-.62v-.16l.09-.41c.18-.46,.48-.69,.92-.69,1.39,.06,2.79,.09,4.19,.09,.19,.03,.37,.05,.55,.05,1.2,0,2.43-.04,3.7-.14,.43,0,.66,.21,.69,.62v.18l-.17,.39Z"/>
          <path class="cls-18" d="M930.3,221.92h-12.1v-.71c0-.05,.03-.13,.09-.23l4.86-4.72c.58-.57,1.16-1.15,1.75-1.74,.59-.59,1.12-1.2,1.58-1.82,.47-.62,.84-1.26,1.11-1.91,.28-.66,.42-1.35,.42-2.07,0-.61-.09-1.18-.27-1.71-.18-.53-.43-.99-.77-1.39-.34-.4-.76-.72-1.26-.97s-1.09-.37-1.75-.37c-.99,0-1.86,.26-2.62,.79-.76,.53-1.26,1.11-1.51,1.75-.05,.02,.03,.03,.24,.03h.25c.3,.06,.55,.15,.77,.28,.22,.12,.4,.3,.55,.51,.15,.22,.22,.48,.22,.79,0,.52-.19,.91-.57,1.19-.38,.28-.8,.41-1.26,.41s-.86-.14-1.25-.41c-.39-.28-.58-.67-.58-1.19,0-.72,.16-1.4,.48-2.05,.32-.64,.75-1.2,1.29-1.68,.55-.47,1.19-.85,1.93-1.12,.74-.27,1.53-.41,2.36-.41,1.03,0,1.98,.14,2.83,.41,.86,.27,1.59,.66,2.19,1.17,.6,.51,1.08,1.09,1.42,1.76,.34,.67,.51,1.4,.51,2.21,0,.89-.23,1.72-.68,2.47-.45,.75-1.02,1.44-1.69,2.07-.67,.63-1.39,1.22-2.15,1.77-.76,.55-1.44,1.09-2.06,1.62l-3.42,2.87h4.47c.62,0,1.21,0,1.75-.01,.54,0,1-.03,1.37-.05,.38-.03,.57-.04,.58-.05,.08-.06,.15-.18,.22-.36,.07-.18,.13-.39,.19-.64,.06-.24,.12-.49,.18-.75,.06-.25,.11-.53,.16-.83h1.1l-.95,5.09Z"/>
        </g>
      </g>
    </g>
  </g>
</svg>