<?xml version="1.0" encoding="utf-8"?>
<!-- Generator: Adobe Illustrator 26.4.1, SVG Export Plug-In . SVG Version: 6.00 Build 0)  -->
<svg version="1.1" id="图层_1" xmlns="http://www.w3.org/2000/svg" xmlns:xlink="http://www.w3.org/1999/xlink" x="0px" y="0px"
	 viewBox="0 0 1481.04 1311" style="enable-background:new 0 0 1481.04 1311;" xml:space="preserve">
<style type="text/css">
	.st0{clip-path:url(#SVGID_00000072967614964523182160000011377858216531004573_);}
	.st1{clip-path:url(#SVGID_00000054986562248401072560000004634996553193992323_);}
	
		.st2{clip-path:url(#SVGID_00000155836167148197844950000005795580087973236143_);fill:none;stroke:#000000;stroke-width:10.1896;stroke-linecap:round;stroke-linejoin:round;stroke-miterlimit:10;}
	
		.st3{clip-path:url(#SVGID_00000122718282702220461860000009914434229717863823_);fill:none;stroke:#000000;stroke-width:10.1896;stroke-linecap:round;stroke-linejoin:round;stroke-miterlimit:10;}
	
		.st4{clip-path:url(#SVGID_00000045613708052920296870000013456368987341470361_);fill:none;stroke:#000000;stroke-width:10.1896;stroke-linecap:round;stroke-linejoin:round;stroke-miterlimit:10;}
	
		.st5{clip-path:url(#SVGID_00000005254753329712073070000016666319555006409660_);fill:none;stroke:#000000;stroke-width:10.1896;stroke-linecap:round;stroke-linejoin:round;stroke-miterlimit:10;stroke-dasharray:40.7585,20.3792;}
	
		.st6{clip-path:url(#SVGID_00000145016809617364409250000006878917708140646572_);fill:none;stroke:#000000;stroke-width:10.1896;stroke-linecap:round;stroke-linejoin:round;stroke-miterlimit:10;stroke-dasharray:40.7585,20.3792;}
	.st7{clip-path:url(#SVGID_00000075843537037380416000000008833598207496214975_);fill-rule:evenodd;clip-rule:evenodd;}
	.st8{clip-path:url(#SVGID_00000070829835134789795080000002862785927495769020_);fill-rule:evenodd;clip-rule:evenodd;}
	.st9{clip-path:url(#SVGID_00000031899339849484104530000013326641163430813829_);fill-rule:evenodd;clip-rule:evenodd;}
	
		.st10{clip-path:url(#SVGID_00000031899339849484104530000013326641163430813829_);fill:none;stroke:#000000;stroke-width:2.9129;stroke-linecap:round;stroke-miterlimit:10;}
	
		.st11{clip-path:url(#SVGID_00000054986562248401072560000004634996553193992323_);fill:none;stroke:#000000;stroke-width:7.246;stroke-linecap:round;stroke-linejoin:round;stroke-miterlimit:10;}
	.st12{clip-path:url(#SVGID_00000125573959642080045840000015629800234562424194_);fill-rule:evenodd;clip-rule:evenodd;}
	
		.st13{clip-path:url(#SVGID_00000125573959642080045840000015629800234562424194_);fill:none;stroke:#000000;stroke-width:2.9129;stroke-linecap:round;stroke-linejoin:round;stroke-miterlimit:10;}
	.st14{clip-path:url(#SVGID_00000017509976638287258520000005282119587392934029_);fill-rule:evenodd;clip-rule:evenodd;}
	
		.st15{clip-path:url(#SVGID_00000017509976638287258520000005282119587392934029_);fill:none;stroke:#000000;stroke-width:2.9129;stroke-linecap:round;stroke-linejoin:round;stroke-miterlimit:10;}
</style>
<g>
	<defs>
		<rect id="SVGID_1_" x="0" width="1481.04" height="1311"/>
	</defs>
	<clipPath id="SVGID_00000178901038320966783990000011953306854655595692_">
		<use xlink:href="#SVGID_1_"  style="overflow:visible;"/>
	</clipPath>
</g>
<g>
	<defs>
		<rect id="SVGID_00000063614417794125310690000001783900248038216081_" x="0" y="0.37" width="1479.47" height="1309.65"/>
	</defs>
	<clipPath id="SVGID_00000016778918328387275900000015259117180355415699_">
		<use xlink:href="#SVGID_00000063614417794125310690000001783900248038216081_"  style="overflow:visible;"/>
	</clipPath>
	<g style="clip-path:url(#SVGID_00000016778918328387275900000015259117180355415699_);">
		<defs>
			<rect id="SVGID_00000049207466148514008490000013376197067468501407_" y="0.35" width="1479.47" height="1309.67"/>
		</defs>
		<clipPath id="SVGID_00000028295499650462487210000017399570039078201785_">
			<use xlink:href="#SVGID_00000049207466148514008490000013376197067468501407_"  style="overflow:visible;"/>
		</clipPath>
		<g style="clip-path:url(#SVGID_00000028295499650462487210000017399570039078201785_);">
			<defs>
				<rect id="SVGID_00000014629402754348865020000004484679182639074177_" x="240.19" y="210.25" width="971.34" height="818.75"/>
			</defs>
			<clipPath id="SVGID_00000179628559791467831120000016347648837254008477_">
				<use xlink:href="#SVGID_00000014629402754348865020000004484679182639074177_"  style="overflow:visible;"/>
			</clipPath>
			
				<path style="clip-path:url(#SVGID_00000179628559791467831120000016347648837254008477_);fill:none;stroke:#000000;stroke-width:10.1896;stroke-linecap:round;stroke-linejoin:round;stroke-miterlimit:10;" d="
				M240.19,1029c1.64-0.08,6.54-0.16,9.81-0.49c3.27-0.33,6.54-0.82,9.8-1.47c3.27-0.66,6.54-1.49,9.81-2.49
				c3.27-1,6.54-2.15,9.8-3.5c3.27-1.34,6.54-2.85,9.81-4.57c3.27-1.71,6.54-3.6,9.81-5.69c3.26-2.09,6.53-4.37,9.8-6.87
				c3.27-2.49,6.54-5.17,9.81-8.1c3.26-2.93,6.53-6.07,9.8-9.47c3.27-3.4,6.54-7.03,9.81-10.94c3.26-3.91,6.53-8.06,9.8-12.54
				c3.27-4.49,6.54-9.25,9.81-14.37c3.27-5.14,6.53-10.54,9.8-16.39c3.27-5.86,6.54-12.05,9.81-18.73
				c3.27-6.68,6.53-13.74,9.8-21.39c3.27-7.65,6.54-15.72,9.81-24.52c3.27-8.79,6.54-18.07,9.8-28.21
				c3.27-10.14,6.54-20.86,9.81-32.65s6.54-24.28,9.8-38.12c3.27-13.83,6.54-28.48,9.81-44.89c3.27-16.4,6.54-33.82,9.8-53.55
				c3.27-19.74,6.54-40.7,9.81-64.85c3.27-24.17,6.54-49.86,9.81-80.11c3.26-30.24,6.53-62.39,9.8-101.36
				c3.27-38.97,8.17-110.37,9.81-132.45"/>
		</g>
		<g style="clip-path:url(#SVGID_00000028295499650462487210000017399570039078201785_);">
			<defs>
				<rect id="SVGID_00000001665243924989826530000000166896796355619508_" x="240.19" y="210.25" width="971.34" height="818.75"/>
			</defs>
			<clipPath id="SVGID_00000013886832052754434270000010666733295110435997_">
				<use xlink:href="#SVGID_00000001665243924989826530000000166896796355619508_"  style="overflow:visible;"/>
			</clipPath>
			
				<path style="clip-path:url(#SVGID_00000013886832052754434270000010666733295110435997_);fill:none;stroke:#000000;stroke-width:10.1896;stroke-linecap:round;stroke-linejoin:round;stroke-miterlimit:10;" d="
				M548.22,1029c1.64-0.08,6.54-0.16,9.81-0.49c3.27-0.33,6.53-0.82,9.8-1.47c3.27-0.66,6.54-1.49,9.81-2.49
				c3.27-1,6.53-2.15,9.8-3.5c3.27-1.34,6.54-2.85,9.81-4.57c3.27-1.71,6.53-3.6,9.8-5.69c3.27-2.09,6.54-4.37,9.81-6.87
				s6.54-5.17,9.8-8.1c3.27-2.93,6.54-6.07,9.81-9.47c3.27-3.4,6.54-7.03,9.8-10.94c3.27-3.91,6.54-8.06,9.81-12.54
				c3.27-4.49,6.54-9.25,9.81-14.37c3.26-5.14,6.53-10.54,9.8-16.39c3.27-5.86,6.54-12.05,9.81-18.73
				c3.26-6.68,6.53-13.74,9.8-21.39c3.27-7.65,6.54-15.72,9.81-24.52c3.26-8.79,6.53-18.07,9.8-28.21
				c3.27-10.14,6.54-20.86,9.81-32.65c3.27-11.79,6.53-24.28,9.8-38.12c3.27-13.83,6.54-28.48,9.81-44.89
				c3.27-16.4,6.53-33.82,9.8-53.55c3.27-19.74,6.54-40.7,9.81-64.85c3.27-24.17,6.54-49.86,9.8-80.11
				c3.27-30.24,6.54-62.39,9.81-101.36c3.27-38.97,8.17-110.37,9.8-132.45"/>
		</g>
		<g style="clip-path:url(#SVGID_00000028295499650462487210000017399570039078201785_);">
			<defs>
				<rect id="SVGID_00000102546279863722420800000017747550792997109128_" x="240.19" y="210.25" width="971.34" height="818.75"/>
			</defs>
			<clipPath id="SVGID_00000032622134123085621480000017022070551099923121_">
				<use xlink:href="#SVGID_00000102546279863722420800000017747550792997109128_"  style="overflow:visible;"/>
			</clipPath>
			
				<path style="clip-path:url(#SVGID_00000032622134123085621480000017022070551099923121_);fill:none;stroke:#000000;stroke-width:10.1896;stroke-linecap:round;stroke-linejoin:round;stroke-miterlimit:10;" d="
				M856.25,1029c1.63-0.08,6.54-0.16,9.8-0.49c3.27-0.33,6.54-0.82,9.81-1.47c3.27-0.66,6.54-1.49,9.81-2.49
				c3.26-1,6.53-2.15,9.8-3.5c3.27-1.34,6.54-2.85,9.81-4.57c3.26-1.71,6.53-3.6,9.8-5.69c3.27-2.09,6.54-4.37,9.81-6.87
				c3.27-2.49,6.53-5.17,9.8-8.1c3.27-2.93,6.54-6.07,9.81-9.47c3.27-3.4,6.53-7.03,9.8-10.94c3.27-3.91,6.54-8.06,9.81-12.54
				c3.27-4.49,6.53-9.25,9.8-14.37c3.27-5.14,6.54-10.54,9.81-16.39c3.27-5.86,6.54-12.05,9.8-18.73
				c3.27-6.68,6.54-13.74,9.81-21.39c3.27-7.65,6.54-15.72,9.8-24.52c3.27-8.79,6.54-18.07,9.81-28.21s6.54-20.86,9.81-32.65
				c3.26-11.79,6.53-24.28,9.8-38.12c3.27-13.83,6.54-28.48,9.81-44.89c3.26-16.4,6.53-33.82,9.8-53.55
				c3.27-19.74,6.54-40.7,9.81-64.85c3.26-24.17,6.53-49.86,9.8-80.11c3.27-30.24,6.54-62.39,9.81-101.36
				c3.27-38.97,8.17-110.37,9.8-132.45"/>
		</g>
		<g style="clip-path:url(#SVGID_00000028295499650462487210000017399570039078201785_);">
			<defs>
				<rect id="SVGID_00000064333137112321375130000011259292957879378839_" x="240.19" y="210.25" width="971.34" height="818.75"/>
			</defs>
			<clipPath id="SVGID_00000034770417968249957380000013405937830072586139_">
				<use xlink:href="#SVGID_00000064333137112321375130000011259292957879378839_"  style="overflow:visible;"/>
			</clipPath>
			
				<path style="clip-path:url(#SVGID_00000034770417968249957380000013405937830072586139_);fill:none;stroke:#000000;stroke-width:10.1896;stroke-linecap:round;stroke-linejoin:round;stroke-miterlimit:10;stroke-dasharray:40.7585,20.3792;" d="
				M548.22,244.6c0,130.73,0,653.66,0,784.4"/>
		</g>
		<g style="clip-path:url(#SVGID_00000028295499650462487210000017399570039078201785_);">
			<defs>
				<rect id="SVGID_00000176724941677581642660000003121452747304021920_" x="240.19" y="210.25" width="971.34" height="818.75"/>
			</defs>
			<clipPath id="SVGID_00000147935798193174816510000015307422525461308070_">
				<use xlink:href="#SVGID_00000176724941677581642660000003121452747304021920_"  style="overflow:visible;"/>
			</clipPath>
			
				<path style="clip-path:url(#SVGID_00000147935798193174816510000015307422525461308070_);fill:none;stroke:#000000;stroke-width:10.1896;stroke-linecap:round;stroke-linejoin:round;stroke-miterlimit:10;stroke-dasharray:40.7585,20.3792;" d="
				M856.25,244.6c0,130.73,0,653.66,0,784.4"/>
		</g>
		<path style="clip-path:url(#SVGID_00000028295499650462487210000017399570039078201785_);" d="M1381.35,1029l-71.33-20.38
			l14.27,17.83v5.09l-14.27,17.83L1381.35,1029z M70.37,1026.45h1253.99v5.09H70.37c-1.41,0-2.55-1.14-2.55-2.55
			S68.96,1026.45,70.37,1026.45z"/>
		<path style="clip-path:url(#SVGID_00000028295499650462487210000017399570039078201785_);" d="M240.19,40.43l-20.38,71.33
			l17.83-14.27h5.1l17.82,14.27L240.19,40.43z M237.65,1198.83V97.43h5.1v1101.4c0,1.4-1.14,2.55-2.55,2.55
			C238.79,1201.37,237.65,1200.23,237.65,1198.83z"/>
		<g style="clip-path:url(#SVGID_00000028295499650462487210000017399570039078201785_);">
			<defs>
				<rect id="SVGID_00000054974495315006460470000003613971440615438993_" x="111.87" y="113.07" width="47.53" height="61.29"/>
			</defs>
			<clipPath id="SVGID_00000149360890282136320240000011070140320503833269_">
				<use xlink:href="#SVGID_00000054974495315006460470000003613971440615438993_"  style="overflow:visible;"/>
			</clipPath>
			
				<path style="clip-path:url(#SVGID_00000149360890282136320240000011070140320503833269_);fill-rule:evenodd;clip-rule:evenodd;" d="
				M138.42,164.24c-0.22,0.92-0.68,1.61-1.37,2.06c-0.69,0.45-1.41,0.68-2.14,0.68c-0.71,0-1.29-0.25-1.76-0.75
				c-0.36-0.28-0.55-0.73-0.55-1.35c0-0.26,0.03-0.52,0.07-0.78l8.68-33.71c0.34-1.4,0.6-2.75,0.77-4.05c0.05-0.33,0.07-0.66,0.07-1
				c0-0.83-0.15-1.63-0.44-2.42c-0.24-0.71-0.64-1.26-1.19-1.65c-0.55-0.39-1.21-0.59-1.99-0.59c-2.76,0-5.07,0.78-6.94,2.33
				c-1.87,1.55-3.52,3.67-4.96,6.35l-5.13,19.95c-0.22,0.93-0.68,1.61-1.37,2.05c-0.7,0.44-1.41,0.66-2.14,0.66
				c-0.71,0-1.29-0.24-1.76-0.71c-0.32-0.31-0.48-0.76-0.48-1.35c0-0.21,0.02-0.47,0.07-0.78l5.64-21.94
				c0.34-1.28,0.51-2.42,0.51-3.41c0-0.52-0.05-0.98-0.15-1.39c-0.2-1.16-0.85-1.74-1.98-1.74c-0.66,0-1.23,0.22-1.72,0.66
				c-0.49,0.44-0.95,1.09-1.39,1.94c-0.44,0.85-0.83,1.86-1.17,3.01c-0.34,1.15-0.68,2.4-1.02,3.75c-0.27,0.64-0.7,0.97-1.28,0.99
				h-0.44c-0.32,0-0.56-0.1-0.73-0.32c-0.17-0.16-0.26-0.35-0.26-0.57c0-0.09,0.04-0.21,0.11-0.35c0.27-1.04,0.59-2.23,0.95-3.57
				c0.37-1.34,0.86-2.58,1.48-3.73s1.4-2.13,2.34-2.95c0.94-0.82,2.12-1.23,3.53-1.23c2.2,0,3.93,0.64,5.2,1.92
				c1.27,1.28,1.92,2.54,1.94,3.77c1.05-1.4,2.58-2.69,4.58-3.89c2-1.2,4.31-1.8,6.92-1.8c1.49,0,2.93,0.26,4.32,0.77
				c1.39,0.51,2.45,1.36,3.18,2.54c0.86,1.21,1.28,2.6,1.28,4.16v0.11c-0.05,1.59-0.28,3.16-0.7,4.69L138.42,164.24z"/>
		</g>
		<g style="clip-path:url(#SVGID_00000028295499650462487210000017399570039078201785_);">
			<defs>
				<rect id="SVGID_00000096752923715614057390000015396670202641573035_" x="1362.04" y="1082.38" width="40.63" height="75.27"/>
			</defs>
			<clipPath id="SVGID_00000065768256860397736020000000722838691213895312_">
				<use xlink:href="#SVGID_00000096752923715614057390000015396670202641573035_"  style="overflow:visible;"/>
			</clipPath>
			
				<path style="clip-path:url(#SVGID_00000065768256860397736020000000722838691213895312_);fill-rule:evenodd;clip-rule:evenodd;" d="
				M1386.64,1110.98c0,0.1-0.23,0.09-0.7-0.04c-0.68-0.09-2.09-0.14-4.21-0.14c-1.07,0-1.78,0.05-2.12,0.14
				c0.17,0.07,0.81,0.11,1.9,0.11c2.08,0,3.45-0.04,4.12-0.12C1386.3,1110.85,1386.64,1110.87,1386.64,1110.98z M1391.73,1091.18
				c0,0.1-0.23,0.08-0.7-0.04c-0.68-0.09-2.09-0.14-4.21-0.14c-0.68,0-1.21,0.06-1.57,0.18c0.15,0.1,0.6,0.14,1.35,0.14
				c2.08,0,3.45-0.05,4.12-0.16C1391.39,1091.05,1391.73,1091.06,1391.73,1091.18z M1394.33,1091.28c-0.17,0.67-0.65,1.18-1.43,1.53
				c-0.78,0.36-1.6,0.58-2.47,0.68c-0.87,0.1-1.72,0.14-2.55,0.14h-1.72c-1.64,0-2.91-0.48-3.81-1.46c-1.61,0.74-3.1,1.92-4.47,3.56
				c-1.37,1.64-2.31,3.44-2.82,5.4c-0.24,0.95-0.38,1.88-0.4,2.77c0,0.69,0.11,1.35,0.33,1.99c0.32,1.45,0.93,2.6,1.83,3.45
				c1.68-0.57,3.47-0.85,5.35-0.85h1.76c0.83,0,1.64,0.06,2.44,0.16c0.79,0.11,1.48,0.31,2.07,0.62c0.56,0.31,0.86,0.75,0.88,1.32
				c0,0.12-0.03,0.29-0.07,0.5c-0.17,0.69-0.64,1.21-1.43,1.55c-0.78,0.34-1.59,0.57-2.44,0.66c-0.84,0.1-1.7,0.14-2.58,0.14h-1.72
				c-1.07,0-2.1-0.08-3.09-0.25c-0.99-0.16-1.9-0.38-2.73-0.64c-1.98,1-3.75,2.42-5.31,4.27c-1.56,1.85-2.64,3.89-3.22,6.11
				c-0.15,0.57-0.22,1.11-0.22,1.6c0,1.21,0.4,2.25,1.21,3.13c1.1,1.35,2.58,2.38,4.43,3.09l13.33,5.01
				c1.25,0.45,2.19,1.12,2.82,1.99c0.64,0.88,1,1.85,1.1,2.92v0.53c0,0.83-0.16,1.66-0.47,2.49c-0.39,1.07-0.96,2.03-1.7,2.9
				c-0.74,0.87-1.64,1.56-2.69,2.1c-1.05,0.53-2.17,0.8-3.37,0.8c-1.66,0-3.17-0.28-4.52-0.85c-1.36-0.57-2.59-1.28-3.72-2.13
				c-0.22-0.14-0.35-0.37-0.4-0.68v-0.21c0.07-0.28,0.23-0.54,0.46-0.76c0.23-0.22,0.52-0.37,0.86-0.44h0.18
				c0.22,0,0.45,0.07,0.7,0.21c0.98,0.76,2.04,1.36,3.17,1.81c1.14,0.45,2.38,0.68,3.72,0.68c0.56,0,1.11-0.25,1.65-0.75
				c0.54-0.5,0.91-1.08,1.13-1.74c0.05-0.26,0.07-0.56,0.07-0.89c0-0.38-0.06-0.78-0.18-1.21c-0.27-0.62-0.9-1.12-1.9-1.53
				l-12.78-4.8c-1.22-0.43-2.36-1.02-3.4-1.78c-1.05-0.76-1.93-1.65-2.64-2.68c-0.71-1.03-1.16-2.18-1.36-3.43
				c-0.1-0.45-0.15-0.93-0.15-1.46c0-0.8,0.1-1.64,0.29-2.52c0.73-2.84,2.06-5.43,3.98-7.75c1.92-2.32,4-4.09,6.24-5.3
				c-1.56-0.85-2.81-2.18-3.74-3.98c-0.58-1.09-0.86-2.29-0.84-3.59c0-0.85,0.12-1.75,0.37-2.7c0.37-1.44,0.96-2.78,1.78-4.02
				c0.82-1.23,1.8-2.32,2.95-3.27c1.15-0.95,2.42-1.77,3.81-2.47c1.39-0.7,2.73-1.22,4.03-1.55c-0.22-0.66-0.33-1.5-0.33-2.52
				c0-0.95,0.12-1.94,0.37-2.99c0.07-0.38,0.27-0.66,0.59-0.85c0.32-0.19,0.62-0.28,0.91-0.29c0.34,0,0.62,0.11,0.84,0.32
				c0.17,0.17,0.26,0.39,0.26,0.68v0.25c-0.24,0.88-0.37,1.72-0.37,2.52l0.07,0.07c0,0.97,0.09,1.7,0.26,2.17
				c0.51-0.07,1.09-0.14,1.74-0.23c0.65-0.08,1.34-0.12,2.07-0.13h1.72c0.83,0,1.64,0.05,2.44,0.14c0.8,0.1,1.5,0.31,2.11,0.64
				c0.56,0.38,0.84,0.82,0.84,1.32C1394.4,1090.9,1394.38,1091.07,1394.33,1091.28z"/>
		</g>
		<g style="clip-path:url(#SVGID_00000028295499650462487210000017399570039078201785_);">
			<defs>
				<rect id="SVGID_00000038386566828373882170000013733718169346751163_" x="437.59" y="104.62" width="421.1" height="189.86"/>
			</defs>
			<clipPath id="SVGID_00000161595204663338487870000004507450147740035971_">
				<use xlink:href="#SVGID_00000038386566828373882170000013733718169346751163_"  style="overflow:visible;"/>
			</clipPath>
			
				<path style="clip-path:url(#SVGID_00000161595204663338487870000004507450147740035971_);fill-rule:evenodd;clip-rule:evenodd;" d="
				M491.07,230.57c-0.22,0.92-0.68,1.61-1.37,2.06c-0.7,0.45-1.41,0.68-2.14,0.68c-0.71,0-1.29-0.25-1.76-0.75
				c-0.36-0.28-0.55-0.73-0.55-1.35c0-0.26,0.03-0.52,0.07-0.78l8.68-33.71c0.34-1.4,0.6-2.75,0.77-4.05
				c0.05-0.33,0.07-0.66,0.07-0.99c0-0.83-0.15-1.63-0.44-2.42c-0.24-0.71-0.64-1.26-1.19-1.65c-0.55-0.39-1.21-0.59-1.99-0.59
				c-2.76,0-5.07,0.78-6.94,2.33c-1.87,1.55-3.52,3.67-4.96,6.35l-5.13,19.95c-0.22,0.93-0.67,1.61-1.37,2.05
				c-0.7,0.44-1.41,0.66-2.14,0.66c-0.71,0-1.29-0.24-1.76-0.71c-0.32-0.31-0.47-0.76-0.47-1.35c0-0.21,0.02-0.47,0.07-0.78
				l5.64-21.94c0.34-1.28,0.51-2.42,0.51-3.41c0-0.52-0.05-0.98-0.15-1.39c-0.2-1.16-0.85-1.74-1.98-1.74
				c-0.66,0-1.23,0.22-1.72,0.66c-0.49,0.44-0.95,1.09-1.39,1.94c-0.44,0.85-0.83,1.86-1.17,3.01c-0.34,1.15-0.68,2.4-1.03,3.75
				c-0.27,0.64-0.7,0.97-1.28,0.99h-0.44c-0.32,0-0.56-0.11-0.73-0.32c-0.17-0.16-0.26-0.35-0.26-0.57c0-0.09,0.04-0.21,0.11-0.36
				c0.27-1.04,0.59-2.23,0.95-3.57c0.37-1.34,0.86-2.58,1.49-3.73c0.62-1.15,1.4-2.13,2.34-2.95c0.94-0.82,2.12-1.23,3.53-1.23
				c2.2,0,3.93,0.64,5.2,1.92c1.27,1.28,1.92,2.54,1.94,3.77c1.05-1.4,2.58-2.69,4.58-3.89c2-1.2,4.31-1.8,6.92-1.8
				c1.49,0,2.93,0.26,4.32,0.77c1.39,0.51,2.45,1.36,3.18,2.54c0.86,1.21,1.28,2.6,1.28,4.16v0.11c-0.05,1.59-0.28,3.16-0.7,4.69
				L491.07,230.57z"/>
			
				<line style="clip-path:url(#SVGID_00000161595204663338487870000004507450147740035971_);fill:none;stroke:#000000;stroke-width:2.9129;stroke-linecap:round;stroke-miterlimit:10;" x1="521.49" y1="188" x2="572.47" y2="188"/>
			
				<line style="clip-path:url(#SVGID_00000161595204663338487870000004507450147740035971_);fill:none;stroke:#000000;stroke-width:2.9129;stroke-linecap:round;stroke-miterlimit:10;" x1="521.49" y1="203.29" x2="572.47" y2="203.29"/>
			
				<line style="clip-path:url(#SVGID_00000161595204663338487870000004507450147740035971_);fill:none;stroke:#000000;stroke-width:2.9129;stroke-linecap:round;stroke-miterlimit:10;" x1="597.23" y1="195.65" x2="648.21" y2="195.65"/>
			
				<path style="clip-path:url(#SVGID_00000161595204663338487870000004507450147740035971_);fill-rule:evenodd;clip-rule:evenodd;" d="
				M693.93,194.02c0,0.1-0.24,0.09-0.69-0.04c-0.69-0.09-2.08-0.14-4.22-0.14c-1.07,0-1.78,0.05-2.12,0.14
				c0.18,0.07,0.82,0.11,1.9,0.11c2.08,0,3.46-0.04,4.13-0.12C693.61,193.88,693.93,193.9,693.93,194.02z M699.02,174.21
				c0,0.1-0.22,0.08-0.69-0.04c-0.69-0.09-2.08-0.14-4.22-0.14c-0.67,0-1.2,0.06-1.58,0.18c0.16,0.1,0.6,0.14,1.36,0.14
				c2.08,0,3.46-0.05,4.13-0.16C698.7,174.09,699.02,174.1,699.02,174.21z M701.63,174.32c-0.18,0.67-0.65,1.18-1.43,1.53
				c-0.78,0.36-1.61,0.58-2.46,0.68c-0.87,0.1-1.72,0.14-2.55,0.14h-1.72c-1.63,0-2.9-0.48-3.8-1.46c-1.61,0.74-3.1,1.92-4.47,3.56
				c-1.36,1.64-2.3,3.44-2.83,5.4c-0.24,0.95-0.38,1.87-0.4,2.77c0,0.69,0.11,1.35,0.33,1.99c0.33,1.45,0.94,2.6,1.83,3.45
				c1.68-0.57,3.48-0.85,5.36-0.85h1.76c0.82,0,1.63,0.06,2.43,0.16c0.8,0.11,1.49,0.31,2.07,0.62c0.56,0.31,0.85,0.75,0.89,1.32
				c0,0.12-0.04,0.29-0.07,0.5c-0.18,0.69-0.65,1.21-1.43,1.55c-0.78,0.34-1.59,0.57-2.43,0.66c-0.85,0.1-1.72,0.14-2.59,0.14h-1.72
				c-1.07,0-2.1-0.08-3.1-0.25c-0.98-0.16-1.9-0.38-2.72-0.64c-1.99,1-3.75,2.42-5.33,4.27c-1.56,1.85-2.63,3.89-3.22,6.11
				c-0.14,0.57-0.22,1.1-0.22,1.6c0,1.21,0.42,2.25,1.21,3.13c1.1,1.35,2.57,2.38,4.44,3.09l13.31,5.01
				c1.25,0.45,2.19,1.12,2.83,1.99c0.63,0.88,1,1.85,1.11,2.91v0.53c0,0.83-0.16,1.66-0.47,2.49c-0.4,1.07-0.96,2.03-1.7,2.9
				c-0.74,0.87-1.65,1.57-2.7,2.1c-1.05,0.53-2.17,0.8-3.37,0.8c-1.67,0-3.17-0.28-4.53-0.85c-1.36-0.57-2.59-1.28-3.71-2.13
				c-0.22-0.14-0.34-0.37-0.4-0.68v-0.21c0.07-0.28,0.22-0.54,0.45-0.76c0.24-0.22,0.53-0.38,0.87-0.45h0.18
				c0.22,0,0.45,0.07,0.69,0.21c0.98,0.76,2.03,1.36,3.17,1.81c1.14,0.45,2.37,0.68,3.71,0.68c0.56,0,1.12-0.25,1.65-0.75
				c0.54-0.5,0.92-1.08,1.14-1.74c0.05-0.26,0.07-0.56,0.07-0.89c0-0.38-0.05-0.78-0.18-1.21c-0.27-0.62-0.91-1.12-1.9-1.53
				l-12.79-4.8c-1.21-0.43-2.35-1.02-3.41-1.78c-1.05-0.76-1.92-1.65-2.64-2.68c-0.71-1.03-1.16-2.18-1.34-3.43
				c-0.11-0.45-0.14-0.93-0.14-1.46c0-0.81,0.09-1.64,0.29-2.53c0.72-2.84,2.05-5.43,3.97-7.75c1.92-2.32,4-4.09,6.25-5.3
				c-1.56-0.85-2.81-2.18-3.73-3.98c-0.6-1.09-0.87-2.29-0.85-3.59c0-0.85,0.13-1.75,0.36-2.7c0.38-1.44,0.96-2.78,1.78-4.02
				c0.83-1.23,1.81-2.32,2.95-3.27s2.43-1.77,3.8-2.47c1.39-0.7,2.74-1.22,4.04-1.55c-0.22-0.66-0.33-1.5-0.33-2.52
				c0-0.95,0.11-1.94,0.36-2.99c0.07-0.38,0.27-0.66,0.58-0.85c0.33-0.19,0.63-0.28,0.92-0.29c0.34,0,0.62,0.11,0.83,0.32
				c0.18,0.17,0.25,0.39,0.25,0.68v0.25c-0.24,0.88-0.36,1.72-0.36,2.52l0.07,0.07c0,0.97,0.09,1.7,0.25,2.17
				c0.53-0.07,1.11-0.14,1.74-0.23c0.65-0.08,1.34-0.12,2.08-0.13h1.72c0.83,0,1.63,0.05,2.43,0.14c0.8,0.1,1.5,0.31,2.1,0.64
				c0.56,0.38,0.85,0.82,0.85,1.32C701.7,173.94,701.69,174.11,701.63,174.32z"/>
			
				<path style="clip-path:url(#SVGID_00000161595204663338487870000004507450147740035971_);fill-rule:evenodd;clip-rule:evenodd;" d="
				M741.54,208.45c-0.42,2.97-1.81,5.34-4.18,7.13c-2.37,1.79-5.25,2.68-8.62,2.68c-2.25,0-4.38-0.44-6.41-1.31
				c-2.03-0.87-3.8-2.09-5.31-3.63c-1.59-1.61-2.79-3.43-3.6-5.47c-0.82-2.04-1.23-4.17-1.23-6.4c0-2.27,0.4-4.46,1.21-6.58
				c0.8-2.11,2.01-3.98,3.62-5.62c1.5-1.59,3.28-2.83,5.31-3.71c2.03-0.89,4.17-1.33,6.41-1.34c1.41,0,2.83,0.15,4.24,0.45
				c1.43,0.3,2.7,0.76,3.84,1.4c1.12,0.64,2.07,1.48,2.79,2.51c0.74,1.03,1.1,2.25,1.1,3.64c0,1.24-0.4,2.17-1.2,2.81
				c-0.8,0.64-1.67,0.96-2.61,0.96c-0.96,0-1.83-0.32-2.63-0.96c-0.8-0.64-1.2-1.58-1.2-2.81c0-1.23,0.43-2.18,1.29-2.84
				c0.74-0.52,1.52-0.79,2.39-0.82h-0.71c-0.42-0.38-1.32-0.77-2.72-1.19c-1.38-0.41-2.92-0.62-4.6-0.62c-1.38,0-2.68,0.37-3.95,1.1
				c-1.25,0.74-2.3,1.72-3.12,2.95c-1.01,1.54-1.67,3.22-1.99,5.02c-0.31,1.8-0.47,3.69-0.47,5.65c0,1.88,0.2,3.69,0.56,5.44
				c0.38,1.76,1.1,3.37,2.19,4.83c0.87,1.21,1.96,2.18,3.24,2.9c1.27,0.72,2.63,1.09,4.04,1.08c2.61,0,4.75-0.7,6.38-2.1
				c1.63-1.4,2.74-3.2,3.33-5.41c0.14-0.57,0.49-0.85,1.05-0.85l0.67,0.07C741.25,207.57,741.54,207.91,741.54,208.45z"/>
			
				<path style="clip-path:url(#SVGID_00000161595204663338487870000004507450147740035971_);fill-rule:evenodd;clip-rule:evenodd;" d="
				M771.43,200.78c0-1.82-0.13-3.62-0.38-5.4c-0.25-1.78-0.89-3.4-1.88-4.87c-0.94-1.25-2.07-2.23-3.41-2.93
				c-1.36-0.7-2.79-1.05-4.33-1.05c-1.54,0-2.97,0.35-4.33,1.05c-1.34,0.7-2.46,1.68-3.41,2.93c-1,1.45-1.63,3.07-1.88,4.85
				c-0.25,1.79-0.38,3.6-0.38,5.42c0,1.92,0.11,3.82,0.34,5.71c0.24,1.89,0.87,3.62,1.92,5.21c0.83,1.24,1.96,2.21,3.33,2.93
				c1.39,0.72,2.86,1.09,4.4,1.08c1.54,0,3.01-0.36,4.4-1.08c1.38-0.72,2.5-1.7,3.33-2.93c1.03-1.59,1.68-3.32,1.92-5.21
				C771.3,204.6,771.43,202.7,771.43,200.78z M778.38,201.59c0,2.23-0.42,4.36-1.29,6.4c-0.85,2.04-2.1,3.84-3.73,5.4
				c-1.56,1.52-3.37,2.71-5.42,3.58c-2.05,0.86-4.22,1.3-6.52,1.3c-2.3,0-4.47-0.42-6.52-1.28c-2.05-0.85-3.88-2.05-5.45-3.59
				c-1.67-1.59-2.9-3.39-3.73-5.42c-0.83-2.03-1.25-4.15-1.25-6.39c0-2.27,0.42-4.47,1.27-6.58c0.83-2.11,2.07-4.01,3.71-5.69
				c1.56-1.59,3.37-2.84,5.43-3.75c2.07-0.91,4.24-1.37,6.54-1.37c2.3,0,4.47,0.46,6.52,1.37c2.05,0.91,3.86,2.16,5.42,3.75
				c1.67,1.71,2.92,3.61,3.75,5.71C777.97,197.13,778.38,199.32,778.38,201.59z"/>
			
				<path style="clip-path:url(#SVGID_00000161595204663338487870000004507450147740035971_);fill-rule:evenodd;clip-rule:evenodd;" d="
				M804.94,208.28c0,1.19-0.16,2.37-0.47,3.56c-0.33,1.19-0.78,2.25-1.38,3.2c-0.6,0.95-1.38,1.72-2.32,2.33
				c-0.96,0.6-2.07,0.91-3.33,0.91c-1.32,0-2.64-0.19-3.97-0.57c-1.3-0.38-2.5-1.08-3.55-2.1c-1.05-1.02-1.76-2.17-2.16-3.47
				c-0.4-1.29-0.58-2.58-0.58-3.86v-19.95h-6.38v-2.31c1.78,0,3.26-0.38,4.44-1.15c1.16-0.77,2.16-1.79,2.93-3.06
				c0.8-1.27,1.39-2.74,1.78-4.41c0.4-1.67,0.6-3.49,0.6-5.46h2.59v13.41h10.58v2.99h-10.58v19.95c0,1.09,0.09,2.12,0.27,3.08
				c0.18,0.96,0.53,1.83,1.01,2.61c0.83,1.16,1.94,1.74,3.33,1.74c0.72,0,1.38-0.18,1.92-0.55c0.54-0.37,1.01-0.9,1.41-1.6
				c0.4-0.7,0.69-1.5,0.91-2.42c0.24-0.91,0.34-1.87,0.34-2.87v-4.73h2.59V208.28z"/>
			
				<path style="clip-path:url(#SVGID_00000161595204663338487870000004507450147740035971_);fill-rule:evenodd;clip-rule:evenodd;" d="
				M842.66,194.02c0,0.1-0.24,0.09-0.69-0.04c-0.69-0.09-2.1-0.14-4.22-0.14c-1.07,0-1.78,0.05-2.12,0.14
				c0.16,0.07,0.8,0.11,1.9,0.11c2.08,0,3.44-0.04,4.11-0.12C842.33,193.88,842.66,193.9,842.66,194.02z M847.75,174.21
				c0,0.1-0.24,0.08-0.69-0.04c-0.69-0.09-2.1-0.14-4.22-0.14c-0.69,0-1.2,0.06-1.58,0.18c0.14,0.1,0.6,0.14,1.36,0.14
				c2.08,0,3.46-0.05,4.13-0.16C847.42,174.09,847.75,174.1,847.75,174.21z M850.35,174.32c-0.18,0.67-0.65,1.18-1.43,1.53
				c-0.78,0.35-1.61,0.58-2.48,0.68c-0.85,0.1-1.7,0.14-2.54,0.14h-1.72c-1.63,0-2.92-0.48-3.8-1.46c-1.61,0.74-3.12,1.92-4.47,3.56
				c-1.38,1.64-2.32,3.44-2.83,5.4c-0.24,0.95-0.38,1.88-0.4,2.77c0,0.69,0.11,1.35,0.33,1.99c0.33,1.45,0.92,2.6,1.83,3.45
				c1.68-0.57,3.48-0.85,5.34-0.85h1.76c0.83,0,1.65,0.06,2.45,0.16c0.8,0.11,1.49,0.31,2.07,0.62c0.56,0.31,0.85,0.75,0.89,1.32
				c0,0.12-0.04,0.29-0.07,0.5c-0.18,0.69-0.65,1.21-1.43,1.55c-0.78,0.34-1.59,0.57-2.45,0.66c-0.83,0.1-1.7,0.14-2.57,0.14h-1.72
				c-1.07,0-2.1-0.08-3.1-0.25c-1-0.16-1.9-0.38-2.74-0.64c-1.97,1-3.75,2.42-5.31,4.27c-1.56,1.85-2.63,3.89-3.22,6.11
				c-0.14,0.57-0.22,1.1-0.22,1.6c0,1.21,0.4,2.25,1.21,3.13c1.09,1.35,2.57,2.38,4.42,3.09l13.33,5.01
				c1.25,0.45,2.19,1.12,2.83,1.99c0.63,0.88,1,1.85,1.11,2.91v0.53c0,0.83-0.16,1.66-0.49,2.49c-0.38,1.07-0.94,2.03-1.7,2.9
				c-0.74,0.87-1.63,1.57-2.68,2.1c-1.05,0.53-2.17,0.8-3.37,0.8c-1.67,0-3.17-0.28-4.53-0.85c-1.36-0.57-2.59-1.28-3.71-2.13
				c-0.22-0.14-0.36-0.37-0.4-0.68v-0.21c0.07-0.28,0.22-0.54,0.45-0.76c0.24-0.22,0.53-0.38,0.85-0.45h0.2
				c0.22,0,0.45,0.07,0.69,0.21c0.98,0.76,2.03,1.36,3.17,1.81c1.14,0.45,2.37,0.68,3.71,0.68c0.56,0,1.11-0.25,1.65-0.75
				c0.54-0.5,0.92-1.08,1.14-1.74c0.04-0.26,0.07-0.56,0.07-0.89c0-0.38-0.07-0.78-0.18-1.21c-0.27-0.62-0.91-1.12-1.9-1.53
				l-12.79-4.8c-1.21-0.43-2.35-1.02-3.41-1.78c-1.05-0.76-1.94-1.65-2.64-2.68c-0.71-1.03-1.16-2.18-1.36-3.43
				c-0.09-0.45-0.14-0.93-0.14-1.46c0-0.81,0.11-1.64,0.31-2.53c0.72-2.84,2.05-5.43,3.97-7.75c1.92-2.32,4-4.09,6.25-5.3
				c-1.58-0.85-2.81-2.18-3.75-3.98c-0.58-1.09-0.85-2.29-0.83-3.59c0-0.85,0.13-1.75,0.36-2.7c0.36-1.44,0.96-2.78,1.78-4.02
				c0.82-1.23,1.81-2.32,2.95-3.27s2.41-1.77,3.8-2.47c1.39-0.7,2.74-1.22,4.04-1.55c-0.22-0.66-0.34-1.5-0.34-2.52
				c0-0.95,0.13-1.94,0.38-2.99c0.07-0.38,0.27-0.66,0.58-0.85c0.33-0.19,0.62-0.28,0.92-0.29c0.33,0,0.62,0.11,0.83,0.32
				c0.18,0.17,0.25,0.39,0.25,0.68v0.25c-0.24,0.88-0.36,1.72-0.36,2.52l0.07,0.07c0,0.97,0.09,1.7,0.25,2.17
				c0.53-0.07,1.1-0.14,1.74-0.23c0.65-0.08,1.34-0.12,2.07-0.13h1.72c0.83,0,1.65,0.05,2.45,0.14c0.8,0.1,1.5,0.31,2.1,0.64
				c0.56,0.38,0.85,0.82,0.85,1.32C850.43,173.94,850.39,174.11,850.35,174.32z"/>
		</g>
		
			<path style="clip-path:url(#SVGID_00000028295499650462487210000017399570039078201785_);fill:none;stroke:#000000;stroke-width:7.246;stroke-linecap:round;stroke-linejoin:round;stroke-miterlimit:10;" d="
			M240.2,824.32c113.04,0,204.68,91.64,204.68,204.68"/>
		
			<path style="clip-path:url(#SVGID_00000028295499650462487210000017399570039078201785_);fill:none;stroke:#000000;stroke-width:7.246;stroke-linecap:round;stroke-linejoin:round;stroke-miterlimit:10;" d="
			M240.19,262.58c423.28-0.01,766.42,343.13,766.42,766.42c0,0,0,0,0,0.01"/>
		
			<path style="clip-path:url(#SVGID_00000028295499650462487210000017399570039078201785_);fill:none;stroke:#000000;stroke-width:7.246;stroke-linecap:round;stroke-linejoin:round;stroke-miterlimit:10;" d="
			M240.2,537.32c271.54,0,491.67,220.13,491.67,491.68"/>
		<g style="clip-path:url(#SVGID_00000028295499650462487210000017399570039078201785_);">
			<defs>
				<rect id="SVGID_00000160880612111772030640000014326382087951154327_" x="873.26" y="134.09" width="352.73" height="189.86"/>
			</defs>
			<clipPath id="SVGID_00000030460090161998069170000010733516608365423804_">
				<use xlink:href="#SVGID_00000160880612111772030640000014326382087951154327_"  style="overflow:visible;"/>
			</clipPath>
			
				<path style="clip-path:url(#SVGID_00000030460090161998069170000010733516608365423804_);fill-rule:evenodd;clip-rule:evenodd;" d="
				M926.74,260.04c-0.22,0.92-0.68,1.61-1.37,2.06c-0.7,0.45-1.41,0.68-2.14,0.68c-0.71,0-1.29-0.25-1.76-0.75
				c-0.36-0.28-0.55-0.73-0.55-1.35c0-0.26,0.03-0.52,0.07-0.78l8.68-33.71c0.34-1.4,0.6-2.75,0.77-4.05
				c0.05-0.33,0.07-0.66,0.07-0.99c0-0.83-0.15-1.63-0.44-2.42c-0.24-0.71-0.64-1.26-1.19-1.65c-0.55-0.39-1.21-0.59-1.99-0.59
				c-2.76,0-5.07,0.78-6.94,2.33c-1.87,1.55-3.52,3.67-4.96,6.35l-5.13,19.95c-0.22,0.93-0.67,1.61-1.37,2.05
				c-0.7,0.44-1.41,0.66-2.14,0.66c-0.71,0-1.29-0.24-1.76-0.71c-0.32-0.31-0.47-0.76-0.47-1.35c0-0.21,0.02-0.47,0.07-0.78
				l5.64-21.94c0.34-1.28,0.51-2.42,0.51-3.41c0-0.52-0.05-0.98-0.15-1.39c-0.2-1.16-0.85-1.74-1.98-1.74
				c-0.66,0-1.23,0.22-1.72,0.66c-0.49,0.44-0.95,1.09-1.39,1.94c-0.44,0.85-0.83,1.86-1.17,3.01c-0.34,1.15-0.68,2.4-1.03,3.75
				c-0.27,0.64-0.7,0.97-1.28,0.99h-0.44c-0.32,0-0.56-0.11-0.73-0.32c-0.17-0.16-0.26-0.35-0.26-0.57c0-0.09,0.04-0.21,0.11-0.35
				c0.27-1.04,0.59-2.23,0.95-3.57c0.37-1.34,0.86-2.58,1.49-3.73c0.62-1.15,1.4-2.13,2.34-2.95c0.94-0.82,2.12-1.23,3.53-1.23
				c2.2,0,3.93,0.64,5.2,1.92c1.27,1.28,1.92,2.54,1.94,3.77c1.05-1.4,2.58-2.69,4.58-3.89c2-1.2,4.31-1.8,6.92-1.8
				c1.49,0,2.93,0.26,4.32,0.77c1.39,0.51,2.45,1.36,3.18,2.54c0.86,1.21,1.28,2.6,1.28,4.16v0.11c-0.05,1.59-0.28,3.16-0.7,4.69
				L926.74,260.04z"/>
			
				<line style="clip-path:url(#SVGID_00000030460090161998069170000010733516608365423804_);fill:none;stroke:#000000;stroke-width:2.9129;stroke-linecap:round;stroke-linejoin:round;stroke-miterlimit:10;" x1="957.16" y1="217.46" x2="1008.13" y2="217.46"/>
			
				<line style="clip-path:url(#SVGID_00000030460090161998069170000010733516608365423804_);fill:none;stroke:#000000;stroke-width:2.9129;stroke-linecap:round;stroke-linejoin:round;stroke-miterlimit:10;" x1="957.16" y1="232.76" x2="1008.13" y2="232.76"/>
			
				<path style="clip-path:url(#SVGID_00000030460090161998069170000010733516608365423804_);fill-rule:evenodd;clip-rule:evenodd;" d="
				M1053.87,223.48c0,0.1-0.23,0.09-0.7-0.04c-0.68-0.09-2.09-0.14-4.21-0.14c-1.08,0-1.78,0.05-2.12,0.14
				c0.17,0.07,0.81,0.11,1.9,0.11c2.08,0,3.45-0.04,4.12-0.12C1053.53,223.35,1053.87,223.37,1053.87,223.48z M1058.97,203.68
				c0,0.1-0.24,0.08-0.71-0.04c-0.69-0.09-2.08-0.14-4.21-0.14c-0.68,0-1.21,0.06-1.57,0.18c0.15,0.1,0.6,0.14,1.35,0.14
				c2.08,0,3.45-0.05,4.12-0.16C1058.62,203.55,1058.97,203.56,1058.97,203.68z M1061.56,203.78c-0.16,0.67-0.65,1.18-1.43,1.53
				c-0.78,0.36-1.59,0.58-2.46,0.68c-0.87,0.1-1.72,0.14-2.55,0.14h-1.72c-1.64,0-2.91-0.48-3.81-1.46
				c-1.61,0.74-3.1,1.92-4.47,3.56c-1.37,1.64-2.31,3.44-2.82,5.4c-0.24,0.95-0.38,1.87-0.4,2.77c0,0.69,0.11,1.35,0.33,1.99
				c0.32,1.45,0.93,2.6,1.83,3.45c1.68-0.57,3.47-0.85,5.35-0.85h1.76c0.83,0,1.64,0.06,2.44,0.16c0.79,0.11,1.48,0.31,2.06,0.62
				c0.56,0.31,0.87,0.75,0.89,1.32c0,0.12-0.02,0.29-0.07,0.5c-0.16,0.69-0.65,1.21-1.43,1.55c-0.78,0.34-1.59,0.57-2.43,0.66
				c-0.84,0.1-1.7,0.14-2.58,0.14h-1.72c-1.07,0-2.1-0.08-3.09-0.25c-0.99-0.16-1.9-0.38-2.73-0.64c-1.98,1-3.75,2.42-5.31,4.27
				c-1.56,1.85-2.64,3.89-3.22,6.11c-0.15,0.57-0.22,1.11-0.22,1.6c0,1.21,0.4,2.25,1.21,3.13c1.1,1.35,2.58,2.38,4.43,3.09
				l13.33,5.01c1.25,0.45,2.18,1.12,2.81,1.99c0.65,0.88,1.01,1.85,1.11,2.91v0.53c0,0.83-0.16,1.66-0.47,2.49
				c-0.4,1.07-0.96,2.03-1.7,2.9c-0.75,0.87-1.64,1.57-2.7,2.1c-1.05,0.53-2.17,0.8-3.37,0.8c-1.66,0-3.17-0.28-4.52-0.85
				c-1.35-0.57-2.59-1.28-3.72-2.13c-0.22-0.14-0.35-0.37-0.4-0.68v-0.21c0.07-0.28,0.23-0.54,0.46-0.76
				c0.23-0.22,0.52-0.38,0.86-0.45h0.18c0.22,0,0.45,0.07,0.7,0.21c0.98,0.76,2.04,1.36,3.17,1.81c1.14,0.45,2.38,0.68,3.72,0.68
				c0.56,0,1.11-0.25,1.65-0.75c0.54-0.5,0.92-1.08,1.13-1.74c0.05-0.26,0.07-0.56,0.07-0.89c0-0.38-0.06-0.78-0.18-1.21
				c-0.27-0.62-0.91-1.12-1.91-1.53l-12.78-4.8c-1.22-0.43-2.36-1.02-3.41-1.78c-1.05-0.76-1.93-1.65-2.64-2.68
				c-0.71-1.03-1.16-2.18-1.35-3.43c-0.1-0.45-0.15-0.93-0.15-1.46c0-0.81,0.1-1.64,0.29-2.53c0.73-2.84,2.06-5.43,3.97-7.75
				c1.92-2.32,4-4.09,6.24-5.3c-1.56-0.85-2.81-2.18-3.74-3.98c-0.58-1.09-0.86-2.29-0.84-3.59c0-0.85,0.12-1.75,0.37-2.7
				c0.37-1.44,0.96-2.78,1.78-4.02c0.82-1.23,1.8-2.32,2.95-3.27c1.15-0.95,2.42-1.77,3.81-2.47c1.39-0.7,2.73-1.22,4.03-1.55
				c-0.22-0.66-0.33-1.5-0.33-2.52c0-0.95,0.12-1.94,0.37-2.99c0.07-0.38,0.27-0.66,0.59-0.85c0.32-0.19,0.62-0.28,0.92-0.29
				c0.34,0,0.62,0.11,0.84,0.32c0.17,0.17,0.26,0.39,0.26,0.68v0.25c-0.24,0.88-0.37,1.72-0.37,2.52l0.07,0.07
				c0,0.97,0.09,1.7,0.26,2.17c0.51-0.07,1.09-0.14,1.74-0.23c0.65-0.08,1.33-0.12,2.07-0.13h1.72c0.83,0,1.65,0.05,2.43,0.14
				c0.8,0.1,1.5,0.31,2.12,0.64c0.56,0.38,0.83,0.82,0.83,1.32C1061.63,203.41,1061.61,203.57,1061.56,203.78z"/>
			
				<path style="clip-path:url(#SVGID_00000030460090161998069170000010733516608365423804_);fill-rule:evenodd;clip-rule:evenodd;" d="
				M1095.18,237.74c0,1.19-0.16,2.37-0.47,3.56c-0.33,1.19-0.78,2.25-1.38,3.2c-0.6,0.95-1.38,1.72-2.34,2.33
				c-0.94,0.61-2.07,0.91-3.33,0.91c-1.3,0-2.63-0.19-3.95-0.57c-1.32-0.38-2.5-1.08-3.55-2.1c-1.05-1.02-1.78-2.17-2.16-3.47
				c-0.4-1.29-0.6-2.58-0.6-3.86v-19.95h-6.38v-2.31c1.79,0,3.26-0.38,4.44-1.15c1.18-0.77,2.16-1.79,2.95-3.06
				c0.8-1.27,1.38-2.74,1.78-4.41c0.4-1.67,0.58-3.49,0.58-5.46h2.61v13.41h10.58v2.99h-10.58v19.95c0,1.09,0.09,2.12,0.27,3.08
				s0.53,1.83,1.01,2.61c0.82,1.16,1.94,1.74,3.33,1.74c0.72,0,1.36-0.18,1.92-0.55c0.54-0.37,1.01-0.9,1.41-1.6
				c0.38-0.7,0.69-1.5,0.91-2.42c0.22-0.91,0.33-1.87,0.33-2.87v-4.73h2.61V237.74z"/>
			
				<path style="clip-path:url(#SVGID_00000030460090161998069170000010733516608365423804_);fill-rule:evenodd;clip-rule:evenodd;" d="
				M1122.51,229.46c-1.65,0.07-3.37,0.3-5.18,0.68c-1.83,0.38-3.51,1.04-5.09,1.99c-1.34,0.81-2.41,1.89-3.19,3.26
				c-0.8,1.36-1.2,2.78-1.2,4.25c0,0.83,0.16,1.59,0.47,2.28c0.33,0.69,0.76,1.29,1.34,1.81c0.58,0.52,1.23,0.93,1.99,1.23
				c0.76,0.3,1.56,0.45,2.43,0.44c1.2,0,2.28-0.21,3.3-0.64c1-0.43,1.88-1.03,2.64-1.81c0.78-0.78,1.38-1.69,1.81-2.74
				c0.43-1.04,0.67-2.14,0.67-3.31V229.46z M1135.83,240.66c0,0.93-0.16,1.78-0.51,2.56s-0.8,1.49-1.39,2.12
				c-0.58,0.63-1.27,1.12-2.08,1.47c-0.8,0.35-1.67,0.53-2.59,0.53c-1.74,0-3.17-0.63-4.28-1.88s-1.68-2.25-1.74-2.99
				c-0.42,0.97-1.5,2.1-3.26,3.36c-1.76,1.27-3.77,1.9-6.05,1.9c-1.45,0-2.93-0.15-4.4-0.46c-1.49-0.31-2.83-0.77-4.08-1.39
				c-1.23-0.61-2.21-1.44-2.97-2.47c-0.76-1.03-1.14-2.29-1.14-3.79c0-2.11,0.63-3.96,1.92-5.54c1.29-1.59,2.86-2.86,4.71-3.81
				c2.34-1.14,4.76-1.9,7.26-2.31c2.5-0.4,4.93-0.66,7.28-0.78v-2.84c0-1.07-0.18-2.12-0.56-3.18c-0.36-1.05-0.91-1.97-1.65-2.76
				c-1.41-1.63-3.13-2.44-5.16-2.42c-1.65,0-3.19,0.27-4.6,0.8c-1.39,0.53-2.34,1.1-2.83,1.69h-0.36c0.87,0,1.68,0.24,2.45,0.71
				c0.91,0.62,1.36,1.59,1.36,2.91c0,1.24-0.42,2.16-1.23,2.78c-0.82,0.62-1.67,0.92-2.57,0.92c-0.94,0-1.81-0.3-2.63-0.92
				c-0.82-0.62-1.23-1.54-1.23-2.78c0-1.37,0.34-2.59,1.05-3.66c0.69-1.07,1.59-1.96,2.72-2.67c1.1-0.71,2.35-1.24,3.73-1.58
				c1.38-0.34,2.75-0.51,4.15-0.52c1.72,0,3.37,0.25,4.96,0.75c1.61,0.5,3.06,1.27,4.38,2.31c1.2,0.97,2.16,2.11,2.9,3.4
				c0.72,1.29,1.09,2.7,1.09,4.21v16.32c0,0.97,0.2,1.83,0.62,2.56c0.4,0.74,1,1.1,1.81,1.1c0.74,0,1.32-0.37,1.72-1.1
				c0.38-0.73,0.58-1.59,0.58-2.56v-5.01h2.63V240.66z"/>
			
				<path style="clip-path:url(#SVGID_00000030460090161998069170000010733516608365423804_);fill-rule:evenodd;clip-rule:evenodd;" d="
				M1175.92,246.95c-3.1-0.16-6.07-0.25-8.88-0.25c-2.84,0-5.76,0.08-8.75,0.25v-2.99c1.1,0,2.1-0.01,3.03-0.05
				c0.92-0.04,1.61-0.16,2.07-0.38c0.27-0.14,0.45-0.38,0.54-0.73c0.07-0.34,0.13-0.72,0.13-1.12v-17.35c0-1.18-0.07-2.31-0.18-3.37
				c-0.13-1.07-0.47-2.04-1.03-2.92c-0.34-0.57-0.85-0.98-1.52-1.24c-0.67-0.26-1.38-0.39-2.14-0.39c-1.39,0-2.7,0.29-3.91,0.87
				c-1.2,0.58-2.23,1.36-3.08,2.35s-1.54,2.14-2.07,3.47c-0.51,1.33-0.76,2.71-0.76,4.16v14.44c0,0.4,0.05,0.78,0.15,1.12
				c0.09,0.34,0.29,0.59,0.58,0.73c0.47,0.22,1.16,0.34,2.1,0.38c0.92,0.04,1.92,0.05,2.99,0.05v2.95
				c-1.23-0.05-2.39-0.08-3.44-0.11s-2.07-0.06-3.08-0.11h-2.3c-2.86,0-5.78,0.08-8.75,0.25v-2.99c1.1,0,2.1-0.01,3.03-0.05
				c0.91-0.04,1.59-0.16,2.07-0.38c0.29-0.14,0.49-0.38,0.58-0.73c0.11-0.34,0.14-0.72,0.14-1.12v-20.2c0-0.66-0.02-1.26-0.09-1.81
				c-0.05-0.55-0.29-0.99-0.71-1.32c-0.42-0.28-1.09-0.45-2.01-0.49c-0.92-0.05-1.94-0.07-3.01-0.07v-2.95l6.3-0.46l5.05-0.39v6.12
				c0.45-1.09,1.65-2.37,3.57-3.85c1.92-1.48,4.18-2.22,6.79-2.22c1.36,0,2.77,0.16,4.22,0.48c1.47,0.32,2.74,1.01,3.84,2.08
				c1.09,1.07,1.81,2.29,2.16,3.68c0.34,1.39,0.51,2.74,0.51,4.07v17.35c0,0.4,0.05,0.78,0.14,1.12c0.11,0.34,0.31,0.59,0.6,0.73
				c0.45,0.22,1.16,0.34,2.08,0.38c0.92,0.04,1.94,0.05,3.04,0.05V246.95z"/>
			
				<path style="clip-path:url(#SVGID_00000030460090161998069170000010733516608365423804_);fill-rule:evenodd;clip-rule:evenodd;" d="
				M1210.91,223.48c0,0.1-0.24,0.09-0.71-0.04c-0.69-0.09-2.08-0.14-4.2-0.14c-1.09,0-1.79,0.05-2.14,0.14
				c0.18,0.07,0.82,0.11,1.92,0.11c2.07,0,3.44-0.04,4.11-0.12C1210.57,223.35,1210.91,223.37,1210.91,223.48z M1216,203.68
				c0,0.1-0.24,0.08-0.71-0.04c-0.69-0.09-2.08-0.14-4.2-0.14c-0.69,0-1.21,0.06-1.58,0.18c0.14,0.1,0.6,0.14,1.36,0.14
				c2.07,0,3.44-0.05,4.11-0.16C1215.66,203.55,1216,203.56,1216,203.68z M1218.59,203.78c-0.16,0.67-0.65,1.18-1.43,1.53
				c-0.78,0.36-1.59,0.58-2.46,0.68c-0.87,0.1-1.72,0.14-2.55,0.14h-1.72c-1.63,0-2.9-0.48-3.8-1.46c-1.61,0.74-3.1,1.92-4.47,3.56
				c-1.36,1.64-2.3,3.44-2.81,5.4c-0.25,0.95-0.38,1.87-0.42,2.77c0,0.69,0.13,1.35,0.34,1.99c0.31,1.45,0.92,2.6,1.83,3.45
				c1.68-0.57,3.46-0.85,5.34-0.85h1.76c0.83,0,1.65,0.06,2.43,0.16c0.8,0.11,1.49,0.31,2.08,0.62c0.56,0.31,0.85,0.75,0.87,1.32
				c0,0.12-0.02,0.29-0.07,0.5c-0.16,0.69-0.63,1.21-1.43,1.55c-0.78,0.34-1.59,0.57-2.43,0.66c-0.85,0.1-1.7,0.14-2.59,0.14h-1.72
				c-1.07,0-2.1-0.08-3.08-0.25c-1-0.16-1.9-0.38-2.74-0.64c-1.97,1-3.75,2.42-5.31,4.27c-1.58,1.85-2.64,3.89-3.22,6.11
				c-0.14,0.57-0.22,1.1-0.22,1.6c0,1.21,0.4,2.25,1.2,3.13c1.1,1.35,2.59,2.38,4.44,3.09l13.33,5.01c1.25,0.45,2.19,1.12,2.83,1.99
				c0.63,0.88,1,1.85,1.09,2.91v0.53c0,0.83-0.14,1.66-0.47,2.49c-0.4,1.07-0.96,2.03-1.7,2.9c-0.74,0.87-1.65,1.57-2.7,2.1
				c-1.05,0.53-2.17,0.8-3.37,0.8c-1.65,0-3.15-0.28-4.51-0.85c-1.36-0.57-2.61-1.28-3.73-2.13c-0.22-0.14-0.34-0.37-0.4-0.68v-0.21
				c0.07-0.28,0.24-0.54,0.45-0.76c0.24-0.22,0.53-0.38,0.87-0.45h0.18c0.22,0,0.45,0.07,0.69,0.21c0.98,0.76,2.05,1.36,3.17,1.81
				c1.14,0.45,2.39,0.68,3.73,0.68c0.56,0,1.11-0.25,1.65-0.75c0.53-0.5,0.91-1.08,1.12-1.74c0.05-0.26,0.07-0.56,0.07-0.89
				c0-0.38-0.05-0.78-0.18-1.21c-0.27-0.62-0.91-1.12-1.9-1.53l-12.79-4.8c-1.21-0.43-2.35-1.02-3.41-1.78
				c-1.03-0.76-1.92-1.65-2.63-2.68c-0.71-1.03-1.16-2.18-1.36-3.43c-0.09-0.45-0.15-0.93-0.15-1.46c0-0.81,0.09-1.64,0.29-2.53
				c0.74-2.84,2.07-5.43,3.99-7.75c1.9-2.32,3.99-4.09,6.23-5.3c-1.56-0.85-2.81-2.18-3.73-3.98c-0.58-1.09-0.87-2.29-0.85-3.59
				c0-0.85,0.13-1.75,0.38-2.7c0.36-1.44,0.96-2.78,1.78-4.02c0.82-1.23,1.79-2.32,2.95-3.27c1.14-0.95,2.41-1.77,3.8-2.47
				c1.39-0.7,2.74-1.22,4.02-1.55c-0.22-0.66-0.33-1.5-0.33-2.52c0-0.95,0.13-1.94,0.36-2.99c0.07-0.38,0.27-0.66,0.6-0.85
				c0.31-0.19,0.62-0.28,0.91-0.29c0.34,0,0.62,0.11,0.85,0.32c0.16,0.17,0.25,0.39,0.25,0.68v0.25c-0.25,0.88-0.38,1.72-0.38,2.52
				l0.09,0.07c0,0.97,0.07,1.7,0.25,2.17c0.51-0.07,1.09-0.14,1.74-0.23c0.65-0.08,1.34-0.12,2.07-0.13h1.72
				c0.83,0,1.65,0.05,2.43,0.14c0.8,0.1,1.5,0.31,2.12,0.64c0.56,0.38,0.83,0.82,0.83,1.32
				C1218.67,203.41,1218.65,203.57,1218.59,203.78z"/>
		</g>
		<g style="clip-path:url(#SVGID_00000028295499650462487210000017399570039078201785_);">
			<defs>
				<rect id="SVGID_00000044135571535824518240000017990654973731697057_" x="1048.7" y="776.94" width="394.16" height="231.08"/>
			</defs>
			<clipPath id="SVGID_00000125597216926317963680000012321084027513727672_">
				<use xlink:href="#SVGID_00000044135571535824518240000017990654973731697057_"  style="overflow:visible;"/>
			</clipPath>
			
				<path style="clip-path:url(#SVGID_00000125597216926317963680000012321084027513727672_);fill-rule:evenodd;clip-rule:evenodd;" d="
				M1073.3,887.04c0,0.1-0.23,0.09-0.7-0.04c-0.68-0.09-2.09-0.14-4.21-0.14c-1.07,0-1.78,0.05-2.12,0.14
				c0.17,0.07,0.81,0.11,1.9,0.11c2.08,0,3.45-0.04,4.12-0.12C1072.97,886.91,1073.3,886.92,1073.3,887.04z M1078.39,867.23
				c0,0.1-0.23,0.08-0.7-0.04c-0.68-0.09-2.09-0.14-4.21-0.14c-0.68,0-1.21,0.06-1.58,0.18c0.15,0.1,0.6,0.14,1.35,0.14
				c2.08,0,3.45-0.05,4.12-0.16C1078.06,867.11,1078.39,867.12,1078.39,867.23z M1080.99,867.34c-0.17,0.67-0.64,1.18-1.43,1.53
				c-0.78,0.36-1.6,0.58-2.47,0.68c-0.87,0.09-1.71,0.14-2.55,0.14h-1.72c-1.64,0-2.9-0.48-3.81-1.46c-1.61,0.74-3.1,1.92-4.47,3.56
				c-1.37,1.64-2.31,3.44-2.82,5.4c-0.24,0.95-0.38,1.87-0.4,2.77c0,0.69,0.11,1.35,0.33,1.99c0.32,1.45,0.93,2.6,1.83,3.45
				c1.68-0.57,3.46-0.85,5.34-0.85h1.76c0.83,0,1.64,0.06,2.44,0.16c0.79,0.11,1.48,0.31,2.07,0.62c0.56,0.31,0.85,0.75,0.88,1.32
				c0,0.12-0.03,0.29-0.07,0.5c-0.17,0.69-0.64,1.21-1.43,1.55c-0.78,0.34-1.59,0.56-2.44,0.66c-0.84,0.1-1.7,0.14-2.58,0.14h-1.72
				c-1.07,0-2.1-0.08-3.09-0.25c-0.99-0.16-1.9-0.38-2.73-0.64c-1.98,1-3.74,2.42-5.31,4.27c-1.56,1.85-2.64,3.89-3.22,6.11
				c-0.15,0.57-0.22,1.1-0.22,1.6c0,1.21,0.4,2.25,1.21,3.13c1.1,1.35,2.58,2.38,4.43,3.09l13.33,5.01
				c1.24,0.45,2.18,1.12,2.82,1.99c0.64,0.88,1,1.85,1.1,2.92v0.53c0,0.83-0.16,1.66-0.47,2.49c-0.39,1.07-0.96,2.03-1.7,2.9
				c-0.74,0.87-1.64,1.57-2.69,2.1c-1.05,0.53-2.17,0.8-3.37,0.8c-1.66,0-3.17-0.28-4.52-0.85c-1.35-0.57-2.59-1.28-3.72-2.13
				c-0.22-0.14-0.36-0.37-0.4-0.68v-0.21c0.08-0.28,0.23-0.54,0.46-0.76c0.23-0.22,0.52-0.37,0.86-0.44h0.18
				c0.22,0,0.45,0.07,0.7,0.21c0.98,0.76,2.03,1.36,3.17,1.81c1.14,0.45,2.38,0.68,3.72,0.68c0.56,0,1.11-0.25,1.65-0.75
				c0.54-0.5,0.92-1.08,1.14-1.74c0.05-0.26,0.07-0.56,0.07-0.89c0-0.38-0.06-0.78-0.18-1.21c-0.27-0.62-0.9-1.12-1.9-1.53
				l-12.78-4.8c-1.22-0.43-2.36-1.02-3.4-1.78c-1.05-0.76-1.93-1.65-2.64-2.68c-0.71-1.03-1.16-2.18-1.36-3.43
				c-0.1-0.45-0.15-0.93-0.15-1.46c0-0.8,0.1-1.64,0.29-2.52c0.73-2.84,2.06-5.43,3.97-7.75c1.92-2.32,4-4.09,6.24-5.3
				c-1.56-0.85-2.81-2.18-3.74-3.98c-0.58-1.09-0.86-2.28-0.84-3.59c0-0.85,0.12-1.75,0.37-2.7c0.37-1.44,0.96-2.78,1.78-4.02
				c0.82-1.23,1.8-2.32,2.95-3.27c1.15-0.95,2.42-1.77,3.81-2.47c1.39-0.7,2.74-1.22,4.03-1.55c-0.22-0.66-0.33-1.5-0.33-2.52
				c0-0.95,0.12-1.94,0.37-2.99c0.07-0.38,0.27-0.66,0.59-0.85c0.32-0.19,0.62-0.28,0.91-0.29c0.34,0,0.62,0.11,0.84,0.32
				c0.17,0.17,0.26,0.39,0.26,0.68v0.25c-0.24,0.88-0.37,1.72-0.37,2.52l0.07,0.07c0,0.97,0.09,1.7,0.26,2.17
				c0.51-0.07,1.09-0.14,1.74-0.23c0.65-0.08,1.34-0.12,2.07-0.13h1.72c0.83,0,1.64,0.05,2.43,0.14c0.79,0.1,1.5,0.31,2.1,0.64
				c0.56,0.38,0.84,0.82,0.84,1.32C1081.07,866.96,1081.04,867.13,1080.99,867.34z"/>
			
				<path style="clip-path:url(#SVGID_00000125597216926317963680000012321084027513727672_);fill-rule:evenodd;clip-rule:evenodd;" d="
				M1109.95,881.29h-18.69v-1.09c0-0.08,0.05-0.2,0.14-0.36l7.51-7.29c0.89-0.88,1.79-1.77,2.7-2.69c0.91-0.91,1.73-1.85,2.45-2.81
				c0.72-0.95,1.29-1.94,1.72-2.96c0.43-1.02,0.64-2.08,0.64-3.2c0-0.94-0.14-1.82-0.41-2.64c-0.28-0.82-0.67-1.53-1.19-2.15
				c-0.52-0.62-1.17-1.11-1.95-1.49c-0.78-0.38-1.68-0.57-2.71-0.57c-1.53,0-2.88,0.41-4.05,1.23c-1.17,0.82-1.95,1.72-2.33,2.7
				c-0.08,0.03,0.05,0.04,0.37,0.04h0.39c0.46,0.1,0.86,0.24,1.2,0.43c0.34,0.19,0.62,0.46,0.85,0.8c0.23,0.34,0.34,0.75,0.34,1.22
				c0,0.8-0.29,1.41-0.87,1.83c-0.58,0.43-1.23,0.64-1.95,0.64c-0.69,0-1.33-0.21-1.93-0.64c-0.6-0.42-0.9-1.03-0.9-1.83
				c0-1.11,0.24-2.17,0.74-3.16c0.49-0.99,1.16-1.86,2-2.59c0.84-0.73,1.84-1.31,2.99-1.73c1.15-0.42,2.37-0.64,3.65-0.64
				c1.59,0,3.05,0.21,4.37,0.63c1.32,0.42,2.45,1.02,3.39,1.8c0.93,0.78,1.67,1.69,2.19,2.72c0.53,1.03,0.79,2.17,0.79,3.41
				c0,1.38-0.35,2.65-1.06,3.82c-0.7,1.16-1.58,2.23-2.62,3.2c-1.04,0.97-2.15,1.88-3.32,2.74c-1.17,0.86-2.23,1.69-3.18,2.5
				l-5.28,4.44h6.91c0.97,0,1.87-0.01,2.7-0.02c0.84-0.01,1.54-0.04,2.12-0.08c0.58-0.04,0.88-0.07,0.89-0.08
				c0.12-0.09,0.24-0.28,0.34-0.56c0.11-0.28,0.21-0.61,0.3-0.99c0.09-0.38,0.18-0.76,0.28-1.15c0.09-0.39,0.18-0.82,0.25-1.29h1.7
				L1109.95,881.29z"/>
			
				<line style="clip-path:url(#SVGID_00000125597216926317963680000012321084027513727672_);fill:none;stroke:#000000;stroke-width:2.9129;stroke-linecap:round;stroke-linejoin:round;stroke-miterlimit:10;" x1="1134" y1="888.67" x2="1184.98" y2="888.67"/>
			
				<line style="clip-path:url(#SVGID_00000125597216926317963680000012321084027513727672_);fill:none;stroke:#000000;stroke-width:2.9129;stroke-linecap:round;stroke-linejoin:round;stroke-miterlimit:10;" x1="1159.49" y1="863.18" x2="1159.49" y2="914.16"/>
			
				<path style="clip-path:url(#SVGID_00000125597216926317963680000012321084027513727672_);fill-rule:evenodd;clip-rule:evenodd;" d="
				M1232.64,923.59c-0.22,0.93-0.67,1.61-1.36,2.06c-0.71,0.45-1.41,0.68-2.15,0.68c-0.71,0-1.29-0.25-1.76-0.75
				c-0.37-0.28-0.55-0.73-0.55-1.35c0-0.26,0.02-0.52,0.07-0.78l8.68-33.71c0.34-1.4,0.6-2.75,0.78-4.05c0.04-0.33,0.07-0.66,0.07-1
				c0-0.83-0.15-1.63-0.45-2.42c-0.24-0.71-0.63-1.26-1.18-1.65c-0.56-0.39-1.21-0.59-1.99-0.59c-2.77,0-5.08,0.78-6.95,2.33
				c-1.87,1.55-3.52,3.67-4.96,6.34l-5.13,19.95c-0.22,0.93-0.68,1.61-1.37,2.05c-0.7,0.44-1.41,0.66-2.14,0.66
				c-0.71,0-1.29-0.24-1.76-0.71c-0.32-0.31-0.48-0.76-0.48-1.35c0-0.21,0.02-0.47,0.07-0.78l5.64-21.94
				c0.34-1.28,0.51-2.42,0.51-3.41c0-0.52-0.05-0.98-0.15-1.39c-0.2-1.16-0.85-1.74-1.98-1.74c-0.66,0-1.23,0.22-1.72,0.66
				c-0.49,0.44-0.95,1.09-1.39,1.94c-0.44,0.85-0.83,1.86-1.17,3.01c-0.34,1.15-0.68,2.4-1.02,3.75c-0.27,0.64-0.7,0.97-1.28,1
				h-0.44c-0.32,0-0.56-0.11-0.73-0.32c-0.17-0.16-0.26-0.35-0.26-0.57c0-0.09,0.04-0.21,0.11-0.36c0.27-1.04,0.59-2.23,0.95-3.57
				c0.37-1.34,0.86-2.58,1.49-3.74c0.62-1.15,1.4-2.13,2.34-2.95c0.94-0.82,2.12-1.23,3.53-1.23c2.2,0,3.93,0.64,5.2,1.92
				c1.27,1.28,1.92,2.54,1.94,3.77c1.05-1.39,2.58-2.69,4.58-3.89c2-1.2,4.32-1.8,6.93-1.8c1.49,0,2.93,0.26,4.31,0.77
				c1.39,0.51,2.46,1.36,3.19,2.54c0.85,1.21,1.29,2.6,1.29,4.16v0.11c-0.05,1.59-0.27,3.16-0.69,4.69L1232.64,923.59z"/>
			
				<path style="clip-path:url(#SVGID_00000125597216926317963680000012321084027513727672_);fill-rule:evenodd;clip-rule:evenodd;" d="
				M1270.82,881.29h-18.69v-1.09c0-0.08,0.05-0.2,0.15-0.36l7.52-7.29c0.89-0.88,1.78-1.77,2.7-2.69c0.91-0.91,1.72-1.85,2.45-2.81
				c0.71-0.95,1.29-1.94,1.72-2.96c0.42-1.02,0.63-2.08,0.63-3.2c0-0.94-0.13-1.82-0.42-2.64c-0.27-0.82-0.67-1.53-1.18-2.15
				c-0.53-0.62-1.18-1.11-1.96-1.49c-0.78-0.38-1.68-0.57-2.72-0.57c-1.52,0-2.88,0.41-4.06,1.23c-1.16,0.82-1.94,1.72-2.32,2.7
				c-0.07,0.03,0.04,0.04,0.36,0.04h0.4c0.45,0.1,0.85,0.24,1.18,0.43c0.34,0.19,0.63,0.46,0.85,0.8c0.24,0.34,0.34,0.75,0.34,1.22
				c0,0.8-0.29,1.41-0.87,1.83c-0.58,0.43-1.23,0.64-1.96,0.64c-0.69,0-1.32-0.21-1.92-0.64c-0.6-0.42-0.91-1.03-0.91-1.83
				c0-1.11,0.25-2.17,0.74-3.16c0.49-0.99,1.16-1.86,1.99-2.59c0.85-0.73,1.85-1.31,2.99-1.73c1.16-0.42,2.37-0.64,3.66-0.64
				c1.59,0,3.04,0.21,4.37,0.63c1.32,0.42,2.46,1.02,3.39,1.8c0.94,0.78,1.67,1.69,2.19,2.72c0.54,1.03,0.8,2.17,0.8,3.41
				c0,1.38-0.34,2.65-1.05,3.82c-0.71,1.16-1.58,2.23-2.63,3.2c-1.03,0.97-2.14,1.88-3.31,2.74c-1.18,0.86-2.23,1.69-3.19,2.5
				l-5.27,4.44h6.92c0.96,0,1.85-0.01,2.68-0.02c0.85-0.01,1.56-0.04,2.14-0.08c0.58-0.04,0.87-0.07,0.89-0.08
				c0.13-0.09,0.24-0.28,0.34-0.56c0.11-0.28,0.22-0.61,0.31-0.99c0.09-0.38,0.18-0.76,0.27-1.15s0.18-0.82,0.25-1.29h1.7
				L1270.82,881.29z"/>
			
				<line style="clip-path:url(#SVGID_00000125597216926317963680000012321084027513727672_);fill:none;stroke:#000000;stroke-width:2.9129;stroke-linecap:round;stroke-linejoin:round;stroke-miterlimit:10;" x1="1294.88" y1="881.02" x2="1345.85" y2="881.02"/>
			
				<line style="clip-path:url(#SVGID_00000125597216926317963680000012321084027513727672_);fill:none;stroke:#000000;stroke-width:2.9129;stroke-linecap:round;stroke-linejoin:round;stroke-miterlimit:10;" x1="1294.88" y1="896.31" x2="1345.85" y2="896.31"/>
			
				<path style="clip-path:url(#SVGID_00000125597216926317963680000012321084027513727672_);fill-rule:evenodd;clip-rule:evenodd;" d="
				M1396.58,883.95c-0.38-1.18-0.94-2.13-1.68-2.84c-0.72-0.71-1.68-1.07-2.88-1.07c-1.23,0-2.45,0.38-3.7,1.12
				c-1.23,0.75-2.32,1.71-3.3,2.89c-1.29,1.54-2.26,3.21-2.99,5c-0.72,1.79-1.32,3.64-1.81,5.56l-2.1,8
				c0.11,0.38,0.2,0.78,0.31,1.21c0.09,0.43,0.24,0.83,0.4,1.21c0.54,1.16,1.27,2.12,2.17,2.86c0.92,0.75,2.03,1.12,3.35,1.12
				c1.23,0,2.41-0.38,3.55-1.14c1.16-0.76,2.21-1.71,3.19-2.85c1.27-1.59,2.23-3.27,2.88-5.07c0.65-1.79,1.21-3.62,1.7-5.5
				c0.49-1.94,0.89-3.84,1.2-5.69c0.11-0.66,0.16-1.29,0.16-1.89C1397.03,885.86,1396.88,884.87,1396.58,883.95z M1402.41,894.61
				c-0.56,2.14-1.43,4.21-2.61,6.22c-1.16,2.02-2.66,3.85-4.46,5.51c-1.65,1.47-3.44,2.68-5.43,3.61c-1.97,0.93-3.95,1.4-5.92,1.4
				c-1.83,0-3.37-0.48-4.64-1.45c-1.25-0.97-2.07-1.85-2.43-2.63l-4.22,16.32c-0.22,0.93-0.67,1.61-1.36,2.06
				c-0.71,0.45-1.41,0.68-2.16,0.68c-0.71,0-1.29-0.25-1.76-0.75c-0.31-0.31-0.47-0.76-0.47-1.35c0-0.21,0.02-0.47,0.07-0.78
				l7.43-28.98c0.6-2.13,1.45-4.2,2.57-6.22c1.12-2.01,2.57-3.87,4.35-5.55c1.58-1.47,3.32-2.68,5.24-3.62
				c1.94-0.95,3.88-1.42,5.83-1.42c2.03,0,3.8,0.48,5.33,1.44s2.74,2.16,3.6,3.61c1.03,1.71,1.59,3.59,1.72,5.65v0.93
				C1403.1,891.01,1402.86,892.79,1402.41,894.61z"/>
			
				<path style="clip-path:url(#SVGID_00000125597216926317963680000012321084027513727672_);fill-rule:evenodd;clip-rule:evenodd;" d="
				M1431.99,881.29h-18.69v-1.09c0-0.08,0.05-0.2,0.14-0.36l7.52-7.29c0.89-0.88,1.78-1.77,2.7-2.69c0.91-0.91,1.72-1.85,2.45-2.81
				c0.71-0.95,1.29-1.94,1.72-2.96c0.42-1.02,0.63-2.08,0.63-3.2c0-0.94-0.13-1.82-0.42-2.64c-0.27-0.82-0.67-1.53-1.18-2.15
				c-0.53-0.62-1.18-1.11-1.96-1.49c-0.78-0.38-1.68-0.57-2.72-0.57c-1.52,0-2.88,0.41-4.06,1.23c-1.16,0.82-1.94,1.72-2.32,2.7
				c-0.07,0.03,0.04,0.04,0.36,0.04h0.4c0.45,0.1,0.85,0.24,1.18,0.43c0.34,0.19,0.63,0.46,0.85,0.8c0.24,0.34,0.34,0.75,0.34,1.22
				c0,0.8-0.29,1.41-0.87,1.83c-0.58,0.43-1.23,0.64-1.96,0.64c-0.69,0-1.32-0.21-1.92-0.64c-0.6-0.42-0.91-1.03-0.91-1.83
				c0-1.11,0.25-2.17,0.74-3.16c0.49-0.99,1.16-1.86,1.99-2.59c0.85-0.73,1.85-1.31,2.99-1.73c1.16-0.42,2.37-0.64,3.66-0.64
				c1.59,0,3.04,0.21,4.37,0.63c1.32,0.42,2.46,1.02,3.39,1.8c0.94,0.78,1.67,1.69,2.19,2.72c0.54,1.03,0.8,2.17,0.8,3.41
				c0,1.38-0.34,2.65-1.05,3.82c-0.71,1.16-1.58,2.23-2.63,3.2c-1.03,0.97-2.14,1.88-3.31,2.74c-1.18,0.85-2.23,1.69-3.19,2.5
				l-5.27,4.44h6.92c0.96,0,1.85-0.01,2.68-0.02c0.85-0.01,1.56-0.04,2.14-0.08c0.58-0.04,0.87-0.07,0.89-0.08
				c0.13-0.09,0.24-0.28,0.34-0.56c0.11-0.28,0.22-0.61,0.31-0.99c0.09-0.38,0.18-0.76,0.27-1.15s0.18-0.82,0.25-1.29h1.7
				L1431.99,881.29z"/>
		</g>
	</g>
</g>
</svg>
