<?xml version="1.0" encoding="UTF-8"?>
<svg id="_图层_1" data-name="图层 1" xmlns="http://www.w3.org/2000/svg" xmlns:xlink="http://www.w3.org/1999/xlink" viewBox="0 0 1329.96 871.85">
  <defs>
    <style>
      .cls-1, .cls-2, .cls-3, .cls-4, .cls-5 {
        fill: none;
      }

      .cls-6 {
        clip-path: url(#clippath);
      }

      .cls-7 {
        clip-path: url(#clippath-4);
      }

      .cls-8 {
        clip-path: url(#clippath-3);
      }

      .cls-9 {
        clip-path: url(#clippath-2);
      }

      .cls-10 {
        clip-path: url(#clippath-7);
      }

      .cls-11 {
        clip-path: url(#clippath-8);
      }

      .cls-12 {
        clip-path: url(#clippath-6);
      }

      .cls-13 {
        clip-path: url(#clippath-5);
      }

      .cls-14 {
        clip-path: url(#clippath-9);
      }

      .cls-15 {
        clip-path: url(#clippath-10);
      }

      .cls-16 {
        clip-path: url(#clippath-11);
      }

      .cls-2 {
        stroke-width: 1.88px;
      }

      .cls-2, .cls-3, .cls-4, .cls-5 {
        stroke: #000;
        stroke-linecap: round;
        stroke-linejoin: round;
      }

      .cls-3 {
        stroke-width: 1.88px;
      }

      .cls-4 {
        stroke-width: 1.88px;
      }

      .cls-17 {
        opacity: .24;
      }

      .cls-5 {
        stroke-width: 4.4px;
      }

      .cls-18 {
        fill-rule: evenodd;
      }
    </style>
    <clipPath id="clippath">
      <rect class="cls-1" width="1329.96" height="870.96"/>
    </clipPath>
    <clipPath id="clippath-2">
      <rect class="cls-1" x="0" y="1.75" width="1328.63" height="869.21"/>
    </clipPath>
    <clipPath id="clippath-3">
      <rect class="cls-1" y="1.72" width="1328.6" height="870.13"/>
    </clipPath>
    <clipPath id="clippath-4">
      <rect class="cls-1" x="825.34" y="662.96" width="26.29" height="30.62"/>
    </clipPath>
    <clipPath id="clippath-5">
      <rect class="cls-1" x="829.92" y="123.56" width="215.28" height="122.86"/>
    </clipPath>
    <clipPath id="clippath-6">
      <rect class="cls-1" x="495.1" y="397.17" width="215.28" height="122.86"/>
    </clipPath>
    <clipPath id="clippath-7">
      <rect class="cls-1" x="1227.44" y="653.86" width="30.76" height="30.62"/>
    </clipPath>
    <clipPath id="clippath-8">
      <rect class="cls-1" x="401.06" y="22" width="26.29" height="39.66"/>
    </clipPath>
    <clipPath id="clippath-9">
      <rect class="cls-1" x="617.39" y="123.56" width="149.59" height="122.86"/>
    </clipPath>
    <clipPath id="clippath-10">
      <rect class="cls-1" x="361.5" y="221.93" width="26.29" height="30.62"/>
    </clipPath>
    <clipPath id="clippath-11">
      <rect class="cls-1" x="537" y="299.09" width="145.13" height="122.86"/>
    </clipPath>
  </defs>
  <g class="cls-6">
    <g class="cls-9">
      <g class="cls-8">
        <rect class="cls-17" x="76.83" y="637.22" width="1096.7" height="136.17"/>
        <rect class="cls-17" x="835.97" y="232.44" width="337.55" height="407.69"/>
        <rect class="cls-17" x="76.83" y="232.44" width="334.96" height="407.69"/>
        <rect class="cls-17" x="76.83" y="96.27" width="1096.7" height="136.17"/>
        <path d="M1296.1,640.14l-46.15-13.19v26.37l46.15-13.19Zm-1258.89-1.65H1250v3.29H37.21c-.91,0-1.65-.74-1.65-1.65s.74-1.65,1.65-1.65Z"/>
        <path d="M411.78,69.8l-13.19,46.15h26.37l-13.19-46.15Zm-1.65,772.53V115.91h3.3V842.34c0,.91-.74,1.65-1.65,1.65s-1.65-.74-1.65-1.65Z"/>
        <line class="cls-5" x1="835.97" y1="232.44" x2="835.97" y2="640.14"/>
        <g class="cls-7">
          <path class="cls-18" d="M839.82,672.17c-.06-.27-.12-.56-.17-.86-.05-.3-.12-.59-.21-.89-.25-.72-.61-1.32-1.08-1.81-.47-.48-1.06-.72-1.77-.73-.66,0-1.32,.24-1.97,.72-.65,.48-1.24,1.09-1.78,1.84-.76,1.06-1.33,2.16-1.71,3.3-.38,1.14-.73,2.34-1.04,3.58-.31,1.23-.58,2.42-.78,3.57-.13,.58-.19,1.14-.19,1.66,0,.55,.06,1.09,.19,1.61,.14,.72,.4,1.32,.77,1.78,.37,.47,.89,.7,1.55,.7,.73,0,1.46-.25,2.19-.76,.73-.51,1.42-1.13,2.05-1.87,.25-.3,.49-.6,.72-.88,.23-.28,.43-.59,.6-.91l2.61-10.06Zm6.78,8.47c-.19,.75-.4,1.56-.64,2.42-.24,.86-.55,1.66-.95,2.39-.39,.74-.89,1.37-1.49,1.91-.6,.54-1.35,.8-2.25,.8-1.2,0-2.16-.33-2.88-1-.72-.67-1.13-1.35-1.24-2.04-.54,.62-1.34,1.28-2.41,1.98-1.07,.7-2.19,1.06-3.38,1.06-1.25,0-2.29-.31-3.14-.94-.85-.63-1.5-1.42-1.98-2.37-.57-1.13-.87-2.35-.9-3.66v-.35c0-1.21,.17-2.42,.5-3.63,.38-1.33,.91-2.65,1.59-3.96,.68-1.3,1.58-2.52,2.7-3.64,.92-.92,1.96-1.69,3.14-2.32,1.18-.63,2.37-.94,3.59-.94,1.06,0,1.92,.28,2.58,.84,.66,.56,1.08,1.02,1.26,1.39l-.09,.39c.11-.57,.38-1,.79-1.29,.42-.29,.84-.44,1.27-.44,.49,0,.9,.15,1.23,.44,.21,.23,.32,.54,.33,.92,0,.14-.02,.29-.05,.46l-3.41,13.3c-.16,.63-.27,1.22-.33,1.77-.03,.28-.05,.53-.05,.76,0,.2,.02,.42,.05,.64,.05,.37,.16,.65,.33,.83,.17,.18,.42,.28,.73,.27,.33,0,.64-.14,.94-.41,.29-.28,.56-.69,.81-1.23,.24-.54,.48-1.2,.7-1.96,.22-.76,.45-1.58,.69-2.47,.09-.4,.36-.6,.81-.6h.55c.41,0,.62,.17,.62,.51v.16Z"/>
        </g>
        <g class="cls-13">
          <path class="cls-18" d="M858.82,175.77c.47,.41,.78,.99,.92,1.73,.06,.46,.1,.91,.12,1.36,0,.32-.02,.66-.07,1.01-.09,.86-.24,1.73-.45,2.61-.21,.88-.41,1.69-.62,2.43-.41,1.52-1.08,3.01-2,4.48-.92,1.47-2.03,2.77-3.31,3.91-1.28,1.14-2.68,2.07-4.19,2.78-1.52,.71-3.03,1.07-4.55,1.07h-.54l-2.23,8.51c-.09,.43-.37,.65-.83,.67h-.24c-.41,0-.62-.18-.62-.55v-.18l2.2-8.54c-1.06-.08-2.17-.28-3.32-.6-1.15-.32-2.18-.86-3.09-1.61-.91-.75-1.5-1.72-1.77-2.9-.13-.55-.2-1.1-.21-1.63,0-.67,.09-1.36,.26-2.07,.25-1.06,.63-2.22,1.13-3.5,.5-1.27,.97-2.51,1.41-3.71,.41-1.09,.62-2.02,.62-2.78v-.35c-.05-.69-.37-1.03-.97-1.04-.57,0-1.1,.16-1.59,.49-.49,.32-.94,.76-1.36,1.31-.42,.55-.79,1.2-1.1,1.93s-.57,1.51-.76,2.32c-.17,.41-.45,.63-.83,.64h-.28c-.2,0-.36-.07-.47-.21-.11-.11-.17-.23-.17-.37,0-.06,.02-.14,.07-.23,.21-.83,.5-1.68,.89-2.56,.39-.88,.86-1.68,1.43-2.4s1.22-1.31,1.94-1.77c.73-.46,1.55-.69,2.46-.69,.82,0,1.54,.17,2.16,.51,.62,.34,1.09,.78,1.42,1.32,.33,.55,.53,1.17,.59,1.87v.35c0,.6-.14,1.24-.43,1.93-.46,1.18-.92,2.4-1.37,3.65-.46,1.25-.81,2.37-1.07,3.37-.19,.74-.28,1.44-.28,2.12,0,.31,.02,.62,.05,.92,.13,.92,.49,1.7,1.09,2.35,.51,.52,1.12,.93,1.84,1.21,.72,.28,1.43,.48,2.12,.59l8.1-31.45c.09-.4,.37-.6,.83-.6h.24c.41,0,.62,.17,.62,.51v.16l-8.13,31.5h.43c1.3,0,2.59-.3,3.89-.91,1.3-.61,2.49-1.42,3.59-2.45,1.1-1.03,2.07-2.19,2.9-3.5,.84-1.3,1.42-2.63,1.75-3.98,.13-.55,.19-1.08,.19-1.59,0-.55-.06-1.08-.19-1.59-.3-.97-.83-1.76-1.59-2.39-.46-.35-.69-.76-.69-1.22,0-.12,.02-.23,.05-.32,.11-.55,.38-1.04,.79-1.46,.42-.42,.92-.72,1.51-.89,.16-.03,.32-.04,.47-.05,.46,0,.87,.16,1.23,.48Z"/>
          <path class="cls-18" d="M883.32,207.66c0,.12-.05,.28-.14,.46-.16,.15-.34,.23-.55,.23-.28,0-.48-.05-.59-.14-1.85-1.39-3.44-2.99-4.76-4.79-1.33-1.79-2.41-3.71-3.26-5.75-.85-2.04-1.47-4.18-1.87-6.41-.4-2.23-.6-4.47-.6-6.71s.2-4.47,.6-6.7c.4-2.23,1.03-4.37,1.87-6.41,.85-2.04,1.93-3.96,3.26-5.75,1.33-1.79,2.92-3.39,4.76-4.79,.11-.09,.31-.14,.59-.14,.19,0,.37,.08,.55,.23,.09,.19,.14,.34,.14,.46,0,.19-.07,.35-.21,.51-1.53,1.4-2.83,2.97-3.9,4.71-1.07,1.74-1.93,3.59-2.58,5.53-.66,1.95-1.12,3.97-1.4,6.07-.28,2.1-.41,4.19-.41,6.28s.14,4.22,.41,6.31c.28,2.09,.74,4.1,1.4,6.05,.66,1.95,1.51,3.79,2.57,5.53,1.06,1.74,2.36,3.31,3.91,4.71,.14,.14,.21,.31,.21,.51Z"/>
          <path class="cls-18" d="M913.03,179.17c-.17,.69-.53,1.21-1.05,1.55-.53,.35-1.06,.52-1.6,.52-.55,0-1.01-.18-1.37-.53-.27-.26-.41-.6-.43-1.01,0-.17,.03-.38,.09-.64,.17-.58,.44-1.02,.81-1.32,.36-.3,.62-.47,.76-.52-.3-.23-.92-.34-1.85-.35-.82,0-1.56,.43-2.2,1.28-.65,.85-1.13,1.88-1.45,3.07l-2.18,8.42c-.22,.85-.39,1.65-.5,2.42-.06,.26-.09,.49-.09,.69,0,.48,.08,.93,.24,1.36,.16,.46,.4,.83,.71,1.11,.32,.28,.72,.41,1.21,.41,.63,0,1.24-.16,1.82-.49,.59-.33,1.12-.77,1.61-1.34,.49-.56,.92-1.21,1.3-1.96,.38-.74,.68-1.51,.9-2.29,.09-.4,.36-.6,.81-.6h.55c.41,0,.62,.16,.62,.46,0,.09-.02,.18-.07,.25-.22,.92-.58,1.83-1.08,2.73-.5,.9-1.08,1.69-1.74,2.38-.66,.69-1.42,1.26-2.26,1.7-.85,.45-1.75,.67-2.71,.67s-1.82-.21-2.53-.63c-.71-.42-1.29-.97-1.73-1.64-.14-.17-.25-.34-.33-.52-.08-.18-.1-.2-.07-.08-.38,.63-.98,1.27-1.8,1.91-.82,.64-1.77,.96-2.84,.96-.6,0-1.19-.08-1.78-.23-.58-.15-1.09-.39-1.53-.71-.43-.32-.76-.71-.98-1.18-.11-.27-.16-.57-.17-.9,0-.23,.03-.5,.09-.81,.17-.69,.53-1.21,1.07-1.55,.54-.34,1.07-.52,1.61-.52,.55,0,1.03,.18,1.42,.53,.27,.26,.4,.6,.4,1.01,0,.22-.03,.43-.09,.64-.14,.54-.4,.97-.77,1.3-.37,.33-.64,.51-.8,.54,.3,.25,.91,.36,1.82,.35,.82,0,1.56-.43,2.23-1.29,.66-.86,1.15-1.89,1.45-3.09l2.2-8.47c.22-.8,.39-1.58,.52-2.35,.03-.24,.05-.47,.05-.69,0-.47-.07-.92-.21-1.34-.16-.46-.4-.83-.73-1.11-.33-.28-.74-.43-1.23-.43-.63,0-1.25,.17-1.84,.5-.59,.33-1.13,.77-1.62,1.32-.49,.55-.92,1.19-1.3,1.92-.38,.73-.66,1.5-.83,2.31-.17,.41-.47,.63-.88,.64h-.52c-.38,0-.57-.19-.57-.58v-.16c.24-.95,.6-1.87,1.09-2.77,.49-.9,1.07-1.69,1.75-2.38,.68-.69,1.44-1.25,2.28-1.69,.84-.44,1.75-.66,2.72-.66,.95,0,1.79,.21,2.51,.62,.73,.41,1.32,.97,1.78,1.66,.09,.17,.18,.35,.26,.54,.08,.19,.1,.24,.07,.15,.4-.67,1-1.34,1.82-1.99,.82-.65,1.76-.98,2.82-.98,.6,0,1.2,.08,1.79,.22,.59,.15,1.11,.38,1.54,.7,.43,.32,.75,.72,.96,1.2,.11,.28,.17,.59,.17,.94,0,.23-.03,.49-.09,.78Z"/>
          <path class="cls-18" d="M933.69,184.56c0,2.24-.2,4.48-.6,6.71-.4,2.23-1.03,4.37-1.88,6.41-.85,2.04-1.94,3.96-3.27,5.75-1.33,1.79-2.92,3.4-4.79,4.81-.17,.08-.32,.11-.43,.11h-.14c-.19,0-.36-.08-.52-.23-.09-.18-.14-.34-.14-.46,0-.18,.07-.35,.21-.51,1.53-1.39,2.83-2.96,3.89-4.71,1.06-1.74,1.92-3.59,2.57-5.53,.66-1.95,1.12-3.96,1.4-6.05,.28-2.09,.41-4.19,.41-6.31s-.14-4.18-.41-6.28c-.28-2.1-.74-4.13-1.4-6.07-.66-1.95-1.51-3.79-2.57-5.53-1.06-1.74-2.35-3.31-3.89-4.71-.14-.14-.21-.3-.21-.51,0-.21,.06-.37,.17-.48,.14-.14,.31-.21,.5-.21h.14c.09,0,.24,.04,.43,.11,1.88,1.41,3.48,3.02,4.8,4.81,1.32,1.79,2.41,3.71,3.26,5.75,.85,2.04,1.48,4.18,1.88,6.41,.4,2.23,.6,4.47,.6,6.7Z"/>
          <line class="cls-3" x1="952.22" y1="177.51" x2="985.21" y2="177.51"/>
          <line class="cls-3" x1="952.22" y1="187.41" x2="985.21" y2="187.41"/>
          <path class="cls-18" d="M1015.92,179.94c0-.95,0-1.94-.01-3-.02-1.05-.06-2.08-.12-3.09-.07-1.01-.18-1.96-.34-2.85-.16-.89-.36-1.66-.6-2.29-.46-1.02-1.14-1.86-2.04-2.51-.9-.65-1.91-.98-3.05-.98-1.09,0-2.09,.33-2.98,.99-.89,.66-1.57,1.5-2.04,2.5-.22,.63-.42,1.4-.59,2.29-.16,.89-.28,1.85-.34,2.85-.06,1.01-.09,2.04-.12,3.09-.01,1.05-.02,2.05-.02,3,0,1.05,.01,2.16,.02,3.33,.02,1.17,.06,2.29,.12,3.38s.18,2.12,.34,3.1c.16,.98,.36,1.8,.59,2.46,.43,1.1,1.11,2,2.02,2.71,.9,.71,1.91,1.06,3,1.06,1.15,0,2.18-.35,3.08-1.06,.9-.71,1.57-1.61,2-2.71,.23-.66,.43-1.48,.6-2.46,.16-.98,.27-2.01,.34-3.1,.06-1.09,.09-2.22,.12-3.38,.01-1.16,.01-2.27,.01-3.33Zm4.61,.79c0,2.17-.15,4.32-.46,6.46-.3,2.14-1.04,4.15-2.24,6.03-.86,1.37-1.99,2.42-3.41,3.16-1.43,.74-2.98,1.11-4.65,1.11s-3.13-.37-4.56-1.11c-1.43-.73-2.58-1.79-3.42-3.16-1.2-1.88-1.95-3.89-2.24-6.03-.3-2.14-.46-4.3-.46-6.46s.15-4.38,.46-6.57c.29-2.19,1.04-4.24,2.24-6.15,.84-1.38,1.99-2.46,3.41-3.22,1.43-.77,2.95-1.15,4.57-1.15,1.66,0,3.21,.38,4.64,1.15,1.43,.77,2.57,1.84,3.42,3.22,1.2,1.91,1.93,3.96,2.24,6.15,.3,2.19,.46,4.38,.46,6.57Z"/>
        </g>
        <g class="cls-12">
          <path class="cls-18" d="M524.01,449.38c.47,.41,.78,.99,.92,1.73,.06,.46,.1,.91,.12,1.36,0,.32-.02,.66-.07,1.01-.09,.86-.24,1.73-.45,2.61-.21,.88-.41,1.69-.62,2.43-.41,1.52-1.08,3.01-2,4.48-.92,1.47-2.03,2.77-3.31,3.91-1.28,1.14-2.68,2.07-4.19,2.78-1.52,.71-3.03,1.07-4.55,1.07h-.55l-2.23,8.51c-.09,.43-.37,.65-.83,.67h-.24c-.41,0-.62-.18-.62-.55v-.18l2.2-8.54c-1.06-.08-2.17-.28-3.32-.6-1.15-.32-2.18-.86-3.09-1.61-.91-.75-1.5-1.72-1.77-2.9-.13-.55-.2-1.1-.21-1.63,0-.67,.09-1.36,.26-2.07,.25-1.06,.63-2.22,1.13-3.5,.5-1.27,.97-2.51,1.41-3.71,.41-1.09,.62-2.02,.62-2.78v-.35c-.05-.69-.37-1.03-.97-1.04-.57,0-1.1,.16-1.59,.49-.49,.32-.94,.76-1.36,1.31-.42,.55-.79,1.2-1.1,1.93-.32,.74-.57,1.51-.76,2.32-.17,.41-.45,.63-.83,.64h-.28c-.2,0-.36-.07-.47-.21-.11-.11-.17-.23-.17-.37,0-.06,.02-.14,.07-.23,.21-.83,.5-1.68,.89-2.56,.39-.88,.86-1.68,1.43-2.4,.57-.72,1.22-1.31,1.94-1.77,.73-.46,1.55-.69,2.46-.69,.82,0,1.54,.17,2.16,.51,.62,.34,1.09,.78,1.42,1.32,.33,.55,.53,1.17,.59,1.87v.35c0,.6-.14,1.24-.43,1.93-.46,1.18-.92,2.4-1.37,3.65-.46,1.25-.81,2.37-1.07,3.37-.19,.74-.28,1.44-.28,2.12,0,.31,.02,.62,.05,.92,.13,.92,.49,1.7,1.09,2.35,.51,.52,1.12,.93,1.84,1.21,.72,.28,1.43,.48,2.12,.59l8.1-31.45c.09-.4,.37-.6,.83-.6h.24c.41,0,.62,.17,.62,.51v.16l-8.13,31.5h.43c1.3,0,2.59-.3,3.89-.91,1.3-.61,2.49-1.42,3.59-2.45,1.1-1.03,2.07-2.19,2.9-3.5,.84-1.3,1.42-2.63,1.75-3.98,.13-.55,.19-1.08,.19-1.59,0-.55-.06-1.08-.19-1.59-.3-.97-.83-1.76-1.59-2.39-.46-.35-.69-.76-.69-1.22,0-.12,.02-.23,.05-.32,.11-.55,.38-1.04,.79-1.46,.42-.42,.92-.72,1.51-.89,.16-.03,.32-.04,.47-.05,.46,0,.87,.16,1.23,.48Z"/>
          <path class="cls-18" d="M548.51,481.27c0,.12-.05,.28-.14,.46-.16,.15-.34,.23-.55,.23-.28,0-.48-.05-.59-.14-1.85-1.39-3.44-2.99-4.76-4.79-1.33-1.79-2.41-3.71-3.26-5.75-.85-2.04-1.47-4.18-1.87-6.41-.4-2.23-.6-4.47-.6-6.71s.2-4.47,.6-6.7c.4-2.23,1.03-4.37,1.87-6.41,.85-2.04,1.93-3.96,3.26-5.75,1.33-1.79,2.92-3.39,4.76-4.79,.11-.09,.31-.14,.59-.14,.19,0,.37,.08,.55,.23,.09,.19,.14,.34,.14,.46,0,.19-.07,.35-.21,.51-1.53,1.4-2.83,2.97-3.9,4.71-1.07,1.74-1.93,3.59-2.58,5.53-.66,1.95-1.12,3.97-1.4,6.07s-.41,4.19-.41,6.28,.14,4.22,.41,6.31c.28,2.09,.74,4.1,1.4,6.05,.66,1.95,1.51,3.79,2.57,5.53,1.06,1.74,2.36,3.31,3.91,4.71,.14,.14,.21,.31,.21,.51Z"/>
          <path class="cls-18" d="M578.21,452.78c-.17,.69-.53,1.21-1.05,1.55-.53,.35-1.06,.52-1.6,.52-.55,0-1.01-.18-1.37-.53-.27-.26-.41-.6-.43-1.01,0-.17,.03-.38,.09-.64,.17-.58,.44-1.02,.81-1.32,.36-.3,.62-.47,.76-.52-.3-.23-.92-.34-1.85-.35-.82,0-1.56,.43-2.2,1.28-.65,.85-1.13,1.88-1.45,3.07l-2.18,8.42c-.22,.85-.39,1.65-.5,2.42-.06,.26-.09,.49-.09,.69,0,.48,.08,.93,.24,1.36,.16,.46,.4,.83,.71,1.11,.32,.28,.72,.41,1.21,.41,.63,0,1.24-.16,1.82-.49,.59-.33,1.12-.77,1.61-1.34,.49-.56,.92-1.21,1.3-1.96,.38-.74,.68-1.51,.9-2.29,.09-.4,.36-.6,.81-.6h.55c.41,0,.62,.16,.62,.46,0,.09-.02,.18-.07,.25-.22,.92-.58,1.83-1.08,2.73-.5,.9-1.08,1.69-1.74,2.38-.66,.69-1.42,1.26-2.26,1.7-.85,.45-1.75,.67-2.71,.67s-1.82-.21-2.53-.63c-.71-.42-1.29-.97-1.73-1.64-.14-.17-.25-.34-.33-.52-.08-.18-.1-.2-.07-.08-.38,.63-.98,1.27-1.8,1.91-.82,.64-1.77,.96-2.84,.96-.6,0-1.19-.08-1.78-.23-.58-.15-1.09-.39-1.53-.71-.43-.32-.76-.71-.98-1.18-.11-.27-.16-.57-.17-.9,0-.23,.03-.5,.09-.81,.17-.69,.53-1.21,1.07-1.55,.54-.34,1.07-.52,1.61-.52,.55,0,1.03,.18,1.42,.53,.27,.26,.4,.6,.4,1.01,0,.22-.03,.43-.09,.64-.14,.54-.4,.97-.77,1.3-.37,.33-.64,.51-.8,.54,.3,.25,.91,.36,1.82,.35,.82,0,1.56-.43,2.23-1.29,.66-.86,1.15-1.89,1.45-3.09l2.2-8.47c.22-.8,.39-1.58,.52-2.35,.03-.24,.05-.47,.05-.69,0-.47-.07-.92-.21-1.34-.16-.46-.4-.83-.73-1.11-.33-.28-.74-.43-1.23-.43-.63,0-1.25,.17-1.84,.5-.59,.33-1.13,.77-1.62,1.32s-.92,1.19-1.3,1.92c-.38,.73-.66,1.5-.83,2.31-.17,.41-.47,.63-.88,.64h-.52c-.38,0-.57-.19-.57-.58v-.16c.24-.95,.6-1.87,1.09-2.77,.49-.9,1.07-1.69,1.75-2.38,.68-.69,1.44-1.25,2.28-1.69,.84-.44,1.75-.66,2.72-.66,.95,0,1.79,.21,2.51,.62,.73,.41,1.32,.97,1.78,1.66,.09,.17,.18,.35,.26,.54,.08,.19,.1,.24,.07,.15,.4-.67,1-1.34,1.82-1.99,.82-.65,1.76-.98,2.82-.98,.6,0,1.2,.08,1.79,.22,.59,.15,1.11,.38,1.54,.7,.43,.32,.75,.72,.96,1.2,.11,.28,.17,.59,.17,.94,0,.23-.03,.49-.09,.78Z"/>
          <path class="cls-18" d="M598.87,458.16c0,2.24-.2,4.48-.6,6.71-.4,2.23-1.03,4.37-1.88,6.41-.85,2.04-1.94,3.96-3.27,5.75-1.33,1.79-2.92,3.4-4.79,4.81-.17,.08-.32,.11-.43,.11h-.14c-.19,0-.36-.08-.52-.23-.09-.18-.14-.34-.14-.46,0-.18,.07-.35,.21-.51,1.53-1.39,2.83-2.96,3.89-4.71,1.06-1.74,1.92-3.59,2.57-5.53,.66-1.95,1.12-3.96,1.4-6.05,.28-2.09,.41-4.19,.41-6.31s-.14-4.18-.41-6.28c-.28-2.1-.74-4.13-1.4-6.07-.66-1.95-1.51-3.79-2.57-5.53-1.06-1.74-2.35-3.31-3.89-4.71-.14-.14-.21-.3-.21-.51,0-.21,.06-.37,.17-.48,.14-.14,.31-.21,.5-.21h.14c.09,0,.24,.04,.43,.11,1.88,1.41,3.48,3.02,4.8,4.81,1.32,1.79,2.41,3.71,3.26,5.75,.85,2.04,1.48,4.18,1.88,6.41,.4,2.23,.6,4.47,.6,6.7Z"/>
          <line class="cls-3" x1="617.41" y1="451.12" x2="650.39" y2="451.12"/>
          <line class="cls-3" x1="617.41" y1="461.01" x2="650.39" y2="461.01"/>
          <path class="cls-18" d="M675.1,467.44c0,.77-.27,1.42-.82,1.94-.54,.53-1.21,.79-1.98,.79s-1.43-.26-1.98-.79c-.56-.53-.83-1.18-.83-1.94s.27-1.39,.83-1.92c.55-.53,1.21-.79,1.98-.8,.77,0,1.44,.27,1.98,.8,.55,.53,.82,1.17,.82,1.92Zm6.85-24.34c0,.97-.22,1.9-.67,2.79-.46,.89-1.13,1.6-2.03,2.14-1.82,1.18-3.29,2.67-4.41,4.46-1.13,1.79-1.69,3.73-1.69,5.82v2.37c0,.43-.23,.65-.71,.64h-.3c-.45,0-.66-.21-.66-.64v-2.37c0-2.13,.38-4.19,1.15-6.16,.76-1.98,1.92-3.73,3.49-5.25,.49-.47,.82-1.04,1.01-1.7,.18-.66,.27-1.36,.27-2.1,0-.8-.05-1.52-.13-2.17-.08-.65-.34-1.19-.77-1.62-.52-.5-1.14-.85-1.88-1.03-.73-.18-1.5-.28-2.32-.28-1.32,0-2.54,.27-3.66,.82-1.11,.55-1.84,1.15-2.19,1.83-.14,.03-.12,.05,.07,.05,.5,0,.98,.15,1.44,.44,.66,.43,.97,1.09,.97,1.98,0,.8-.25,1.4-.74,1.8-.5,.4-1.08,.6-1.72,.6-.62,0-1.17-.2-1.68-.6-.49-.4-.74-1-.74-1.8,0-1.01,.23-1.93,.69-2.75,.47-.82,1.09-1.52,1.85-2.11,.77-.58,1.64-1.03,2.63-1.34,.97-.31,2-.46,3.07-.46,1.18,0,2.38,.11,3.59,.32,1.2,.22,2.32,.67,3.39,1.38,.87,.55,1.54,1.27,1.99,2.15,.46,.88,.68,1.81,.68,2.79Z"/>
        </g>
        <g class="cls-10">
          <path class="cls-18" d="M1250.37,661.09c-.17,.69-.53,1.21-1.05,1.55-.53,.35-1.06,.52-1.6,.52-.55,0-1.01-.18-1.37-.53-.27-.26-.41-.6-.43-1.01,0-.17,.03-.38,.09-.64,.17-.58,.44-1.02,.81-1.32,.36-.3,.62-.47,.76-.52-.3-.23-.92-.34-1.85-.35-.82,0-1.56,.43-2.2,1.28-.65,.85-1.13,1.88-1.45,3.07l-2.18,8.42c-.22,.85-.39,1.65-.5,2.42-.06,.26-.09,.49-.09,.69,0,.48,.08,.93,.24,1.36,.16,.46,.4,.83,.71,1.11,.32,.28,.72,.41,1.21,.41,.63,0,1.24-.16,1.82-.49,.58-.33,1.12-.77,1.61-1.33,.49-.56,.92-1.21,1.3-1.96,.38-.74,.68-1.51,.9-2.29,.09-.4,.36-.6,.81-.6h.55c.41,0,.62,.15,.62,.46,0,.09-.02,.18-.07,.25-.22,.92-.58,1.83-1.08,2.73-.5,.9-1.08,1.69-1.74,2.38-.66,.69-1.42,1.26-2.26,1.7-.85,.45-1.75,.67-2.71,.67s-1.82-.21-2.53-.63c-.71-.42-1.29-.97-1.73-1.65-.14-.17-.25-.34-.33-.52-.08-.18-.1-.2-.07-.08-.38,.63-.98,1.27-1.8,1.91-.82,.64-1.77,.96-2.84,.96-.6,0-1.19-.08-1.78-.23-.58-.15-1.09-.39-1.53-.71-.43-.32-.76-.71-.98-1.17-.11-.27-.16-.57-.17-.9,0-.23,.03-.5,.09-.81,.17-.69,.53-1.21,1.07-1.55,.54-.35,1.07-.52,1.61-.52,.55,0,1.03,.18,1.42,.53,.27,.26,.4,.6,.4,1.01,0,.22-.03,.43-.09,.64-.14,.54-.4,.97-.77,1.3-.37,.33-.64,.51-.8,.54,.3,.25,.91,.36,1.82,.35,.82,0,1.56-.43,2.23-1.29,.66-.86,1.15-1.89,1.45-3.08l2.2-8.47c.22-.8,.4-1.58,.52-2.35,.03-.24,.05-.47,.05-.69,0-.47-.07-.92-.21-1.33-.16-.46-.4-.83-.73-1.11-.33-.28-.74-.43-1.23-.43-.63,0-1.25,.17-1.84,.5-.59,.33-1.13,.77-1.62,1.32s-.92,1.19-1.3,1.92c-.38,.73-.66,1.5-.83,2.31-.17,.41-.46,.63-.88,.64h-.52c-.38,0-.57-.19-.57-.57v-.16c.24-.95,.6-1.87,1.09-2.77,.49-.9,1.07-1.69,1.75-2.38,.68-.69,1.44-1.25,2.28-1.69,.84-.44,1.75-.66,2.72-.66,.95,0,1.79,.21,2.51,.62,.73,.41,1.32,.97,1.78,1.66,.09,.17,.18,.35,.26,.54,.08,.19,.1,.24,.07,.15,.4-.67,1-1.34,1.82-1.99,.82-.65,1.76-.98,2.82-.98,.6,0,1.2,.08,1.79,.22,.59,.15,1.11,.38,1.54,.7,.43,.32,.75,.72,.96,1.19,.11,.28,.17,.59,.17,.94,0,.23-.03,.49-.09,.78Z"/>
        </g>
        <g class="cls-11">
          <path class="cls-18" d="M417.58,46.49c-.33,1.29-.85,2.52-1.56,3.69-.71,1.17-1.55,2.22-2.51,3.13-.96,.91-2.04,1.65-3.25,2.22-1.2,.57-2.45,.85-3.74,.85-.77,0-1.48-.14-2.13-.43-.65-.28-1.18-.67-1.59-1.15s-.69-1.05-.83-1.71c-.06-.29-.09-.59-.09-.9,0-.4,.05-.81,.14-1.22,.17-.69,.53-1.21,1.07-1.55,.54-.34,1.07-.52,1.59-.52,.55,0,1.02,.18,1.4,.53,.27,.26,.4,.6,.4,1.01,0,.17-.03,.38-.09,.62-.17,.69-.53,1.21-1.07,1.55-.54,.35-.96,.52-1.28,.52,.09,.41,.39,.8,.89,1.16,.5,.36,1.13,.54,1.91,.54,.85,0,1.65-.23,2.39-.69,.74-.46,1.42-1.08,2.04-1.85,.62-.77,1.16-1.67,1.62-2.69,.47-1.02,.84-2.09,1.13-3.21l.14-.55c-.24,.22-.73,.5-1.49,.84-.76,.34-1.59,.52-2.49,.52-1.07,0-2.03-.2-2.88-.6-.85-.4-1.51-1.01-2-1.84-.47-.89-.7-1.87-.69-2.95v-.18c.03-1.12,.17-2.23,.43-3.34,.25-1.06,.62-2.22,1.1-3.5,.48-1.27,.94-2.51,1.38-3.71,.47-1.27,.71-2.32,.71-3.13,0-.69-.29-1.03-.88-1.03-.54,0-1.02,.16-1.46,.46-.43,.31-.83,.73-1.18,1.28-.36,.55-.67,1.19-.96,1.93-.28,.75-.52,1.54-.71,2.38-.17,.41-.46,.63-.88,.64h-.54c-.38,0-.57-.19-.57-.58v-.16c.22-.84,.51-1.7,.88-2.59,.36-.88,.82-1.68,1.37-2.4,.55-.72,1.18-1.32,1.9-1.79,.71-.47,1.52-.71,2.44-.71,.79,0,1.47,.17,2.03,.51,.56,.34,.99,.79,1.28,1.35,.29,.56,.45,1.19,.49,1.9v.16c0,.66-.13,1.34-.4,2.05-.46,1.2-.91,2.42-1.36,3.67-.45,1.25-.8,2.37-1.05,3.37s-.43,1.99-.52,2.97c-.06,.26-.1,.55-.12,.85,0,.6,.1,1.19,.31,1.77,.14,.52,.4,.94,.78,1.24,.38,.31,.83,.46,1.35,.46,1.01,0,1.9-.3,2.65-.9,.76-.6,1.42-1.38,1.99-2.35l3.82-14.84c.14-.57,.43-.98,.86-1.25,.43-.27,.87-.4,1.31-.4,.46,0,.84,.14,1.14,.41,.21,.2,.31,.47,.31,.81,0,.17-.02,.35-.05,.53l-4.86,18.8Z"/>
        </g>
        <g class="cls-14">
          <path class="cls-18" d="M658.62,165.16c-.09,.46-.38,.69-.85,.69-.51,0-.99,.06-1.45,.17-.46,.11-.9,.31-1.34,.59-.43,.28-.83,.61-1.2,1-.36,.39-.7,.83-1,1.32l-17.28,28.09c-.24,.43-.6,.64-1.09,.62h-.45c-.58,0-.87-.24-.85-.74l-2.96-29.38c-.06-.4-.13-.71-.19-.93-.06-.22-.16-.38-.28-.47-.22-.12-.57-.2-1.05-.23-.48-.03-1.03-.05-1.65-.05-.24,0-.41-.08-.52-.23-.09-.09-.14-.21-.14-.35,0-.09,.02-.18,.07-.25l.07-.34c.05-.2,.16-.37,.32-.51,.17-.14,.37-.21,.6-.21,1.52,.09,3.05,.14,4.6,.14,.24,0,.49-.01,.76-.05,1.83,0,3.67-.03,5.5-.09,.22,0,.42,.08,.59,.23,.06,.12,.09,.24,.09,.34,0,.09-.02,.18-.07,.25l-.07,.34c-.05,.22-.16,.39-.34,.52-.18,.13-.38,.2-.58,.19-.55,0-1.06,.02-1.52,.07-.46,.05-.91,.17-1.35,.37-.27,.14-.39,.37-.38,.69v.16c.55,4.08,1,8.18,1.33,12.3,.33,4.12,.69,8.02,1.07,11.7l13.98-22.76c.21-.32,.33-.66,.38-1.01v-.11c0-.23-.06-.43-.17-.62-.35-.52-.99-.78-1.94-.78-.41,0-.62-.21-.62-.62v-.16l.09-.41c.17-.46,.48-.69,.92-.69,1.39,.06,2.79,.09,4.19,.09,.19,.03,.37,.05,.54,.05,1.2,0,2.43-.04,3.7-.14,.43,0,.66,.21,.69,.62v.18l-.17,.39Z"/>
          <line class="cls-4" x1="672.46" y1="177.51" x2="705.44" y2="177.51"/>
          <line class="cls-4" x1="672.46" y1="187.41" x2="705.44" y2="187.41"/>
          <path class="cls-18" d="M736.43,184.12c-.64-.78-1.29-1.54-1.91-2.29-.62-.74-1.28-1.4-1.98-1.97-.7-.57-1.42-1.02-2.17-1.36-.75-.34-1.57-.51-2.45-.51-1.04,0-2.01,.22-2.89,.66-.88,.44-1.65,1.03-2.31,1.78-.66,.75-1.16,1.63-1.53,2.62-.36,1-.55,2.05-.55,3.15,0,1.2,.18,2.34,.55,3.41,.36,1.07,.88,2.01,1.54,2.82,.66,.81,1.45,1.45,2.36,1.94,.91,.49,1.9,.74,2.97,.73,1.17,0,2.28-.21,3.32-.64,1.04-.43,2.02-1.01,2.93-1.74,.9-.73,1.75-1.58,2.53-2.56,.79-.98,1.47-1.96,2.05-2.95l-2.46-3.11Zm24.59,2.09c0-1.19-.18-2.34-.54-3.44-.36-1.1-.88-2.05-1.55-2.85-.66-.81-1.44-1.45-2.36-1.94-.9-.49-1.9-.74-2.97-.74-1.21,0-2.32,.22-3.35,.66-1.02,.44-1.99,1.02-2.9,1.74-.91,.72-1.76,1.57-2.54,2.55-.77,.98-1.47,1.97-2.04,2.97l2.46,3.13c.61,.78,1.24,1.54,1.89,2.27,.63,.73,1.3,1.38,1.97,1.94,.68,.57,1.41,1.02,2.17,1.36,.77,.34,1.59,.51,2.48,.51,1.04,0,2-.22,2.88-.65,.89-.44,1.65-1.03,2.31-1.78,.66-.75,1.17-1.62,1.54-2.6,.36-.98,.54-2.02,.54-3.11Zm1.55,0c0,1.41-.23,2.77-.69,4.06-.46,1.3-1.1,2.45-1.93,3.46-.82,1.01-1.82,1.83-2.98,2.44-1.16,.61-2.46,.92-3.9,.92-1.17,0-2.27-.16-3.33-.48-1.05-.32-2.05-.77-3-1.34-.95-.58-1.83-1.23-2.65-1.98s-1.58-1.55-2.27-2.43l-1.34-1.66c-.56,.92-1.28,1.87-2.14,2.85-.88,.98-1.8,1.84-2.81,2.58-1,.74-2.1,1.33-3.28,1.78-1.18,.45-2.46,.68-3.82,.68s-2.69-.31-3.84-.92c-1.15-.61-2.13-1.43-2.94-2.44-.81-1.01-1.43-2.16-1.87-3.46-.44-1.3-.66-2.65-.66-4.06s.23-2.77,.69-4.08c.46-1.31,1.1-2.47,1.92-3.49,.82-1.01,1.82-1.83,2.99-2.44,1.17-.61,2.47-.92,3.91-.92,2.31,0,4.42,.6,6.32,1.8,1.92,1.2,3.56,2.67,4.93,4.42l1.32,1.7c.57-.92,1.29-1.87,2.16-2.85,.87-.98,1.8-1.85,2.81-2.6,1-.75,2.1-1.35,3.28-1.79,1.18-.44,2.45-.67,3.81-.67,1.41,0,2.68,.31,3.84,.92,1.15,.61,2.13,1.43,2.93,2.44,.81,1.01,1.43,2.17,1.88,3.49,.45,1.31,.67,2.67,.67,4.08Z"/>
        </g>
        <g class="cls-15">
          <path class="cls-18" d="M375.97,231.14c-.06-.27-.12-.56-.17-.86-.05-.3-.12-.59-.21-.89-.25-.72-.61-1.32-1.08-1.81-.47-.48-1.06-.72-1.77-.73-.66,0-1.32,.24-1.97,.72-.65,.48-1.24,1.09-1.78,1.84-.76,1.06-1.33,2.16-1.71,3.3-.38,1.14-.73,2.34-1.04,3.58-.31,1.23-.58,2.42-.78,3.57-.13,.58-.19,1.14-.19,1.66,0,.55,.06,1.09,.19,1.61,.14,.72,.4,1.32,.77,1.78,.37,.47,.89,.7,1.55,.7,.73,0,1.46-.25,2.19-.76,.73-.51,1.42-1.13,2.05-1.87,.25-.3,.49-.6,.72-.88,.23-.28,.43-.59,.6-.91l2.61-10.06Zm6.78,8.47c-.19,.75-.4,1.56-.64,2.42-.24,.86-.55,1.66-.95,2.39-.39,.74-.89,1.37-1.49,1.91-.6,.54-1.35,.8-2.25,.8-1.2,0-2.16-.33-2.88-1-.72-.67-1.13-1.35-1.24-2.04-.54,.62-1.34,1.28-2.41,1.98-1.07,.7-2.19,1.06-3.38,1.06-1.25,0-2.29-.31-3.14-.94-.85-.63-1.5-1.42-1.98-2.37-.57-1.13-.87-2.35-.9-3.66v-.35c0-1.21,.17-2.42,.5-3.63,.38-1.33,.91-2.65,1.59-3.96,.68-1.3,1.58-2.52,2.7-3.64,.92-.92,1.96-1.69,3.14-2.32,1.18-.63,2.37-.94,3.59-.94,1.06,0,1.92,.28,2.58,.84,.66,.56,1.08,1.02,1.26,1.39l-.09,.39c.11-.57,.38-1,.79-1.29,.42-.29,.84-.44,1.27-.44,.49,0,.9,.15,1.23,.44,.21,.23,.32,.54,.33,.92,0,.14-.02,.29-.05,.46l-3.41,13.3c-.16,.63-.27,1.22-.33,1.77-.03,.28-.05,.53-.05,.76,0,.2,.02,.42,.05,.64,.05,.37,.16,.65,.33,.83,.17,.18,.42,.28,.73,.27,.33,0,.64-.14,.94-.41,.29-.28,.56-.69,.81-1.23,.24-.54,.48-1.2,.7-1.96,.22-.76,.45-1.58,.69-2.47,.09-.4,.36-.6,.81-.6h.55c.41,0,.62,.17,.62,.51v.16Z"/>
        </g>
        <g class="cls-16">
          <path class="cls-18" d="M578.23,340.69c-.09,.46-.38,.69-.85,.69-.51,0-.99,.06-1.45,.17-.46,.11-.9,.31-1.34,.59-.43,.28-.83,.61-1.2,1-.36,.39-.7,.83-1,1.32l-17.28,28.09c-.24,.43-.6,.64-1.09,.62h-.45c-.58,0-.87-.24-.85-.74l-2.96-29.38c-.06-.4-.13-.71-.19-.93-.06-.22-.16-.38-.28-.47-.22-.12-.57-.2-1.05-.23-.48-.03-1.03-.05-1.65-.05-.24,0-.41-.08-.52-.23-.09-.09-.14-.21-.14-.35,0-.09,.02-.18,.07-.25l.07-.34c.05-.2,.16-.37,.32-.51,.17-.14,.37-.21,.6-.21,1.52,.09,3.05,.14,4.6,.14,.24,0,.49-.01,.76-.05,1.83,0,3.67-.03,5.5-.09,.22,0,.42,.08,.59,.23,.06,.12,.09,.24,.09,.34,0,.09-.02,.18-.07,.25l-.07,.34c-.05,.22-.16,.39-.34,.52-.18,.13-.38,.2-.58,.19-.55,0-1.06,.02-1.52,.07-.46,.05-.91,.17-1.35,.37-.27,.14-.39,.37-.38,.69v.16c.55,4.08,1,8.18,1.33,12.3,.33,4.12,.69,8.02,1.07,11.7l13.98-22.76c.21-.32,.33-.66,.38-1.01v-.11c0-.23-.06-.43-.17-.62-.35-.52-.99-.78-1.94-.78-.41,0-.62-.21-.62-.62v-.16l.09-.41c.17-.46,.48-.69,.92-.69,1.39,.06,2.79,.09,4.19,.09,.19,.03,.37,.05,.55,.05,1.2,0,2.43-.04,3.7-.14,.43,0,.66,.21,.69,.62v.18l-.17,.39Z"/>
          <line class="cls-2" x1="592.07" y1="353.04" x2="625.05" y2="353.04"/>
          <line class="cls-2" x1="592.07" y1="362.93" x2="625.05" y2="362.93"/>
          <path class="cls-18" d="M655.77,355.47c0-.95-.01-1.94-.02-3-.02-1.05-.06-2.08-.12-3.09-.06-1.01-.18-1.96-.34-2.85-.16-.89-.36-1.66-.59-2.29-.47-1.02-1.15-1.86-2.05-2.51-.9-.65-1.91-.98-3.04-.98-1.1,0-2.09,.33-2.98,.99-.89,.66-1.57,1.5-2.03,2.5-.23,.63-.43,1.4-.59,2.29-.16,.89-.28,1.85-.34,2.85-.06,1.01-.1,2.04-.11,3.09-.02,1.05-.02,2.05-.02,3,0,1.05,0,2.16,.02,3.33,.02,1.17,.05,2.29,.11,3.38s.17,2.12,.34,3.1c.16,.98,.36,1.8,.59,2.46,.43,1.1,1.1,2,2.01,2.71,.91,.71,1.91,1.06,3.01,1.06,1.15,0,2.17-.35,3.08-1.06,.91-.71,1.58-1.61,2.01-2.71,.22-.66,.42-1.48,.59-2.46,.16-.98,.28-2.01,.34-3.1,.06-1.09,.09-2.22,.12-3.38,.01-1.16,.02-2.27,.02-3.33Zm4.59,.79c0,2.17-.15,4.32-.46,6.46-.29,2.14-1.04,4.15-2.24,6.03-.84,1.37-1.99,2.42-3.41,3.16-1.42,.74-2.97,1.11-4.65,1.11s-3.13-.37-4.56-1.11c-1.43-.73-2.58-1.79-3.43-3.16-1.19-1.88-1.94-3.89-2.24-6.03-.3-2.14-.45-4.3-.45-6.46s.15-4.38,.45-6.57c.3-2.19,1.05-4.24,2.24-6.15,.85-1.38,1.99-2.46,3.41-3.22,1.43-.77,2.95-1.15,4.57-1.15,1.66,0,3.2,.38,4.63,1.15,1.43,.77,2.58,1.84,3.42,3.22,1.2,1.91,1.95,3.96,2.24,6.15,.3,2.19,.46,4.38,.46,6.57Z"/>
        </g>
      </g>
    </g>
  </g>
</svg>