<?xml version="1.0" encoding="UTF-8"?>
<svg id="_图层_1" data-name="图层 1" xmlns="http://www.w3.org/2000/svg" xmlns:xlink="http://www.w3.org/1999/xlink" viewBox="0 0 972 726.22">
  <defs>
    <style>
      .cls-1, .cls-2, .cls-3 {
        fill: none;
      }

      .cls-2 {
        stroke-width: 3.8px;
      }

      .cls-2, .cls-3 {
        stroke: #000;
        stroke-linecap: round;
        stroke-linejoin: round;
      }

      .cls-4 {
        clip-path: url(#clippath);
      }

      .cls-5 {
        clip-path: url(#clippath-4);
      }

      .cls-6 {
        clip-path: url(#clippath-3);
      }

      .cls-7 {
        clip-path: url(#clippath-2);
      }

      .cls-8 {
        clip-path: url(#clippath-7);
      }

      .cls-9 {
        clip-path: url(#clippath-8);
      }

      .cls-10 {
        clip-path: url(#clippath-6);
      }

      .cls-11 {
        clip-path: url(#clippath-5);
      }

      .cls-12 {
        clip-path: url(#clippath-9);
      }

      .cls-13 {
        clip-path: url(#clippath-10);
      }

      .cls-14 {
        clip-path: url(#clippath-11);
      }

      .cls-15 {
        opacity: .24;
      }

      .cls-3 {
        stroke-width: 1.63px;
      }

      .cls-16 {
        fill-rule: evenodd;
      }
    </style>
    <clipPath id="clippath">
      <rect class="cls-1" width="972" height="720"/>
    </clipPath>
    <clipPath id="clippath-2">
      <rect class="cls-1" x="0" y="6.97" width="970.99" height="713.03"/>
    </clipPath>
    <clipPath id="clippath-3">
      <rect class="cls-1" y="6.97" width="971" height="719.25"/>
    </clipPath>
    <clipPath id="clippath-4">
      <rect class="cls-1" x="615.72" y="577.3" width="22.7" height="26.44"/>
    </clipPath>
    <clipPath id="clippath-5">
      <rect class="cls-1" x="125.68" y="328.3" width="193.64" height="106.1"/>
    </clipPath>
    <clipPath id="clippath-6">
      <rect class="cls-1" x="645.45" y="328.3" width="193.64" height="106.1"/>
    </clipPath>
    <clipPath id="clippath-7">
      <rect class="cls-1" x="418.71" y="289.88" width="193.64" height="106.1"/>
    </clipPath>
    <clipPath id="clippath-8">
      <rect class="cls-1" x="894.34" y="548.51" width="26.56" height="26.44"/>
    </clipPath>
    <clipPath id="clippath-9">
      <rect class="cls-1" x="354.03" y="14.29" width="91" height="45.57"/>
    </clipPath>
    <clipPath id="clippath-10">
      <rect class="cls-1" x="239.06" y="74.85" width="41.61" height="26.44"/>
    </clipPath>
    <clipPath id="clippath-11">
      <rect class="cls-1" x="665.73" y="231.71" width="41.61" height="42.06"/>
    </clipPath>
  </defs>
  <g class="cls-4">
    <g class="cls-7">
      <g class="cls-6">
        <rect class="cls-15" x="65.43" y="124.14" width="289.29" height="433.45"/>
        <rect class="cls-15" x="622.2" y="286.77" width="216.43" height="270.11"/>
        <path d="M889.58,556.88l-39.86-11.39v22.78l39.86-11.39Zm-858.36-1.42H849.76v2.85H31.22c-.79,0-1.42-.64-1.42-1.43s.64-1.42,1.42-1.42Z"/>
        <path d="M354.72,65.05l-11.39,39.86h22.78l-11.39-39.86Zm-1.42,614.76V104.87h2.84V679.81c0,.79-.64,1.42-1.42,1.42s-1.42-.64-1.42-1.42Z"/>
        <line class="cls-2" x1="354.72" y1="124.14" x2="354.72" y2="557.59"/>
        <line class="cls-2" x1="624.9" y1="286.41" x2="624.9" y2="557.24"/>
        <g class="cls-5">
          <path class="cls-16" d="M628.22,585.25c-.05-.24-.1-.48-.14-.74-.04-.26-.1-.51-.19-.77-.22-.62-.53-1.14-.93-1.56-.4-.42-.91-.63-1.53-.63-.57,0-1.14,.21-1.7,.62-.56,.41-1.07,.94-1.53,1.59-.65,.92-1.15,1.87-1.47,2.85-.33,.99-.63,2.02-.9,3.09-.27,1.06-.5,2.09-.68,3.08-.11,.5-.16,.98-.16,1.43,0,.48,.05,.94,.16,1.39,.12,.62,.35,1.14,.67,1.54,.32,.4,.77,.61,1.34,.6,.63,0,1.26-.22,1.89-.65,.63-.44,1.22-.97,1.77-1.61,.22-.26,.43-.52,.62-.76,.2-.24,.37-.51,.52-.79l2.25-8.68Zm5.85,7.31c-.16,.65-.35,1.35-.55,2.09-.21,.74-.48,1.43-.82,2.07-.34,.64-.77,1.19-1.29,1.65-.52,.46-1.17,.69-1.94,.69-1.04,0-1.87-.29-2.49-.86-.62-.58-.98-1.16-1.07-1.76-.46,.53-1.16,1.1-2.08,1.71-.92,.61-1.89,.91-2.92,.91-1.08,0-1.98-.27-2.71-.81-.73-.54-1.3-1.23-1.71-2.05-.49-.98-.75-2.03-.78-3.16v-.3c0-1.05,.14-2.09,.43-3.14,.33-1.15,.78-2.29,1.37-3.42,.59-1.12,1.36-2.17,2.33-3.14,.79-.79,1.7-1.46,2.71-2.01,1.02-.54,2.05-.81,3.1-.82,.91,0,1.66,.24,2.23,.73,.57,.48,.93,.88,1.09,1.2l-.08,.34c.1-.49,.32-.86,.69-1.11,.36-.25,.73-.38,1.1-.38,.42,0,.78,.13,1.06,.38,.18,.2,.27,.46,.29,.79,0,.12-.01,.25-.04,.4l-2.95,11.49c-.14,.54-.23,1.05-.29,1.53-.03,.24-.04,.46-.04,.66,0,.17,.01,.36,.04,.56,.04,.32,.14,.56,.29,.72,.15,.16,.36,.24,.63,.24,.29,0,.56-.12,.81-.36,.25-.24,.48-.59,.7-1.06,.21-.47,.41-1.03,.6-1.69,.19-.66,.39-1.37,.59-2.14,.08-.34,.31-.52,.7-.52h.47c.36,0,.53,.15,.53,.44v.14Z"/>
        </g>
        <g class="cls-11">
          <path class="cls-16" d="M150.64,373.39c.41,.36,.68,.86,.8,1.49,.05,.4,.09,.79,.1,1.17,0,.28-.02,.57-.06,.87-.08,.74-.21,1.5-.39,2.26-.18,.76-.36,1.46-.53,2.1-.36,1.31-.93,2.6-1.73,3.87-.8,1.27-1.75,2.39-2.85,3.38-1.11,.99-2.31,1.79-3.62,2.4-1.31,.62-2.62,.92-3.93,.92h-.47l-1.92,7.35c-.08,.37-.32,.56-.72,.58h-.2c-.35,0-.53-.16-.53-.48v-.16l1.9-7.37c-.91-.07-1.87-.24-2.87-.52-1-.28-1.89-.74-2.67-1.39-.78-.65-1.29-1.49-1.53-2.51-.11-.48-.17-.95-.18-1.41,0-.58,.08-1.18,.22-1.79,.22-.91,.54-1.92,.97-3.02,.43-1.1,.84-2.17,1.22-3.2,.36-.94,.53-1.74,.53-2.4v-.3c-.04-.59-.32-.89-.84-.89-.49,0-.95,.14-1.37,.42-.42,.28-.81,.65-1.18,1.13-.36,.48-.68,1.03-.95,1.67-.27,.64-.49,1.31-.65,2.01-.15,.36-.39,.54-.72,.56h-.25c-.18,0-.31-.06-.41-.18-.1-.09-.14-.2-.14-.32,0-.05,.02-.12,.06-.2,.18-.71,.43-1.45,.77-2.21,.33-.76,.75-1.45,1.24-2.08,.49-.62,1.05-1.13,1.68-1.53,.63-.4,1.34-.6,2.13-.6,.71,0,1.33,.15,1.86,.44,.53,.29,.94,.67,1.23,1.14,.29,.47,.46,1.01,.51,1.62v.3c0,.52-.12,1.07-.37,1.67-.39,1.02-.79,2.07-1.19,3.15-.39,1.08-.7,2.05-.92,2.91-.16,.64-.24,1.25-.24,1.83,0,.27,.01,.53,.04,.79,.11,.8,.42,1.47,.94,2.03,.44,.45,.97,.8,1.59,1.04,.62,.25,1.23,.41,1.83,.51l7-27.16c.08-.34,.32-.52,.72-.52h.2c.35,0,.53,.15,.53,.44v.14l-7.02,27.2h.37c1.12,0,2.24-.26,3.36-.78,1.12-.52,2.15-1.23,3.1-2.12,.95-.89,1.78-1.89,2.51-3.02,.72-1.12,1.23-2.27,1.51-3.44,.11-.47,.16-.93,.16-1.37,0-.48-.05-.93-.16-1.37-.26-.83-.72-1.52-1.37-2.07-.39-.3-.59-.65-.59-1.05,0-.1,.01-.2,.04-.28,.1-.48,.32-.89,.69-1.26,.36-.36,.79-.62,1.3-.77,.14-.03,.27-.04,.41-.04,.4,0,.75,.14,1.06,.42Z"/>
          <path class="cls-16" d="M162.67,397.16c-1.57-.04-3.11-.07-4.6-.07s-3.02,.02-4.6,.07v-.96h.89c.28,0,.55,0,.79-.01,.25,0,.48-.03,.71-.06s.42-.06,.58-.09c.14-.02,.25-.09,.34-.2,.09-.12,.13-.24,.13-.38v-12.54c-.43,.19-.95,.33-1.58,.42s-1.31,.14-2.05,.14v-.95c1.03,0,1.97-.11,2.84-.33,.87-.22,1.62-.63,2.25-1.23h.4c.28,0,.42,.12,.42,.37v14.11c0,.15,.04,.28,.13,.39,.09,.11,.21,.18,.37,.2,.14,.03,.31,.06,.53,.09,.21,.03,.46,.05,.73,.06,.27,0,.53,.01,.79,.01h.93v.96Z"/>
          <path class="cls-16" d="M179.24,400.93c0,.11-.04,.24-.12,.4-.14,.13-.29,.2-.47,.2-.25,0-.42-.04-.51-.12-1.6-1.2-2.97-2.58-4.11-4.13-1.15-1.55-2.08-3.21-2.81-4.97s-1.27-3.61-1.62-5.53c-.35-1.93-.52-3.86-.52-5.79s.18-3.86,.52-5.79c.35-1.93,.89-3.77,1.62-5.53,.73-1.76,1.67-3.42,2.81-4.97,1.15-1.55,2.52-2.93,4.11-4.13,.1-.08,.27-.12,.51-.12,.16,0,.32,.07,.47,.2,.08,.16,.12,.29,.12,.4,0,.16-.06,.31-.18,.44-1.32,1.21-2.44,2.56-3.37,4.06-.92,1.5-1.67,3.1-2.23,4.78-.57,1.68-.97,3.43-1.21,5.25-.24,1.82-.36,3.62-.36,5.42s.12,3.65,.36,5.45c.24,1.8,.64,3.54,1.21,5.22,.57,1.68,1.31,3.28,2.22,4.78s2.04,2.86,3.38,4.06c.12,.12,.18,.27,.18,.44Z"/>
          <path class="cls-16" d="M204.88,376.33c-.15,.6-.45,1.04-.91,1.34-.46,.3-.92,.45-1.38,.45-.48,0-.87-.15-1.19-.46-.23-.22-.35-.52-.37-.87,0-.14,.03-.33,.08-.56,.15-.5,.38-.88,.7-1.14,.31-.26,.53-.41,.66-.45-.26-.2-.79-.3-1.6-.3-.71,0-1.34,.37-1.9,1.1-.56,.73-.98,1.62-1.25,2.65l-1.88,7.27c-.19,.73-.33,1.43-.43,2.09-.05,.23-.08,.43-.08,.6,0,.41,.07,.8,.2,1.17,.14,.4,.34,.72,.61,.96,.27,.24,.62,.36,1.04,.36,.55,0,1.07-.14,1.58-.43,.51-.28,.97-.67,1.39-1.15,.42-.48,.8-1.05,1.12-1.69,.33-.64,.59-1.3,.78-1.98,.08-.34,.31-.52,.7-.52h.47c.36,0,.53,.13,.53,.4,0,.08-.02,.15-.06,.22-.19,.8-.5,1.58-.93,2.36-.43,.78-.93,1.46-1.5,2.06s-1.22,1.09-1.95,1.47c-.73,.38-1.51,.58-2.34,.58s-1.58-.18-2.19-.55c-.61-.36-1.11-.84-1.5-1.42-.12-.14-.22-.29-.29-.45-.07-.15-.09-.18-.06-.07-.33,.54-.84,1.09-1.55,1.65-.71,.56-1.53,.83-2.46,.83-.52,0-1.03-.07-1.54-.2-.5-.13-.94-.34-1.32-.61-.37-.28-.66-.62-.85-1.02-.09-.24-.14-.49-.14-.77,0-.2,.03-.43,.08-.7,.15-.6,.46-1.04,.92-1.34,.46-.3,.93-.45,1.39-.45,.48,0,.89,.15,1.23,.46,.23,.23,.35,.52,.35,.87,0,.19-.03,.37-.08,.56-.12,.46-.34,.84-.66,1.12-.32,.29-.55,.44-.69,.47,.26,.21,.79,.31,1.58,.3,.71,0,1.35-.37,1.92-1.11,.57-.74,.99-1.63,1.25-2.66l1.9-7.31c.19-.69,.34-1.36,.45-2.03,.03-.21,.04-.41,.04-.6,0-.41-.06-.79-.19-1.15-.13-.4-.35-.72-.63-.96-.29-.24-.64-.37-1.06-.37-.55,0-1.08,.14-1.59,.43-.51,.29-.98,.67-1.4,1.14-.42,.48-.8,1.03-1.12,1.66-.33,.63-.57,1.3-.72,2-.15,.36-.4,.54-.76,.56h-.45c-.33,0-.49-.16-.49-.5v-.14c.2-.82,.52-1.62,.94-2.39,.42-.78,.93-1.46,1.51-2.06,.59-.6,1.24-1.08,1.97-1.46,.72-.38,1.51-.57,2.35-.57,.82,0,1.54,.18,2.17,.54,.63,.36,1.14,.84,1.53,1.43,.08,.15,.16,.3,.23,.47,.07,.17,.09,.21,.06,.13,.34-.58,.87-1.15,1.58-1.72,.71-.56,1.52-.84,2.43-.85,.52,0,1.03,.06,1.55,.19,.51,.13,.96,.33,1.33,.61,.37,.28,.65,.62,.83,1.03,.1,.24,.14,.51,.14,.81,0,.2-.03,.42-.08,.68Z"/>
          <path class="cls-16" d="M222.72,380.98c0,1.94-.17,3.87-.52,5.79-.35,1.93-.89,3.77-1.63,5.53-.74,1.76-1.68,3.42-2.82,4.97-1.14,1.55-2.52,2.93-4.13,4.15-.15,.07-.27,.1-.37,.1h-.12c-.16,0-.31-.07-.45-.2-.08-.16-.12-.29-.12-.4,0-.16,.06-.3,.18-.44,1.32-1.2,2.44-2.56,3.36-4.06,.91-1.5,1.65-3.1,2.22-4.78,.57-1.68,.97-3.42,1.21-5.22,.24-1.8,.36-3.62,.36-5.45s-.12-3.61-.36-5.42c-.24-1.82-.64-3.56-1.21-5.25-.57-1.68-1.31-3.27-2.22-4.78-.91-1.5-2.03-2.86-3.36-4.06-.12-.12-.18-.26-.18-.44,0-.18,.05-.32,.14-.42,.12-.12,.27-.18,.43-.18h.12c.08,0,.2,.03,.37,.1,1.62,1.22,3.01,2.6,4.14,4.15,1.14,1.55,2.08,3.21,2.81,4.97,.74,1.76,1.28,3.61,1.63,5.53,.35,1.93,.52,3.86,.52,5.79Z"/>
          <line class="cls-3" x1="238.73" y1="374.89" x2="267.22" y2="374.89"/>
          <line class="cls-3" x1="238.73" y1="383.44" x2="267.22" y2="383.44"/>
          <path class="cls-16" d="M288.56,388.99c0,.66-.23,1.22-.7,1.68-.48,.46-1.04,.68-1.71,.68s-1.25-.23-1.72-.68c-.48-.46-.72-1.02-.72-1.68s.24-1.2,.72-1.66c.48-.46,1.05-.69,1.72-.69,.67,0,1.23,.23,1.71,.69,.47,.46,.7,1.01,.7,1.66Zm5.92-21.02c0,.84-.2,1.64-.59,2.41-.38,.77-.97,1.38-1.75,1.85-1.57,1.02-2.83,2.31-3.81,3.86-.97,1.55-1.46,3.23-1.46,5.03v2.05c0,.37-.2,.56-.61,.56h-.26c-.38,0-.58-.18-.58-.56v-2.05c0-1.84,.33-3.61,.99-5.32,.66-1.71,1.67-3.22,3.02-4.53,.43-.41,.72-.9,.87-1.47,.16-.57,.23-1.17,.23-1.81,0-.69-.03-1.31-.11-1.88-.07-.56-.29-1.03-.66-1.4-.46-.44-.99-.73-1.62-.89-.63-.16-1.3-.24-2-.24-1.14,0-2.21,.24-3.17,.71-.96,.47-1.59,1-1.89,1.58-.12,.03-.1,.04,.06,.04,.45,0,.86,.13,1.26,.38,.56,.37,.84,.94,.84,1.71,0,.69-.22,1.21-.65,1.55-.43,.35-.92,.52-1.49,.52-.53,0-1.01-.17-1.44-.52-.44-.34-.65-.86-.65-1.55,0-.87,.2-1.66,.61-2.37,.4-.71,.93-1.31,1.6-1.82,.66-.5,1.41-.89,2.26-1.15,.85-.26,1.73-.4,2.66-.4,1.02,0,2.05,.1,3.09,.28,1.04,.19,2.01,.58,2.93,1.19,.75,.48,1.33,1.1,1.72,1.86,.39,.76,.6,1.57,.6,2.41Z"/>
        </g>
        <g class="cls-10">
          <path class="cls-16" d="M670.41,373.39c.41,.36,.68,.86,.8,1.49,.05,.4,.09,.79,.1,1.17,0,.28-.02,.57-.06,.87-.08,.74-.21,1.5-.39,2.26-.18,.76-.36,1.46-.53,2.1-.36,1.31-.93,2.6-1.73,3.87-.8,1.27-1.75,2.39-2.85,3.38-1.11,.99-2.31,1.79-3.62,2.4-1.31,.62-2.62,.92-3.93,.92h-.47l-1.92,7.35c-.08,.37-.32,.56-.72,.58h-.2c-.35,0-.53-.16-.53-.48v-.16l1.9-7.37c-.91-.07-1.87-.24-2.87-.52-1-.28-1.89-.74-2.67-1.39-.78-.65-1.29-1.49-1.53-2.51-.11-.48-.17-.95-.18-1.41,0-.58,.08-1.18,.22-1.79,.22-.91,.54-1.92,.97-3.02,.43-1.1,.84-2.17,1.22-3.2,.36-.94,.53-1.74,.53-2.4v-.3c-.04-.59-.32-.89-.84-.89-.49,0-.95,.14-1.37,.42-.42,.28-.81,.65-1.18,1.13-.36,.48-.68,1.03-.95,1.67-.27,.64-.49,1.31-.65,2.01-.15,.36-.39,.54-.72,.56h-.25c-.18,0-.31-.06-.41-.18-.1-.09-.14-.2-.14-.32,0-.05,.02-.12,.06-.2,.18-.71,.43-1.45,.77-2.21,.33-.76,.75-1.45,1.24-2.08,.49-.62,1.05-1.13,1.68-1.53,.63-.4,1.34-.6,2.13-.6,.71,0,1.33,.15,1.86,.44,.53,.29,.94,.67,1.23,1.14,.29,.47,.46,1.01,.51,1.62v.3c0,.52-.12,1.07-.37,1.67-.39,1.02-.79,2.07-1.19,3.15-.39,1.08-.7,2.05-.92,2.91-.16,.64-.24,1.25-.24,1.83,0,.27,.01,.53,.04,.79,.11,.8,.42,1.47,.94,2.03,.44,.45,.96,.8,1.59,1.04,.62,.25,1.23,.41,1.83,.51l7-27.16c.08-.34,.32-.52,.72-.52h.2c.35,0,.53,.15,.53,.44v.14l-7.02,27.2h.37c1.12,0,2.24-.26,3.36-.78,1.12-.52,2.15-1.23,3.1-2.12,.95-.89,1.78-1.89,2.51-3.02,.72-1.12,1.23-2.27,1.51-3.44,.11-.47,.16-.93,.16-1.37,0-.48-.05-.93-.16-1.37-.26-.83-.72-1.52-1.37-2.07-.39-.3-.59-.65-.59-1.05,0-.1,.01-.2,.04-.28,.1-.48,.32-.89,.69-1.26,.36-.36,.79-.62,1.3-.77,.14-.03,.27-.04,.41-.04,.4,0,.75,.14,1.06,.42Z"/>
          <path class="cls-16" d="M684.61,392.97c0,.64-.16,1.25-.47,1.84-.32,.59-.74,1.09-1.27,1.5-.6,.47-1.26,.81-1.98,1.04-.72,.23-1.48,.34-2.27,.34-.71,0-1.4-.09-2.08-.27s-1.29-.43-1.83-.77c-.54-.33-.98-.74-1.3-1.23-.33-.49-.49-1.04-.49-1.68,0-.47,.18-.83,.53-1.06,.36-.23,.73-.35,1.12-.35,.41,0,.79,.12,1.15,.35,.36,.23,.53,.59,.53,1.06,0,.28-.06,.52-.19,.71s-.28,.35-.48,.47c-.19,.13-.41,.2-.66,.23-.13,.03-.25,.05-.36,.04-.11,0-.13,0-.05,.02,.27,.42,.79,.78,1.57,1.1,.78,.32,1.62,.48,2.53,.48,.43,0,.83-.09,1.2-.28s.68-.44,.93-.76c.31-.42,.52-.86,.63-1.34,.11-.47,.17-.96,.17-1.46s-.06-1-.17-1.47c-.11-.47-.32-.91-.63-1.31-.26-.32-.57-.59-.94-.79-.37-.2-.77-.3-1.19-.3h-1.86c-.25,0-.38-.1-.4-.31v-.12c0-.09,.03-.16,.09-.21,.08-.07,.18-.1,.3-.1,.25-.03,.51-.04,.77-.04s.51-.01,.76-.04c.46-.03,.86-.16,1.21-.38,.34-.23,.63-.52,.86-.87,.23-.35,.41-.76,.53-1.22,.12-.46,.18-.93,.18-1.41,0-.36-.04-.69-.13-1.01-.09-.32-.24-.6-.47-.84-.48-.49-1.09-.73-1.82-.72-.79,0-1.51,.13-2.16,.4-.65,.26-1.09,.55-1.32,.85-.06,0-.03,.01,.09,.01,.31,0,.6,.08,.87,.24,.41,.22,.62,.58,.62,1.09,0,.43-.16,.76-.47,.97-.31,.22-.66,.33-1.05,.33s-.73-.11-1.06-.32c-.33-.22-.49-.54-.49-.98,0-.54,.15-1.02,.44-1.44,.29-.42,.67-.77,1.12-1.07,.46-.3,.99-.52,1.59-.68,.6-.15,1.21-.23,1.82-.23,.66,0,1.3,.08,1.91,.23,.62,.16,1.2,.4,1.75,.72,.45,.28,.82,.63,1.12,1.04,.3,.41,.46,.88,.46,1.4s-.1,1.01-.31,1.47c-.21,.46-.49,.88-.83,1.25-.35,.37-.76,.7-1.24,.98-.48,.28-.84,.46-1.08,.53,.21,.02,.56,.13,1.05,.33,.5,.2,.97,.46,1.43,.78,.53,.41,.95,.9,1.27,1.46,.32,.57,.47,1.16,.47,1.78Z"/>
          <path class="cls-16" d="M701.32,400.93c0,.11-.04,.24-.12,.4-.14,.13-.29,.2-.47,.2-.25,0-.42-.04-.51-.12-1.6-1.2-2.97-2.58-4.11-4.13-1.15-1.55-2.08-3.21-2.81-4.97-.73-1.76-1.27-3.61-1.62-5.53-.35-1.93-.52-3.86-.52-5.79s.18-3.86,.52-5.79c.35-1.93,.89-3.77,1.62-5.53,.73-1.76,1.67-3.42,2.81-4.97,1.15-1.55,2.52-2.93,4.11-4.13,.1-.08,.27-.12,.51-.12,.16,0,.32,.07,.47,.2,.08,.16,.12,.29,.12,.4,0,.16-.06,.31-.18,.44-1.32,1.21-2.45,2.56-3.37,4.06-.92,1.5-1.67,3.1-2.23,4.78-.57,1.68-.97,3.43-1.21,5.25-.24,1.82-.36,3.62-.36,5.42s.12,3.65,.36,5.45c.24,1.8,.64,3.54,1.21,5.22,.57,1.68,1.31,3.28,2.22,4.78s2.04,2.86,3.38,4.06c.12,.12,.18,.27,.18,.44Z"/>
          <path class="cls-16" d="M726.97,376.33c-.15,.6-.45,1.04-.91,1.34-.46,.3-.92,.45-1.38,.45-.48,0-.87-.15-1.19-.46-.23-.22-.35-.52-.37-.87,0-.14,.03-.33,.08-.56,.15-.5,.38-.88,.7-1.14,.31-.26,.53-.41,.65-.45-.26-.2-.79-.3-1.6-.3-.71,0-1.34,.37-1.9,1.1-.56,.73-.98,1.62-1.25,2.65l-1.88,7.27c-.19,.73-.33,1.43-.43,2.09-.05,.23-.08,.43-.08,.6,0,.41,.07,.8,.2,1.17,.14,.4,.34,.72,.61,.96,.27,.24,.62,.36,1.04,.36,.55,0,1.07-.14,1.58-.43,.51-.28,.97-.67,1.39-1.15,.42-.48,.8-1.05,1.13-1.69,.33-.64,.59-1.3,.78-1.98,.08-.34,.31-.52,.7-.52h.47c.36,0,.53,.13,.53,.4,0,.08-.02,.15-.06,.22-.19,.8-.5,1.58-.93,2.36-.43,.78-.93,1.46-1.5,2.06-.57,.6-1.22,1.09-1.95,1.47-.73,.38-1.51,.58-2.34,.58s-1.58-.18-2.19-.55c-.61-.36-1.11-.84-1.5-1.42-.12-.14-.22-.29-.29-.45-.07-.15-.09-.18-.06-.07-.33,.54-.84,1.09-1.55,1.65-.71,.56-1.53,.83-2.46,.83-.52,0-1.03-.07-1.53-.2-.51-.13-.95-.34-1.32-.61-.37-.28-.66-.62-.85-1.02-.09-.24-.14-.49-.14-.77,0-.2,.03-.43,.08-.7,.15-.6,.46-1.04,.92-1.34,.46-.3,.93-.45,1.39-.45,.48,0,.89,.15,1.23,.46,.23,.23,.35,.52,.35,.87,0,.19-.03,.37-.08,.56-.12,.46-.34,.84-.66,1.12-.32,.29-.55,.44-.69,.47,.26,.21,.78,.31,1.58,.3,.71,0,1.35-.37,1.92-1.11,.57-.74,.99-1.63,1.25-2.66l1.9-7.31c.19-.69,.34-1.36,.45-2.03,.03-.21,.04-.41,.04-.6,0-.41-.06-.79-.19-1.15-.13-.4-.35-.72-.63-.96-.29-.24-.64-.37-1.06-.37-.55,0-1.08,.14-1.59,.43-.51,.29-.98,.67-1.4,1.14-.42,.48-.8,1.03-1.13,1.66-.33,.63-.57,1.3-.72,2-.15,.36-.4,.54-.76,.56h-.45c-.33,0-.49-.16-.49-.5v-.14c.2-.82,.52-1.62,.94-2.39,.42-.78,.93-1.46,1.51-2.06,.59-.6,1.24-1.08,1.97-1.46,.72-.38,1.51-.57,2.35-.57,.82,0,1.54,.18,2.17,.54,.63,.36,1.14,.84,1.54,1.43,.08,.15,.16,.3,.23,.47,.07,.17,.09,.21,.06,.13,.34-.58,.87-1.15,1.58-1.72,.71-.56,1.52-.84,2.44-.85,.52,0,1.03,.06,1.54,.19,.51,.13,.96,.33,1.33,.61,.37,.28,.65,.62,.83,1.03,.1,.24,.14,.51,.14,.81,0,.2-.03,.42-.08,.68Z"/>
          <path class="cls-16" d="M744.81,380.98c0,1.94-.17,3.87-.52,5.79-.35,1.93-.89,3.77-1.63,5.53-.74,1.76-1.68,3.42-2.82,4.97-1.14,1.55-2.52,2.93-4.13,4.15-.15,.07-.27,.1-.37,.1h-.12c-.16,0-.31-.07-.45-.2-.08-.16-.12-.29-.12-.4,0-.16,.06-.3,.18-.44,1.32-1.2,2.44-2.56,3.36-4.06,.91-1.5,1.65-3.1,2.22-4.78,.57-1.68,.97-3.42,1.21-5.22,.24-1.8,.36-3.62,.36-5.45s-.12-3.61-.36-5.42c-.24-1.82-.64-3.56-1.21-5.25-.57-1.68-1.31-3.27-2.22-4.78-.91-1.5-2.03-2.86-3.36-4.06-.12-.12-.18-.26-.18-.44,0-.18,.05-.32,.14-.42,.12-.12,.27-.18,.43-.18h.12c.08,0,.2,.03,.37,.1,1.62,1.22,3.01,2.6,4.14,4.15,1.14,1.55,2.08,3.21,2.81,4.97,.74,1.76,1.28,3.61,1.63,5.53,.35,1.93,.52,3.86,.52,5.79Z"/>
          <line class="cls-3" x1="760.81" y1="374.89" x2="789.3" y2="374.89"/>
          <line class="cls-3" x1="760.81" y1="383.44" x2="789.3" y2="383.44"/>
          <path class="cls-16" d="M810.65,388.99c0,.66-.24,1.22-.71,1.68-.48,.46-1.04,.68-1.71,.68s-1.25-.23-1.72-.68c-.48-.46-.72-1.02-.72-1.68s.24-1.2,.72-1.66c.48-.46,1.05-.69,1.72-.69,.67,0,1.23,.23,1.71,.69,.47,.46,.71,1.01,.71,1.66Zm5.91-21.02c0,.84-.19,1.64-.59,2.41-.38,.77-.97,1.38-1.75,1.85-1.57,1.02-2.83,2.31-3.81,3.86-.96,1.55-1.45,3.23-1.45,5.03v2.05c0,.37-.2,.56-.62,.56h-.26c-.38,0-.58-.18-.58-.56v-2.05c0-1.84,.33-3.61,.99-5.32,.67-1.71,1.67-3.22,3.02-4.53,.43-.41,.72-.9,.87-1.47,.16-.57,.24-1.17,.24-1.81,0-.69-.04-1.31-.11-1.88-.08-.56-.3-1.03-.67-1.4-.46-.44-.99-.73-1.62-.89-.63-.16-1.3-.24-2-.24-1.14,0-2.2,.24-3.16,.71-.96,.47-1.6,1-1.89,1.58-.12,.03-.11,.04,.06,.04,.44,0,.85,.13,1.25,.38,.56,.37,.84,.94,.84,1.71,0,.69-.21,1.21-.65,1.55-.43,.35-.92,.52-1.48,.52-.54,0-1.01-.17-1.45-.52-.43-.34-.65-.86-.65-1.55,0-.87,.2-1.66,.61-2.37,.4-.71,.93-1.31,1.6-1.82,.66-.5,1.42-.89,2.26-1.15,.85-.26,1.73-.4,2.66-.4,1.02,0,2.05,.1,3.09,.28,1.04,.19,2.01,.58,2.93,1.19,.76,.48,1.33,1.1,1.72,1.86,.39,.76,.6,1.57,.6,2.41Z"/>
        </g>
        <g class="cls-8">
          <path class="cls-16" d="M443.67,334.96c.41,.36,.68,.86,.8,1.49,.05,.4,.09,.79,.1,1.17,0,.28-.02,.57-.06,.87-.08,.74-.21,1.5-.39,2.26-.18,.76-.36,1.46-.53,2.1-.36,1.31-.93,2.6-1.73,3.87-.8,1.27-1.75,2.39-2.85,3.38s-2.31,1.79-3.62,2.4c-1.31,.62-2.62,.92-3.93,.92h-.47l-1.92,7.35c-.08,.37-.32,.56-.72,.58h-.2c-.35,0-.53-.16-.53-.48v-.16l1.9-7.37c-.91-.07-1.87-.24-2.87-.52-1-.28-1.89-.74-2.67-1.39s-1.29-1.49-1.52-2.51c-.11-.48-.17-.95-.18-1.41,0-.58,.08-1.18,.22-1.79,.22-.91,.54-1.92,.97-3.02,.43-1.1,.84-2.17,1.22-3.2,.36-.94,.53-1.74,.53-2.4v-.3c-.04-.59-.32-.89-.84-.89-.49,0-.95,.14-1.37,.42-.42,.28-.81,.65-1.18,1.13-.36,.48-.68,1.03-.95,1.67-.27,.64-.49,1.31-.65,2.01-.15,.36-.39,.54-.72,.56h-.25c-.18,0-.31-.06-.41-.18-.1-.09-.14-.2-.14-.32,0-.05,.02-.12,.06-.2,.18-.71,.43-1.45,.77-2.21,.33-.76,.75-1.45,1.24-2.08,.49-.62,1.05-1.13,1.68-1.53,.63-.4,1.34-.6,2.13-.6,.71,0,1.33,.15,1.86,.44,.53,.29,.94,.67,1.23,1.14,.29,.47,.46,1.01,.51,1.62v.3c0,.52-.12,1.07-.37,1.67-.39,1.02-.79,2.07-1.19,3.15-.39,1.08-.7,2.05-.92,2.91-.16,.64-.24,1.25-.24,1.83,0,.27,.01,.53,.04,.79,.11,.8,.42,1.47,.94,2.03,.44,.45,.96,.8,1.59,1.04,.62,.25,1.23,.41,1.83,.51l7-27.16c.08-.34,.32-.52,.72-.52h.2c.35,0,.53,.15,.53,.44v.14l-7.02,27.2h.37c1.12,0,2.24-.26,3.36-.78,1.12-.52,2.15-1.23,3.1-2.12,.95-.89,1.78-1.89,2.51-3.02,.72-1.12,1.23-2.27,1.51-3.44,.11-.47,.16-.93,.16-1.37,0-.48-.05-.93-.16-1.37-.26-.83-.72-1.52-1.37-2.07-.39-.3-.59-.65-.59-1.05,0-.1,.01-.2,.04-.28,.1-.48,.32-.89,.69-1.26,.36-.36,.79-.62,1.3-.77,.14-.03,.27-.04,.41-.04,.4,0,.75,.14,1.06,.42Z"/>
          <path class="cls-16" d="M456.65,358.74h-10.45v-.61s.03-.11,.08-.2l4.2-4.07c.5-.49,1-.99,1.51-1.5,.51-.51,.97-1.04,1.37-1.57,.4-.53,.72-1.09,.96-1.65,.24-.57,.36-1.16,.36-1.79,0-.53-.08-1.02-.23-1.47-.15-.46-.38-.86-.67-1.2-.29-.35-.65-.62-1.09-.84-.44-.21-.94-.32-1.52-.32-.86,0-1.61,.23-2.27,.69s-1.09,.96-1.3,1.51c-.04,.02,.03,.02,.21,.02h.22c.26,.05,.48,.13,.67,.24,.19,.11,.35,.26,.47,.44,.13,.19,.19,.42,.19,.68,0,.45-.16,.79-.49,1.02-.32,.24-.69,.36-1.09,.36s-.74-.12-1.08-.36c-.33-.24-.5-.58-.5-1.02,0-.62,.14-1.21,.41-1.77,.27-.56,.65-1.04,1.12-1.45,.47-.41,1.03-.73,1.67-.97,.64-.24,1.32-.36,2.04-.36,.89,0,1.71,.12,2.45,.35,.74,.23,1.37,.57,1.89,1.01,.52,.44,.93,.94,1.23,1.52,.3,.57,.44,1.21,.44,1.91,0,.77-.2,1.48-.59,2.13-.39,.65-.88,1.25-1.46,1.79-.58,.54-1.2,1.05-1.86,1.53-.65,.48-1.25,.94-1.78,1.4l-2.95,2.48h3.86c.54,0,1.04,0,1.51-.01,.47,0,.86-.02,1.19-.04,.32-.02,.49-.04,.5-.05,.07-.05,.13-.15,.19-.31,.06-.16,.11-.34,.17-.55,.05-.21,.1-.43,.15-.65,.05-.22,.1-.46,.14-.72h.95l-.82,4.4Z"/>
          <path class="cls-16" d="M474.16,362.5c0,.11-.04,.24-.12,.4-.14,.13-.29,.2-.47,.2-.25,0-.42-.04-.51-.12-1.6-1.2-2.97-2.58-4.11-4.13-1.15-1.55-2.08-3.21-2.81-4.97-.73-1.76-1.27-3.61-1.62-5.53-.35-1.93-.52-3.86-.52-5.79s.18-3.86,.52-5.79c.35-1.93,.89-3.77,1.62-5.53,.73-1.76,1.67-3.42,2.81-4.97,1.15-1.55,2.52-2.93,4.11-4.13,.1-.08,.27-.12,.51-.12,.16,0,.32,.07,.47,.2,.08,.16,.12,.29,.12,.4,0,.16-.06,.31-.18,.44-1.32,1.21-2.44,2.56-3.37,4.06-.92,1.5-1.67,3.1-2.23,4.78-.57,1.68-.97,3.43-1.21,5.25-.24,1.82-.36,3.62-.36,5.42s.12,3.65,.36,5.45c.24,1.8,.64,3.54,1.21,5.22,.57,1.68,1.31,3.28,2.22,4.78,.91,1.5,2.04,2.86,3.38,4.06,.12,.12,.18,.27,.18,.44Z"/>
          <path class="cls-16" d="M499.8,337.9c-.15,.6-.45,1.04-.91,1.34-.46,.3-.92,.45-1.38,.45-.48,0-.87-.15-1.19-.46-.23-.22-.35-.52-.37-.87,0-.14,.03-.33,.08-.56,.15-.5,.38-.88,.7-1.14,.31-.26,.53-.41,.66-.45-.26-.2-.79-.3-1.6-.3-.71,0-1.34,.37-1.9,1.1-.56,.73-.98,1.62-1.25,2.65l-1.88,7.27c-.19,.73-.33,1.43-.43,2.09-.05,.23-.08,.43-.08,.6,0,.41,.07,.8,.21,1.17,.14,.4,.34,.72,.61,.96,.27,.24,.62,.36,1.04,.36,.55,0,1.07-.14,1.58-.43,.51-.28,.97-.67,1.39-1.15,.42-.48,.8-1.05,1.13-1.69,.33-.64,.59-1.3,.78-1.98,.08-.34,.31-.52,.7-.52h.47c.36,0,.53,.13,.53,.4,0,.08-.02,.15-.06,.22-.19,.8-.5,1.58-.93,2.36-.43,.78-.93,1.46-1.5,2.06-.57,.6-1.22,1.09-1.95,1.47-.73,.38-1.51,.58-2.34,.58s-1.58-.18-2.19-.55c-.61-.36-1.11-.84-1.5-1.42-.12-.14-.22-.29-.29-.45-.07-.15-.09-.18-.06-.07-.33,.54-.84,1.09-1.55,1.65-.71,.56-1.53,.83-2.46,.83-.52,0-1.03-.07-1.53-.2-.5-.13-.95-.34-1.32-.61-.38-.28-.66-.62-.85-1.02-.09-.24-.14-.5-.14-.77,0-.2,.03-.43,.08-.7,.15-.6,.46-1.04,.92-1.34,.46-.3,.93-.45,1.39-.45,.48,0,.89,.15,1.23,.46,.23,.23,.35,.52,.35,.87,0,.19-.03,.37-.08,.56-.12,.46-.34,.84-.67,1.12-.32,.29-.55,.44-.69,.47,.26,.21,.78,.31,1.58,.3,.71,0,1.35-.37,1.92-1.11,.57-.74,.99-1.63,1.25-2.66l1.9-7.31c.19-.69,.34-1.36,.45-2.03,.03-.21,.04-.41,.04-.6,0-.41-.06-.79-.19-1.15-.14-.4-.35-.72-.63-.96-.29-.24-.64-.37-1.06-.37-.55,0-1.08,.14-1.59,.43-.51,.29-.98,.67-1.4,1.14-.42,.48-.8,1.03-1.12,1.66-.33,.63-.57,1.3-.72,2-.15,.36-.4,.54-.76,.56h-.45c-.33,0-.49-.16-.49-.5v-.14c.21-.82,.52-1.62,.94-2.39,.42-.78,.93-1.46,1.51-2.06,.59-.6,1.24-1.08,1.97-1.46,.72-.38,1.51-.57,2.35-.57,.82,0,1.54,.18,2.17,.54,.63,.36,1.14,.84,1.53,1.43,.08,.15,.16,.3,.23,.47,.07,.17,.09,.21,.06,.13,.34-.58,.87-1.15,1.58-1.72,.71-.56,1.52-.84,2.44-.85,.52,0,1.03,.06,1.54,.19,.51,.13,.96,.33,1.33,.61,.38,.28,.65,.62,.83,1.03,.1,.24,.14,.51,.14,.81,0,.2-.03,.42-.08,.68Z"/>
          <path class="cls-16" d="M517.64,342.55c0,1.94-.17,3.87-.52,5.79-.35,1.93-.89,3.77-1.63,5.53-.74,1.76-1.68,3.42-2.82,4.97-1.14,1.55-2.52,2.93-4.13,4.15-.15,.07-.27,.1-.37,.1h-.12c-.16,0-.31-.07-.45-.2-.08-.16-.12-.29-.12-.4,0-.16,.06-.3,.18-.44,1.32-1.2,2.44-2.56,3.36-4.06,.91-1.5,1.65-3.1,2.22-4.78,.57-1.68,.97-3.42,1.21-5.22,.24-1.8,.36-3.62,.36-5.45s-.12-3.61-.36-5.42c-.24-1.82-.64-3.56-1.21-5.25-.57-1.68-1.31-3.27-2.22-4.78-.91-1.5-2.03-2.86-3.36-4.06-.12-.12-.18-.26-.18-.44,0-.18,.05-.32,.14-.42,.12-.12,.27-.18,.43-.18h.12c.08,0,.21,.03,.37,.1,1.62,1.22,3.01,2.6,4.14,4.15,1.14,1.55,2.08,3.21,2.81,4.97,.74,1.76,1.28,3.61,1.63,5.53,.35,1.93,.52,3.86,.52,5.79Z"/>
          <line class="cls-3" x1="533.66" y1="336.47" x2="562.14" y2="336.47"/>
          <line class="cls-3" x1="533.66" y1="345.01" x2="562.14" y2="345.01"/>
          <path class="cls-16" d="M583.48,350.56c0,.66-.23,1.22-.71,1.68-.47,.46-1.04,.68-1.71,.68s-1.23-.23-1.72-.68c-.48-.46-.71-1.02-.71-1.68s.23-1.2,.71-1.66c.49-.46,1.05-.69,1.72-.69,.67,0,1.25,.23,1.71,.69,.48,.46,.71,1.01,.71,1.66Zm5.91-21.02c0,.84-.19,1.64-.59,2.41-.38,.77-.97,1.38-1.74,1.85-1.58,1.02-2.84,2.31-3.82,3.86-.96,1.55-1.45,3.23-1.45,5.03v2.05c0,.37-.2,.56-.62,.56h-.26c-.38,0-.58-.18-.58-.56v-2.05c0-1.84,.33-3.61,.99-5.32,.67-1.71,1.67-3.22,3.03-4.53,.42-.41,.71-.9,.87-1.47,.15-.57,.23-1.17,.23-1.81,0-.69-.04-1.31-.11-1.88-.08-.56-.3-1.03-.67-1.4-.45-.44-.99-.73-1.62-.89-.63-.16-1.3-.24-2-.24-1.14,0-2.2,.24-3.16,.71-.96,.47-1.6,1-1.89,1.58-.12,.03-.1,.04,.06,.04,.44,0,.85,.13,1.25,.38,.56,.37,.84,.94,.84,1.71,0,.69-.21,1.21-.65,1.55-.43,.35-.92,.52-1.48,.52-.54,0-1.01-.17-1.45-.52-.43-.34-.64-.86-.64-1.55,0-.87,.19-1.66,.6-2.37,.4-.71,.94-1.31,1.6-1.82,.66-.5,1.42-.89,2.26-1.15,.85-.26,1.73-.4,2.66-.4,1.02,0,2.05,.1,3.09,.28,1.04,.19,2.01,.58,2.93,1.19,.76,.48,1.33,1.1,1.72,1.86,.39,.76,.6,1.57,.6,2.41Z"/>
        </g>
        <g class="cls-9">
          <path class="cls-16" d="M914.14,554.75c-.15,.6-.45,1.04-.91,1.34-.46,.3-.92,.45-1.38,.45-.48,0-.87-.15-1.19-.46-.23-.22-.35-.52-.37-.87,0-.14,.03-.33,.08-.56,.15-.5,.38-.88,.7-1.14,.31-.26,.53-.41,.66-.45-.26-.2-.79-.3-1.6-.3-.71,0-1.34,.37-1.9,1.1-.56,.73-.98,1.62-1.25,2.65l-1.88,7.27c-.19,.73-.33,1.43-.43,2.09-.05,.23-.08,.42-.08,.6,0,.41,.07,.8,.2,1.17,.14,.4,.34,.72,.62,.96,.27,.24,.62,.36,1.04,.36,.55,0,1.07-.14,1.58-.43,.51-.28,.97-.67,1.39-1.15,.42-.48,.8-1.05,1.13-1.69,.33-.64,.59-1.3,.78-1.98,.08-.34,.31-.52,.7-.52h.47c.36,0,.53,.13,.53,.4,0,.08-.02,.15-.06,.22-.19,.8-.5,1.58-.93,2.36-.43,.77-.93,1.46-1.5,2.06-.57,.6-1.22,1.09-1.95,1.47-.73,.38-1.51,.58-2.34,.58s-1.58-.18-2.19-.55c-.61-.36-1.11-.84-1.5-1.42-.12-.14-.22-.29-.29-.45-.07-.15-.09-.18-.06-.07-.33,.54-.84,1.09-1.55,1.65-.71,.56-1.53,.83-2.46,.83-.52,0-1.03-.07-1.54-.2-.5-.13-.95-.34-1.32-.61-.38-.28-.66-.62-.85-1.01-.09-.24-.14-.5-.14-.77,0-.2,.03-.43,.08-.7,.15-.59,.46-1.04,.92-1.34,.46-.3,.93-.45,1.39-.45,.48,0,.89,.15,1.23,.46,.23,.23,.35,.52,.35,.87,0,.19-.03,.37-.08,.56-.12,.46-.34,.84-.66,1.12-.32,.29-.55,.44-.69,.47,.26,.21,.78,.31,1.58,.3,.71,0,1.35-.37,1.92-1.11,.57-.74,.99-1.63,1.25-2.66l1.9-7.31c.19-.69,.34-1.36,.45-2.03,.03-.21,.04-.41,.04-.6,0-.41-.06-.79-.19-1.15-.14-.4-.35-.72-.63-.96-.29-.24-.64-.37-1.06-.37-.55,0-1.08,.14-1.59,.43-.51,.29-.98,.67-1.4,1.14-.42,.48-.8,1.03-1.13,1.66-.33,.63-.57,1.3-.72,2-.15,.36-.4,.54-.76,.56h-.45c-.33,0-.49-.16-.49-.5v-.14c.2-.82,.52-1.62,.94-2.39,.42-.77,.93-1.46,1.51-2.06,.59-.6,1.24-1.08,1.97-1.46,.72-.38,1.51-.57,2.35-.57,.82,0,1.54,.18,2.17,.54,.63,.36,1.14,.84,1.53,1.43,.08,.15,.16,.3,.23,.47,.07,.17,.09,.21,.06,.13,.34-.58,.87-1.15,1.58-1.72,.71-.56,1.52-.85,2.44-.85,.52,0,1.03,.06,1.54,.19,.51,.13,.96,.33,1.33,.61,.38,.28,.65,.62,.83,1.03,.1,.24,.14,.51,.14,.81,0,.2-.03,.42-.08,.68Z"/>
        </g>
        <g class="cls-12">
          <path class="cls-16" d="M381.92,20.97c-.08,.4-.33,.6-.74,.6-.44,0-.85,.05-1.25,.15-.39,.1-.78,.27-1.16,.51-.37,.24-.72,.53-1.03,.86-.31,.34-.6,.72-.86,1.14l-14.92,24.26c-.2,.37-.52,.55-.94,.54h-.39c-.5,0-.75-.21-.74-.64l-2.56-25.37c-.05-.34-.11-.61-.16-.8-.05-.19-.14-.33-.25-.41-.19-.1-.49-.17-.91-.2-.42-.03-.89-.04-1.42-.04-.2,0-.36-.06-.45-.2-.08-.08-.12-.18-.12-.3,0-.08,.02-.15,.06-.22l.06-.3c.04-.17,.13-.32,.28-.44,.14-.12,.32-.18,.52-.18,1.31,.08,2.63,.12,3.97,.12,.2,0,.42-.01,.65-.04,1.58,0,3.17-.03,4.75-.08,.19,0,.36,.07,.51,.2,.05,.11,.08,.21,.08,.3,0,.08-.02,.15-.06,.22l-.06,.3c-.04,.19-.14,.34-.3,.45-.16,.11-.32,.17-.5,.17-.48,0-.91,.02-1.31,.06-.39,.04-.78,.15-1.17,.32-.23,.12-.34,.32-.33,.6v.14c.48,3.52,.86,7.06,1.15,10.62,.29,3.56,.59,6.92,.92,10.1l12.07-19.65c.18-.28,.29-.57,.33-.87v-.1c0-.2-.05-.38-.14-.54-.3-.45-.86-.67-1.68-.68-.36,0-.53-.18-.53-.54v-.14l.08-.36c.15-.4,.42-.59,.8-.6,1.2,.05,2.41,.08,3.62,.08,.16,.03,.32,.04,.47,.04,1.04,0,2.1-.04,3.19-.12,.37,0,.57,.18,.59,.54v.16l-.14,.34Z"/>
          <path class="cls-16" d="M423.63,33.07c-.15,.6-.45,1.04-.91,1.34-.46,.3-.92,.45-1.38,.45-.48,0-.87-.15-1.19-.46-.23-.22-.35-.52-.37-.87,0-.14,.03-.33,.08-.56,.15-.5,.38-.88,.7-1.14,.31-.26,.53-.41,.65-.45-.26-.2-.79-.3-1.6-.3-.71,0-1.34,.37-1.9,1.1-.56,.73-.98,1.62-1.25,2.65l-1.88,7.27c-.19,.73-.33,1.43-.43,2.09-.05,.23-.08,.43-.08,.6,0,.41,.07,.8,.2,1.17,.14,.4,.34,.72,.62,.96,.27,.24,.62,.36,1.04,.36,.55,0,1.07-.14,1.58-.43,.51-.28,.97-.67,1.39-1.15,.42-.48,.8-1.05,1.13-1.69,.33-.64,.59-1.3,.78-1.98,.08-.34,.31-.52,.7-.52h.47c.35,0,.53,.13,.53,.4,0,.08-.02,.15-.06,.22-.19,.8-.5,1.58-.93,2.36-.43,.78-.93,1.46-1.5,2.06-.57,.6-1.22,1.09-1.95,1.47-.73,.38-1.51,.58-2.34,.58s-1.58-.18-2.19-.55c-.61-.36-1.11-.84-1.5-1.42-.12-.14-.22-.29-.29-.45-.07-.15-.09-.17-.06-.07-.33,.54-.85,1.09-1.55,1.65-.71,.56-1.53,.83-2.46,.83-.52,0-1.03-.07-1.53-.2-.5-.13-.95-.34-1.32-.61-.38-.28-.66-.62-.85-1.02-.09-.24-.14-.49-.14-.77,0-.2,.03-.43,.08-.7,.15-.6,.46-1.04,.92-1.34,.46-.3,.93-.45,1.39-.45,.48,0,.89,.15,1.23,.46,.23,.23,.35,.52,.35,.87,0,.19-.03,.37-.08,.56-.12,.46-.34,.84-.66,1.12-.32,.29-.55,.44-.69,.47,.26,.21,.78,.31,1.58,.3,.71,0,1.35-.37,1.92-1.11,.57-.74,.99-1.63,1.25-2.66l1.9-7.31c.19-.69,.34-1.36,.45-2.03,.03-.21,.04-.41,.04-.6,0-.41-.06-.79-.18-1.15-.14-.4-.35-.72-.63-.96-.29-.24-.64-.37-1.06-.37-.55,0-1.08,.14-1.59,.43-.51,.29-.98,.67-1.4,1.14-.42,.48-.8,1.03-1.13,1.66-.33,.63-.57,1.3-.72,2-.15,.36-.4,.54-.76,.56h-.45c-.33,0-.49-.16-.49-.5v-.14c.21-.82,.52-1.62,.94-2.39,.42-.78,.93-1.46,1.51-2.06,.59-.6,1.24-1.08,1.97-1.46s1.51-.57,2.35-.57c.82,0,1.54,.18,2.17,.54,.63,.36,1.14,.84,1.54,1.43,.08,.15,.16,.3,.23,.47,.07,.17,.09,.21,.06,.13,.34-.58,.87-1.15,1.58-1.72,.71-.56,1.52-.84,2.44-.85,.52,0,1.03,.06,1.54,.19,.51,.13,.96,.33,1.33,.61,.37,.28,.65,.62,.83,1.03,.1,.24,.14,.51,.14,.81,0,.2-.03,.42-.08,.68Z"/>
          <path class="cls-16" d="M399.66,55.34c-13.27-8.74-13.27-30.11,0-38.86h2.08c-11.96,8.74-11.96,30.11,0,38.86"/>
          <path class="cls-16" d="M427.9,16.48c13.27,8.74,13.27,30.11,0,38.86h-2.08c11.96-8.74,11.96-30.11,0-38.86"/>
        </g>
        <g class="cls-13">
          <path class="cls-16" d="M254,85.37c-.56-.68-1.11-1.33-1.65-1.98-.54-.64-1.11-1.21-1.71-1.7-.6-.49-1.22-.88-1.87-1.17-.65-.29-1.35-.44-2.12-.44-.9,0-1.73,.19-2.5,.57-.76,.38-1.43,.89-1.99,1.54-.57,.65-1.01,1.41-1.32,2.27-.31,.86-.47,1.77-.47,2.72,0,1.03,.16,2.02,.47,2.94,.31,.93,.76,1.74,1.33,2.43,.57,.7,1.25,1.26,2.04,1.68,.78,.42,1.64,.64,2.57,.63,1.01,0,1.96-.18,2.86-.56,.9-.37,1.74-.87,2.53-1.5,.78-.63,1.51-1.37,2.19-2.22,.68-.85,1.27-1.69,1.77-2.54l-2.13-2.68Zm21.24,1.81c0-1.03-.16-2.02-.47-2.97-.31-.95-.76-1.77-1.33-2.46-.57-.7-1.25-1.25-2.03-1.68-.79-.42-1.64-.64-2.57-.64-1.04,0-2,.19-2.89,.57s-1.72,.88-2.51,1.5c-.78,.62-1.51,1.36-2.19,2.21-.68,.85-1.27,1.7-1.77,2.56l2.13,2.7c.53,.68,1.08,1.33,1.63,1.96,.55,.63,1.12,1.19,1.71,1.68,.59,.49,1.21,.88,1.87,1.17,.66,.29,1.37,.44,2.14,.44,.9,0,1.73-.19,2.5-.57,.76-.38,1.43-.89,1.99-1.54,.57-.65,1.01-1.4,1.32-2.25,.31-.85,.47-1.74,.47-2.68Zm1.33,0c0,1.22-.2,2.39-.59,3.51-.39,1.12-.95,2.12-1.67,2.99-.72,.87-1.58,1.58-2.58,2.11-1,.53-2.12,.79-3.36,.79-1.01,0-1.97-.14-2.88-.42-.91-.28-1.77-.66-2.59-1.16-.82-.5-1.58-1.07-2.29-1.71-.71-.64-1.36-1.34-1.96-2.1l-1.14-1.43c-.49,.8-1.11,1.62-1.86,2.47-.75,.85-1.56,1.59-2.42,2.23-.87,.64-1.81,1.15-2.83,1.54-1.02,.39-2.12,.59-3.29,.59s-2.32-.26-3.31-.79c-1-.53-1.84-1.23-2.54-2.11s-1.23-1.87-1.62-2.99c-.38-1.12-.57-2.29-.57-3.51s.2-2.39,.59-3.53,.95-2.14,1.66-3.01c.71-.87,1.57-1.58,2.58-2.11,1.01-.53,2.13-.79,3.38-.8,1.99,0,3.81,.52,5.46,1.55,1.65,1.03,3.07,2.3,4.26,3.81l1.15,1.47c.49-.79,1.11-1.61,1.86-2.46s1.56-1.6,2.43-2.25c.87-.65,1.81-1.17,2.83-1.55,1.02-.38,2.12-.58,3.29-.58,1.21,0,2.32,.27,3.32,.8,1,.53,1.84,1.23,2.54,2.11,.7,.87,1.23,1.88,1.62,3.01,.38,1.13,.57,2.31,.57,3.53Z"/>
        </g>
        <g class="cls-14">
          <path class="cls-16" d="M693.62,233.67c-.08,.4-.33,.6-.74,.6-.44,0-.85,.05-1.25,.15-.39,.1-.78,.27-1.16,.51-.37,.24-.72,.53-1.03,.86-.31,.34-.6,.72-.86,1.14l-14.92,24.26c-.2,.37-.52,.55-.94,.54h-.39c-.5,0-.75-.21-.74-.64l-2.56-25.38c-.05-.34-.11-.61-.16-.8-.05-.19-.14-.33-.25-.41-.19-.1-.49-.17-.91-.2-.42-.03-.89-.04-1.42-.04-.2,0-.36-.06-.45-.2-.08-.08-.12-.18-.12-.3,0-.08,.02-.15,.06-.22l.06-.3c.04-.17,.13-.32,.28-.44,.14-.12,.32-.18,.52-.18,1.31,.08,2.63,.12,3.97,.12,.2,0,.42-.01,.65-.04,1.58,0,3.17-.03,4.75-.08,.19,0,.36,.07,.51,.2,.05,.11,.08,.21,.08,.3,0,.08-.02,.15-.06,.22l-.06,.3c-.04,.19-.14,.34-.3,.45-.16,.11-.32,.17-.5,.17-.48,0-.91,.02-1.31,.06-.39,.04-.78,.15-1.17,.32-.23,.12-.34,.32-.33,.6v.14c.48,3.52,.86,7.07,1.15,10.62,.29,3.56,.59,6.93,.92,10.1l12.07-19.65c.18-.28,.29-.57,.33-.87v-.1c0-.2-.05-.38-.14-.54-.3-.45-.86-.67-1.68-.68-.36,0-.53-.18-.53-.54v-.14l.08-.36c.15-.4,.42-.59,.8-.6,1.2,.05,2.41,.08,3.62,.08,.16,.03,.32,.04,.47,.04,1.04,0,2.1-.04,3.19-.12,.37,0,.57,.18,.59,.54v.16l-.14,.34Z"/>
          <path class="cls-16" d="M699.78,258.47c0-.47,0-.96-.01-1.48,0-.52-.03-1.03-.06-1.52-.03-.5-.1-.97-.19-1.41-.09-.44-.2-.82-.33-1.13-.26-.5-.63-.92-1.13-1.24-.5-.32-1.06-.48-1.68-.48-.61,0-1.16,.16-1.65,.49-.49,.33-.87,.74-1.12,1.23-.13,.31-.24,.69-.33,1.13s-.15,.91-.19,1.41c-.03,.5-.06,1.01-.06,1.52,0,.52-.01,1.01-.01,1.48,0,.52,0,1.07,.01,1.64,0,.58,.03,1.13,.06,1.67,.03,.54,.1,1.05,.19,1.53,.09,.48,.2,.89,.33,1.21,.24,.54,.61,.99,1.11,1.34,.5,.35,1.05,.52,1.66,.52,.63,0,1.2-.17,1.7-.52,.5-.35,.87-.79,1.11-1.34,.13-.33,.24-.73,.33-1.21,.09-.48,.15-.99,.19-1.53,.03-.54,.06-1.09,.06-1.67,0-.57,.01-1.12,.01-1.64Zm2.54,.39c0,1.07-.08,2.13-.25,3.19-.17,1.06-.58,2.05-1.24,2.98-.47,.68-1.1,1.19-1.89,1.56-.79,.36-1.64,.55-2.57,.55s-1.73-.18-2.52-.55c-.79-.36-1.42-.88-1.89-1.56-.66-.93-1.07-1.92-1.24-2.98-.17-1.06-.25-2.12-.25-3.19s.08-2.16,.25-3.24c.17-1.08,.58-2.09,1.24-3.03,.47-.68,1.1-1.21,1.89-1.59,.79-.38,1.63-.57,2.53-.57,.92,0,1.77,.19,2.56,.57,.79,.38,1.42,.91,1.89,1.59,.66,.94,1.07,1.95,1.24,3.03,.17,1.08,.25,2.16,.25,3.24Z"/>
        </g>
      </g>
    </g>
  </g>
</svg>