<?xml version="1.0" encoding="utf-8"?>
<!-- Generator: Adobe Illustrator 26.4.1, SVG Export Plug-In . SVG Version: 6.00 Build 0)  -->
<svg version="1.1" id="图层_1" xmlns="http://www.w3.org/2000/svg" xmlns:xlink="http://www.w3.org/1999/xlink" x="0px" y="0px"
	 viewBox="0 0 747 507" style="enable-background:new 0 0 747 507;" xml:space="preserve">
<style type="text/css">
	.st0{clip-path:url(#SVGID_00000034069465487929452990000016715605921745421960_);}
	.st1{clip-path:url(#SVGID_00000050635032322017818160000017523390184026515391_);}
	
		.st2{opacity:0.2392;clip-path:url(#SVGID_00000084502034238875893930000005533373000240349611_);fill-rule:evenodd;clip-rule:evenodd;}
	.st3{clip-path:url(#SVGID_00000084502034238875893930000005533373000240349611_);}
	
		.st4{clip-path:url(#SVGID_00000084502034238875893930000005533373000240349611_);fill:none;stroke:#000000;stroke-width:1.678;stroke-linecap:round;stroke-linejoin:round;stroke-miterlimit:10;}
	
		.st5{clip-path:url(#SVGID_00000038395468132363789010000016747011312622338738_);fill:none;stroke:#000000;stroke-width:0.7195;stroke-linecap:round;stroke-linejoin:round;stroke-miterlimit:10;}
	.st6{clip-path:url(#SVGID_00000038395468132363789010000016747011312622338738_);fill-rule:evenodd;clip-rule:evenodd;}
	.st7{clip-path:url(#SVGID_00000101065554249739323540000013900427646887369636_);fill-rule:evenodd;clip-rule:evenodd;}
	.st8{clip-path:url(#SVGID_00000166636059046214972750000001125527531072999590_);fill-rule:evenodd;clip-rule:evenodd;}
	
		.st9{clip-path:url(#SVGID_00000166636059046214972750000001125527531072999590_);fill:none;stroke:#000000;stroke-width:0.7195;stroke-linecap:round;stroke-linejoin:round;stroke-miterlimit:10;}
	.st10{clip-path:url(#SVGID_00000173872515187225082290000012235117490613053335_);fill-rule:evenodd;clip-rule:evenodd;}
	
		.st11{clip-path:url(#SVGID_00000173872515187225082290000012235117490613053335_);fill:none;stroke:#000000;stroke-width:0.7195;stroke-linecap:round;stroke-linejoin:round;stroke-miterlimit:10;}
	.st12{clip-path:url(#SVGID_00000139977934523531656370000012664107959441200818_);fill-rule:evenodd;clip-rule:evenodd;}
	
		.st13{clip-path:url(#SVGID_00000139977934523531656370000012664107959441200818_);fill:none;stroke:#000000;stroke-width:0.7195;stroke-linecap:round;stroke-linejoin:round;stroke-miterlimit:10;}
	.st14{clip-path:url(#SVGID_00000078009937207254616290000011254819519522402729_);fill-rule:evenodd;clip-rule:evenodd;}
	.st15{clip-path:url(#SVGID_00000100354628823171549440000004865949268978938780_);fill-rule:evenodd;clip-rule:evenodd;}
	.st16{clip-path:url(#SVGID_00000092439926049697985740000014656850961256120748_);fill-rule:evenodd;clip-rule:evenodd;}
	.st17{clip-path:url(#SVGID_00000033352281955467558020000000193623983032769442_);fill-rule:evenodd;clip-rule:evenodd;}
</style>
<g>
	<defs>
		<rect id="SVGID_1_" width="747" height="507"/>
	</defs>
	<clipPath id="SVGID_00000005228609737219328210000005747167894949900703_">
		<use xlink:href="#SVGID_1_"  style="overflow:visible;"/>
	</clipPath>
	<g style="clip-path:url(#SVGID_00000005228609737219328210000005747167894949900703_);">
		<defs>
			<rect id="SVGID_00000054266503891544958150000012258516822705625259_" x="0" width="747" height="507"/>
		</defs>
		<clipPath id="SVGID_00000011750828388369879680000011459971163304460979_">
			<use xlink:href="#SVGID_00000054266503891544958150000012258516822705625259_"  style="overflow:visible;"/>
		</clipPath>
	</g>
	<g style="clip-path:url(#SVGID_00000005228609737219328210000005747167894949900703_);">
		<defs>
			<rect id="SVGID_00000013185514166867317730000001647193148529811384_" x="0" y="4.17" width="746.19" height="502.83"/>
		</defs>
		<clipPath id="SVGID_00000069356917684552258000000011708202352283061638_">
			<use xlink:href="#SVGID_00000013185514166867317730000001647193148529811384_"  style="overflow:visible;"/>
		</clipPath>
		<g style="clip-path:url(#SVGID_00000069356917684552258000000011708202352283061638_);">
			<defs>
				<rect id="SVGID_00000024680624956336504110000008020276166994061481_" y="4.17" width="746.21" height="506.45"/>
			</defs>
			<clipPath id="SVGID_00000040575187277284300970000016264506103485024136_">
				<use xlink:href="#SVGID_00000024680624956336504110000008020276166994061481_"  style="overflow:visible;"/>
			</clipPath>
			
				<rect x="29.04" y="92" style="opacity:0.2392;clip-path:url(#SVGID_00000040575187277284300970000016264506103485024136_);fill-rule:evenodd;clip-rule:evenodd;" width="127.89" height="155.62"/>
			
				<rect x="350.56" y="92" style="opacity:0.2392;clip-path:url(#SVGID_00000040575187277284300970000016264506103485024136_);fill-rule:evenodd;clip-rule:evenodd;" width="119.16" height="155.31"/>
			<path style="clip-path:url(#SVGID_00000040575187277284300970000016264506103485024136_);" d="M494.56,247.62l-17.62-5.03v4.4
				v1.26v4.4L494.56,247.62z M13.91,246.99h463.05v1.26H13.91c-0.35,0-0.63-0.28-0.63-0.63C13.29,247.27,13.57,246.99,13.91,246.99z
				"/>
			<path style="clip-path:url(#SVGID_00000040575187277284300970000016264506103485024136_);" d="M254.24,29.92l-5.03,17.62h4.41
				h1.26h4.41L254.24,29.92z M253.61,324.8V47.52h1.26V324.8c0,0.35-0.28,0.63-0.63,0.63C253.89,325.43,253.61,325.15,253.61,324.8z
				"/>
			
				<line style="clip-path:url(#SVGID_00000040575187277284300970000016264506103485024136_);fill:none;stroke:#000000;stroke-width:1.678;stroke-linecap:round;stroke-linejoin:round;stroke-miterlimit:10;" x1="156.93" y1="92" x2="156.93" y2="247.62"/>
			
				<line style="clip-path:url(#SVGID_00000040575187277284300970000016264506103485024136_);fill:none;stroke:#000000;stroke-width:1.678;stroke-linecap:round;stroke-linejoin:round;stroke-miterlimit:10;" x1="350.56" y1="92" x2="350.56" y2="247.62"/>
			<g style="clip-path:url(#SVGID_00000040575187277284300970000016264506103485024136_);">
				<defs>
					<rect id="SVGID_00000064342636542346105420000002657967097110862250_" x="119.96" y="237.88" width="50.39" height="43.62"/>
				</defs>
				<clipPath id="SVGID_00000118396621270818807080000017641176362028998060_">
					<use xlink:href="#SVGID_00000064342636542346105420000002657967097110862250_"  style="overflow:visible;"/>
				</clipPath>
				
					<line style="clip-path:url(#SVGID_00000118396621270818807080000017641176362028998060_);fill:none;stroke:#000000;stroke-width:0.7195;stroke-linecap:round;stroke-linejoin:round;stroke-miterlimit:10;" x1="140.09" y1="258.67" x2="147.89" y2="258.67"/>
				
					<path style="clip-path:url(#SVGID_00000118396621270818807080000017641176362028998060_);fill-rule:evenodd;clip-rule:evenodd;" d="
					M158.64,258.17c-0.02-0.1-0.05-0.21-0.06-0.33c-0.02-0.11-0.05-0.23-0.08-0.34c-0.1-0.27-0.23-0.5-0.41-0.69
					c-0.18-0.18-0.4-0.28-0.67-0.28c-0.25,0-0.5,0.09-0.75,0.27c-0.25,0.18-0.47,0.42-0.68,0.7c-0.29,0.4-0.51,0.83-0.65,1.26
					c-0.14,0.44-0.28,0.89-0.4,1.37c-0.12,0.47-0.22,0.92-0.3,1.36c-0.05,0.22-0.07,0.43-0.07,0.63c0,0.21,0.02,0.42,0.07,0.62
					c0.05,0.28,0.15,0.5,0.29,0.68c0.14,0.18,0.34,0.27,0.59,0.27c0.28,0,0.56-0.1,0.84-0.29c0.28-0.19,0.54-0.43,0.78-0.71
					c0.1-0.12,0.19-0.23,0.28-0.34c0.09-0.11,0.16-0.22,0.23-0.35L158.64,258.17z M161.22,261.4c-0.07,0.29-0.15,0.6-0.24,0.92
					c-0.09,0.33-0.21,0.63-0.36,0.91c-0.15,0.28-0.34,0.52-0.57,0.73c-0.23,0.2-0.52,0.31-0.86,0.31c-0.46,0-0.82-0.13-1.1-0.38
					c-0.27-0.25-0.43-0.51-0.47-0.78c-0.21,0.23-0.51,0.49-0.92,0.76c-0.41,0.27-0.84,0.4-1.29,0.4c-0.48,0-0.88-0.12-1.2-0.36
					c-0.32-0.24-0.57-0.54-0.76-0.91c-0.22-0.43-0.33-0.9-0.34-1.4v-0.13c0-0.46,0.06-0.92,0.19-1.39c0.14-0.51,0.35-1.01,0.61-1.51
					c0.26-0.5,0.6-0.96,1.03-1.39c0.35-0.35,0.75-0.65,1.2-0.89c0.45-0.24,0.91-0.36,1.37-0.36c0.4,0,0.73,0.11,0.99,0.32
					c0.25,0.21,0.41,0.39,0.48,0.53l-0.04,0.15c0.04-0.22,0.14-0.38,0.3-0.49c0.16-0.11,0.32-0.17,0.48-0.17
					c0.19,0,0.34,0.06,0.47,0.17c0.08,0.09,0.12,0.21,0.13,0.35c0,0.05-0.01,0.11-0.02,0.18l-1.3,5.08
					c-0.06,0.24-0.1,0.47-0.13,0.68c-0.01,0.11-0.02,0.2-0.02,0.29c0,0.08,0.01,0.16,0.02,0.25c0.02,0.14,0.06,0.25,0.13,0.32
					c0.07,0.07,0.16,0.11,0.28,0.1c0.13,0,0.25-0.05,0.36-0.16c0.11-0.11,0.22-0.26,0.31-0.47c0.09-0.21,0.18-0.46,0.27-0.75
					c0.09-0.29,0.17-0.6,0.26-0.94c0.04-0.15,0.14-0.23,0.31-0.23h0.21c0.16,0,0.23,0.06,0.23,0.19V261.4z"/>
			</g>
			<g style="clip-path:url(#SVGID_00000040575187277284300970000016264506103485024136_);">
				<defs>
					<rect id="SVGID_00000098926330036209700410000005041155340247262376_" x="346.5" y="256.23" width="10.14" height="11.9"/>
				</defs>
				<clipPath id="SVGID_00000104690348249797701910000003156207957879193265_">
					<use xlink:href="#SVGID_00000098926330036209700410000005041155340247262376_"  style="overflow:visible;"/>
				</clipPath>
				
					<path style="clip-path:url(#SVGID_00000104690348249797701910000003156207957879193265_);fill-rule:evenodd;clip-rule:evenodd;" d="
					M352.03,259.84c-0.02-0.1-0.05-0.21-0.06-0.33c-0.02-0.11-0.05-0.23-0.08-0.34c-0.1-0.27-0.23-0.5-0.41-0.69
					c-0.18-0.18-0.4-0.28-0.67-0.28c-0.25,0-0.5,0.09-0.75,0.27c-0.25,0.18-0.47,0.42-0.68,0.7c-0.29,0.4-0.51,0.83-0.65,1.26
					c-0.14,0.44-0.28,0.89-0.4,1.37c-0.12,0.47-0.22,0.92-0.3,1.36c-0.05,0.22-0.07,0.43-0.07,0.63c0,0.21,0.02,0.42,0.07,0.61
					c0.05,0.28,0.15,0.5,0.29,0.68c0.14,0.18,0.34,0.27,0.59,0.27c0.28,0,0.56-0.1,0.84-0.29c0.28-0.19,0.54-0.43,0.78-0.71
					c0.1-0.12,0.19-0.23,0.28-0.34c0.09-0.11,0.16-0.22,0.23-0.35L352.03,259.84z M354.62,263.08c-0.07,0.29-0.15,0.6-0.24,0.92
					c-0.09,0.33-0.21,0.63-0.36,0.91c-0.15,0.28-0.34,0.52-0.57,0.73c-0.23,0.2-0.52,0.31-0.86,0.31c-0.46,0-0.82-0.13-1.1-0.38
					c-0.27-0.25-0.43-0.51-0.47-0.78c-0.21,0.23-0.51,0.49-0.92,0.76c-0.41,0.27-0.84,0.4-1.29,0.4c-0.48,0-0.88-0.12-1.2-0.36
					s-0.57-0.54-0.76-0.91c-0.22-0.43-0.33-0.9-0.34-1.4v-0.13c0-0.46,0.06-0.92,0.19-1.39c0.14-0.51,0.35-1.01,0.61-1.51
					c0.26-0.5,0.6-0.96,1.03-1.39c0.35-0.35,0.75-0.65,1.2-0.89c0.45-0.24,0.91-0.36,1.37-0.36c0.4,0,0.73,0.11,0.99,0.32
					c0.25,0.21,0.41,0.39,0.48,0.53l-0.04,0.15c0.04-0.22,0.14-0.38,0.3-0.49c0.16-0.11,0.32-0.17,0.48-0.17
					c0.19,0,0.34,0.06,0.47,0.17c0.08,0.09,0.12,0.21,0.13,0.35c0,0.05-0.01,0.11-0.02,0.18l-1.3,5.08
					c-0.06,0.24-0.1,0.47-0.13,0.68c-0.01,0.11-0.02,0.2-0.02,0.29c0,0.08,0.01,0.16,0.02,0.25c0.02,0.14,0.06,0.25,0.13,0.32
					c0.07,0.07,0.16,0.11,0.28,0.1c0.13,0,0.25-0.05,0.36-0.16c0.11-0.11,0.21-0.26,0.31-0.47c0.09-0.21,0.18-0.46,0.27-0.75
					c0.08-0.29,0.17-0.6,0.26-0.94c0.04-0.15,0.14-0.23,0.31-0.23h0.21c0.16,0,0.23,0.06,0.23,0.19V263.08z"/>
			</g>
			<g style="clip-path:url(#SVGID_00000040575187277284300970000016264506103485024136_);">
				<defs>
					<rect id="SVGID_00000086652252419258739520000001683056222452506257_" x="55.67" y="146.31" width="85.6" height="46.92"/>
				</defs>
				<clipPath id="SVGID_00000023971028390499890330000011583407214142373301_">
					<use xlink:href="#SVGID_00000086652252419258739520000001683056222452506257_"  style="overflow:visible;"/>
				</clipPath>
				
					<path style="clip-path:url(#SVGID_00000023971028390499890330000011583407214142373301_);fill-rule:evenodd;clip-rule:evenodd;" d="
					M66.71,166.2c0.18,0.16,0.3,0.38,0.35,0.66c0.02,0.18,0.04,0.35,0.05,0.52c0,0.12-0.01,0.25-0.03,0.39
					c-0.04,0.33-0.09,0.66-0.17,1c-0.08,0.34-0.16,0.65-0.24,0.93c-0.16,0.58-0.41,1.15-0.76,1.71c-0.35,0.56-0.77,1.06-1.26,1.49
					c-0.49,0.44-1.02,0.79-1.6,1.06c-0.58,0.27-1.16,0.41-1.74,0.41H61.1l-0.85,3.25c-0.04,0.16-0.14,0.25-0.32,0.25h-0.09
					c-0.16,0-0.23-0.07-0.23-0.21v-0.07l0.84-3.26c-0.4-0.03-0.83-0.11-1.27-0.23c-0.44-0.12-0.83-0.33-1.18-0.61
					c-0.35-0.29-0.57-0.66-0.67-1.11c-0.05-0.21-0.08-0.42-0.08-0.62c0-0.26,0.03-0.52,0.1-0.79c0.1-0.4,0.24-0.85,0.43-1.33
					c0.19-0.49,0.37-0.96,0.54-1.41c0.16-0.42,0.24-0.77,0.24-1.06v-0.13c-0.02-0.26-0.14-0.39-0.37-0.4
					c-0.22,0-0.42,0.06-0.61,0.19c-0.19,0.12-0.36,0.29-0.52,0.5c-0.16,0.21-0.3,0.46-0.42,0.74c-0.12,0.28-0.22,0.58-0.29,0.89
					c-0.07,0.16-0.17,0.24-0.32,0.25h-0.11c-0.08,0-0.14-0.03-0.18-0.08c-0.04-0.04-0.06-0.09-0.06-0.14c0-0.02,0.01-0.05,0.03-0.09
					c0.08-0.32,0.19-0.64,0.34-0.98c0.15-0.34,0.33-0.64,0.55-0.92c0.22-0.27,0.46-0.5,0.74-0.68c0.28-0.18,0.59-0.26,0.94-0.26
					c0.31,0,0.59,0.07,0.82,0.19c0.23,0.13,0.42,0.3,0.54,0.51c0.13,0.21,0.2,0.45,0.23,0.72v0.13c0,0.23-0.05,0.47-0.16,0.74
					c-0.17,0.45-0.35,0.92-0.52,1.39c-0.17,0.48-0.31,0.91-0.41,1.29c-0.07,0.28-0.11,0.55-0.11,0.81c0,0.12,0.01,0.23,0.02,0.35
					c0.05,0.35,0.19,0.65,0.42,0.9c0.19,0.2,0.43,0.35,0.7,0.46c0.27,0.11,0.54,0.18,0.81,0.22l3.09-12.01
					c0.04-0.15,0.14-0.23,0.32-0.23h0.09c0.16,0,0.24,0.06,0.24,0.19v0.06l-3.1,12.02h0.16c0.49,0,0.99-0.11,1.48-0.35
					c0.49-0.23,0.95-0.54,1.37-0.94c0.42-0.39,0.79-0.84,1.11-1.34c0.32-0.5,0.54-1,0.67-1.52c0.05-0.21,0.07-0.41,0.07-0.61
					c0-0.21-0.02-0.41-0.07-0.61c-0.11-0.37-0.32-0.67-0.61-0.91c-0.17-0.13-0.26-0.29-0.26-0.47c0-0.05,0.01-0.09,0.02-0.12
					c0.04-0.21,0.14-0.4,0.3-0.56c0.16-0.16,0.35-0.27,0.57-0.34c0.06-0.01,0.12-0.02,0.18-0.02
					C66.41,166.02,66.57,166.08,66.71,166.2z"/>
				
					<path style="clip-path:url(#SVGID_00000023971028390499890330000011583407214142373301_);fill-rule:evenodd;clip-rule:evenodd;" d="
					M72.02,176.71c-0.7-0.02-1.37-0.03-2.03-0.03c-0.66,0-1.34,0.01-2.03,0.03v-0.42h0.39c0.12,0,0.24,0,0.35,0
					c0.11,0,0.21-0.01,0.31-0.02c0.1-0.01,0.18-0.03,0.26-0.04c0.06-0.01,0.11-0.04,0.15-0.09c0.04-0.05,0.06-0.11,0.06-0.17v-5.54
					c-0.19,0.08-0.42,0.14-0.7,0.19c-0.28,0.04-0.58,0.06-0.91,0.06v-0.42c0.45,0,0.87-0.05,1.26-0.14c0.38-0.1,0.72-0.28,1-0.54
					h0.18c0.12,0,0.19,0.05,0.19,0.16v6.24c0,0.07,0.02,0.12,0.06,0.17c0.04,0.05,0.09,0.08,0.16,0.09
					c0.06,0.01,0.14,0.03,0.23,0.04c0.09,0.01,0.2,0.02,0.32,0.02c0.12,0,0.24,0.01,0.35,0h0.41V176.71z"/>
				
					<path style="clip-path:url(#SVGID_00000023971028390499890330000011583407214142373301_);fill-rule:evenodd;clip-rule:evenodd;" d="
					M79.35,178.38c0,0.05-0.02,0.11-0.05,0.18c-0.06,0.06-0.13,0.09-0.21,0.09c-0.11,0-0.18-0.02-0.23-0.05
					c-0.71-0.53-1.31-1.14-1.82-1.83c-0.51-0.69-0.92-1.42-1.24-2.2c-0.32-0.78-0.56-1.59-0.71-2.45c-0.15-0.85-0.23-1.71-0.23-2.56
					c0-0.85,0.08-1.71,0.23-2.56c0.15-0.85,0.39-1.67,0.71-2.45c0.32-0.78,0.74-1.51,1.24-2.2c0.51-0.68,1.11-1.29,1.82-1.83
					c0.04-0.03,0.12-0.05,0.23-0.05c0.07,0,0.14,0.03,0.21,0.09c0.04,0.07,0.05,0.13,0.05,0.18c0,0.07-0.03,0.14-0.08,0.19
					c-0.58,0.53-1.08,1.13-1.49,1.8c-0.41,0.66-0.74,1.37-0.99,2.11c-0.25,0.74-0.43,1.52-0.53,2.32c-0.11,0.8-0.16,1.6-0.16,2.4
					c0,0.81,0.05,1.61,0.16,2.41c0.11,0.8,0.28,1.57,0.53,2.31c0.25,0.74,0.58,1.45,0.98,2.11c0.4,0.66,0.9,1.26,1.49,1.8
					C79.32,178.23,79.35,178.3,79.35,178.38z"/>
				
					<path style="clip-path:url(#SVGID_00000023971028390499890330000011583407214142373301_);fill-rule:evenodd;clip-rule:evenodd;" d="
					M90.69,167.5c-0.07,0.26-0.2,0.46-0.4,0.59c-0.2,0.13-0.41,0.2-0.61,0.2c-0.21,0-0.39-0.07-0.53-0.2
					c-0.1-0.1-0.16-0.23-0.16-0.39c0-0.06,0.01-0.15,0.04-0.25c0.07-0.22,0.17-0.39,0.31-0.5c0.14-0.11,0.24-0.18,0.29-0.2
					c-0.11-0.09-0.35-0.13-0.71-0.13c-0.31,0-0.59,0.16-0.84,0.49s-0.43,0.72-0.55,1.17l-0.83,3.21c-0.08,0.32-0.15,0.63-0.19,0.92
					c-0.02,0.1-0.04,0.19-0.04,0.26c0,0.18,0.03,0.35,0.09,0.52c0.06,0.18,0.15,0.32,0.27,0.42c0.12,0.11,0.27,0.16,0.46,0.16
					c0.24,0,0.47-0.06,0.7-0.19c0.22-0.13,0.43-0.3,0.61-0.51c0.19-0.21,0.35-0.46,0.5-0.75c0.14-0.28,0.26-0.58,0.34-0.87
					c0.04-0.15,0.14-0.23,0.31-0.23h0.21c0.16,0,0.24,0.06,0.24,0.18c0,0.04-0.01,0.07-0.03,0.1c-0.08,0.35-0.22,0.7-0.41,1.04
					s-0.41,0.65-0.66,0.91c-0.25,0.26-0.54,0.48-0.86,0.65c-0.32,0.17-0.67,0.25-1.04,0.25c-0.37,0-0.7-0.08-0.97-0.24
					c-0.27-0.16-0.49-0.37-0.66-0.63c-0.05-0.06-0.1-0.13-0.13-0.2c-0.03-0.07-0.04-0.08-0.03-0.03c-0.14,0.24-0.37,0.48-0.69,0.73
					c-0.31,0.25-0.68,0.37-1.09,0.37c-0.23,0-0.46-0.03-0.68-0.09c-0.22-0.06-0.42-0.15-0.58-0.27s-0.29-0.27-0.38-0.45
					c-0.04-0.1-0.06-0.22-0.06-0.34c0-0.09,0.01-0.19,0.04-0.31c0.07-0.26,0.2-0.46,0.41-0.59c0.21-0.13,0.41-0.2,0.62-0.2
					c0.21,0,0.39,0.07,0.54,0.2c0.1,0.1,0.15,0.23,0.15,0.39c0,0.08-0.01,0.16-0.04,0.25c-0.05,0.21-0.15,0.37-0.29,0.5
					c-0.14,0.13-0.24,0.19-0.3,0.21c0.11,0.09,0.35,0.14,0.7,0.13c0.31,0,0.6-0.16,0.85-0.49c0.25-0.33,0.44-0.72,0.55-1.18
					l0.84-3.23c0.08-0.3,0.15-0.6,0.2-0.9c0.01-0.09,0.02-0.18,0.02-0.26c0-0.18-0.03-0.35-0.08-0.51
					c-0.06-0.18-0.15-0.32-0.28-0.43c-0.13-0.11-0.28-0.16-0.47-0.16c-0.24,0-0.47,0.06-0.7,0.19c-0.23,0.13-0.43,0.29-0.62,0.51
					c-0.19,0.21-0.35,0.46-0.5,0.73c-0.14,0.28-0.25,0.57-0.32,0.88c-0.07,0.16-0.18,0.24-0.33,0.25h-0.2
					c-0.15,0-0.22-0.07-0.22-0.22v-0.06c0.09-0.36,0.23-0.72,0.42-1.06c0.19-0.34,0.41-0.65,0.67-0.91
					c0.26-0.26,0.55-0.48,0.87-0.65c0.32-0.17,0.67-0.25,1.04-0.25c0.36,0,0.68,0.08,0.96,0.24c0.28,0.16,0.5,0.37,0.68,0.63
					c0.04,0.06,0.07,0.13,0.1,0.21c0.03,0.07,0.04,0.09,0.03,0.06c0.15-0.26,0.38-0.51,0.7-0.76c0.31-0.25,0.67-0.37,1.08-0.37
					c0.23,0,0.46,0.03,0.68,0.08c0.23,0.06,0.42,0.14,0.59,0.27c0.17,0.12,0.29,0.28,0.37,0.46c0.04,0.11,0.06,0.23,0.06,0.36
					C90.72,167.29,90.71,167.39,90.69,167.5z"/>
				
					<path style="clip-path:url(#SVGID_00000023971028390499890330000011583407214142373301_);fill-rule:evenodd;clip-rule:evenodd;" d="
					M98.57,169.56c0,0.86-0.08,1.71-0.23,2.56c-0.15,0.85-0.39,1.67-0.72,2.45c-0.32,0.78-0.74,1.51-1.25,2.2
					c-0.51,0.69-1.12,1.3-1.83,1.84c-0.07,0.03-0.12,0.04-0.16,0.04h-0.05c-0.07,0-0.14-0.03-0.2-0.09
					c-0.04-0.07-0.05-0.13-0.05-0.18c0-0.07,0.03-0.13,0.08-0.19c0.59-0.53,1.08-1.13,1.48-1.8c0.41-0.66,0.73-1.37,0.98-2.11
					c0.25-0.74,0.43-1.51,0.53-2.31c0.11-0.8,0.16-1.6,0.16-2.41c0-0.8-0.05-1.59-0.16-2.4c-0.11-0.8-0.28-1.57-0.53-2.32
					c-0.25-0.74-0.58-1.45-0.98-2.11c-0.4-0.66-0.9-1.26-1.48-1.8c-0.05-0.05-0.08-0.12-0.08-0.19c0-0.08,0.02-0.14,0.06-0.18
					c0.05-0.05,0.12-0.08,0.19-0.08h0.05c0.04,0,0.09,0.02,0.16,0.04c0.72,0.54,1.33,1.15,1.83,1.84c0.5,0.69,0.92,1.42,1.24,2.2
					c0.33,0.78,0.57,1.59,0.72,2.45S98.57,168.7,98.57,169.56z"/>
				
					<line style="clip-path:url(#SVGID_00000023971028390499890330000011583407214142373301_);fill:none;stroke:#000000;stroke-width:0.7195;stroke-linecap:round;stroke-linejoin:round;stroke-miterlimit:10;" x1="105.65" y1="166.87" x2="118.25" y2="166.87"/>
				
					<line style="clip-path:url(#SVGID_00000023971028390499890330000011583407214142373301_);fill:none;stroke:#000000;stroke-width:0.7195;stroke-linecap:round;stroke-linejoin:round;stroke-miterlimit:10;" x1="105.65" y1="170.65" x2="118.25" y2="170.65"/>
				
					<path style="clip-path:url(#SVGID_00000023971028390499890330000011583407214142373301_);fill-rule:evenodd;clip-rule:evenodd;" d="
					M127.67,173.1c0,0.29-0.1,0.54-0.31,0.74c-0.21,0.2-0.46,0.3-0.75,0.3c-0.3,0-0.55-0.1-0.76-0.3c-0.21-0.2-0.31-0.45-0.31-0.74
					c0-0.29,0.11-0.53,0.31-0.73c0.21-0.2,0.47-0.3,0.76-0.3c0.29,0,0.54,0.1,0.75,0.3C127.57,172.57,127.67,172.81,127.67,173.1z
					 M130.29,163.8c0,0.37-0.09,0.72-0.26,1.06c-0.17,0.34-0.43,0.61-0.78,0.82c-0.69,0.45-1.25,1.02-1.68,1.7
					c-0.43,0.68-0.64,1.43-0.64,2.22v0.9c0,0.16-0.09,0.25-0.27,0.25h-0.12c-0.17,0-0.25-0.08-0.25-0.25v-0.9
					c0-0.81,0.14-1.6,0.44-2.35c0.29-0.76,0.74-1.42,1.33-2c0.19-0.18,0.32-0.4,0.39-0.65c0.07-0.25,0.1-0.52,0.1-0.8
					c0-0.3-0.02-0.58-0.05-0.83c-0.04-0.25-0.13-0.45-0.3-0.62c-0.2-0.19-0.43-0.32-0.71-0.39c-0.28-0.07-0.57-0.11-0.88-0.11
					c-0.51,0-0.98,0.1-1.4,0.31c-0.43,0.21-0.7,0.44-0.84,0.7c-0.05,0.01-0.05,0.02,0.03,0.02c0.19,0,0.38,0.06,0.55,0.17
					c0.25,0.16,0.37,0.42,0.37,0.76c0,0.31-0.09,0.53-0.28,0.69c-0.19,0.15-0.41,0.23-0.66,0.23c-0.23,0-0.45-0.08-0.64-0.23
					c-0.19-0.15-0.28-0.38-0.28-0.69c0-0.39,0.09-0.74,0.27-1.05c0.18-0.31,0.41-0.58,0.7-0.8c0.29-0.22,0.63-0.39,1-0.51
					c0.38-0.12,0.77-0.18,1.18-0.18c0.45,0,0.9,0.04,1.36,0.12c0.46,0.08,0.89,0.26,1.3,0.53c0.33,0.21,0.58,0.49,0.76,0.82
					C130.2,163.08,130.29,163.43,130.29,163.8z"/>
			</g>
			<g style="clip-path:url(#SVGID_00000040575187277284300970000016264506103485024136_);">
				<defs>
					<rect id="SVGID_00000105424306265974109280000004441893124345353606_" x="381.73" y="146.31" width="85.6" height="46.92"/>
				</defs>
				<clipPath id="SVGID_00000036968991846453080300000014754146535982912173_">
					<use xlink:href="#SVGID_00000105424306265974109280000004441893124345353606_"  style="overflow:visible;"/>
				</clipPath>
				
					<path style="clip-path:url(#SVGID_00000036968991846453080300000014754146535982912173_);fill-rule:evenodd;clip-rule:evenodd;" d="
					M392.76,166.2c0.18,0.16,0.3,0.38,0.35,0.66c0.02,0.18,0.04,0.35,0.05,0.52c0,0.12-0.01,0.25-0.03,0.39
					c-0.04,0.33-0.09,0.66-0.17,1c-0.08,0.34-0.16,0.65-0.24,0.93c-0.16,0.58-0.41,1.15-0.76,1.71c-0.35,0.56-0.77,1.06-1.26,1.49
					c-0.49,0.44-1.02,0.79-1.6,1.06c-0.58,0.27-1.16,0.41-1.74,0.41h-0.21l-0.85,3.25c-0.04,0.16-0.14,0.25-0.32,0.25h-0.09
					c-0.16,0-0.23-0.07-0.23-0.21v-0.07l0.84-3.26c-0.4-0.03-0.83-0.11-1.27-0.23c-0.44-0.12-0.83-0.33-1.18-0.61
					c-0.35-0.29-0.57-0.66-0.67-1.11c-0.05-0.21-0.08-0.42-0.08-0.62c0-0.26,0.03-0.52,0.1-0.79c0.1-0.4,0.24-0.85,0.43-1.33
					c0.19-0.49,0.37-0.96,0.54-1.41c0.16-0.42,0.24-0.77,0.24-1.06v-0.13c-0.02-0.26-0.14-0.39-0.37-0.4
					c-0.22,0-0.42,0.06-0.61,0.19c-0.19,0.12-0.36,0.29-0.52,0.5c-0.16,0.21-0.3,0.46-0.42,0.74c-0.12,0.28-0.22,0.58-0.29,0.89
					c-0.07,0.16-0.17,0.24-0.32,0.25h-0.11c-0.08,0-0.14-0.03-0.18-0.08c-0.04-0.04-0.06-0.09-0.06-0.14c0-0.02,0.01-0.05,0.03-0.09
					c0.08-0.32,0.19-0.64,0.34-0.98c0.15-0.34,0.33-0.64,0.55-0.92c0.22-0.27,0.46-0.5,0.74-0.68c0.28-0.18,0.59-0.26,0.94-0.26
					c0.31,0,0.59,0.07,0.82,0.19c0.23,0.13,0.42,0.3,0.54,0.51c0.13,0.21,0.2,0.45,0.23,0.72v0.13c0,0.23-0.05,0.47-0.16,0.74
					c-0.17,0.45-0.35,0.92-0.52,1.39c-0.17,0.48-0.31,0.91-0.41,1.29c-0.07,0.28-0.11,0.55-0.11,0.81c0,0.12,0.01,0.23,0.02,0.35
					c0.05,0.35,0.19,0.65,0.42,0.9c0.19,0.2,0.43,0.35,0.7,0.46c0.27,0.11,0.54,0.18,0.81,0.22l3.09-12.01
					c0.04-0.15,0.14-0.23,0.32-0.23h0.09c0.16,0,0.24,0.06,0.24,0.19v0.06l-3.1,12.02h0.16c0.49,0,0.99-0.11,1.48-0.35
					c0.49-0.23,0.95-0.54,1.37-0.94c0.42-0.39,0.79-0.84,1.11-1.34c0.32-0.5,0.54-1,0.67-1.52c0.05-0.21,0.07-0.41,0.07-0.61
					c0-0.21-0.02-0.41-0.07-0.61c-0.11-0.37-0.32-0.67-0.61-0.91c-0.17-0.13-0.26-0.29-0.26-0.47c0-0.05,0.01-0.09,0.02-0.12
					c0.04-0.21,0.14-0.4,0.3-0.56c0.16-0.16,0.35-0.27,0.57-0.34c0.06-0.01,0.12-0.02,0.18-0.02
					C392.47,166.02,392.62,166.08,392.76,166.2z"/>
				
					<path style="clip-path:url(#SVGID_00000036968991846453080300000014754146535982912173_);fill-rule:evenodd;clip-rule:evenodd;" d="
					M399.04,174.86c0,0.28-0.07,0.55-0.21,0.81c-0.14,0.26-0.33,0.48-0.56,0.66c-0.26,0.21-0.56,0.36-0.88,0.46
					c-0.32,0.1-0.65,0.15-1,0.15c-0.31,0-0.62-0.04-0.92-0.12c-0.3-0.08-0.57-0.19-0.81-0.34c-0.24-0.15-0.43-0.33-0.58-0.54
					c-0.14-0.21-0.22-0.46-0.22-0.74c0-0.21,0.08-0.37,0.24-0.47c0.16-0.1,0.32-0.16,0.5-0.16c0.18,0,0.35,0.05,0.51,0.16
					c0.16,0.1,0.24,0.26,0.24,0.47c0,0.12-0.03,0.23-0.08,0.31c-0.05,0.08-0.12,0.15-0.21,0.21c-0.08,0.06-0.18,0.09-0.29,0.1
					c-0.06,0.01-0.11,0.02-0.16,0.02c-0.05,0-0.06,0-0.02,0.01c0.12,0.18,0.35,0.35,0.69,0.49c0.34,0.14,0.72,0.21,1.12,0.21
					c0.19,0,0.37-0.04,0.53-0.12c0.16-0.08,0.3-0.2,0.41-0.34c0.14-0.18,0.23-0.38,0.28-0.59c0.05-0.21,0.07-0.42,0.07-0.64
					c0-0.23-0.02-0.44-0.07-0.65c-0.05-0.21-0.14-0.4-0.28-0.58c-0.11-0.14-0.25-0.26-0.41-0.35c-0.16-0.09-0.34-0.13-0.53-0.13
					h-0.82c-0.11,0-0.17-0.05-0.18-0.14v-0.05c0-0.04,0.01-0.07,0.04-0.09c0.03-0.03,0.08-0.04,0.13-0.04
					c0.11-0.01,0.22-0.02,0.34-0.02c0.11,0,0.23-0.01,0.33-0.02c0.2-0.01,0.38-0.07,0.53-0.17c0.15-0.1,0.28-0.23,0.38-0.38
					c0.1-0.16,0.18-0.34,0.23-0.54c0.05-0.2,0.08-0.41,0.08-0.62c0-0.16-0.02-0.31-0.06-0.45c-0.04-0.14-0.11-0.26-0.21-0.37
					c-0.21-0.22-0.48-0.32-0.81-0.32c-0.35,0-0.67,0.06-0.96,0.17c-0.29,0.12-0.48,0.24-0.58,0.38c-0.03,0-0.01,0.01,0.04,0.01
					c0.14,0,0.26,0.04,0.39,0.11c0.18,0.1,0.27,0.26,0.27,0.48c0,0.19-0.07,0.33-0.21,0.43c-0.14,0.1-0.29,0.15-0.46,0.14
					c-0.17,0-0.32-0.05-0.47-0.14c-0.15-0.1-0.22-0.24-0.22-0.43c0-0.24,0.06-0.45,0.19-0.63c0.13-0.18,0.29-0.34,0.5-0.47
					c0.2-0.13,0.44-0.23,0.7-0.3c0.27-0.07,0.53-0.1,0.81-0.1c0.29,0,0.57,0.03,0.85,0.1c0.27,0.07,0.53,0.18,0.77,0.32
					c0.2,0.12,0.36,0.28,0.5,0.46c0.13,0.18,0.2,0.39,0.2,0.62c0,0.23-0.05,0.45-0.14,0.65c-0.09,0.2-0.22,0.39-0.37,0.55
					c-0.15,0.16-0.34,0.31-0.55,0.43c-0.21,0.12-0.37,0.2-0.48,0.24c0.09,0.01,0.25,0.06,0.47,0.15c0.22,0.09,0.43,0.2,0.63,0.35
					c0.23,0.18,0.42,0.4,0.56,0.65C398.97,174.32,399.04,174.58,399.04,174.86z"/>
				
					<path style="clip-path:url(#SVGID_00000036968991846453080300000014754146535982912173_);fill-rule:evenodd;clip-rule:evenodd;" d="
					M406.43,178.38c0,0.05-0.02,0.11-0.05,0.18c-0.06,0.06-0.13,0.09-0.21,0.09c-0.11,0-0.18-0.02-0.23-0.05
					c-0.71-0.53-1.31-1.14-1.82-1.83c-0.51-0.69-0.92-1.42-1.24-2.2c-0.32-0.78-0.56-1.59-0.71-2.45c-0.15-0.85-0.23-1.71-0.23-2.56
					c0-0.85,0.08-1.71,0.23-2.56c0.15-0.85,0.39-1.67,0.71-2.45c0.32-0.78,0.74-1.51,1.24-2.2c0.51-0.68,1.11-1.29,1.82-1.83
					c0.04-0.03,0.12-0.05,0.23-0.05c0.07,0,0.14,0.03,0.21,0.09c0.04,0.07,0.05,0.13,0.05,0.18c0,0.07-0.03,0.14-0.08,0.19
					c-0.59,0.53-1.08,1.13-1.49,1.8c-0.41,0.66-0.74,1.37-0.99,2.11c-0.25,0.74-0.43,1.52-0.53,2.32c-0.11,0.8-0.16,1.6-0.16,2.4
					c0,0.81,0.05,1.61,0.16,2.41c0.11,0.8,0.28,1.57,0.53,2.31s0.58,1.45,0.98,2.11c0.4,0.66,0.9,1.26,1.49,1.8
					C406.4,178.23,406.43,178.3,406.43,178.38z"/>
				
					<path style="clip-path:url(#SVGID_00000036968991846453080300000014754146535982912173_);fill-rule:evenodd;clip-rule:evenodd;" d="
					M417.76,167.5c-0.07,0.26-0.2,0.46-0.4,0.59c-0.2,0.13-0.41,0.2-0.61,0.2c-0.21,0-0.39-0.07-0.53-0.2
					c-0.1-0.1-0.16-0.23-0.16-0.39c0-0.06,0.01-0.15,0.04-0.25c0.07-0.22,0.17-0.39,0.31-0.5c0.14-0.11,0.24-0.18,0.29-0.2
					c-0.11-0.09-0.35-0.13-0.71-0.13c-0.31,0-0.59,0.16-0.84,0.49c-0.25,0.32-0.43,0.72-0.55,1.17l-0.83,3.21
					c-0.08,0.32-0.15,0.63-0.19,0.92c-0.02,0.1-0.04,0.19-0.04,0.26c0,0.18,0.03,0.35,0.09,0.52c0.06,0.18,0.15,0.32,0.27,0.42
					s0.27,0.16,0.46,0.16c0.24,0,0.47-0.06,0.7-0.19c0.22-0.13,0.43-0.3,0.61-0.51c0.19-0.21,0.35-0.46,0.5-0.75
					c0.14-0.28,0.26-0.58,0.34-0.87c0.04-0.15,0.14-0.23,0.31-0.23h0.21c0.16,0,0.24,0.06,0.24,0.18c0,0.04-0.01,0.07-0.03,0.1
					c-0.08,0.35-0.22,0.7-0.41,1.04s-0.41,0.65-0.66,0.91c-0.25,0.26-0.54,0.48-0.86,0.65c-0.32,0.17-0.67,0.25-1.04,0.25
					c-0.37,0-0.7-0.08-0.97-0.24c-0.27-0.16-0.49-0.37-0.66-0.63c-0.05-0.06-0.1-0.13-0.13-0.2c-0.03-0.07-0.04-0.08-0.03-0.03
					c-0.14,0.24-0.37,0.48-0.69,0.73c-0.31,0.25-0.68,0.37-1.09,0.37c-0.23,0-0.45-0.03-0.68-0.09c-0.22-0.06-0.42-0.15-0.58-0.27
					c-0.17-0.12-0.29-0.27-0.38-0.45c-0.04-0.1-0.06-0.22-0.06-0.34c0-0.09,0.01-0.19,0.04-0.31c0.07-0.26,0.2-0.46,0.41-0.59
					c0.21-0.13,0.41-0.2,0.62-0.2c0.21,0,0.39,0.07,0.54,0.2c0.1,0.1,0.15,0.23,0.15,0.39c0,0.08-0.01,0.16-0.04,0.25
					c-0.05,0.21-0.15,0.37-0.29,0.5c-0.14,0.13-0.24,0.19-0.3,0.21c0.11,0.09,0.35,0.14,0.7,0.13c0.31,0,0.6-0.16,0.85-0.49
					c0.25-0.33,0.44-0.72,0.55-1.18l0.84-3.23c0.08-0.3,0.15-0.6,0.2-0.9c0.01-0.09,0.02-0.18,0.02-0.26c0-0.18-0.03-0.35-0.08-0.51
					c-0.06-0.18-0.15-0.32-0.28-0.43c-0.13-0.11-0.28-0.16-0.47-0.16c-0.24,0-0.47,0.06-0.7,0.19c-0.23,0.13-0.43,0.29-0.62,0.51
					c-0.19,0.21-0.35,0.46-0.5,0.73c-0.15,0.28-0.25,0.57-0.32,0.88c-0.07,0.16-0.18,0.24-0.34,0.25h-0.2
					c-0.14,0-0.22-0.07-0.22-0.22v-0.06c0.09-0.36,0.23-0.72,0.42-1.06c0.19-0.34,0.41-0.65,0.67-0.91
					c0.26-0.26,0.55-0.48,0.87-0.65s0.67-0.25,1.04-0.25c0.36,0,0.68,0.08,0.96,0.24c0.28,0.16,0.5,0.37,0.68,0.63
					c0.04,0.06,0.07,0.13,0.1,0.21c0.03,0.07,0.04,0.09,0.03,0.06c0.15-0.26,0.38-0.51,0.7-0.76c0.31-0.25,0.67-0.37,1.08-0.37
					c0.23,0,0.46,0.03,0.68,0.08c0.23,0.06,0.42,0.14,0.59,0.27c0.17,0.12,0.29,0.28,0.37,0.46c0.04,0.11,0.06,0.23,0.06,0.36
					C417.8,167.29,417.79,167.39,417.76,167.5z"/>
				
					<path style="clip-path:url(#SVGID_00000036968991846453080300000014754146535982912173_);fill-rule:evenodd;clip-rule:evenodd;" d="
					M425.65,169.56c0,0.86-0.08,1.71-0.23,2.56c-0.15,0.85-0.4,1.67-0.72,2.45c-0.33,0.78-0.74,1.51-1.25,2.2
					c-0.51,0.69-1.11,1.3-1.82,1.84c-0.07,0.03-0.12,0.04-0.16,0.04h-0.05c-0.07,0-0.14-0.03-0.2-0.09
					c-0.04-0.07-0.05-0.13-0.05-0.18c0-0.07,0.03-0.13,0.08-0.19c0.59-0.53,1.08-1.13,1.48-1.8c0.4-0.66,0.73-1.37,0.98-2.11
					s0.43-1.51,0.53-2.31c0.11-0.8,0.16-1.6,0.16-2.41c0-0.8-0.05-1.59-0.16-2.4c-0.11-0.8-0.28-1.57-0.53-2.32
					c-0.25-0.74-0.58-1.45-0.98-2.11c-0.4-0.66-0.9-1.26-1.48-1.8c-0.05-0.05-0.08-0.12-0.08-0.19c0-0.08,0.02-0.14,0.06-0.18
					c0.05-0.05,0.12-0.08,0.19-0.08h0.05c0.04,0,0.09,0.02,0.16,0.04c0.72,0.54,1.33,1.15,1.83,1.84c0.5,0.69,0.92,1.42,1.24,2.2
					c0.33,0.78,0.57,1.59,0.72,2.45S425.65,168.7,425.65,169.56z"/>
				
					<line style="clip-path:url(#SVGID_00000036968991846453080300000014754146535982912173_);fill:none;stroke:#000000;stroke-width:0.7195;stroke-linecap:round;stroke-linejoin:round;stroke-miterlimit:10;" x1="432.73" y1="166.87" x2="445.32" y2="166.87"/>
				
					<line style="clip-path:url(#SVGID_00000036968991846453080300000014754146535982912173_);fill:none;stroke:#000000;stroke-width:0.7195;stroke-linecap:round;stroke-linejoin:round;stroke-miterlimit:10;" x1="432.73" y1="170.65" x2="445.32" y2="170.65"/>
				
					<path style="clip-path:url(#SVGID_00000036968991846453080300000014754146535982912173_);fill-rule:evenodd;clip-rule:evenodd;" d="
					M454.75,173.1c0,0.29-0.11,0.54-0.31,0.74c-0.21,0.2-0.46,0.3-0.76,0.3c-0.29,0-0.55-0.1-0.76-0.3
					c-0.21-0.2-0.32-0.45-0.32-0.74c0-0.29,0.11-0.53,0.32-0.73s0.47-0.3,0.76-0.3c0.3,0,0.55,0.1,0.76,0.3
					C454.64,172.57,454.75,172.81,454.75,173.1z M457.36,163.8c0,0.37-0.08,0.72-0.25,1.06c-0.17,0.34-0.43,0.61-0.78,0.82
					c-0.69,0.45-1.25,1.02-1.68,1.7c-0.43,0.68-0.65,1.43-0.65,2.22v0.9c0,0.16-0.09,0.25-0.27,0.25h-0.12
					c-0.17,0-0.25-0.08-0.25-0.25v-0.9c0-0.81,0.15-1.6,0.44-2.35c0.29-0.76,0.74-1.42,1.34-2c0.19-0.18,0.32-0.4,0.38-0.65
					c0.07-0.25,0.11-0.52,0.11-0.8c0-0.3-0.02-0.58-0.05-0.83c-0.03-0.25-0.13-0.45-0.29-0.62c-0.2-0.19-0.43-0.32-0.71-0.39
					c-0.28-0.07-0.58-0.11-0.89-0.11c-0.51,0-0.97,0.1-1.4,0.31c-0.42,0.21-0.7,0.44-0.83,0.7c-0.05,0.01-0.05,0.02,0.03,0.02
					c0.19,0,0.38,0.06,0.55,0.17c0.25,0.16,0.37,0.42,0.37,0.76c0,0.31-0.09,0.53-0.29,0.69c-0.19,0.15-0.41,0.23-0.65,0.23
					c-0.23,0-0.45-0.08-0.64-0.23c-0.19-0.15-0.29-0.38-0.29-0.69c0-0.39,0.09-0.74,0.27-1.05c0.18-0.31,0.41-0.58,0.7-0.8
					c0.29-0.22,0.63-0.39,1-0.51c0.38-0.12,0.77-0.18,1.17-0.18c0.45,0,0.91,0.04,1.37,0.12c0.46,0.08,0.89,0.26,1.3,0.53
					c0.33,0.21,0.58,0.49,0.76,0.82C457.27,163.08,457.36,163.43,457.36,163.8z"/>
			</g>
			<g style="clip-path:url(#SVGID_00000040575187277284300970000016264506103485024136_);">
				<defs>
					<rect id="SVGID_00000126283889613777932960000003300549785735760830_" x="205.53" y="105.41" width="85.6" height="46.92"/>
				</defs>
				<clipPath id="SVGID_00000037671341747558611160000017142473101100386471_">
					<use xlink:href="#SVGID_00000126283889613777932960000003300549785735760830_"  style="overflow:visible;"/>
				</clipPath>
				
					<path style="clip-path:url(#SVGID_00000037671341747558611160000017142473101100386471_);fill-rule:evenodd;clip-rule:evenodd;" d="
					M216.57,125.31c0.18,0.16,0.3,0.38,0.35,0.66c0.02,0.18,0.04,0.35,0.05,0.52c0,0.12-0.01,0.25-0.03,0.39
					c-0.04,0.33-0.09,0.66-0.17,1c-0.08,0.34-0.16,0.65-0.24,0.93c-0.16,0.58-0.41,1.15-0.76,1.71c-0.35,0.56-0.77,1.06-1.26,1.49
					c-0.49,0.44-1.02,0.79-1.6,1.06c-0.58,0.27-1.16,0.41-1.74,0.41h-0.21l-0.85,3.25c-0.04,0.16-0.14,0.25-0.32,0.25h-0.09
					c-0.16,0-0.23-0.07-0.23-0.21v-0.07l0.84-3.26c-0.4-0.03-0.83-0.11-1.27-0.23c-0.44-0.12-0.83-0.33-1.18-0.61
					c-0.35-0.29-0.57-0.66-0.67-1.11c-0.05-0.21-0.08-0.42-0.08-0.62c0-0.26,0.03-0.52,0.1-0.79c0.1-0.4,0.24-0.85,0.43-1.33
					c0.19-0.49,0.37-0.96,0.54-1.41c0.16-0.42,0.24-0.77,0.24-1.06v-0.13c-0.02-0.26-0.14-0.39-0.37-0.4
					c-0.22,0-0.42,0.06-0.61,0.19c-0.19,0.12-0.36,0.29-0.52,0.5c-0.16,0.21-0.3,0.46-0.42,0.74c-0.12,0.28-0.22,0.58-0.29,0.89
					c-0.07,0.16-0.17,0.24-0.32,0.25h-0.11c-0.08,0-0.14-0.03-0.18-0.08c-0.04-0.04-0.06-0.09-0.06-0.14c0-0.02,0.01-0.05,0.03-0.09
					c0.08-0.32,0.19-0.64,0.34-0.98c0.15-0.34,0.33-0.64,0.55-0.92c0.22-0.27,0.46-0.5,0.74-0.68c0.28-0.18,0.59-0.26,0.94-0.26
					c0.31,0,0.59,0.07,0.82,0.19c0.23,0.13,0.42,0.3,0.54,0.51c0.13,0.21,0.2,0.45,0.23,0.72v0.13c0,0.23-0.05,0.47-0.16,0.74
					c-0.17,0.45-0.35,0.92-0.52,1.39c-0.17,0.48-0.31,0.91-0.41,1.29c-0.07,0.28-0.11,0.55-0.11,0.81c0,0.12,0.01,0.23,0.02,0.35
					c0.05,0.35,0.19,0.65,0.42,0.9c0.19,0.2,0.43,0.35,0.7,0.46c0.27,0.11,0.54,0.18,0.81,0.22l3.09-12.01
					c0.04-0.15,0.14-0.23,0.32-0.23h0.09c0.16,0,0.24,0.06,0.24,0.19v0.06l-3.1,12.02h0.16c0.49,0,0.99-0.11,1.48-0.35
					c0.49-0.23,0.95-0.54,1.37-0.94c0.42-0.39,0.79-0.84,1.11-1.34c0.32-0.5,0.54-1,0.67-1.52c0.05-0.21,0.07-0.41,0.07-0.61
					c0-0.21-0.02-0.41-0.07-0.61c-0.11-0.37-0.32-0.67-0.61-0.91c-0.17-0.13-0.26-0.29-0.26-0.47c0-0.05,0.01-0.09,0.02-0.12
					c0.04-0.21,0.14-0.4,0.3-0.56c0.16-0.16,0.35-0.27,0.57-0.34c0.06-0.01,0.12-0.02,0.18-0.02
					C216.27,125.12,216.43,125.18,216.57,125.31z"/>
				
					<path style="clip-path:url(#SVGID_00000037671341747558611160000017142473101100386471_);fill-rule:evenodd;clip-rule:evenodd;" d="
					M222.3,135.81h-4.62v-0.27c0-0.02,0.01-0.05,0.03-0.09l1.86-1.8c0.22-0.22,0.44-0.44,0.67-0.66c0.23-0.23,0.43-0.46,0.6-0.69
					c0.18-0.24,0.32-0.48,0.43-0.73c0.11-0.25,0.16-0.51,0.16-0.79c0-0.23-0.03-0.45-0.1-0.65c-0.07-0.2-0.17-0.38-0.3-0.53
					c-0.13-0.15-0.29-0.28-0.48-0.37c-0.19-0.09-0.42-0.14-0.67-0.14c-0.38,0-0.71,0.1-1,0.3c-0.29,0.2-0.48,0.42-0.58,0.67
					c-0.02,0.01,0.01,0.01,0.09,0.01h0.1c0.11,0.02,0.21,0.06,0.29,0.11s0.15,0.11,0.21,0.2c0.06,0.08,0.08,0.18,0.08,0.3
					c0,0.2-0.07,0.35-0.22,0.45c-0.14,0.1-0.3,0.16-0.48,0.16c-0.17,0-0.33-0.05-0.48-0.16c-0.15-0.1-0.22-0.26-0.22-0.45
					c0-0.28,0.06-0.54,0.18-0.78c0.12-0.25,0.29-0.46,0.49-0.64c0.21-0.18,0.45-0.32,0.74-0.43c0.28-0.1,0.58-0.16,0.9-0.16
					c0.39,0,0.75,0.05,1.08,0.16c0.33,0.1,0.61,0.25,0.84,0.45c0.23,0.19,0.41,0.42,0.54,0.67c0.13,0.25,0.2,0.54,0.2,0.84
					c0,0.34-0.09,0.66-0.26,0.94c-0.17,0.29-0.39,0.55-0.65,0.79c-0.26,0.24-0.53,0.46-0.82,0.68c-0.29,0.21-0.55,0.42-0.79,0.62
					l-1.31,1.1h1.71c0.24,0,0.46,0,0.67,0c0.21,0,0.38-0.01,0.52-0.02c0.14-0.01,0.22-0.02,0.22-0.02c0.03-0.02,0.06-0.07,0.09-0.14
					c0.03-0.07,0.05-0.15,0.07-0.24c0.02-0.09,0.05-0.19,0.07-0.29c0.02-0.1,0.04-0.2,0.06-0.32h0.42L222.3,135.81z"/>
				
					<path style="clip-path:url(#SVGID_00000037671341747558611160000017142473101100386471_);fill-rule:evenodd;clip-rule:evenodd;" d="
					M230.04,137.48c0,0.05-0.02,0.11-0.05,0.18c-0.06,0.06-0.13,0.09-0.21,0.09c-0.11,0-0.18-0.02-0.23-0.05
					c-0.71-0.53-1.31-1.14-1.82-1.83c-0.51-0.69-0.92-1.42-1.24-2.2c-0.32-0.78-0.56-1.59-0.72-2.45c-0.15-0.85-0.23-1.71-0.23-2.56
					c0-0.85,0.08-1.71,0.23-2.56c0.15-0.85,0.39-1.67,0.72-2.45c0.32-0.78,0.74-1.51,1.24-2.2c0.51-0.68,1.11-1.29,1.82-1.83
					c0.04-0.03,0.12-0.05,0.23-0.05c0.07,0,0.14,0.03,0.21,0.09c0.04,0.07,0.05,0.13,0.05,0.18c0,0.07-0.03,0.14-0.08,0.19
					c-0.58,0.53-1.08,1.13-1.49,1.8c-0.41,0.66-0.74,1.37-0.99,2.11c-0.25,0.74-0.43,1.52-0.53,2.32c-0.11,0.8-0.16,1.6-0.16,2.4
					c0,0.81,0.05,1.61,0.16,2.41c0.11,0.8,0.28,1.57,0.53,2.31c0.25,0.74,0.58,1.45,0.98,2.11c0.4,0.66,0.9,1.26,1.49,1.8
					C230.01,137.34,230.04,137.4,230.04,137.48z"/>
				
					<path style="clip-path:url(#SVGID_00000037671341747558611160000017142473101100386471_);fill-rule:evenodd;clip-rule:evenodd;" d="
					M241.38,126.61c-0.07,0.26-0.2,0.46-0.4,0.59c-0.2,0.13-0.41,0.2-0.61,0.2c-0.21,0-0.39-0.07-0.53-0.2
					c-0.1-0.1-0.16-0.23-0.16-0.39c0-0.06,0.01-0.15,0.04-0.25c0.07-0.22,0.17-0.39,0.31-0.5c0.14-0.11,0.24-0.18,0.29-0.2
					c-0.11-0.09-0.35-0.13-0.71-0.13c-0.31,0-0.59,0.16-0.84,0.49c-0.25,0.32-0.43,0.72-0.55,1.17l-0.83,3.21
					c-0.08,0.32-0.15,0.63-0.19,0.92c-0.02,0.1-0.04,0.19-0.04,0.26c0,0.18,0.03,0.35,0.09,0.52c0.06,0.18,0.15,0.32,0.27,0.42
					c0.12,0.11,0.27,0.16,0.46,0.16c0.24,0,0.47-0.06,0.7-0.19c0.22-0.13,0.43-0.3,0.61-0.51c0.19-0.21,0.35-0.46,0.5-0.75
					c0.14-0.28,0.26-0.58,0.34-0.87c0.04-0.15,0.14-0.23,0.31-0.23h0.21c0.16,0,0.24,0.06,0.24,0.18c0,0.04-0.01,0.07-0.03,0.1
					c-0.08,0.35-0.22,0.7-0.41,1.04s-0.41,0.65-0.66,0.91c-0.25,0.26-0.54,0.48-0.86,0.65c-0.32,0.17-0.67,0.25-1.04,0.25
					c-0.37,0-0.7-0.08-0.97-0.24c-0.27-0.16-0.49-0.37-0.66-0.63c-0.05-0.06-0.1-0.13-0.13-0.2c-0.03-0.07-0.04-0.08-0.03-0.03
					c-0.14,0.24-0.37,0.48-0.69,0.73c-0.31,0.25-0.68,0.37-1.09,0.37c-0.23,0-0.46-0.03-0.68-0.09c-0.22-0.06-0.42-0.15-0.58-0.27
					c-0.17-0.12-0.29-0.27-0.38-0.45c-0.04-0.1-0.06-0.22-0.06-0.34c0-0.09,0.01-0.19,0.04-0.31c0.07-0.26,0.2-0.46,0.41-0.59
					c0.21-0.13,0.41-0.2,0.62-0.2c0.21,0,0.39,0.07,0.54,0.2c0.1,0.1,0.15,0.23,0.15,0.39c0,0.08-0.01,0.16-0.04,0.25
					c-0.05,0.21-0.15,0.37-0.29,0.5c-0.14,0.13-0.24,0.19-0.3,0.21c0.11,0.09,0.35,0.14,0.7,0.13c0.31,0,0.6-0.16,0.85-0.49
					c0.25-0.33,0.44-0.72,0.55-1.18l0.84-3.23c0.08-0.3,0.15-0.6,0.2-0.9c0.01-0.09,0.02-0.18,0.02-0.26c0-0.18-0.03-0.35-0.08-0.51
					c-0.06-0.18-0.15-0.32-0.28-0.43c-0.13-0.11-0.28-0.16-0.47-0.16c-0.24,0-0.47,0.06-0.7,0.19c-0.23,0.13-0.43,0.29-0.62,0.51
					c-0.19,0.21-0.35,0.46-0.5,0.73c-0.14,0.28-0.25,0.57-0.32,0.88c-0.07,0.16-0.18,0.24-0.33,0.25h-0.2
					c-0.15,0-0.22-0.07-0.22-0.22V128c0.09-0.36,0.23-0.72,0.42-1.06c0.19-0.34,0.41-0.65,0.67-0.91c0.26-0.26,0.55-0.48,0.87-0.65
					c0.32-0.17,0.67-0.25,1.04-0.25c0.36,0,0.68,0.08,0.96,0.24c0.28,0.16,0.5,0.37,0.68,0.63c0.04,0.06,0.07,0.13,0.1,0.21
					c0.03,0.07,0.04,0.09,0.03,0.06c0.15-0.26,0.38-0.51,0.7-0.76c0.31-0.25,0.67-0.37,1.08-0.37c0.23,0,0.46,0.03,0.68,0.08
					c0.23,0.06,0.42,0.14,0.59,0.27c0.17,0.12,0.29,0.28,0.37,0.46c0.04,0.11,0.06,0.23,0.06,0.36
					C241.41,126.4,241.4,126.5,241.38,126.61z"/>
				
					<path style="clip-path:url(#SVGID_00000037671341747558611160000017142473101100386471_);fill-rule:evenodd;clip-rule:evenodd;" d="
					M249.26,128.66c0,0.86-0.08,1.71-0.23,2.56c-0.15,0.85-0.4,1.67-0.72,2.45c-0.33,0.78-0.74,1.51-1.25,2.2
					c-0.51,0.69-1.11,1.3-1.82,1.84c-0.07,0.03-0.12,0.04-0.16,0.04h-0.05c-0.07,0-0.14-0.03-0.2-0.09
					c-0.04-0.07-0.05-0.13-0.05-0.18c0-0.07,0.03-0.13,0.08-0.19c0.59-0.53,1.08-1.13,1.48-1.8c0.4-0.66,0.73-1.37,0.98-2.11
					c0.25-0.74,0.43-1.51,0.53-2.31c0.11-0.8,0.16-1.6,0.16-2.41c0-0.8-0.05-1.59-0.16-2.4c-0.11-0.8-0.28-1.57-0.53-2.32
					c-0.25-0.74-0.58-1.45-0.98-2.11c-0.4-0.66-0.9-1.26-1.48-1.8c-0.05-0.05-0.08-0.12-0.08-0.19c0-0.08,0.02-0.14,0.06-0.18
					c0.05-0.05,0.12-0.08,0.19-0.08h0.05c0.04,0,0.09,0.02,0.16,0.04c0.72,0.54,1.33,1.15,1.83,1.84c0.5,0.69,0.92,1.42,1.24,2.2
					c0.33,0.78,0.57,1.59,0.72,2.45C249.19,126.95,249.26,127.81,249.26,128.66z"/>
				
					<line style="clip-path:url(#SVGID_00000037671341747558611160000017142473101100386471_);fill:none;stroke:#000000;stroke-width:0.7195;stroke-linecap:round;stroke-linejoin:round;stroke-miterlimit:10;" x1="256.34" y1="125.97" x2="268.94" y2="125.97"/>
				
					<line style="clip-path:url(#SVGID_00000037671341747558611160000017142473101100386471_);fill:none;stroke:#000000;stroke-width:0.7195;stroke-linecap:round;stroke-linejoin:round;stroke-miterlimit:10;" x1="256.34" y1="129.75" x2="268.94" y2="129.75"/>
				
					<path style="clip-path:url(#SVGID_00000037671341747558611160000017142473101100386471_);fill-rule:evenodd;clip-rule:evenodd;" d="
					M278.37,132.2c0,0.29-0.11,0.54-0.31,0.74c-0.21,0.2-0.46,0.3-0.76,0.3c-0.29,0-0.55-0.1-0.76-0.3
					c-0.21-0.2-0.32-0.45-0.32-0.74c0-0.29,0.11-0.53,0.32-0.73c0.21-0.2,0.47-0.3,0.76-0.3c0.3,0,0.55,0.1,0.76,0.3
					C278.26,131.67,278.37,131.91,278.37,132.2z M280.98,122.91c0,0.37-0.08,0.72-0.25,1.06c-0.17,0.34-0.43,0.61-0.78,0.82
					c-0.69,0.45-1.25,1.02-1.68,1.7c-0.43,0.68-0.64,1.43-0.64,2.22v0.9c0,0.16-0.09,0.25-0.27,0.25h-0.12
					c-0.17,0-0.25-0.08-0.25-0.25v-0.9c0-0.81,0.15-1.6,0.44-2.35c0.29-0.76,0.74-1.42,1.34-2c0.19-0.18,0.32-0.4,0.38-0.65
					c0.07-0.25,0.11-0.52,0.11-0.8c0-0.3-0.02-0.58-0.05-0.83c-0.03-0.25-0.13-0.45-0.29-0.62c-0.2-0.19-0.44-0.32-0.71-0.39
					c-0.28-0.07-0.58-0.11-0.89-0.11c-0.51,0-0.97,0.1-1.4,0.31c-0.42,0.21-0.7,0.44-0.84,0.7c-0.05,0.01-0.04,0.02,0.03,0.02
					c0.2,0,0.38,0.06,0.55,0.17c0.25,0.16,0.37,0.42,0.37,0.76c0,0.31-0.09,0.53-0.29,0.69c-0.19,0.15-0.41,0.23-0.65,0.23
					c-0.23,0-0.45-0.08-0.64-0.23c-0.19-0.15-0.29-0.38-0.29-0.69c0-0.39,0.09-0.74,0.27-1.05c0.18-0.31,0.42-0.58,0.7-0.8
					c0.29-0.22,0.63-0.39,1-0.51c0.37-0.12,0.76-0.18,1.17-0.18c0.45,0,0.91,0.04,1.37,0.12c0.46,0.08,0.89,0.26,1.29,0.53
					c0.33,0.21,0.59,0.49,0.76,0.82C280.9,122.18,280.98,122.53,280.98,122.91z"/>
			</g>
			<g style="clip-path:url(#SVGID_00000040575187277284300970000016264506103485024136_);">
				<defs>
					<rect id="SVGID_00000145740131160449882860000006223283907356936103_" x="468.35" y="268.38" width="11.83" height="11.9"/>
				</defs>
				<clipPath id="SVGID_00000076567382797003279610000007235274797814740131_">
					<use xlink:href="#SVGID_00000145740131160449882860000006223283907356936103_"  style="overflow:visible;"/>
				</clipPath>
				
					<path style="clip-path:url(#SVGID_00000076567382797003279610000007235274797814740131_);fill-rule:evenodd;clip-rule:evenodd;" d="
					M477.1,271.24c-0.07,0.26-0.2,0.46-0.4,0.59c-0.2,0.13-0.41,0.2-0.61,0.2c-0.21,0-0.39-0.07-0.53-0.2
					c-0.1-0.1-0.16-0.23-0.16-0.39c0-0.06,0.01-0.15,0.04-0.25c0.07-0.22,0.17-0.39,0.31-0.5c0.14-0.11,0.24-0.18,0.29-0.2
					c-0.11-0.09-0.35-0.13-0.71-0.13c-0.31,0-0.59,0.16-0.84,0.49c-0.25,0.32-0.43,0.72-0.55,1.17l-0.83,3.21
					c-0.08,0.32-0.15,0.63-0.19,0.92c-0.02,0.1-0.04,0.19-0.04,0.26c0,0.18,0.03,0.35,0.09,0.52c0.06,0.18,0.15,0.32,0.27,0.42
					c0.12,0.11,0.27,0.16,0.46,0.16c0.24,0,0.47-0.06,0.7-0.19c0.22-0.13,0.43-0.3,0.62-0.51c0.19-0.21,0.35-0.46,0.5-0.75
					c0.14-0.28,0.26-0.58,0.34-0.87c0.04-0.15,0.14-0.23,0.31-0.23h0.21c0.16,0,0.24,0.06,0.24,0.18c0,0.04-0.01,0.07-0.03,0.1
					c-0.08,0.35-0.22,0.7-0.41,1.04c-0.19,0.34-0.41,0.65-0.66,0.91c-0.25,0.26-0.54,0.48-0.86,0.65c-0.32,0.17-0.67,0.25-1.04,0.25
					c-0.37,0-0.7-0.08-0.97-0.24c-0.27-0.16-0.49-0.37-0.66-0.63c-0.05-0.06-0.1-0.13-0.13-0.2c-0.03-0.07-0.04-0.08-0.03-0.03
					c-0.14,0.24-0.37,0.48-0.69,0.73c-0.31,0.25-0.68,0.37-1.09,0.37c-0.23,0-0.46-0.03-0.68-0.09c-0.22-0.06-0.42-0.15-0.58-0.27
					c-0.17-0.12-0.29-0.27-0.38-0.45c-0.04-0.1-0.06-0.22-0.06-0.34c0-0.09,0.01-0.19,0.04-0.31c0.07-0.26,0.2-0.46,0.41-0.59
					c0.21-0.13,0.41-0.2,0.61-0.2c0.21,0,0.39,0.07,0.54,0.2c0.1,0.1,0.15,0.23,0.15,0.39c0,0.08-0.01,0.16-0.04,0.25
					c-0.05,0.21-0.15,0.37-0.29,0.5c-0.14,0.13-0.24,0.19-0.3,0.21c0.11,0.09,0.35,0.14,0.7,0.13c0.31,0,0.6-0.16,0.85-0.49
					c0.25-0.33,0.44-0.72,0.55-1.18l0.84-3.23c0.08-0.3,0.15-0.6,0.2-0.9c0.01-0.09,0.02-0.18,0.02-0.26c0-0.18-0.03-0.35-0.08-0.51
					c-0.06-0.17-0.15-0.32-0.28-0.43c-0.13-0.11-0.28-0.16-0.47-0.16c-0.24,0-0.48,0.06-0.7,0.19c-0.23,0.13-0.43,0.29-0.62,0.51
					c-0.19,0.21-0.35,0.46-0.5,0.73c-0.14,0.28-0.25,0.57-0.32,0.88c-0.07,0.16-0.18,0.24-0.33,0.25h-0.2
					c-0.14,0-0.22-0.07-0.22-0.22v-0.06c0.09-0.36,0.23-0.72,0.42-1.06s0.41-0.65,0.67-0.91c0.26-0.26,0.55-0.48,0.87-0.65
					c0.32-0.17,0.67-0.25,1.04-0.25c0.36,0,0.68,0.08,0.96,0.24c0.28,0.16,0.5,0.37,0.68,0.63c0.04,0.07,0.07,0.13,0.1,0.21
					c0.03,0.07,0.04,0.09,0.03,0.06c0.15-0.26,0.38-0.51,0.7-0.76c0.31-0.25,0.67-0.37,1.08-0.37c0.23,0,0.46,0.03,0.68,0.08
					c0.23,0.06,0.42,0.14,0.59,0.27c0.17,0.12,0.29,0.27,0.37,0.46c0.04,0.11,0.06,0.23,0.06,0.36
					C477.14,271.03,477.13,271.13,477.1,271.24z"/>
			</g>
			<g style="clip-path:url(#SVGID_00000040575187277284300970000016264506103485024136_);">
				<defs>
					<rect id="SVGID_00000071537378190559717340000015697531399125112707_" x="198.57" y="37.83" width="40.24" height="20.14"/>
				</defs>
				<clipPath id="SVGID_00000133499798333731019660000000771848584375072649_">
					<use xlink:href="#SVGID_00000071537378190559717340000015697531399125112707_"  style="overflow:visible;"/>
				</clipPath>
				
					<path style="clip-path:url(#SVGID_00000133499798333731019660000000771848584375072649_);fill-rule:evenodd;clip-rule:evenodd;" d="
					M210.9,40.9c-0.04,0.18-0.14,0.26-0.33,0.26c-0.19,0-0.38,0.02-0.55,0.07c-0.17,0.04-0.34,0.12-0.51,0.22
					c-0.17,0.11-0.32,0.23-0.46,0.38c-0.14,0.15-0.27,0.32-0.38,0.5l-6.6,10.72c-0.09,0.16-0.23,0.24-0.42,0.24h-0.17
					c-0.22,0-0.33-0.09-0.33-0.28l-1.13-11.22c-0.02-0.15-0.05-0.27-0.07-0.36c-0.02-0.08-0.06-0.14-0.11-0.18
					c-0.08-0.05-0.22-0.08-0.4-0.09c-0.18-0.01-0.39-0.02-0.63-0.02c-0.09,0-0.16-0.03-0.2-0.09c-0.04-0.03-0.05-0.08-0.05-0.13
					c0-0.03,0.01-0.07,0.03-0.1l0.03-0.13c0.02-0.08,0.06-0.14,0.12-0.19c0.06-0.05,0.14-0.08,0.23-0.08
					c0.58,0.04,1.16,0.05,1.76,0.05c0.09,0,0.19-0.01,0.29-0.02c0.7,0,1.4-0.01,2.1-0.04c0.08,0,0.16,0.03,0.23,0.09
					c0.02,0.05,0.04,0.09,0.04,0.13c0,0.04-0.01,0.07-0.03,0.1l-0.03,0.13c-0.02,0.08-0.06,0.15-0.13,0.2
					c-0.07,0.05-0.14,0.07-0.22,0.07c-0.21,0-0.4,0.01-0.58,0.03c-0.17,0.02-0.35,0.06-0.52,0.14c-0.1,0.05-0.15,0.14-0.14,0.26
					v0.06c0.21,1.56,0.38,3.12,0.51,4.69c0.13,1.57,0.26,3.06,0.41,4.47l5.34-8.69c0.08-0.12,0.13-0.25,0.14-0.39V41.7
					c0-0.09-0.02-0.17-0.06-0.24c-0.13-0.2-0.38-0.3-0.74-0.3c-0.16,0-0.24-0.08-0.24-0.24v-0.06l0.04-0.16
					c0.07-0.18,0.18-0.26,0.35-0.26c0.53,0.02,1.06,0.04,1.6,0.04c0.07,0.01,0.14,0.02,0.21,0.02c0.46,0,0.93-0.02,1.41-0.05
					c0.16,0,0.25,0.08,0.26,0.24v0.07L210.9,40.9z"/>
				
					<path style="clip-path:url(#SVGID_00000133499798333731019660000000771848584375072649_);fill-rule:evenodd;clip-rule:evenodd;" d="
					M229.35,46.25c-0.07,0.26-0.2,0.46-0.4,0.59c-0.2,0.13-0.41,0.2-0.61,0.2c-0.21,0-0.39-0.07-0.53-0.2
					c-0.1-0.1-0.16-0.23-0.16-0.39c0-0.06,0.01-0.15,0.04-0.25c0.07-0.22,0.17-0.39,0.31-0.5c0.14-0.11,0.24-0.18,0.29-0.2
					c-0.11-0.09-0.35-0.13-0.71-0.13c-0.31,0-0.59,0.16-0.84,0.49c-0.25,0.32-0.43,0.72-0.55,1.17l-0.83,3.21
					c-0.08,0.32-0.15,0.63-0.19,0.92c-0.02,0.1-0.04,0.19-0.04,0.26c0,0.18,0.03,0.35,0.09,0.52c0.06,0.18,0.15,0.32,0.27,0.42
					c0.12,0.11,0.27,0.16,0.46,0.16c0.24,0,0.47-0.06,0.7-0.19c0.22-0.13,0.43-0.3,0.62-0.51c0.19-0.21,0.35-0.46,0.5-0.75
					c0.14-0.28,0.26-0.58,0.34-0.87c0.04-0.15,0.14-0.23,0.31-0.23h0.21c0.16,0,0.24,0.06,0.24,0.18c0,0.04-0.01,0.07-0.03,0.1
					c-0.08,0.35-0.22,0.7-0.41,1.04s-0.41,0.65-0.66,0.91c-0.25,0.26-0.54,0.48-0.86,0.65c-0.32,0.17-0.67,0.25-1.04,0.25
					c-0.37,0-0.7-0.08-0.97-0.24c-0.27-0.16-0.49-0.37-0.66-0.63c-0.05-0.06-0.1-0.13-0.13-0.2c-0.03-0.07-0.04-0.08-0.03-0.03
					c-0.14,0.24-0.37,0.48-0.69,0.73c-0.31,0.25-0.68,0.37-1.09,0.37c-0.23,0-0.46-0.03-0.68-0.09c-0.22-0.06-0.42-0.15-0.58-0.27
					c-0.17-0.12-0.29-0.27-0.38-0.45c-0.04-0.1-0.06-0.22-0.06-0.34c0-0.09,0.01-0.19,0.04-0.31c0.07-0.26,0.2-0.46,0.41-0.59
					c0.21-0.13,0.41-0.2,0.61-0.2c0.21,0,0.39,0.07,0.54,0.2c0.1,0.1,0.15,0.23,0.15,0.39c0,0.08-0.01,0.16-0.04,0.25
					c-0.05,0.21-0.15,0.37-0.29,0.5c-0.14,0.13-0.24,0.19-0.3,0.21c0.11,0.09,0.35,0.14,0.7,0.13c0.31,0,0.6-0.16,0.85-0.49
					c0.25-0.33,0.44-0.72,0.55-1.18l0.84-3.23c0.08-0.3,0.15-0.6,0.2-0.9c0.01-0.09,0.02-0.18,0.02-0.26c0-0.18-0.03-0.35-0.08-0.51
					c-0.06-0.17-0.15-0.32-0.28-0.43c-0.13-0.11-0.28-0.16-0.47-0.16c-0.24,0-0.48,0.06-0.7,0.19c-0.23,0.13-0.43,0.29-0.62,0.51
					c-0.19,0.21-0.35,0.46-0.5,0.73c-0.14,0.28-0.25,0.57-0.32,0.88c-0.07,0.16-0.18,0.24-0.33,0.25h-0.2
					c-0.14,0-0.22-0.07-0.22-0.22v-0.06c0.09-0.36,0.23-0.72,0.42-1.06c0.19-0.34,0.41-0.65,0.67-0.91
					c0.26-0.26,0.55-0.48,0.87-0.65s0.67-0.25,1.04-0.25c0.36,0,0.68,0.08,0.96,0.24c0.28,0.16,0.5,0.37,0.68,0.63
					c0.04,0.06,0.07,0.13,0.1,0.21c0.03,0.07,0.04,0.09,0.03,0.06c0.15-0.26,0.38-0.51,0.7-0.76c0.31-0.25,0.67-0.37,1.08-0.37
					c0.23,0,0.46,0.03,0.68,0.08c0.23,0.06,0.42,0.14,0.59,0.27c0.17,0.12,0.29,0.27,0.37,0.46c0.04,0.11,0.06,0.23,0.06,0.36
					C229.38,46.04,229.37,46.14,229.35,46.25z"/>
				
					<path style="clip-path:url(#SVGID_00000133499798333731019660000000771848584375072649_);fill-rule:evenodd;clip-rule:evenodd;" d="
					M218.75,56.09c-5.86-3.86-5.86-13.31,0-17.17h0.92c-5.29,3.86-5.29,13.31,0,17.17"/>
				
					<path style="clip-path:url(#SVGID_00000133499798333731019660000000771848584375072649_);fill-rule:evenodd;clip-rule:evenodd;" d="
					M231.23,38.92c5.86,3.86,5.86,13.31,0,17.17h-0.92c5.29-3.86,5.29-13.31,0-17.17"/>
			</g>
			<g style="clip-path:url(#SVGID_00000040575187277284300970000016264506103485024136_);">
				<defs>
					<rect id="SVGID_00000060734223990755416320000013305078248746795660_" x="148.92" y="70.35" width="18.39" height="18.45"/>
				</defs>
				<clipPath id="SVGID_00000174598606609916233140000014723308744296225438_">
					<use xlink:href="#SVGID_00000060734223990755416320000013305078248746795660_"  style="overflow:visible;"/>
				</clipPath>
				
					<path style="clip-path:url(#SVGID_00000174598606609916233140000014723308744296225438_);fill-rule:evenodd;clip-rule:evenodd;" d="
					M161.25,71.18c-0.04,0.18-0.14,0.26-0.33,0.26c-0.19,0-0.38,0.02-0.55,0.07c-0.17,0.04-0.34,0.12-0.51,0.22
					c-0.17,0.11-0.32,0.23-0.46,0.38c-0.14,0.15-0.27,0.32-0.38,0.5l-6.6,10.72c-0.09,0.16-0.23,0.24-0.42,0.24h-0.17
					c-0.22,0-0.33-0.09-0.33-0.28l-1.13-11.22c-0.02-0.15-0.05-0.27-0.07-0.36c-0.02-0.08-0.06-0.15-0.11-0.18
					c-0.08-0.05-0.22-0.08-0.4-0.09c-0.18-0.01-0.39-0.02-0.63-0.02c-0.09,0-0.16-0.03-0.2-0.09c-0.04-0.03-0.05-0.08-0.05-0.13
					c0-0.03,0.01-0.07,0.03-0.1l0.03-0.13c0.02-0.08,0.06-0.14,0.12-0.19c0.06-0.05,0.14-0.08,0.23-0.08
					c0.58,0.04,1.16,0.05,1.76,0.05c0.09,0,0.19-0.01,0.29-0.02c0.7,0,1.4-0.01,2.1-0.03c0.08,0,0.16,0.03,0.23,0.09
					c0.02,0.05,0.04,0.09,0.04,0.13c0,0.04-0.01,0.07-0.03,0.1l-0.03,0.13c-0.02,0.08-0.06,0.15-0.13,0.2
					c-0.07,0.05-0.14,0.07-0.22,0.07c-0.21,0-0.4,0.01-0.58,0.03c-0.17,0.02-0.35,0.06-0.52,0.14c-0.1,0.05-0.15,0.14-0.14,0.26
					v0.06c0.21,1.56,0.38,3.12,0.51,4.7c0.13,1.57,0.26,3.06,0.41,4.47l5.34-8.69c0.08-0.12,0.13-0.25,0.14-0.39v-0.04
					c0-0.09-0.02-0.17-0.06-0.24c-0.13-0.2-0.38-0.3-0.74-0.3c-0.16,0-0.24-0.08-0.24-0.24v-0.06l0.04-0.16
					c0.07-0.18,0.18-0.26,0.35-0.26c0.53,0.02,1.06,0.04,1.6,0.03c0.07,0.01,0.14,0.02,0.21,0.02c0.46,0,0.93-0.02,1.41-0.05
					c0.16,0,0.25,0.08,0.26,0.24v0.07L161.25,71.18z"/>
				
					<path style="clip-path:url(#SVGID_00000174598606609916233140000014723308744296225438_);fill-rule:evenodd;clip-rule:evenodd;" d="
					M163.97,82.14c0-0.21,0-0.42-0.01-0.65c0-0.23-0.01-0.45-0.03-0.67c-0.02-0.22-0.04-0.43-0.08-0.62
					c-0.04-0.19-0.09-0.36-0.14-0.5c-0.11-0.22-0.28-0.41-0.5-0.55s-0.47-0.21-0.74-0.21c-0.27,0-0.51,0.07-0.73,0.22
					c-0.22,0.14-0.38,0.33-0.5,0.55c-0.06,0.14-0.1,0.3-0.14,0.5c-0.04,0.2-0.07,0.4-0.08,0.62c-0.01,0.22-0.02,0.44-0.03,0.67
					c0,0.23-0.01,0.45-0.01,0.65c0,0.23,0,0.47,0.01,0.73c0,0.25,0.01,0.5,0.03,0.74c0.02,0.24,0.04,0.46,0.08,0.68
					c0.04,0.21,0.09,0.39,0.14,0.54c0.11,0.24,0.27,0.44,0.49,0.59c0.22,0.15,0.47,0.23,0.73,0.23c0.28,0,0.53-0.08,0.75-0.23
					c0.22-0.15,0.38-0.35,0.49-0.59c0.06-0.14,0.11-0.32,0.14-0.54c0.04-0.21,0.07-0.44,0.08-0.68c0.01-0.24,0.02-0.48,0.03-0.74
					C163.97,82.61,163.97,82.37,163.97,82.14z M165.1,82.31c0,0.47-0.04,0.94-0.11,1.41c-0.07,0.47-0.26,0.91-0.55,1.32
					c-0.21,0.3-0.49,0.53-0.83,0.69c-0.35,0.16-0.73,0.24-1.13,0.24c-0.39,0-0.76-0.08-1.11-0.24c-0.35-0.16-0.63-0.39-0.84-0.69
					c-0.29-0.41-0.47-0.85-0.55-1.32c-0.07-0.47-0.11-0.94-0.11-1.41c0-0.48,0.04-0.96,0.11-1.43c0.07-0.48,0.26-0.92,0.55-1.34
					c0.21-0.3,0.49-0.54,0.83-0.7c0.35-0.17,0.72-0.25,1.12-0.25c0.4,0,0.78,0.08,1.13,0.25c0.35,0.17,0.63,0.4,0.84,0.7
					c0.29,0.42,0.47,0.86,0.55,1.34C165.06,81.36,165.1,81.83,165.1,82.31z"/>
			</g>
			<g style="clip-path:url(#SVGID_00000040575187277284300970000016264506103485024136_);">
				<defs>
					<rect id="SVGID_00000122689712953490991840000009612845101943191680_" x="339.33" y="70.35" width="18.39" height="18.45"/>
				</defs>
				<clipPath id="SVGID_00000011000778424461649880000002312965156885461681_">
					<use xlink:href="#SVGID_00000122689712953490991840000009612845101943191680_"  style="overflow:visible;"/>
				</clipPath>
				
					<path style="clip-path:url(#SVGID_00000011000778424461649880000002312965156885461681_);fill-rule:evenodd;clip-rule:evenodd;" d="
					M351.66,71.18c-0.04,0.18-0.14,0.26-0.33,0.26c-0.19,0-0.38,0.02-0.55,0.07c-0.17,0.04-0.34,0.12-0.51,0.22
					c-0.17,0.11-0.32,0.23-0.46,0.38c-0.14,0.15-0.27,0.32-0.38,0.5l-6.6,10.72c-0.09,0.16-0.23,0.24-0.42,0.24h-0.17
					c-0.22,0-0.33-0.09-0.33-0.28l-1.13-11.22c-0.02-0.15-0.05-0.27-0.07-0.36c-0.02-0.08-0.06-0.15-0.11-0.18
					c-0.08-0.05-0.22-0.08-0.4-0.09c-0.18-0.01-0.39-0.02-0.63-0.02c-0.09,0-0.16-0.03-0.2-0.09c-0.04-0.03-0.05-0.08-0.05-0.13
					c0-0.03,0.01-0.07,0.03-0.1l0.03-0.13c0.02-0.08,0.06-0.14,0.12-0.19c0.06-0.05,0.14-0.08,0.23-0.08
					c0.58,0.04,1.16,0.05,1.76,0.05c0.09,0,0.19-0.01,0.29-0.02c0.7,0,1.4-0.01,2.1-0.03c0.08,0,0.16,0.03,0.23,0.09
					c0.02,0.05,0.04,0.09,0.04,0.13c0,0.04-0.01,0.07-0.03,0.1l-0.03,0.13c-0.02,0.08-0.06,0.15-0.13,0.2
					c-0.07,0.05-0.14,0.07-0.22,0.07c-0.21,0-0.4,0.01-0.58,0.03c-0.17,0.02-0.35,0.06-0.52,0.14c-0.1,0.05-0.15,0.14-0.14,0.26
					v0.06c0.21,1.56,0.38,3.12,0.51,4.7c0.13,1.57,0.26,3.06,0.41,4.47l5.34-8.69c0.08-0.12,0.13-0.25,0.14-0.39v-0.04
					c0-0.09-0.02-0.17-0.06-0.24c-0.13-0.2-0.38-0.3-0.74-0.3c-0.16,0-0.24-0.08-0.24-0.24v-0.06l0.04-0.16
					c0.07-0.18,0.18-0.26,0.35-0.26c0.53,0.02,1.06,0.04,1.6,0.03c0.07,0.01,0.14,0.02,0.21,0.02c0.46,0,0.93-0.02,1.41-0.05
					c0.16,0,0.25,0.08,0.26,0.24v0.07L351.66,71.18z"/>
				
					<path style="clip-path:url(#SVGID_00000011000778424461649880000002312965156885461681_);fill-rule:evenodd;clip-rule:evenodd;" d="
					M354.38,82.14c0-0.21,0-0.42-0.01-0.65c0-0.23-0.01-0.45-0.03-0.67c-0.02-0.22-0.04-0.43-0.08-0.62
					c-0.04-0.19-0.09-0.36-0.14-0.5c-0.11-0.22-0.28-0.41-0.5-0.55s-0.47-0.21-0.74-0.21c-0.27,0-0.51,0.07-0.73,0.22
					c-0.22,0.14-0.38,0.33-0.5,0.55c-0.06,0.14-0.1,0.3-0.14,0.5c-0.04,0.2-0.07,0.4-0.08,0.62c-0.01,0.22-0.02,0.44-0.03,0.67
					c0,0.23-0.01,0.45-0.01,0.65c0,0.23,0,0.47,0.01,0.73c0,0.25,0.01,0.5,0.03,0.74c0.02,0.24,0.04,0.46,0.08,0.68
					c0.04,0.21,0.09,0.39,0.14,0.54c0.11,0.24,0.27,0.44,0.49,0.59c0.22,0.15,0.47,0.23,0.73,0.23c0.28,0,0.53-0.08,0.75-0.23
					c0.22-0.15,0.38-0.35,0.49-0.59c0.06-0.14,0.11-0.32,0.14-0.54c0.04-0.21,0.07-0.44,0.08-0.68c0.01-0.24,0.02-0.48,0.03-0.74
					C354.38,82.61,354.38,82.37,354.38,82.14z M355.51,82.31c0,0.47-0.04,0.94-0.11,1.41c-0.07,0.47-0.26,0.91-0.55,1.32
					c-0.21,0.3-0.49,0.53-0.83,0.69c-0.35,0.16-0.73,0.24-1.13,0.24c-0.39,0-0.76-0.08-1.11-0.24c-0.35-0.16-0.63-0.39-0.84-0.69
					c-0.29-0.41-0.47-0.85-0.55-1.32c-0.07-0.47-0.11-0.94-0.11-1.41c0-0.48,0.04-0.96,0.11-1.43c0.07-0.48,0.26-0.92,0.55-1.34
					c0.21-0.3,0.49-0.54,0.83-0.7c0.35-0.17,0.72-0.25,1.12-0.25c0.4,0,0.78,0.08,1.13,0.25c0.35,0.17,0.63,0.4,0.84,0.7
					c0.29,0.42,0.47,0.86,0.55,1.34C355.47,81.36,355.51,81.83,355.51,82.31z"/>
			</g>
		</g>
	</g>
</g>
</svg>
