<?xml version="1.0" encoding="UTF-8"?>
<svg id="_图层_1" data-name="图层 1" xmlns="http://www.w3.org/2000/svg" xmlns:xlink="http://www.w3.org/1999/xlink" viewBox="0 0 1071 658.36">
  <defs>
    <style>
      .cls-1, .cls-2, .cls-3, .cls-4 {
        fill: none;
      }

      .cls-2 {
        stroke-width: 3.42px;
      }

      .cls-2, .cls-3, .cls-4 {
        stroke: #000;
        stroke-linecap: round;
        stroke-linejoin: round;
      }

      .cls-3 {
        stroke-width: 1.47px;
      }

      .cls-4 {
        stroke-width: 1.47px;
      }

      .cls-5 {
        clip-path: url(#clippath);
      }

      .cls-6 {
        clip-path: url(#clippath-4);
      }

      .cls-7 {
        clip-path: url(#clippath-3);
      }

      .cls-8 {
        clip-path: url(#clippath-2);
      }

      .cls-9 {
        clip-path: url(#clippath-7);
      }

      .cls-10 {
        clip-path: url(#clippath-8);
      }

      .cls-11 {
        clip-path: url(#clippath-6);
      }

      .cls-12 {
        clip-path: url(#clippath-5);
      }

      .cls-13 {
        clip-path: url(#clippath-9);
      }

      .cls-14 {
        clip-path: url(#clippath-12);
      }

      .cls-15 {
        clip-path: url(#clippath-10);
      }

      .cls-16 {
        clip-path: url(#clippath-11);
      }

      .cls-17 {
        opacity: .24;
      }

      .cls-18 {
        fill-rule: evenodd;
      }
    </style>
    <clipPath id="clippath">
      <rect class="cls-1" width="1071" height="633.96"/>
    </clipPath>
    <clipPath id="clippath-2">
      <rect class="cls-1" x="0" y="3.12" width="1069.9" height="630.84"/>
    </clipPath>
    <clipPath id="clippath-3">
      <rect class="cls-1" y="3.13" width="1069.92" height="633.34"/>
    </clipPath>
    <clipPath id="clippath-4">
      <rect class="cls-1" x="244.45" y="479.74" width="102.65" height="89.02"/>
    </clipPath>
    <clipPath id="clippath-5">
      <rect class="cls-1" x="706.83" y="517.33" width="20.48" height="23.85"/>
    </clipPath>
    <clipPath id="clippath-6">
      <rect class="cls-1" x="115.05" y="292.82" width="167.76" height="95.71"/>
    </clipPath>
    <clipPath id="clippath-7">
      <rect class="cls-1" x="781.56" y="292.82" width="167.76" height="95.71"/>
    </clipPath>
    <clipPath id="clippath-8">
      <rect class="cls-1" x="348.81" y="232.18" width="167.76" height="95.71"/>
    </clipPath>
    <clipPath id="clippath-9">
      <rect class="cls-1" x="955.51" y="542.13" width="23.97" height="23.85"/>
    </clipPath>
    <clipPath id="clippath-10">
      <rect class="cls-1" x="404.91" y="71.37" width="82.14" height="41.11"/>
    </clipPath>
    <clipPath id="clippath-11">
      <rect class="cls-1" x="302.98" y="144.62" width="37.61" height="24.28"/>
    </clipPath>
    <clipPath id="clippath-12">
      <rect class="cls-1" x="691.59" y="144.62" width="37.61" height="24.28"/>
    </clipPath>
  </defs>
  <g class="cls-5">
    <g class="cls-8">
      <g class="cls-7">
        <rect class="cls-17" x="58.89" y="181.92" width="261.01" height="317.63"/>
        <rect class="cls-17" x="715.11" y="181.93" width="243.21" height="316.98"/>
        <path d="M1009.01,499.55l-35.96-10.27v20.55l35.96-10.27Zm-980.98-1.28H973.08v2.57H28.03c-.71,0-1.28-.58-1.28-1.29s.57-1.28,1.28-1.28Z"/>
        <path d="M518.52,55.21l-10.28,35.96h20.55l-10.28-35.96Zm-1.28,601.87V91.13h2.57V657.08c0,.71-.58,1.28-1.29,1.28s-1.28-.58-1.28-1.28Z"/>
        <line class="cls-2" x1="319.91" y1="181.93" x2="319.91" y2="499.55"/>
        <line class="cls-2" x1="715.11" y1="181.93" x2="715.11" y2="499.55"/>
        <g class="cls-6">
          <line class="cls-4" x1="285.53" y1="522.1" x2="301.47" y2="522.1"/>
          <path class="cls-18" d="M323.39,521.08c-.05-.21-.09-.44-.13-.67-.04-.23-.09-.46-.17-.69-.2-.56-.48-1.03-.84-1.41-.36-.38-.82-.56-1.38-.57-.52,0-1.03,.19-1.53,.56-.5,.37-.97,.85-1.39,1.43-.59,.83-1.03,1.68-1.33,2.57-.3,.89-.57,1.82-.81,2.79-.25,.96-.45,1.88-.61,2.78-.1,.45-.15,.88-.15,1.29,0,.43,.05,.85,.15,1.25,.11,.56,.31,1.03,.6,1.39,.29,.37,.69,.55,1.21,.55,.57,0,1.14-.2,1.71-.59,.57-.39,1.11-.88,1.6-1.45,.2-.24,.39-.47,.56-.69,.18-.22,.34-.46,.47-.71l2.03-7.83Zm5.28,6.6c-.15,.59-.31,1.21-.5,1.88-.18,.67-.43,1.29-.74,1.86-.31,.57-.7,1.07-1.16,1.49-.47,.42-1.05,.63-1.75,.63-.93,0-1.68-.26-2.24-.78s-.88-1.05-.97-1.59c-.42,.48-1.04,.99-1.88,1.54-.83,.55-1.71,.82-2.63,.82-.97,0-1.79-.24-2.45-.73-.66-.49-1.17-1.11-1.54-1.85-.44-.88-.68-1.83-.7-2.85v-.27c0-.94,.13-1.89,.39-2.83,.3-1.04,.71-2.07,1.24-3.08,.53-1.01,1.23-1.96,2.11-2.83,.71-.72,1.53-1.32,2.45-1.81,.92-.49,1.85-.73,2.8-.74,.82,0,1.5,.22,2.01,.66,.52,.44,.84,.8,.98,1.08l-.07,.31c.09-.44,.29-.78,.62-1,.33-.23,.66-.34,.99-.34,.38,0,.7,.11,.96,.34,.16,.18,.25,.42,.26,.72,0,.11-.01,.23-.04,.36l-2.66,10.36c-.12,.49-.21,.95-.26,1.38-.02,.22-.04,.41-.04,.59,0,.16,.01,.32,.04,.5,.04,.29,.12,.5,.26,.65,.14,.14,.33,.21,.57,.21,.26,0,.5-.11,.73-.32,.23-.22,.44-.53,.63-.96,.19-.42,.37-.93,.55-1.52,.17-.59,.35-1.23,.53-1.93,.07-.31,.28-.46,.63-.47h.42c.32,0,.48,.13,.48,.39v.13Z"/>
        </g>
        <g class="cls-12">
          <path class="cls-18" d="M718.1,524.5c-.05-.21-.09-.44-.13-.67-.04-.23-.09-.46-.17-.69-.2-.56-.48-1.03-.84-1.41-.36-.38-.82-.56-1.38-.57-.52,0-1.03,.19-1.53,.56-.5,.37-.97,.85-1.38,1.43-.59,.83-1.03,1.68-1.33,2.57-.3,.89-.57,1.82-.81,2.79-.25,.96-.45,1.88-.61,2.78-.1,.45-.15,.88-.15,1.29,0,.43,.05,.85,.15,1.25,.11,.56,.31,1.03,.6,1.39,.29,.37,.69,.55,1.21,.55,.57,0,1.14-.2,1.71-.59,.57-.39,1.1-.88,1.6-1.45,.2-.24,.39-.47,.56-.69,.18-.22,.34-.46,.47-.71l2.03-7.83Zm5.28,6.6c-.15,.59-.31,1.21-.5,1.88-.19,.67-.43,1.29-.74,1.86-.31,.57-.69,1.07-1.16,1.49-.47,.42-1.05,.63-1.75,.63-.94,0-1.68-.26-2.24-.78-.56-.52-.88-1.05-.97-1.59-.42,.48-1.04,.99-1.87,1.54-.83,.55-1.71,.82-2.63,.82-.97,0-1.79-.24-2.45-.73-.66-.49-1.17-1.11-1.54-1.85-.44-.88-.68-1.83-.7-2.85v-.27c0-.94,.13-1.89,.39-2.83,.3-1.04,.71-2.07,1.24-3.08,.53-1.01,1.23-1.96,2.11-2.83,.71-.72,1.53-1.32,2.45-1.81,.92-.49,1.85-.74,2.8-.74,.82,0,1.5,.22,2.01,.66,.52,.44,.84,.8,.98,1.08l-.07,.31c.09-.44,.29-.78,.62-1,.33-.23,.66-.34,.99-.34,.38,0,.7,.11,.96,.34,.16,.18,.25,.42,.26,.72,0,.11-.01,.23-.04,.36l-2.66,10.36c-.12,.49-.21,.95-.26,1.38-.02,.22-.04,.41-.04,.59,0,.16,.01,.32,.04,.5,.04,.29,.12,.5,.26,.65,.14,.14,.33,.22,.57,.21,.26,0,.5-.11,.73-.32,.23-.22,.44-.53,.63-.96,.19-.42,.37-.93,.54-1.52,.17-.59,.35-1.23,.53-1.93,.07-.31,.28-.46,.63-.47h.42c.32,0,.48,.13,.48,.39v.13Z"/>
        </g>
        <g class="cls-11">
          <path class="cls-18" d="M137.58,333.49c.37,.32,.61,.77,.72,1.34,.05,.36,.08,.71,.09,1.06,0,.25-.02,.52-.06,.79-.07,.67-.19,1.35-.35,2.04-.16,.69-.32,1.32-.48,1.89-.32,1.18-.84,2.35-1.56,3.49-.72,1.14-1.58,2.16-2.58,3.05-1,.89-2.09,1.61-3.27,2.17-1.18,.56-2.36,.83-3.55,.83h-.42l-1.74,6.63c-.07,.34-.29,.51-.65,.52h-.18c-.32,0-.48-.14-.48-.43v-.14l1.72-6.65c-.82-.06-1.69-.22-2.59-.47-.9-.25-1.7-.67-2.41-1.25-.71-.59-1.17-1.34-1.38-2.26-.1-.43-.15-.85-.17-1.27,0-.52,.07-1.06,.2-1.61,.2-.82,.49-1.73,.88-2.72,.39-.99,.75-1.95,1.1-2.89,.32-.85,.48-1.57,.48-2.17v-.27c-.04-.54-.29-.81-.76-.81-.44,0-.85,.13-1.24,.38-.38,.25-.74,.59-1.06,1.02-.33,.43-.61,.93-.86,1.51-.25,.57-.44,1.18-.59,1.81-.14,.32-.35,.49-.65,.5h-.22c-.16,0-.28-.05-.37-.16-.09-.08-.13-.18-.13-.29,0-.05,.02-.11,.06-.18,.16-.64,.39-1.31,.69-2,.3-.69,.67-1.31,1.12-1.87,.44-.56,.95-1.02,1.51-1.38,.57-.36,1.21-.54,1.92-.54,.64,0,1.2,.13,1.68,.4,.48,.26,.85,.61,1.11,1.03,.26,.42,.41,.91,.46,1.46v.27c0,.47-.11,.97-.33,1.51-.36,.92-.71,1.87-1.07,2.84-.36,.97-.63,1.85-.83,2.62-.15,.58-.22,1.13-.22,1.65,0,.24,.01,.48,.04,.72,.1,.72,.38,1.33,.85,1.83,.39,.41,.87,.72,1.43,.94,.56,.22,1.11,.37,1.65,.46l6.31-24.5c.07-.31,.29-.46,.65-.47h.18c.32,0,.48,.13,.48,.39v.13l-6.33,24.54h.33c1.01,0,2.02-.23,3.03-.71,1.01-.47,1.94-1.11,2.8-1.91,.86-.8,1.61-1.71,2.26-2.73,.65-1.01,1.11-2.05,1.37-3.1,.1-.43,.15-.84,.15-1.24,0-.43-.05-.84-.15-1.24-.23-.75-.64-1.37-1.24-1.86-.36-.27-.54-.59-.54-.95,0-.09,.01-.18,.04-.25,.09-.43,.29-.81,.62-1.14,.33-.33,.72-.56,1.17-.69,.12-.02,.25-.03,.37-.04,.36,0,.68,.13,.96,.38Z"/>
          <path class="cls-18" d="M156.67,358.34c0,.1-.04,.21-.11,.36-.12,.12-.26,.18-.42,.18-.22,0-.38-.04-.46-.11-1.44-1.09-2.68-2.33-3.71-3.73-1.03-1.4-1.88-2.89-2.54-4.48-.66-1.59-1.15-3.25-1.46-4.99-.31-1.74-.47-3.48-.47-5.23s.16-3.48,.47-5.22c.31-1.74,.8-3.4,1.46-4.99,.66-1.59,1.5-3.08,2.54-4.48,1.03-1.4,2.27-2.64,3.71-3.73,.09-.07,.24-.11,.46-.11,.15,0,.29,.06,.42,.18,.07,.14,.11,.26,.11,.36,0,.14-.06,.28-.17,.39-1.19,1.09-2.21,2.31-3.04,3.67-.83,1.36-1.5,2.79-2.01,4.31-.51,1.52-.87,3.09-1.09,4.73-.22,1.64-.32,3.27-.32,4.89s.11,3.29,.32,4.91c.22,1.63,.58,3.2,1.09,4.71,.51,1.52,1.18,2.96,2,4.31,.82,1.36,1.84,2.58,3.05,3.67,.11,.11,.17,.24,.17,.39Z"/>
          <path class="cls-18" d="M179.82,336.14c-.13,.54-.41,.94-.82,1.21-.41,.27-.83,.4-1.25,.4-.43,0-.79-.14-1.07-.41-.21-.2-.32-.46-.33-.79,0-.13,.02-.3,.07-.5,.14-.45,.35-.8,.63-1.03,.28-.23,.48-.37,.59-.4-.23-.18-.71-.27-1.44-.27-.64,0-1.21,.33-1.72,1-.5,.66-.88,1.46-1.13,2.39l-1.7,6.56c-.17,.66-.3,1.29-.39,1.88-.05,.2-.07,.38-.07,.54,0,.37,.06,.72,.19,1.06,.12,.36,.31,.65,.55,.86,.25,.21,.56,.32,.94,.32,.49,0,.97-.13,1.42-.38,.46-.26,.87-.6,1.26-1.04,.38-.44,.72-.94,1.01-1.52,.3-.58,.53-1.17,.7-1.78,.07-.31,.28-.46,.63-.47h.42c.32,0,.48,.12,.48,.36,0,.07-.02,.14-.05,.2-.17,.72-.45,1.43-.84,2.13-.39,.7-.84,1.32-1.36,1.86-.52,.54-1.1,.98-1.76,1.33-.66,.35-1.36,.52-2.11,.52s-1.42-.16-1.97-.49c-.55-.33-1-.75-1.35-1.28-.11-.13-.2-.26-.26-.4-.06-.14-.08-.16-.06-.06-.3,.49-.76,.99-1.4,1.49-.64,.5-1.38,.75-2.22,.75-.47,0-.93-.06-1.38-.18-.45-.12-.85-.3-1.19-.55-.34-.25-.59-.56-.77-.92-.08-.21-.13-.45-.13-.7,0-.18,.03-.39,.07-.63,.14-.54,.41-.94,.83-1.21,.42-.27,.84-.4,1.25-.4,.43,0,.8,.14,1.11,.41,.21,.2,.31,.47,.31,.79,0,.17-.02,.34-.07,.5-.11,.42-.31,.76-.6,1.01-.29,.26-.5,.4-.62,.42,.23,.19,.71,.28,1.42,.27,.64,0,1.22-.33,1.74-1,.52-.67,.89-1.47,1.13-2.4l1.72-6.6c.17-.62,.31-1.23,.41-1.83,.02-.19,.04-.37,.04-.54,0-.37-.05-.72-.17-1.04-.12-.36-.31-.65-.57-.87-.26-.22-.58-.33-.96-.33-.49,0-.97,.13-1.43,.39-.46,.26-.88,.6-1.26,1.03-.38,.43-.72,.93-1.01,1.5-.3,.57-.51,1.17-.65,1.8-.14,.32-.36,.49-.68,.5h-.41c-.3,0-.44-.15-.44-.45v-.13c.18-.74,.47-1.46,.85-2.16,.38-.7,.84-1.32,1.37-1.86,.53-.54,1.12-.98,1.77-1.32s1.36-.51,2.12-.51c.74,0,1.39,.16,1.96,.48,.57,.32,1.03,.75,1.38,1.29,.07,.13,.14,.27,.2,.42,.06,.15,.08,.19,.05,.12,.31-.52,.78-1.04,1.42-1.55,.64-.51,1.37-.76,2.2-.76,.47,0,.93,.06,1.39,.17,.46,.11,.86,.3,1.2,.55,.34,.25,.59,.56,.75,.93,.09,.22,.13,.46,.13,.74,0,.18-.02,.38-.07,.61Z"/>
          <path class="cls-18" d="M195.91,340.34c0,1.75-.16,3.49-.47,5.23-.31,1.74-.8,3.4-1.47,4.99-.66,1.59-1.51,3.08-2.55,4.48-1.03,1.4-2.28,2.65-3.73,3.75-.13,.06-.25,.09-.33,.09h-.11c-.15,0-.28-.06-.41-.18-.07-.14-.11-.26-.11-.36,0-.14,.06-.27,.17-.39,1.19-1.09,2.2-2.31,3.03-3.67,.82-1.36,1.49-2.79,2-4.31,.51-1.52,.88-3.09,1.09-4.71,.22-1.62,.32-3.26,.32-4.91s-.11-3.25-.32-4.89c-.21-1.64-.58-3.21-1.09-4.73-.51-1.52-1.18-2.95-2-4.31-.82-1.36-1.83-2.58-3.03-3.67-.11-.11-.17-.24-.17-.39,0-.17,.04-.29,.13-.38,.11-.11,.24-.16,.39-.16h.11c.07,0,.19,.03,.33,.09,1.47,1.1,2.71,2.35,3.74,3.75,1.03,1.4,1.87,2.89,2.54,4.48,.66,1.59,1.15,3.25,1.47,4.99,.31,1.74,.47,3.48,.47,5.22Z"/>
          <line class="cls-3" x1="210.36" y1="334.85" x2="236.06" y2="334.85"/>
          <line class="cls-3" x1="210.36" y1="342.56" x2="236.06" y2="342.56"/>
          <path class="cls-18" d="M259.99,336.74c0-.74,0-1.52,0-2.34-.02-.82-.05-1.62-.09-2.41-.05-.78-.14-1.53-.26-2.22-.13-.7-.28-1.29-.47-1.78-.36-.79-.89-1.45-1.59-1.96-.7-.51-1.49-.76-2.37-.76-.85,0-1.63,.26-2.32,.77-.69,.52-1.22,1.17-1.59,1.95-.17,.49-.33,1.09-.46,1.78-.13,.7-.22,1.44-.26,2.22-.05,.79-.07,1.59-.09,2.41,0,.82-.02,1.6-.02,2.34,0,.82,0,1.68,.02,2.59,.02,.91,.05,1.79,.09,2.64,.05,.85,.14,1.65,.26,2.42,.13,.76,.28,1.4,.46,1.91,.34,.86,.87,1.56,1.57,2.11,.7,.55,1.49,.83,2.34,.82,.9,0,1.7-.27,2.4-.82,.7-.55,1.22-1.25,1.56-2.11,.18-.51,.34-1.15,.47-1.91,.13-.76,.21-1.57,.26-2.42,.05-.85,.07-1.73,.09-2.64,0-.91,0-1.77,0-2.59Zm3.59,.61c0,1.69-.12,3.37-.36,5.03-.24,1.67-.81,3.24-1.74,4.7-.67,1.07-1.55,1.89-2.66,2.46-1.11,.57-2.32,.86-3.63,.86s-2.44-.29-3.55-.86c-1.11-.57-2.01-1.39-2.67-2.46-.93-1.46-1.52-3.03-1.74-4.7-.24-1.67-.36-3.35-.36-5.03s.12-3.42,.36-5.12c.23-1.7,.81-3.3,1.74-4.79,.66-1.08,1.55-1.91,2.66-2.51,1.11-.6,2.3-.9,3.56-.9,1.3,0,2.5,.3,3.62,.9,1.11,.6,2,1.44,2.67,2.51,.93,1.49,1.51,3.08,1.74,4.79,.24,1.7,.36,3.41,.36,5.12Z"/>
        </g>
        <g class="cls-9">
          <path class="cls-18" d="M804.09,333.49c.37,.32,.61,.77,.72,1.34,.05,.36,.08,.71,.09,1.06,0,.25-.02,.52-.06,.79-.07,.67-.19,1.35-.35,2.04-.16,.69-.32,1.32-.48,1.89-.32,1.18-.84,2.35-1.56,3.49-.72,1.14-1.58,2.16-2.58,3.05-1,.89-2.09,1.61-3.27,2.17-1.18,.56-2.36,.83-3.55,.83h-.42l-1.74,6.63c-.07,.34-.29,.51-.65,.52h-.18c-.32,0-.48-.14-.48-.43v-.14l1.72-6.65c-.82-.06-1.69-.22-2.59-.47-.9-.25-1.7-.67-2.41-1.25-.71-.59-1.17-1.34-1.38-2.26-.1-.43-.15-.85-.17-1.27,0-.52,.07-1.06,.2-1.61,.2-.82,.49-1.73,.88-2.72,.39-.99,.75-1.95,1.1-2.89,.32-.85,.48-1.57,.48-2.17v-.27c-.04-.54-.29-.81-.76-.81-.44,0-.85,.13-1.24,.38-.38,.25-.74,.59-1.06,1.02-.33,.43-.61,.93-.86,1.51-.25,.57-.44,1.18-.59,1.81-.14,.32-.35,.49-.65,.5h-.22c-.16,0-.28-.05-.37-.16-.09-.08-.13-.18-.13-.29,0-.05,.02-.11,.06-.18,.16-.64,.39-1.31,.69-2,.3-.69,.67-1.31,1.12-1.87,.44-.56,.95-1.02,1.51-1.38,.57-.36,1.21-.54,1.92-.54,.64,0,1.2,.13,1.68,.4,.48,.26,.85,.61,1.11,1.03,.26,.42,.41,.91,.46,1.46v.27c0,.47-.11,.97-.33,1.51-.36,.92-.71,1.87-1.07,2.84-.36,.97-.63,1.85-.83,2.62-.15,.58-.22,1.13-.22,1.65,0,.24,.01,.48,.04,.72,.1,.72,.38,1.33,.85,1.83,.39,.41,.87,.72,1.43,.94,.56,.22,1.11,.37,1.65,.46l6.31-24.5c.07-.31,.29-.46,.65-.47h.18c.32,0,.48,.13,.48,.39v.13l-6.33,24.54h.33c1.01,0,2.02-.23,3.03-.71,1.01-.47,1.94-1.11,2.8-1.91,.86-.8,1.61-1.71,2.26-2.73,.65-1.01,1.11-2.05,1.37-3.1,.1-.43,.15-.84,.15-1.24,0-.43-.05-.84-.15-1.24-.23-.75-.64-1.37-1.24-1.86-.36-.27-.54-.59-.54-.95,0-.09,.01-.18,.04-.25,.09-.43,.29-.81,.62-1.14,.33-.33,.72-.56,1.17-.69,.12-.02,.25-.03,.37-.04,.36,0,.68,.13,.96,.38Z"/>
          <path class="cls-18" d="M823.18,358.34c0,.1-.04,.21-.11,.36-.12,.12-.26,.18-.42,.18-.22,0-.38-.04-.46-.11-1.44-1.09-2.68-2.33-3.71-3.73-1.03-1.4-1.88-2.89-2.54-4.48-.66-1.59-1.15-3.25-1.46-4.99-.31-1.74-.47-3.48-.47-5.23s.16-3.48,.47-5.22c.31-1.74,.8-3.4,1.46-4.99,.66-1.59,1.5-3.08,2.54-4.48,1.03-1.4,2.27-2.64,3.71-3.73,.09-.07,.24-.11,.46-.11,.15,0,.29,.06,.42,.18,.07,.14,.11,.26,.11,.36,0,.14-.06,.28-.17,.39-1.19,1.09-2.21,2.31-3.04,3.67-.83,1.36-1.5,2.79-2.01,4.31-.51,1.52-.87,3.09-1.09,4.73-.22,1.64-.32,3.27-.32,4.89s.11,3.29,.32,4.91c.22,1.63,.58,3.2,1.09,4.71,.51,1.52,1.18,2.96,2,4.31s1.84,2.58,3.05,3.67c.11,.11,.17,.24,.17,.39Z"/>
          <path class="cls-18" d="M846.32,336.14c-.13,.54-.41,.94-.82,1.21-.41,.27-.83,.4-1.25,.4-.43,0-.79-.14-1.07-.41-.21-.2-.32-.46-.33-.79,0-.13,.02-.3,.07-.5,.14-.45,.35-.8,.63-1.03,.28-.23,.48-.37,.59-.4-.23-.18-.71-.27-1.44-.27-.64,0-1.21,.33-1.72,1-.5,.66-.88,1.46-1.13,2.39l-1.7,6.56c-.17,.66-.3,1.29-.39,1.88-.05,.2-.07,.38-.07,.54,0,.37,.06,.72,.19,1.06,.12,.36,.31,.65,.55,.86,.25,.21,.56,.32,.94,.32,.49,0,.97-.13,1.42-.38,.46-.26,.88-.6,1.26-1.04,.38-.44,.72-.94,1.01-1.52,.3-.58,.53-1.17,.7-1.78,.07-.31,.28-.46,.63-.47h.42c.32,0,.48,.12,.48,.36,0,.07-.02,.14-.05,.2-.17,.72-.45,1.43-.84,2.13-.39,.7-.84,1.32-1.36,1.86-.52,.54-1.1,.98-1.76,1.33-.66,.35-1.36,.52-2.11,.52s-1.42-.16-1.97-.49c-.55-.33-1-.75-1.35-1.28-.11-.13-.2-.26-.26-.4-.06-.14-.08-.16-.06-.06-.3,.49-.76,.99-1.4,1.49-.64,.5-1.38,.75-2.22,.75-.47,0-.93-.06-1.38-.18-.45-.12-.85-.3-1.19-.55-.34-.25-.59-.56-.77-.92-.08-.21-.13-.45-.13-.7,0-.18,.03-.39,.07-.63,.14-.54,.41-.94,.83-1.21,.42-.27,.84-.4,1.25-.4,.43,0,.8,.14,1.11,.41,.21,.2,.31,.47,.31,.79,0,.17-.02,.34-.07,.5-.11,.42-.31,.76-.6,1.01-.29,.26-.5,.4-.62,.42,.23,.19,.71,.28,1.42,.27,.64,0,1.22-.33,1.74-1,.52-.67,.89-1.47,1.13-2.4l1.72-6.6c.17-.62,.31-1.23,.41-1.83,.02-.19,.04-.37,.04-.54,0-.37-.05-.72-.17-1.04-.12-.36-.31-.65-.57-.87-.26-.22-.58-.33-.96-.33-.49,0-.97,.13-1.43,.39-.46,.26-.88,.6-1.26,1.03-.38,.43-.72,.93-1.01,1.5-.3,.57-.51,1.17-.65,1.8-.14,.32-.36,.49-.68,.5h-.41c-.3,0-.44-.15-.44-.45v-.13c.18-.74,.47-1.46,.85-2.16,.38-.7,.84-1.32,1.37-1.86,.53-.54,1.12-.98,1.77-1.32s1.36-.51,2.12-.51c.74,0,1.39,.16,1.96,.48,.57,.32,1.03,.75,1.38,1.29,.07,.13,.14,.27,.2,.42,.06,.15,.08,.19,.05,.12,.31-.52,.78-1.04,1.42-1.55,.64-.51,1.37-.76,2.2-.76,.47,0,.93,.06,1.39,.17,.46,.11,.86,.3,1.2,.55,.34,.25,.59,.56,.75,.93,.09,.22,.13,.46,.13,.74,0,.18-.02,.38-.07,.61Z"/>
          <path class="cls-18" d="M862.42,340.34c0,1.75-.16,3.49-.47,5.23-.31,1.74-.8,3.4-1.47,4.99-.66,1.59-1.51,3.08-2.55,4.48-1.03,1.4-2.28,2.65-3.73,3.75-.13,.06-.25,.09-.33,.09h-.11c-.15,0-.28-.06-.41-.18-.07-.14-.11-.26-.11-.36,0-.14,.06-.27,.17-.39,1.19-1.09,2.2-2.31,3.03-3.67,.82-1.36,1.49-2.79,2-4.31,.51-1.52,.88-3.09,1.09-4.71,.22-1.62,.32-3.26,.32-4.91s-.11-3.25-.32-4.89c-.21-1.64-.58-3.21-1.09-4.73-.51-1.52-1.18-2.95-2-4.31-.82-1.36-1.83-2.58-3.03-3.67-.11-.11-.17-.24-.17-.39,0-.17,.04-.29,.13-.38,.11-.11,.24-.16,.39-.16h.11c.07,0,.19,.03,.33,.09,1.47,1.1,2.71,2.35,3.74,3.75,1.03,1.4,1.87,2.89,2.54,4.48,.66,1.59,1.15,3.25,1.47,4.99,.31,1.74,.47,3.48,.47,5.22Z"/>
          <line class="cls-3" x1="876.87" y1="334.85" x2="902.57" y2="334.85"/>
          <line class="cls-3" x1="876.87" y1="342.56" x2="902.57" y2="342.56"/>
          <path class="cls-18" d="M926.5,336.74c0-.74,0-1.52,0-2.34-.02-.82-.05-1.62-.09-2.41-.05-.78-.14-1.53-.26-2.22-.13-.7-.28-1.29-.47-1.78-.36-.79-.89-1.45-1.59-1.96-.7-.51-1.49-.76-2.37-.76-.85,0-1.63,.26-2.32,.77-.69,.52-1.22,1.17-1.59,1.95-.17,.49-.33,1.09-.46,1.78-.13,.7-.22,1.44-.26,2.22-.05,.79-.07,1.59-.09,2.41,0,.82-.02,1.6-.02,2.34,0,.82,0,1.68,.02,2.59,.02,.91,.05,1.79,.09,2.64,.05,.85,.14,1.65,.26,2.42,.13,.76,.28,1.4,.46,1.91,.34,.86,.87,1.56,1.57,2.11,.7,.55,1.49,.83,2.34,.82,.9,0,1.7-.27,2.4-.82,.7-.55,1.22-1.25,1.56-2.11,.18-.51,.34-1.15,.47-1.91,.13-.76,.21-1.57,.26-2.42,.05-.85,.07-1.73,.09-2.64,0-.91,0-1.77,0-2.59Zm3.59,.61c0,1.69-.12,3.37-.36,5.03-.24,1.67-.81,3.24-1.74,4.7-.67,1.07-1.55,1.89-2.66,2.46-1.11,.57-2.32,.86-3.63,.86s-2.44-.29-3.55-.86c-1.11-.57-2.01-1.39-2.67-2.46-.93-1.46-1.52-3.03-1.74-4.7-.24-1.67-.36-3.35-.36-5.03s.12-3.42,.36-5.12c.23-1.7,.81-3.3,1.74-4.79,.66-1.08,1.55-1.91,2.66-2.51,1.11-.6,2.3-.9,3.56-.9,1.3,0,2.5,.3,3.62,.9,1.11,.6,2,1.44,2.67,2.51,.93,1.49,1.51,3.08,1.74,4.79,.24,1.7,.36,3.41,.36,5.12Z"/>
        </g>
        <g class="cls-10">
          <path class="cls-18" d="M371.34,272.85c.37,.32,.61,.77,.72,1.34,.05,.36,.08,.71,.09,1.06,0,.25-.02,.52-.06,.79-.07,.67-.19,1.35-.35,2.04-.16,.69-.32,1.32-.48,1.89-.32,1.18-.84,2.35-1.56,3.49-.72,1.14-1.58,2.16-2.58,3.05-1,.89-2.09,1.61-3.27,2.17-1.18,.56-2.36,.83-3.55,.83h-.42l-1.74,6.63c-.07,.34-.29,.51-.65,.52h-.18c-.32,0-.48-.14-.48-.43v-.14l1.72-6.65c-.82-.06-1.69-.22-2.59-.47-.9-.25-1.7-.67-2.41-1.25-.71-.59-1.17-1.34-1.38-2.26-.1-.43-.15-.85-.17-1.27,0-.52,.07-1.06,.2-1.61,.2-.82,.49-1.73,.88-2.72,.39-.99,.75-1.95,1.1-2.89,.32-.85,.48-1.57,.48-2.17v-.27c-.04-.54-.29-.81-.76-.81-.44,0-.85,.13-1.24,.38-.38,.25-.74,.59-1.06,1.02-.33,.43-.61,.93-.86,1.51-.25,.57-.44,1.18-.59,1.81-.14,.32-.35,.49-.65,.5h-.22c-.16,0-.28-.05-.37-.16-.09-.08-.13-.18-.13-.29,0-.05,.02-.11,.06-.18,.16-.64,.39-1.31,.69-2,.3-.69,.67-1.31,1.12-1.87,.44-.56,.95-1.02,1.51-1.38,.57-.36,1.21-.54,1.92-.54,.64,0,1.2,.13,1.68,.4,.48,.26,.85,.61,1.11,1.03,.26,.42,.41,.91,.46,1.46v.27c0,.47-.11,.97-.33,1.51-.36,.92-.71,1.87-1.07,2.84-.36,.97-.63,1.85-.83,2.62-.15,.58-.22,1.13-.22,1.65,0,.24,.01,.48,.04,.72,.1,.72,.38,1.33,.85,1.83,.39,.41,.87,.72,1.43,.94,.56,.22,1.11,.37,1.65,.46l6.31-24.5c.07-.31,.29-.46,.65-.47h.18c.32,0,.48,.13,.48,.39v.13l-6.33,24.54h.33c1.01,0,2.02-.23,3.03-.71,1.01-.47,1.94-1.11,2.8-1.91,.86-.8,1.61-1.71,2.26-2.73,.65-1.01,1.11-2.05,1.37-3.1,.1-.43,.15-.84,.15-1.24,0-.43-.05-.84-.15-1.24-.23-.75-.64-1.37-1.24-1.86-.36-.27-.54-.59-.54-.95,0-.09,.01-.18,.04-.25,.09-.43,.29-.81,.62-1.14,.33-.33,.72-.56,1.17-.69,.12-.02,.25-.03,.37-.04,.36,0,.68,.13,.96,.38Z"/>
          <path class="cls-18" d="M390.43,297.7c0,.1-.04,.21-.11,.36-.12,.12-.26,.18-.42,.18-.22,0-.38-.04-.46-.11-1.44-1.09-2.68-2.33-3.71-3.73-1.03-1.4-1.88-2.89-2.54-4.48-.66-1.59-1.15-3.25-1.46-4.99-.31-1.74-.47-3.48-.47-5.23s.16-3.48,.47-5.22c.31-1.74,.8-3.4,1.46-4.99,.66-1.59,1.51-3.08,2.54-4.48,1.03-1.4,2.27-2.64,3.71-3.73,.09-.07,.24-.11,.46-.11,.15,0,.29,.06,.42,.18,.07,.14,.11,.26,.11,.36,0,.14-.05,.28-.17,.39-1.19,1.09-2.2,2.31-3.04,3.67-.83,1.36-1.5,2.79-2.01,4.31-.51,1.52-.87,3.09-1.09,4.73-.22,1.64-.32,3.27-.32,4.89s.11,3.29,.32,4.91c.21,1.63,.58,3.2,1.09,4.71,.51,1.52,1.18,2.96,2,4.31,.82,1.36,1.84,2.58,3.05,3.67,.11,.11,.17,.24,.17,.39Z"/>
          <path class="cls-18" d="M413.58,275.51c-.13,.54-.41,.94-.82,1.21-.41,.27-.83,.4-1.25,.4-.43,0-.79-.14-1.07-.41-.21-.2-.32-.46-.33-.79,0-.13,.02-.3,.07-.5,.14-.45,.35-.8,.63-1.03,.28-.23,.48-.37,.59-.4-.23-.18-.71-.27-1.44-.27-.64,0-1.21,.33-1.72,1-.5,.66-.88,1.46-1.13,2.39l-1.7,6.56c-.17,.66-.3,1.29-.39,1.88-.05,.2-.07,.38-.07,.54,0,.37,.06,.72,.18,1.06,.12,.36,.31,.65,.55,.86,.25,.21,.56,.32,.94,.32,.49,0,.97-.13,1.42-.38,.45-.26,.87-.6,1.25-1.04,.38-.44,.72-.94,1.02-1.52,.3-.58,.53-1.17,.7-1.78,.07-.31,.28-.46,.63-.47h.42c.32,0,.48,.12,.48,.36,0,.07-.02,.14-.06,.2-.17,.72-.45,1.43-.84,2.13-.39,.7-.84,1.32-1.36,1.86-.52,.54-1.1,.98-1.76,1.33-.66,.35-1.36,.52-2.11,.52s-1.42-.16-1.98-.49c-.55-.33-1-.75-1.35-1.28-.11-.13-.2-.26-.26-.4-.06-.14-.08-.16-.06-.06-.3,.49-.76,.99-1.4,1.49-.64,.5-1.38,.75-2.22,.75-.47,0-.93-.06-1.38-.18-.45-.12-.85-.3-1.19-.55-.34-.25-.59-.56-.77-.92-.08-.21-.13-.45-.13-.7,0-.18,.03-.39,.07-.63,.14-.54,.41-.94,.83-1.21,.42-.27,.84-.4,1.26-.4,.43,0,.8,.14,1.11,.41,.21,.2,.31,.47,.31,.79,0,.17-.02,.34-.07,.5-.11,.42-.31,.76-.6,1.01-.29,.26-.5,.4-.62,.42,.23,.19,.71,.28,1.42,.27,.64,0,1.22-.33,1.73-1,.52-.67,.89-1.47,1.13-2.4l1.72-6.6c.17-.62,.31-1.23,.41-1.83,.02-.19,.04-.37,.04-.54,0-.37-.05-.72-.17-1.04-.12-.36-.31-.65-.57-.87-.26-.22-.58-.33-.96-.33-.49,0-.97,.13-1.43,.39-.46,.26-.88,.6-1.26,1.03-.38,.43-.72,.93-1.02,1.5-.3,.57-.51,1.17-.65,1.8-.14,.32-.36,.49-.68,.5h-.41c-.3,0-.44-.15-.44-.45v-.13c.19-.74,.47-1.46,.85-2.16,.38-.7,.84-1.32,1.37-1.86,.53-.54,1.12-.98,1.77-1.32,.65-.34,1.36-.51,2.12-.51,.74,0,1.39,.16,1.96,.48,.57,.32,1.03,.75,1.38,1.29,.07,.13,.14,.27,.2,.42,.06,.15,.08,.19,.05,.12,.31-.52,.78-1.04,1.42-1.55,.64-.51,1.37-.76,2.2-.76,.47,0,.93,.06,1.4,.17,.46,.11,.86,.3,1.2,.55,.34,.25,.59,.56,.75,.93,.09,.22,.13,.46,.13,.74,0,.18-.02,.38-.07,.61Z"/>
          <path class="cls-18" d="M429.68,279.7c0,1.75-.16,3.49-.47,5.23-.31,1.74-.8,3.4-1.47,4.99-.66,1.59-1.51,3.08-2.55,4.48-1.03,1.4-2.28,2.65-3.73,3.75-.14,.06-.25,.09-.33,.09h-.11c-.15,0-.28-.06-.41-.18-.07-.14-.11-.26-.11-.36,0-.14,.06-.27,.17-.39,1.19-1.09,2.2-2.31,3.03-3.67,.82-1.36,1.49-2.79,2-4.31,.51-1.52,.87-3.09,1.09-4.71,.21-1.62,.32-3.26,.32-4.91s-.11-3.25-.32-4.89c-.22-1.64-.58-3.21-1.09-4.73-.51-1.52-1.18-2.95-2-4.31-.82-1.36-1.83-2.58-3.03-3.67-.11-.11-.17-.24-.17-.39,0-.17,.04-.29,.13-.38,.11-.11,.24-.16,.39-.16h.11c.07,0,.19,.03,.33,.09,1.47,1.1,2.71,2.35,3.74,3.75,1.03,1.4,1.88,2.89,2.54,4.48,.66,1.59,1.15,3.25,1.47,4.99,.31,1.74,.47,3.48,.47,5.22Z"/>
          <line class="cls-3" x1="444.12" y1="274.21" x2="469.83" y2="274.21"/>
          <line class="cls-3" x1="444.12" y1="281.92" x2="469.83" y2="281.92"/>
          <path class="cls-18" d="M489.06,286.93c0,.6-.21,1.1-.63,1.52-.43,.41-.94,.62-1.54,.62s-1.12-.2-1.55-.62c-.43-.41-.65-.92-.65-1.52s.22-1.08,.65-1.5c.43-.41,.95-.62,1.55-.62,.6,0,1.11,.21,1.54,.62,.42,.41,.63,.91,.63,1.5Zm5.33-18.97c0,.75-.17,1.48-.52,2.17-.36,.69-.88,1.25-1.58,1.67-1.42,.92-2.56,2.08-3.43,3.48s-1.31,2.91-1.31,4.53v1.85c0,.34-.19,.5-.56,.5h-.24c-.35,0-.52-.17-.52-.5v-1.85c0-1.66,.3-3.26,.9-4.8,.59-1.54,1.51-2.9,2.72-4.09,.38-.37,.65-.81,.79-1.33,.15-.51,.21-1.06,.21-1.63,0-.62-.03-1.18-.1-1.69-.06-.51-.26-.93-.59-1.27-.41-.39-.9-.66-1.46-.81-.57-.14-1.17-.21-1.81-.22-1.03,0-1.99,.21-2.86,.64-.87,.42-1.43,.9-1.71,1.42-.11,.02-.09,.04,.05,.04,.4,0,.78,.11,1.13,.34,.5,.34,.76,.85,.76,1.54,0,.62-.2,1.09-.58,1.4-.38,.31-.83,.47-1.34,.46-.47,0-.91-.15-1.3-.46-.38-.31-.58-.78-.58-1.4,0-.79,.18-1.5,.55-2.14,.37-.64,.84-1.19,1.44-1.64,.59-.45,1.27-.8,2.04-1.04,.77-.24,1.56-.36,2.4-.36,.92,0,1.85,.09,2.79,.25,.93,.17,1.82,.53,2.64,1.07,.68,.43,1.2,.99,1.55,1.68,.36,.69,.53,1.41,.53,2.18Z"/>
        </g>
        <g class="cls-13">
          <path class="cls-18" d="M973.37,547.76c-.14,.54-.41,.94-.82,1.21-.41,.27-.83,.4-1.25,.4-.43,0-.79-.14-1.07-.41-.21-.2-.32-.46-.33-.79,0-.13,.02-.3,.07-.5,.14-.45,.35-.8,.63-1.03,.28-.23,.48-.37,.59-.4-.23-.18-.71-.27-1.44-.27-.64,0-1.21,.33-1.72,1-.5,.66-.88,1.46-1.13,2.39l-1.7,6.56c-.17,.66-.3,1.29-.39,1.88-.05,.2-.07,.38-.07,.54,0,.37,.06,.72,.18,1.06,.12,.36,.31,.65,.56,.86,.25,.22,.56,.32,.94,.32,.49,0,.97-.13,1.42-.38,.46-.26,.88-.6,1.26-1.04,.38-.44,.72-.94,1.02-1.52,.3-.58,.53-1.17,.7-1.78,.07-.31,.28-.46,.63-.47h.42c.32,0,.48,.12,.48,.36,0,.07-.02,.14-.05,.2-.17,.72-.45,1.43-.84,2.13-.39,.7-.84,1.32-1.36,1.86-.52,.54-1.1,.98-1.76,1.33-.66,.35-1.36,.52-2.11,.52s-1.42-.16-1.98-.49c-.55-.33-1-.76-1.35-1.28-.11-.13-.2-.26-.26-.4-.06-.14-.08-.16-.06-.06-.29,.49-.76,.99-1.4,1.49-.64,.5-1.38,.75-2.22,.75-.47,0-.93-.06-1.39-.18-.45-.12-.85-.3-1.19-.55s-.59-.56-.77-.92c-.09-.21-.13-.45-.13-.7,0-.18,.03-.39,.07-.63,.14-.54,.41-.94,.83-1.21,.42-.27,.84-.4,1.26-.4,.43,0,.8,.14,1.11,.41,.21,.2,.31,.47,.31,.79,0,.17-.02,.34-.07,.5-.11,.42-.31,.76-.6,1.01-.29,.26-.5,.4-.62,.42,.23,.19,.71,.28,1.42,.27,.64,0,1.22-.33,1.74-1,.52-.67,.89-1.47,1.13-2.4l1.72-6.6c.17-.62,.31-1.23,.41-1.83,.02-.19,.04-.37,.04-.54,0-.37-.05-.72-.17-1.04-.12-.36-.31-.65-.57-.87-.26-.22-.58-.33-.96-.33-.49,0-.97,.13-1.43,.39-.46,.26-.88,.6-1.26,1.03-.38,.43-.72,.93-1.02,1.5-.3,.57-.51,1.17-.65,1.8-.13,.32-.36,.49-.68,.5h-.41c-.29,0-.44-.15-.44-.45v-.13c.18-.74,.47-1.46,.85-2.16,.38-.7,.84-1.32,1.37-1.85,.53-.54,1.12-.98,1.77-1.32,.65-.34,1.36-.51,2.12-.51,.74,0,1.39,.16,1.96,.48,.57,.32,1.03,.75,1.38,1.29,.07,.13,.14,.27,.2,.42,.06,.15,.08,.19,.05,.12,.31-.52,.78-1.04,1.42-1.55,.64-.51,1.37-.76,2.2-.76,.47,0,.93,.06,1.39,.17,.46,.11,.86,.3,1.2,.55,.34,.25,.59,.56,.75,.93,.09,.22,.13,.46,.13,.74,0,.18-.02,.38-.07,.61Z"/>
        </g>
        <g class="cls-15">
          <path class="cls-18" d="M430.06,77.64c-.07,.36-.29,.54-.66,.54-.39,0-.77,.05-1.13,.14-.36,.09-.71,.24-1.04,.46-.34,.22-.65,.48-.93,.78-.28,.3-.54,.65-.78,1.03l-13.46,21.89c-.18,.33-.47,.5-.85,.48h-.35c-.45,0-.68-.19-.66-.57l-2.31-22.89c-.05-.31-.1-.55-.15-.72-.05-.17-.12-.3-.22-.37-.17-.09-.45-.15-.82-.18-.38-.02-.8-.04-1.28-.04-.18,0-.32-.06-.41-.18-.07-.07-.11-.16-.11-.27,0-.07,.02-.14,.05-.2l.06-.27c.04-.15,.12-.28,.25-.39,.13-.11,.29-.16,.47-.16,1.18,.07,2.38,.11,3.58,.11,.18,0,.38-.01,.59-.04,1.43,0,2.86-.02,4.28-.07,.17,0,.33,.06,.46,.18,.05,.1,.07,.19,.07,.27,0,.07-.02,.14-.05,.2l-.05,.27c-.04,.17-.13,.3-.27,.4-.14,.1-.29,.15-.45,.15-.43,0-.82,.02-1.18,.06-.36,.04-.71,.13-1.05,.28-.21,.11-.31,.29-.29,.54v.13c.43,3.18,.78,6.37,1.03,9.58,.26,3.21,.54,6.25,.83,9.11l10.89-17.73c.16-.25,.26-.51,.3-.79v-.09c0-.18-.04-.34-.13-.48-.27-.41-.77-.61-1.51-.61-.32,0-.48-.16-.48-.48v-.13l.07-.32c.14-.36,.38-.54,.72-.54,1.08,.05,2.17,.07,3.27,.07,.15,.02,.29,.04,.42,.04,.94,0,1.9-.03,2.88-.11,.33,0,.51,.16,.54,.48v.14l-.13,.3Z"/>
          <path class="cls-18" d="M467.71,88.55c-.13,.54-.41,.94-.82,1.21-.41,.27-.83,.4-1.25,.4-.43,0-.79-.14-1.07-.41-.21-.2-.32-.46-.33-.79,0-.13,.02-.3,.07-.5,.14-.45,.34-.8,.63-1.03,.28-.23,.48-.37,.59-.4-.23-.18-.71-.27-1.44-.27-.64,0-1.21,.33-1.72,1-.5,.66-.88,1.46-1.13,2.39l-1.7,6.56c-.17,.66-.3,1.29-.39,1.88-.05,.2-.07,.38-.07,.54,0,.37,.06,.72,.18,1.06,.12,.36,.31,.65,.55,.86,.25,.22,.56,.32,.94,.32,.49,0,.97-.13,1.42-.38,.46-.26,.88-.6,1.26-1.04,.38-.44,.72-.94,1.01-1.52,.3-.58,.53-1.17,.7-1.79,.07-.31,.28-.46,.63-.47h.42c.32,0,.48,.12,.48,.36,0,.07-.02,.14-.05,.2-.17,.72-.45,1.43-.84,2.13-.39,.7-.84,1.32-1.36,1.85-.52,.54-1.11,.98-1.76,1.33-.66,.35-1.36,.52-2.11,.52s-1.42-.16-1.98-.49c-.55-.33-1-.76-1.35-1.28-.11-.13-.2-.26-.26-.4-.06-.14-.08-.16-.06-.06-.29,.49-.76,.99-1.4,1.49-.64,.5-1.38,.75-2.22,.75-.47,0-.93-.06-1.38-.18-.46-.12-.85-.3-1.19-.55-.34-.25-.59-.56-.77-.92-.08-.21-.13-.45-.13-.7,0-.18,.03-.39,.07-.63,.14-.54,.41-.94,.83-1.21,.42-.27,.84-.4,1.25-.4,.43,0,.8,.14,1.11,.41,.21,.2,.31,.47,.31,.79,0,.17-.02,.34-.07,.5-.11,.42-.31,.76-.6,1.01-.29,.26-.5,.4-.62,.42,.23,.19,.71,.28,1.42,.27,.64,0,1.22-.33,1.74-1,.52-.67,.89-1.47,1.13-2.4l1.72-6.6c.17-.62,.31-1.23,.41-1.83,.02-.19,.04-.37,.04-.54,0-.37-.05-.72-.17-1.04-.12-.36-.31-.65-.57-.87-.26-.22-.58-.33-.96-.33-.49,0-.97,.13-1.43,.39-.46,.26-.88,.6-1.26,1.03-.38,.43-.72,.93-1.02,1.5-.3,.57-.51,1.17-.65,1.8-.13,.32-.36,.49-.68,.5h-.41c-.3,0-.44-.15-.44-.45v-.13c.18-.74,.47-1.46,.85-2.16,.38-.7,.84-1.32,1.37-1.86,.53-.54,1.12-.98,1.77-1.32s1.36-.51,2.12-.51c.74,0,1.39,.16,1.96,.48,.57,.32,1.03,.75,1.39,1.29,.07,.13,.14,.27,.2,.42,.06,.15,.08,.19,.05,.12,.31-.52,.78-1.04,1.42-1.55,.64-.51,1.37-.76,2.2-.76,.47,0,.93,.06,1.39,.17,.46,.11,.86,.3,1.2,.55,.34,.25,.59,.56,.75,.93,.09,.22,.13,.46,.13,.74,0,.18-.02,.38-.07,.61Z"/>
          <path class="cls-18" d="M446.08,108.64c-11.97-7.89-11.97-27.17,0-35.05h1.88c-10.79,7.89-10.79,27.17,0,35.05"/>
          <path class="cls-18" d="M471.56,73.59c11.97,7.89,11.97,27.17,0,35.05h-1.88c10.8-7.89,10.8-27.17,0-35.05"/>
        </g>
        <g class="cls-16">
          <path class="cls-18" d="M316.47,154.31c-.5-.61-1-1.2-1.49-1.78-.49-.58-1-1.09-1.54-1.53-.54-.44-1.1-.79-1.69-1.06-.58-.26-1.22-.39-1.91-.4-.81,0-1.56,.17-2.25,.51-.69,.34-1.29,.8-1.8,1.39s-.91,1.27-1.19,2.04c-.28,.78-.42,1.6-.42,2.45,0,.93,.14,1.82,.42,2.65,.28,.84,.68,1.57,1.2,2.2,.52,.63,1.13,1.13,1.84,1.51,.71,.38,1.48,.57,2.32,.57,.91,0,1.77-.17,2.58-.5,.81-.33,1.57-.79,2.28-1.35,.71-.57,1.37-1.23,1.98-2,.61-.76,1.14-1.53,1.6-2.3l-1.92-2.42Zm19.17,1.63c0-.93-.14-1.82-.42-2.68-.28-.85-.68-1.6-1.2-2.22-.52-.63-1.13-1.13-1.84-1.52-.71-.38-1.48-.57-2.32-.57-.94,0-1.8,.17-2.61,.51-.8,.34-1.55,.79-2.26,1.35-.71,.56-1.37,1.23-1.98,1.99-.61,.77-1.14,1.54-1.6,2.31l1.92,2.44c.48,.61,.97,1.2,1.47,1.77,.5,.57,1.01,1.07,1.54,1.51,.53,.44,1.09,.8,1.69,1.06,.6,.26,1.24,.39,1.93,.39,.81,0,1.56-.17,2.25-.51,.69-.34,1.29-.8,1.8-1.39,.51-.58,.91-1.26,1.19-2.03,.28-.76,.42-1.57,.42-2.42Zm1.2,0c0,1.1-.18,2.16-.54,3.17-.36,1.01-.86,1.91-1.51,2.7-.65,.79-1.42,1.42-2.33,1.9-.9,.48-1.92,.72-3.04,.72-.91,0-1.78-.13-2.59-.38-.82-.25-1.6-.6-2.33-1.05-.74-.45-1.43-.96-2.07-1.54-.64-.58-1.23-1.21-1.77-1.89l-1.03-1.29c-.44,.72-1,1.46-1.68,2.22-.68,.77-1.4,1.43-2.19,2.01-.78,.57-1.63,1.04-2.56,1.39-.92,.35-1.91,.53-2.97,.53s-2.09-.24-2.99-.72c-.9-.48-1.66-1.11-2.29-1.9-.63-.79-1.11-1.69-1.46-2.7-.34-1.01-.52-2.06-.52-3.17s.18-2.16,.54-3.18c.36-1.02,.85-1.93,1.49-2.71,.64-.79,1.42-1.42,2.33-1.9,.91-.48,1.93-.72,3.05-.72,1.8,0,3.44,.47,4.93,1.4,1.49,.93,2.77,2.08,3.84,3.44l1.03,1.33c.44-.72,1-1.46,1.68-2.22,.68-.76,1.41-1.44,2.19-2.03,.78-.58,1.63-1.05,2.56-1.4,.92-.35,1.91-.52,2.97-.52,1.1,0,2.09,.24,2.99,.72,.9,.48,1.66,1.11,2.29,1.9,.63,.79,1.11,1.69,1.46,2.71,.34,1.02,.52,2.08,.52,3.18Z"/>
        </g>
        <g class="cls-14">
          <path class="cls-18" d="M705.08,154.31c-.5-.61-1-1.2-1.49-1.78-.49-.58-1-1.09-1.54-1.53-.54-.44-1.1-.79-1.69-1.06-.58-.26-1.22-.39-1.91-.4-.81,0-1.56,.17-2.25,.51-.69,.34-1.29,.8-1.8,1.39-.51,.59-.91,1.27-1.19,2.04-.28,.78-.42,1.6-.42,2.45,0,.93,.14,1.82,.42,2.65,.28,.84,.68,1.57,1.2,2.2,.52,.63,1.13,1.13,1.84,1.51,.71,.38,1.48,.57,2.32,.57,.91,0,1.77-.17,2.58-.5,.81-.33,1.57-.79,2.28-1.35,.71-.57,1.37-1.23,1.98-2,.61-.76,1.14-1.53,1.6-2.3l-1.92-2.42Zm19.16,1.63c0-.93-.14-1.82-.42-2.68-.28-.85-.68-1.6-1.2-2.22-.52-.63-1.13-1.13-1.84-1.52-.71-.38-1.48-.57-2.32-.57-.94,0-1.8,.17-2.61,.51-.8,.34-1.55,.79-2.26,1.35-.71,.56-1.37,1.23-1.98,1.99-.61,.77-1.14,1.54-1.6,2.31l1.92,2.44c.48,.61,.97,1.2,1.47,1.77,.5,.57,1.01,1.07,1.54,1.51,.53,.44,1.09,.8,1.69,1.06,.6,.26,1.24,.39,1.93,.39,.81,0,1.56-.17,2.25-.51,.69-.34,1.29-.8,1.8-1.39,.51-.58,.91-1.26,1.19-2.03,.28-.76,.42-1.57,.42-2.42Zm1.2,0c0,1.1-.18,2.16-.54,3.17-.36,1.01-.86,1.91-1.51,2.7-.65,.79-1.42,1.42-2.33,1.9-.9,.48-1.92,.72-3.04,.72-.91,0-1.78-.13-2.6-.38-.82-.25-1.6-.6-2.33-1.05-.74-.45-1.43-.96-2.07-1.54-.64-.58-1.23-1.21-1.77-1.89l-1.03-1.29c-.44,.72-1,1.46-1.68,2.22-.68,.77-1.4,1.43-2.19,2.01-.78,.57-1.63,1.04-2.56,1.39-.92,.35-1.91,.53-2.97,.53s-2.09-.24-2.99-.72c-.9-.48-1.66-1.11-2.29-1.9-.63-.79-1.11-1.69-1.46-2.7-.34-1.01-.52-2.06-.52-3.17s.18-2.16,.54-3.18c.36-1.02,.85-1.93,1.49-2.71,.64-.79,1.42-1.42,2.33-1.9,.91-.48,1.93-.72,3.05-.72,1.8,0,3.44,.47,4.93,1.4s2.77,2.08,3.84,3.44l1.03,1.33c.44-.72,1-1.46,1.68-2.22,.68-.76,1.41-1.44,2.19-2.03,.78-.58,1.63-1.05,2.56-1.4,.92-.35,1.91-.52,2.97-.52,1.1,0,2.09,.24,2.99,.72,.9,.48,1.66,1.11,2.29,1.9,.63,.79,1.11,1.69,1.46,2.71,.34,1.02,.52,2.08,.52,3.18Z"/>
        </g>
      </g>
    </g>
  </g>
</svg>